<svg xmlns="http://www.w3.org/2000/svg" width="32" height="33" viewBox="0 0 32 33" fill="none">
  <path d="M12.7071 8.90523C13.0976 8.5147 13.0976 7.88154 12.7071 7.49101C12.3166 7.10049 11.6834 7.10049 11.2929 7.49101L3.29289 15.491C3.10536 15.6786 3 15.9329 3 16.1981C3 16.4633 3.10536 16.7177 3.29289 16.9052L11.2929 24.9052C11.6834 25.2958 12.3166 25.2958 12.7071 24.9052C13.0976 24.5147 13.0976 23.8815 12.7071 23.491L6.41421 17.1981L28 17.1981C28.5523 17.1981 29 16.7504 29 16.1981C29 15.6458 28.5523 15.1981 28 15.1981L6.41422 15.1981L12.7071 8.90523Z" fill="#333D47"/>
</svg>