<svg xmlns="http://www.w3.org/2000/svg" width="32" height="33" viewBox="0 0 32 33" fill="none">
  <path d="M19.2929 23.491C18.9024 23.8815 18.9024 24.5147 19.2929 24.9052C19.6834 25.2958 20.3166 25.2958 20.7071 24.9052L28.7071 16.9052C28.8946 16.7177 29 16.4633 29 16.1981C29 15.9329 28.8946 15.6785 28.7071 15.491L20.7071 7.49101C20.3166 7.10049 19.6834 7.10049 19.2929 7.49101C18.9024 7.88154 18.9024 8.5147 19.2929 8.90523L25.5858 15.1981L4 15.1981C3.44771 15.1981 3 15.6458 3 16.1981C3 16.7504 3.44771 17.1981 4 17.1981L25.5858 17.1981L19.2929 23.491Z" fill="#333D47"/>
</svg>