<svg xmlns="http://www.w3.org/2000/svg" width="32" height="33" viewBox="0 0 32 33" fill="none">
  <path d="M23.2929 12.9052C23.6834 13.2958 24.3166 13.2958 24.7071 12.9052C25.0976 12.5147 25.0976 11.8815 24.7071 11.491L16.7071 3.49101C16.5196 3.30348 16.2652 3.19812 16 3.19812C15.7348 3.19812 15.4804 3.30348 15.2929 3.49101L7.29289 11.491C6.90237 11.8815 6.90237 12.5147 7.29289 12.9052C7.68342 13.2958 8.31658 13.2958 8.70711 12.9052L15 6.61233L15 28.1981C15 28.7504 15.4477 29.1981 16 29.1981C16.5523 29.1981 17 28.7504 17 28.1981L17 6.61234L23.2929 12.9052Z" fill="#333D47"/>
</svg>