<svg xmlns="http://www.w3.org/2000/svg" width="32" height="33" viewBox="0 0 32 33" fill="none">
  <path d="M8.70711 19.491C8.31658 19.1005 7.68342 19.1005 7.29289 19.491C6.90237 19.8815 6.90237 20.5147 7.29289 20.9052L15.2929 28.9052C15.4804 29.0928 15.7348 29.1981 16 29.1981C16.2652 29.1981 16.5196 29.0928 16.7071 28.9052L24.7071 20.9052C25.0976 20.5147 25.0976 19.8815 24.7071 19.491C24.3166 19.1005 23.6834 19.1005 23.2929 19.491L17 25.7839L17 4.19812C17 3.64583 16.5523 3.19812 16 3.19812C15.4477 3.19812 15 3.64583 15 4.19812L15 25.7839L8.70711 19.491Z" fill="#333D47"/>
</svg>