<svg xmlns="http://www.w3.org/2000/svg" width="32" height="33" viewBox="0 0 32 33" fill="none">
  <path fill-rule="evenodd" clip-rule="evenodd" d="M20.713 24.906C21.1035 24.5155 21.1035 23.8823 20.713 23.4918L13.4201 16.1989L20.713 8.90602C21.1035 8.51549 21.1035 7.88233 20.713 7.49181C20.3224 7.10128 19.6893 7.10128 19.2988 7.49181L11.2988 15.4918C10.9082 15.8823 10.9082 16.5155 11.2988 16.906L19.2988 24.906C19.6893 25.2965 20.3224 25.2965 20.713 24.906Z" fill="#333D47"/>
  <path fill-rule="evenodd" clip-rule="evenodd" d="M18.9452 25.2596C19.531 25.8454 20.4807 25.8454 21.0665 25.2596C21.6523 24.6738 21.6523 23.724 21.0665 23.1383L14.1272 16.1989L21.0665 9.25957C21.6523 8.67379 21.6523 7.72404 21.0665 7.13825C20.4807 6.55247 19.531 6.55247 18.9452 7.13825L10.9452 15.1383C10.3594 15.724 10.3594 16.6738 10.9452 17.2596L18.9452 25.2596ZM20.3594 24.5525C20.1641 24.7477 19.8476 24.7477 19.6523 24.5525L11.6523 16.5525C11.457 16.3572 11.457 16.0406 11.6523 15.8454L19.6523 7.84536C19.8476 7.6501 20.1641 7.6501 20.3594 7.84536C20.5547 8.04062 20.5547 8.3572 20.3594 8.55247L13.0665 15.8454C12.8713 16.0406 12.8713 16.3572 13.0665 16.5525L20.3594 23.8454C20.5547 24.0406 20.5547 24.3572 20.3594 24.5525Z" fill="#333D47"/>
</svg>