<svg xmlns="http://www.w3.org/2000/svg" width="32" height="33" viewBox="0 0 32 33" fill="none">
  <path fill-rule="evenodd" clip-rule="evenodd" d="M7.29289 20.905C7.68342 21.2956 8.31658 21.2956 8.70711 20.905L16 13.6122L23.2929 20.905C23.6834 21.2956 24.3166 21.2956 24.7071 20.905C25.0976 20.5145 25.0976 19.8814 24.7071 19.4908L16.7071 11.4908C16.3166 11.1003 15.6834 11.1003 15.2929 11.4908L7.29289 19.4908C6.90237 19.8814 6.90237 20.5145 7.29289 20.905Z" fill="#333D47"/>
  <path fill-rule="evenodd" clip-rule="evenodd" d="M6.93934 19.1373C6.35355 19.7231 6.35355 20.6728 6.93934 21.2586C7.52513 21.8444 8.47487 21.8444 9.06066 21.2586L16 14.3193L22.9393 21.2586C23.5251 21.8444 24.4749 21.8444 25.0607 21.2586C25.6464 20.6728 25.6464 19.7231 25.0607 19.1373L17.0607 11.1373C16.4749 10.5515 15.5251 10.5515 14.9393 11.1373L6.93934 19.1373ZM7.64645 20.5515C7.45118 20.3562 7.45118 20.0396 7.64645 19.8444L15.6464 11.8444C15.8417 11.6491 16.1583 11.6491 16.3536 11.8444L24.3536 19.8444C24.5488 20.0396 24.5488 20.3562 24.3536 20.5515C24.1583 20.7468 23.8417 20.7468 23.6464 20.5515L16.3536 13.2586C16.1583 13.0633 15.8417 13.0633 15.6464 13.2586L8.35355 20.5515C8.15829 20.7468 7.84171 20.7468 7.64645 20.5515Z" fill="#333D47"/>
</svg>