<svg xmlns="http://www.w3.org/2000/svg" width="32" height="33" viewBox="0 0 32 33" fill="none">
  <path fill-rule="evenodd" clip-rule="evenodd" d="M24.7137 11.4917C24.3232 11.1012 23.69 11.1012 23.2995 11.4917L16.0066 18.7846L8.7137 11.4917C8.32317 11.1012 7.69001 11.1012 7.29948 11.4917C6.90896 11.8823 6.90896 12.5154 7.29948 12.906L15.2995 20.906C15.69 21.2965 16.3232 21.2965 16.7137 20.906L24.7137 12.906C25.1042 12.5154 25.1042 11.8823 24.7137 11.4917Z" fill="#333D47"/>
  <path fill-rule="evenodd" clip-rule="evenodd" d="M25.0673 13.2595C25.653 12.6737 25.653 11.724 25.0673 11.1382C24.4815 10.5524 23.5317 10.5524 22.9459 11.1382L16.0066 18.0775L9.06725 11.1382C8.48146 10.5524 7.53172 10.5524 6.94593 11.1382C6.36015 11.724 6.36014 12.6737 6.94593 13.2595L14.9459 21.2595C15.5317 21.8453 16.4815 21.8453 17.0673 21.2595L25.0673 13.2595ZM24.3601 11.8453C24.5554 12.0406 24.5554 12.3571 24.3601 12.5524L16.3601 20.5524C16.1649 20.7477 15.8483 20.7477 15.653 20.5524L7.65304 12.5524C7.45778 12.3571 7.45778 12.0406 7.65304 11.8453C7.8483 11.65 8.16488 11.65 8.36014 11.8453L15.653 19.1382C15.8483 19.3335 16.1649 19.3335 16.3601 19.1382L23.653 11.8453C23.8483 11.65 24.1649 11.65 24.3601 11.8453Z" fill="#333D47"/>
</svg>