<svg xmlns="http://www.w3.org/2000/svg" width="32" height="33" viewBox="0 0 32 33" fill="none">
  <path fill-rule="evenodd" clip-rule="evenodd" d="M16 30.1981C23.732 30.1981 30 23.9301 30 16.1981C30 8.46613 23.732 2.19812 16 2.19812C8.26801 2.19812 2 8.46613 2 16.1981C2 23.9301 8.26801 30.1981 16 30.1981ZM16 28.1981C22.6274 28.1981 28 22.8255 28 16.1981C28 9.5707 22.6274 4.19812 16 4.19812C9.37258 4.19812 4 9.5707 4 16.1981C4 22.8255 9.37258 28.1981 16 28.1981Z" fill="#333D47"/>
  <path d="M16.2929 20.491C15.9024 20.8815 15.9024 21.5147 16.2929 21.9052C16.6834 22.2958 17.3166 22.2958 17.7071 21.9052L22.7071 16.9052C22.8946 16.7177 23 16.4633 23 16.1981C23 15.9329 22.8946 15.6785 22.7071 15.491L17.7071 10.491C17.3166 10.1005 16.6834 10.1005 16.2929 10.491C15.9024 10.8815 15.9024 11.5147 16.2929 11.9052L19.5858 15.1981L10 15.1981C9.44775 15.1981 9.00003 15.6458 9.00003 16.1981C9.00003 16.7504 9.44775 17.1981 10 17.1981L19.5858 17.1981L16.2929 20.491Z" fill="#333D47"/>
</svg>