<svg xmlns="http://www.w3.org/2000/svg" width="32" height="33" viewBox="0 0 32 33" fill="none">
  <path fill-rule="evenodd" clip-rule="evenodd" d="M16 30.1981C23.732 30.1981 30 23.9301 30 16.1981C30 8.46613 23.732 2.19812 16 2.19812C8.26801 2.19812 2 8.46613 2 16.1981C2 23.9301 8.26801 30.1981 16 30.1981ZM19.2929 18.4052C19.6834 18.7958 20.3166 18.7958 20.7071 18.4052C21.0976 18.0147 21.0976 17.3815 20.7071 16.991L16.7071 12.991C16.5196 12.8035 16.2652 12.6981 16 12.6981C15.7348 12.6981 15.4804 12.8035 15.2929 12.991L11.2929 16.991C10.9024 17.3815 10.9024 18.0147 11.2929 18.4052C11.6834 18.7958 12.3166 18.7958 12.7071 18.4052L16 15.1123L19.2929 18.4052Z" fill="#333D47"/>
</svg>