<svg xmlns="http://www.w3.org/2000/svg" width="32" height="33" viewBox="0 0 32 33" fill="none">
  <path fill-rule="evenodd" clip-rule="evenodd" d="M30 16.1981C30 8.46613 23.732 2.19812 16 2.19812C8.26801 2.19812 2 8.46613 2 16.1981C2 23.9301 8.26801 30.1981 16 30.1981C23.732 30.1981 30 23.9301 30 16.1981ZM18.2071 12.9052C18.5976 12.5147 18.5976 11.8815 18.2071 11.491C17.8166 11.1005 17.1834 11.1005 16.7929 11.491L12.7929 15.491C12.6054 15.6785 12.5 15.9329 12.5 16.1981C12.5 16.4633 12.6054 16.7177 12.7929 16.9052L16.7929 20.9052C17.1834 21.2958 17.8166 21.2958 18.2071 20.9052C18.5976 20.5147 18.5976 19.8815 18.2071 19.491L14.9142 16.1981L18.2071 12.9052Z" fill="#333D47"/>
</svg>