<svg xmlns="http://www.w3.org/2000/svg" width="32" height="33" viewBox="0 0 32 33" fill="none">
  <path fill-rule="evenodd" clip-rule="evenodd" d="M2 16.1981C2 23.9301 8.26801 30.1981 16 30.1981C23.732 30.1981 30 23.9301 30 16.1981C30 8.46613 23.732 2.19812 16 2.19812C8.26801 2.19812 2 8.46614 2 16.1981ZM4 16.1981C4 22.8255 9.37258 28.1981 16 28.1981C22.6274 28.1981 28 22.8255 28 16.1981C28 9.5707 22.6274 4.19812 16 4.19812C9.37258 4.19812 4 9.5707 4 16.1981Z" fill="#333D47"/>
  <path d="M11.7071 16.491C11.3166 16.1005 10.6834 16.1005 10.2929 16.491C9.90237 16.8815 9.90237 17.5147 10.2929 17.9052L15.2929 22.9052C15.4804 23.0928 15.7348 23.1981 16 23.1981C16.2652 23.1981 16.5196 23.0928 16.7071 22.9052L21.7071 17.9052C22.0976 17.5147 22.0976 16.8815 21.7071 16.491C21.3166 16.1005 20.6834 16.1005 20.2929 16.491L17 19.7839L17 10.1982C17 9.64587 16.5523 9.19815 16 9.19815C15.4477 9.19815 15 9.64587 15 10.1982L15 19.7839L11.7071 16.491Z" fill="#333D47"/>
</svg>