<svg xmlns="http://www.w3.org/2000/svg" width="32" height="33" viewBox="0 0 32 33" fill="none">
  <path fill-rule="evenodd" clip-rule="evenodd" d="M16 2.19812C8.26801 2.19812 2 8.46613 2 16.1981C2 23.9301 8.26801 30.1981 16 30.1981C23.732 30.1981 30 23.9301 30 16.1981C30 8.46613 23.732 2.19812 16 2.19812ZM16 4.19812C9.37258 4.19812 4 9.5707 4 16.1981C4 22.8255 9.37258 28.1981 16 28.1981C22.6274 28.1981 28 22.8255 28 16.1981C28 9.5707 22.6274 4.19812 16 4.19812Z" fill="#333D47"/>
  <path d="M15.7071 11.9052C16.0976 11.5147 16.0976 10.8815 15.7071 10.491C15.3166 10.1005 14.6834 10.1005 14.2929 10.491L9.29289 15.491C9.10536 15.6785 9 15.9329 9 16.1981C9 16.4633 9.10536 16.7177 9.29289 16.9052L14.2929 21.9052C14.6834 22.2958 15.3166 22.2958 15.7071 21.9052C16.0976 21.5147 16.0976 20.8815 15.7071 20.491L12.4142 17.1981L22 17.1981C22.5523 17.1981 23 16.7504 23 16.1981C23 15.6458 22.5523 15.1981 22 15.1981L12.4142 15.1981L15.7071 11.9052Z" fill="#333D47"/>
</svg>