<svg xmlns="http://www.w3.org/2000/svg" width="32" height="33" viewBox="0 0 32 33" fill="none">
  <path fill-rule="evenodd" clip-rule="evenodd" d="M4 16.1981C4 22.8255 9.37258 28.1981 16 28.1981C22.6274 28.1981 28 22.8255 28 16.1981C28 9.5707 22.6274 4.19812 16 4.19812C9.37258 4.19812 4 9.5707 4 16.1981ZM2 16.1981C2 23.9301 8.26801 30.1981 16 30.1981C23.732 30.1981 30 23.9301 30 16.1981C30 8.46613 23.732 2.19812 16 2.19812C8.26801 2.19812 2 8.46613 2 16.1981Z" fill="#333D47"/>
  <path fill-rule="evenodd" clip-rule="evenodd" d="M13.7929 20.9052C13.4024 20.5147 13.4024 19.8815 13.7929 19.491L17.0858 16.1981L13.7929 12.9052C13.4024 12.5147 13.4024 11.8815 13.7929 11.491C14.1834 11.1005 14.8166 11.1005 15.2071 11.491L19.2071 15.491C19.3946 15.6785 19.5 15.9329 19.5 16.1981C19.5 16.4633 19.3946 16.7177 19.2071 16.9052L15.2071 20.9052C14.8166 21.2958 14.1834 21.2958 13.7929 20.9052Z" fill="#333D47"/>
</svg>