<svg xmlns="http://www.w3.org/2000/svg" width="32" height="33" viewBox="0 0 32 33" fill="none">
  <path fill-rule="evenodd" clip-rule="evenodd" d="M30 16.1981C30 23.9301 23.732 30.1981 16 30.1981C8.26801 30.1981 2 23.9301 2 16.1981C2 8.46613 8.26801 2.19812 16 2.19812C23.732 2.19812 30 8.46613 30 16.1981ZM16.2929 21.9052C15.9024 21.5147 15.9024 20.8815 16.2929 20.491L19.5858 17.1981L10 17.1981C9.44774 17.1981 9.00003 16.7504 9.00003 16.1981C9.00003 15.6458 9.44774 15.1981 10 15.1981L19.5858 15.1981L16.2929 11.9052C15.9024 11.5147 15.9024 10.8815 16.2929 10.491C16.6834 10.1005 17.3166 10.1005 17.7071 10.491L22.7071 15.491C22.8946 15.6785 23 15.9329 23 16.1981C23 16.4633 22.8946 16.7177 22.7071 16.9052L17.7071 21.9052C17.3166 22.2958 16.6834 22.2958 16.2929 21.9052Z" fill="#333D47"/>
</svg>