<svg xmlns="http://www.w3.org/2000/svg" width="32" height="33" viewBox="0 0 32 33" fill="none">
  <path fill-rule="evenodd" clip-rule="evenodd" d="M30 16.1981C30 8.46613 23.732 2.19812 16 2.19812C8.26801 2.19812 2 8.46613 2 16.1981C2 23.9301 8.26801 30.1981 16 30.1981C23.732 30.1981 30 23.9301 30 16.1981ZM28 16.1981C28 9.5707 22.6274 4.19812 16 4.19812C9.37258 4.19812 4 9.5707 4 16.1981C4 22.8255 9.37258 28.1981 16 28.1981C22.6274 28.1981 28 22.8255 28 16.1981Z" fill="#333D47"/>
  <path d="M20.2929 15.9052C20.6834 16.2958 21.3166 16.2958 21.7071 15.9052C22.0976 15.5147 22.0976 14.8815 21.7071 14.491L16.7071 9.49101C16.5196 9.30348 16.2652 9.19812 16 9.19812C15.7348 9.19812 15.4804 9.30348 15.2929 9.49101L10.2929 14.491C9.90237 14.8815 9.90237 15.5147 10.2929 15.9052C10.6834 16.2958 11.3166 16.2958 11.7071 15.9052L15 12.6123L15 22.1981C15 22.7504 15.4477 23.1981 16 23.1981C16.5523 23.1981 17 22.7504 17 22.1981L17 12.6123L20.2929 15.9052Z" fill="#333D47"/>
</svg>