<svg xmlns="http://www.w3.org/2000/svg" width="32" height="33" viewBox="0 0 32 33" fill="none">
  <path fill-rule="evenodd" clip-rule="evenodd" d="M2 16.1981C2 8.46614 8.26801 2.19812 16 2.19812C23.732 2.19812 30 8.46613 30 16.1981C30 23.9301 23.732 30.1981 16 30.1981C8.26801 30.1981 2 23.9301 2 16.1981ZM15.7071 10.491C16.0976 10.8815 16.0976 11.5147 15.7071 11.9052L12.4142 15.1981L22 15.1981C22.5523 15.1981 23 15.6458 23 16.1981C23 16.7504 22.5523 17.1981 22 17.1981L12.4142 17.1981L15.7071 20.491C16.0976 20.8815 16.0976 21.5147 15.7071 21.9052C15.3166 22.2958 14.6834 22.2958 14.2929 21.9052L9.29289 16.9052C9.10536 16.7177 9 16.4633 9 16.1981C9 15.9329 9.10536 15.6785 9.29289 15.491L14.2929 10.491C14.6834 10.1005 15.3166 10.1005 15.7071 10.491Z" fill="#333D47"/>
</svg>