<svg xmlns="http://www.w3.org/2000/svg" width="32" height="33" viewBox="0 0 32 33" fill="none">
  <path fill-rule="evenodd" clip-rule="evenodd" d="M16 4.19812C9.37258 4.19812 4 9.5707 4 16.1981C4 22.8255 9.37258 28.1981 16 28.1981C22.6274 28.1981 28 22.8255 28 16.1981C28 9.5707 22.6274 4.19812 16 4.19812ZM16 2.19812C8.26801 2.19812 2 8.46613 2 16.1981C2 23.9301 8.26801 30.1981 16 30.1981C23.732 30.1981 30 23.9301 30 16.1981C30 8.46613 23.732 2.19812 16 2.19812Z" fill="#333D47"/>
  <path fill-rule="evenodd" clip-rule="evenodd" d="M11.2929 13.991C11.6834 13.6005 12.3166 13.6005 12.7071 13.991L16 17.2839L19.2929 13.991C19.6834 13.6005 20.3166 13.6005 20.7071 13.991C21.0976 14.3815 21.0976 15.0147 20.7071 15.4052L16.7071 19.4052C16.5196 19.5928 16.2652 19.6981 16 19.6981C15.7348 19.6981 15.4804 19.5928 15.2929 19.4052L11.2929 15.4052C10.9024 15.0147 10.9024 14.3815 11.2929 13.991Z" fill="#333D47"/>
</svg>