<svg xmlns="http://www.w3.org/2000/svg" width="32" height="33" viewBox="0 0 32 33" fill="none">
  <path fill-rule="evenodd" clip-rule="evenodd" d="M16 2.19812C23.732 2.19812 30 8.46613 30 16.1981C30 23.9301 23.732 30.1981 16 30.1981C8.26801 30.1981 2 23.9301 2 16.1981C2 8.46613 8.26801 2.19812 16 2.19812ZM21.7071 15.9052C21.3166 16.2958 20.6834 16.2958 20.2929 15.9052L17 12.6123L17 22.1981C17 22.7504 16.5523 23.1981 16 23.1981C15.4477 23.1981 15 22.7504 15 22.1981L15 12.6123L11.7071 15.9052C11.3166 16.2958 10.6834 16.2958 10.2929 15.9052C9.90237 15.5147 9.90237 14.8815 10.2929 14.491L15.2929 9.49101C15.4804 9.30348 15.7348 9.19812 16 9.19812C16.2652 9.19812 16.5196 9.30348 16.7071 9.49101L21.7071 14.491C22.0976 14.8815 22.0976 15.5147 21.7071 15.9052Z" fill="#333D47"/>
</svg>