<svg xmlns="http://www.w3.org/2000/svg" width="32" height="33" viewBox="0 0 32 33" fill="none">
  <path fill-rule="evenodd" clip-rule="evenodd" d="M16 2.19812C8.26801 2.19812 2 8.46613 2 16.1981C2 23.9301 8.26801 30.1981 16 30.1981C23.732 30.1981 30 23.9301 30 16.1981C30 8.46613 23.732 2.19812 16 2.19812ZM12.7071 13.991C12.3166 13.6005 11.6834 13.6005 11.2929 13.991C10.9024 14.3815 10.9024 15.0147 11.2929 15.4052L15.2929 19.4052C15.4804 19.5928 15.7348 19.6981 16 19.6981C16.2652 19.6981 16.5196 19.5928 16.7071 19.4052L20.7071 15.4052C21.0976 15.0147 21.0976 14.3815 20.7071 13.991C20.3166 13.6005 19.6834 13.6005 19.2929 13.991L16 17.2839L12.7071 13.991Z" fill="#333D47"/>
</svg>