<svg width="32" height="33" viewBox="0 0 32 33" fill="none" xmlns="http://www.w3.org/2000/svg">
<path fill-rule="evenodd" clip-rule="evenodd" d="M22.7071 24.9052C23.0976 24.5147 23.0976 23.8815 22.7071 23.491L15.4142 16.1981L22.7071 8.90523C23.0976 8.5147 23.0976 7.88154 22.7071 7.49101C22.3166 7.10049 21.6834 7.10049 21.2929 7.49101L13.2929 15.491C12.9024 15.8815 12.9024 16.5147 13.2929 16.9052L21.2929 24.9052C21.6834 25.2958 22.3166 25.2958 22.7071 24.9052Z" fill="#333D47"/>
<path d="M11 24.1981C11 24.7504 10.5523 25.1981 10 25.1981C9.44772 25.1981 9 24.7504 9 24.1981L9 8.19812C9 7.64583 9.44772 7.19812 10 7.19812C10.5523 7.19812 11 7.64583 11 8.19812L11 24.1981Z" fill="#333D47"/>
</svg>
