<svg width="32" height="33" viewBox="0 0 32 33" fill="none" xmlns="http://www.w3.org/2000/svg">
<path fill-rule="evenodd" clip-rule="evenodd" d="M8.29289 7.49101C7.90237 7.88154 7.90237 8.5147 8.29289 8.90523L15.5858 16.1981L8.29289 23.491C7.90237 23.8815 7.90237 24.5147 8.29289 24.9052C8.68342 25.2958 9.31658 25.2958 9.70711 24.9052L17.7071 16.9052C18.0976 16.5147 18.0976 15.8815 17.7071 15.491L9.70711 7.49101C9.31658 7.10049 8.68342 7.10049 8.29289 7.49101Z" fill="#333D47"/>
<path d="M22 24.1981C22 24.7504 21.5523 25.1981 21 25.1981C20.4477 25.1981 20 24.7504 20 24.1981L20 8.19812C20 7.64583 20.4477 7.19812 21 7.19812C21.5523 7.19812 22 7.64583 22 8.19812L22 24.1981Z" fill="#333D47"/>
</svg>
