<svg width="32" height="33" viewBox="0 0 32 33" fill="none" xmlns="http://www.w3.org/2000/svg">
<path d="M27 11.1981C27 11.7504 27.4477 12.1981 28 12.1981C28.5523 12.1981 29 11.7504 29 11.1981V4.19812C29 3.64584 28.5523 3.19812 28 3.19812H21C20.4477 3.19812 20 3.64584 20 4.19812C20 4.75041 20.4477 5.19812 21 5.19812H25.5858L19.2929 11.491C18.9024 11.8815 18.9024 12.5147 19.2929 12.9052C19.6834 13.2958 20.3166 13.2958 20.7071 12.9052L27 6.61233V11.1981Z" fill="#333D47"/>
<path d="M5 21.1981C5 20.6458 4.55229 20.1981 4 20.1981C3.44772 20.1981 3 20.6458 3 21.1981V28.1981C3 28.7504 3.44772 29.1981 4 29.1981H11C11.5523 29.1981 12 28.7504 12 28.1981C12 27.6458 11.5523 27.1981 11 27.1981H6.41421L12.7071 20.9052C13.0976 20.5147 13.0976 19.8815 12.7071 19.491C12.3166 19.1005 11.6834 19.1005 11.2929 19.491L5 25.7839V21.1981Z" fill="#333D47"/>
<path d="M12 4.19812C12 4.75041 11.5523 5.19812 11 5.19812L6.41421 5.19812L12.7071 11.491C13.0976 11.8815 13.0976 12.5147 12.7071 12.9052C12.3166 13.2958 11.6834 13.2958 11.2929 12.9052L5 6.61233L5 11.1981C5 11.7504 4.55228 12.1981 4 12.1981C3.44771 12.1981 3 11.7504 3 11.1981V4.19812C3 3.64584 3.44772 3.19812 4 3.19812H11C11.5523 3.19812 12 3.64584 12 4.19812Z" fill="#333D47"/>
<path d="M21 27.1981C20.4477 27.1981 20 27.6458 20 28.1981C20 28.7504 20.4477 29.1981 21 29.1981H28C28.5523 29.1981 29 28.7504 29 28.1981V21.1981C29 20.6458 28.5523 20.1981 28 20.1981C27.4477 20.1981 27 20.6458 27 21.1981V25.7839L20.7071 19.491C20.3166 19.1005 19.6834 19.1005 19.2929 19.491C18.9024 19.8815 18.9024 20.5147 19.2929 20.9052L25.5858 27.1981H21Z" fill="#333D47"/>
</svg>
