<svg width="32" height="33" viewBox="0 0 32 33" fill="none" xmlns="http://www.w3.org/2000/svg">
<path fill-rule="evenodd" clip-rule="evenodd" d="M4 19.1981C4.55229 19.1981 5 19.6458 5 20.1981V27.1981H12C12.5523 27.1981 13 27.6458 13 28.1981C13 28.7504 12.5523 29.1981 12 29.1981H4C3.44772 29.1981 3 28.7504 3 28.1981V20.1981C3 19.6458 3.44772 19.1981 4 19.1981Z" fill="#333D47"/>
<path fill-rule="evenodd" clip-rule="evenodd" d="M28 13.1981C27.4477 13.1981 27 12.7504 27 12.1981V5.19812H20C19.4477 5.19812 19 4.75041 19 4.19812C19 3.64584 19.4477 3.19812 20 3.19812H28C28.5523 3.19812 29 3.64584 29 4.19812V12.1981C29 12.7504 28.5523 13.1981 28 13.1981Z" fill="#333D47"/>
<path fill-rule="evenodd" clip-rule="evenodd" d="M13 4.19812C13 4.75041 12.5523 5.19812 12 5.19812L5 5.19812L5 12.1981C5 12.7504 4.55228 13.1981 4 13.1981C3.44771 13.1981 3 12.7504 3 12.1981L3 4.19812C3 3.64584 3.44772 3.19812 4 3.19812L12 3.19812C12.5523 3.19812 13 3.64584 13 4.19812Z" fill="#333D47"/>
<path fill-rule="evenodd" clip-rule="evenodd" d="M19 28.1981C19 27.6458 19.4477 27.1981 20 27.1981H27V20.1981C27 19.6458 27.4477 19.1981 28 19.1981C28.5523 19.1981 29 19.6458 29 20.1981V28.1981C29 28.7504 28.5523 29.1981 28 29.1981H20C19.4477 29.1981 19 28.7504 19 28.1981Z" fill="#333D47"/>
</svg>
