<svg width="32" height="33" viewBox="0 0 32 33" fill="none" xmlns="http://www.w3.org/2000/svg">
<path fill-rule="evenodd" clip-rule="evenodd" d="M25.5859 5.19812H20.0002C19.4479 5.19812 19.0002 4.75041 19.0002 4.19812C19.0002 3.64584 19.4479 3.19812 20.0002 3.19812H28.0002C28.2654 3.19812 28.5197 3.30348 28.7073 3.49101C28.8948 3.67855 29.0002 3.9329 29.0002 4.19812L29.0001 12.1981C29.0001 12.7504 28.5524 13.1981 28.0001 13.1981C27.4479 13.1981 27.0001 12.7504 27.0001 12.1981L27.0002 6.61226L18.7072 14.9052C18.3167 15.2958 17.6835 15.2958 17.293 14.9052C16.9024 14.5147 16.9024 13.8815 17.293 13.491L25.5859 5.19812Z" fill="#333D47"/>
<path fill-rule="evenodd" clip-rule="evenodd" d="M12 29.1981H4C3.73478 29.1981 3.48043 29.0928 3.29289 28.9052C3.10536 28.7177 3 28.4633 3 28.1981L3 20.1981C3 19.6458 3.44772 19.1981 4 19.1981C4.55229 19.1981 5 19.6458 5 20.1981L5 25.784L13.293 17.491C13.6835 17.1005 14.3167 17.1005 14.7072 17.491C15.0977 17.8815 15.0977 18.5147 14.7072 18.9052L6.41429 27.1981H12C12.5523 27.1981 13 27.6458 13 28.1981C13 28.7504 12.5523 29.1981 12 29.1981Z" fill="#333D47"/>
</svg>
