<svg width="32" height="33" viewBox="0 0 32 33" fill="none" xmlns="http://www.w3.org/2000/svg">
<path d="M22.2929 3.49101C21.9024 3.88154 21.9024 4.5147 22.2929 4.90523L25.5858 8.19812H9C5.68629 8.19812 3 10.8844 3 14.1981V15.1981C3 15.7504 3.44772 16.1981 4 16.1981C4.55228 16.1981 5 15.7504 5 15.1981V14.1981C5 11.989 6.79086 10.1981 9 10.1981H25.5858L22.2929 13.491C21.9024 13.8815 21.9024 14.5147 22.2929 14.9052C22.6834 15.2957 23.3166 15.2957 23.7071 14.9052L28.7071 9.90523C28.8946 9.71769 29 9.46334 29 9.19812C29 8.9329 28.8946 8.67855 28.7071 8.49101L23.7071 3.49101C23.3166 3.10049 22.6834 3.10049 22.2929 3.49101Z" fill="#333D47"/>
<path d="M28 16.1981C27.4477 16.1981 27 16.6458 27 17.1981V18.1981C27 20.4073 25.2091 22.1981 23 22.1981H6.41422L9.70711 18.9052C10.0976 18.5147 10.0976 17.8815 9.70711 17.491C9.31658 17.1005 8.68342 17.1005 8.29289 17.491L3.29289 22.491C3.10536 22.6786 3 22.9329 3 23.1981C3 23.4633 3.10536 23.7177 3.29289 23.9052L8.29289 28.9052C8.68342 29.2958 9.31658 29.2957 9.70711 28.9052C10.0976 28.5147 10.0976 27.8815 9.70711 27.491L6.41421 24.1981H23C26.3137 24.1981 29 21.5118 29 18.1981V17.1981C29 16.6458 28.5523 16.1981 28 16.1981Z" fill="#333D47"/>
</svg>
