<svg width="32" height="33" viewBox="0 0 32 33" fill="none" xmlns="http://www.w3.org/2000/svg">
<path fill-rule="evenodd" clip-rule="evenodd" d="M12 29.1981C11.4477 29.1981 11 28.7504 11 28.1981V21.1981H4C3.44771 21.1981 3 20.7504 3 20.1981C3 19.6458 3.44771 19.1981 4 19.1981H12C12.5523 19.1981 13 19.6458 13 20.1981V28.1981C13 28.7504 12.5523 29.1981 12 29.1981Z" fill="#333D47"/>
<path fill-rule="evenodd" clip-rule="evenodd" d="M20 3.19812C20.5523 3.19812 21 3.64584 21 4.19812V11.1981H28C28.5523 11.1981 29 11.6458 29 12.1981C29 12.7504 28.5523 13.1981 28 13.1981H20C19.4477 13.1981 19 12.7504 19 12.1981V4.19812C19 3.64584 19.4477 3.19812 20 3.19812Z" fill="#333D47"/>
<path fill-rule="evenodd" clip-rule="evenodd" d="M3 12.1981C3 11.6458 3.44772 11.1981 4 11.1981H11L11 4.19812C11 3.64584 11.4477 3.19812 12 3.19812C12.5523 3.19812 13 3.64584 13 4.19812V12.1981C13 12.7504 12.5523 13.1981 12 13.1981H4C3.44772 13.1981 3 12.7504 3 12.1981Z" fill="#333D47"/>
<path fill-rule="evenodd" clip-rule="evenodd" d="M29 20.1981C29 20.7504 28.5523 21.1981 28 21.1981H21V28.1981C21 28.7504 20.5523 29.1981 20 29.1981C19.4477 29.1981 19 28.7504 19 28.1981V20.1981C19 19.6458 19.4477 19.1981 20 19.1981H28C28.5523 19.1981 29 19.6458 29 20.1981Z" fill="#333D47"/>
</svg>
