<svg width="32" height="33" viewBox="0 0 32 33" fill="none" xmlns="http://www.w3.org/2000/svg">
<path d="M11 5.19812V9.78391L4.70711 3.49101C4.31658 3.10049 3.68342 3.10049 3.29289 3.49101C2.90237 3.88154 2.90237 4.5147 3.29289 4.90523L9.58579 11.1981H5C4.44772 11.1981 4 11.6458 4 12.1981C4 12.7504 4.44772 13.1981 5 13.1981H12C12.5523 13.1981 13 12.7504 13 12.1981V5.19812C13 4.64584 12.5523 4.19812 12 4.19812C11.4477 4.19812 11 4.64584 11 5.19812Z" fill="#333D47"/>
<path d="M21 5.19812C21 4.64584 20.5523 4.19812 20 4.19812C19.4477 4.19812 19 4.64584 19 5.19812V12.1981C19 12.7504 19.4477 13.1981 20 13.1981H27C27.5523 13.1981 28 12.7504 28 12.1981C28 11.6458 27.5523 11.1981 27 11.1981H22.4142L28.7071 4.90523C29.0976 4.5147 29.0976 3.88154 28.7071 3.49101C28.3166 3.10049 27.6834 3.10049 27.2929 3.49101L21 9.78391V5.19812Z" fill="#333D47"/>
<path d="M11 27.1981C11 27.7504 11.4477 28.1981 12 28.1981C12.5523 28.1981 13 27.7504 13 27.1981V20.1981C13 19.6458 12.5523 19.1981 12 19.1981H5C4.44772 19.1981 4 19.6458 4 20.1981C4 20.7504 4.44772 21.1981 5 21.1981H9.58579L3.29289 27.491C2.90237 27.8815 2.90237 28.5147 3.29289 28.9052C3.68342 29.2958 4.31658 29.2957 4.70711 28.9052L11 22.6123V27.1981Z" fill="#333D47"/>
<path d="M27 21.1981C27.5523 21.1981 28 20.7504 28 20.1981C28 19.6458 27.5523 19.1981 27 19.1981H20C19.4477 19.1981 19 19.6458 19 20.1981V27.1981C19 27.7504 19.4477 28.1981 20 28.1981C20.5523 28.1981 21 27.7504 21 27.1981V22.6123L27.2929 28.9052C27.6834 29.2958 28.3166 29.2958 28.7071 28.9052C29.0976 28.5147 29.0976 27.8815 28.7071 27.491L22.4142 21.1981H27Z" fill="#333D47"/>
</svg>
