<svg width="32" height="33" viewBox="0 0 32 33" fill="none" xmlns="http://www.w3.org/2000/svg">
<path fill-rule="evenodd" clip-rule="evenodd" d="M20.4144 13.1981H26.0001C26.5524 13.1981 27.0001 13.6458 27.0001 14.1981C27.0001 14.7504 26.5524 15.1981 26.0001 15.1981H18.0001C17.7349 15.1981 17.4805 15.0928 17.293 14.9052C17.1054 14.7177 17.0001 14.4633 17.0001 14.1981L17.0001 6.19812C17.0001 5.64584 17.4478 5.19812 18.0001 5.19812C18.5524 5.19812 19.0001 5.64584 19.0001 6.19812L19.0001 11.784L27.293 3.49101C27.6836 3.10049 28.3167 3.10049 28.7073 3.49101C29.0978 3.88154 29.0978 4.5147 28.7073 4.90523L20.4144 13.1981Z" fill="#333D47"/>
<path fill-rule="evenodd" clip-rule="evenodd" d="M6.00008 17.1981H14.0001C14.2653 17.1981 14.5196 17.3035 14.7072 17.491C14.8947 17.6786 15.0001 17.9329 15.0001 18.1981L15.0001 26.1981C15.0001 26.7504 14.5524 27.1981 14.0001 27.1981C13.4478 27.1981 13.0001 26.7504 13.0001 26.1981L13.0001 20.6123L4.70711 28.9052C4.31658 29.2958 3.68342 29.2958 3.29289 28.9052C2.90237 28.5147 2.90237 27.8815 3.29289 27.491L11.5858 19.1981H6.00008C5.44779 19.1981 5.00008 18.7504 5.00008 18.1981C5.00008 17.6458 5.44779 17.1981 6.00008 17.1981Z" fill="#333D47"/>
</svg>
