<svg width="32" height="33" viewBox="0 0 32 33" fill="none" xmlns="http://www.w3.org/2000/svg">
<path d="M20.7071 8.90523C20.3166 9.29575 19.6834 9.29575 19.2929 8.90523L17 6.61234V15.1981H25.5858L23.2929 12.9052C22.9024 12.5147 22.9024 11.8815 23.2929 11.491C23.6834 11.1005 24.3166 11.1005 24.7071 11.491L28.7071 15.491C28.8946 15.6785 29 15.9329 29 16.1981C29 16.4633 28.8946 16.7177 28.7071 16.9052L24.7071 20.9052C24.3166 21.2957 23.6834 21.2957 23.2929 20.9052C22.9024 20.5147 22.9024 19.8815 23.2929 19.491L25.5858 17.1981H17V25.7839L19.2929 23.491C19.6834 23.1005 20.3166 23.1005 20.7071 23.491C21.0976 23.8815 21.0976 24.5147 20.7071 24.9052L16.7071 28.9052C16.5196 29.0928 16.2652 29.1981 16 29.1981C15.7348 29.1981 15.4804 29.0928 15.2929 28.9052L11.2929 24.9052C10.9024 24.5147 10.9024 23.8815 11.2929 23.491C11.6834 23.1005 12.3166 23.1005 12.7071 23.491L15 25.7839V17.1981H6.41422L8.70711 19.491C9.09763 19.8815 9.09763 20.5147 8.70711 20.9052C8.31658 21.2958 7.68342 21.2958 7.29289 20.9052L3.29289 16.9052C3.10536 16.7177 3 16.4633 3 16.1981C3 15.9329 3.10536 15.6785 3.29289 15.491L7.29289 11.491C7.68342 11.1005 8.31658 11.1005 8.70711 11.491C9.09763 11.8815 9.09763 12.5147 8.70711 12.9052L6.41421 15.1981H15V6.61233L12.7071 8.90523C12.3166 9.29575 11.6834 9.29575 11.2929 8.90523C10.9024 8.5147 10.9024 7.88154 11.2929 7.49101L15.2929 3.49101C15.4804 3.30348 15.7348 3.19812 16 3.19812C16.2652 3.19812 16.5196 3.30348 16.7071 3.49101L20.7071 7.49101C21.0976 7.88154 21.0976 8.5147 20.7071 8.90523Z" fill="#333D47"/>
</svg>
