<svg width="32" height="33" viewBox="0 0 32 33" fill="none" xmlns="http://www.w3.org/2000/svg">
<path d="M28 27.1981C28.5523 27.1981 29 27.6458 29 28.1981C29 28.7504 28.5523 29.1981 28 29.1981L4 29.1981C3.44771 29.1981 3 28.7504 3 28.1981C3 27.6458 3.44771 27.1981 4 27.1981L28 27.1981Z" fill="#333D47"/>
<path d="M9.29289 16.491C9.68342 16.1005 10.3166 16.1005 10.7071 16.491L15 20.7839L15 4.19812C15 3.64584 15.4477 3.19812 16 3.19812C16.5523 3.19812 17 3.64584 17 4.19812L17 20.7839L21.2929 16.491C21.6834 16.1005 22.3166 16.1005 22.7071 16.491C23.0976 16.8815 23.0976 17.5147 22.7071 17.9052L16.7071 23.9052C16.5196 24.0928 16.2652 24.1981 16 24.1981C15.7348 24.1981 15.4804 24.0928 15.2929 23.9052L9.29289 17.9052C8.90237 17.5147 8.90237 16.8815 9.29289 16.491Z" fill="#333D47"/>
</svg>
