<svg width="32" height="33" viewBox="0 0 32 33" fill="none" xmlns="http://www.w3.org/2000/svg">
<path d="M27 4.19812C27 3.64584 27.4477 3.19812 28 3.19812C28.5523 3.19812 29 3.64584 29 4.19812L29 28.1981C29 28.7504 28.5523 29.1981 28 29.1981C27.4477 29.1981 27 28.7504 27 28.1981L27 4.19812Z" fill="#333D47"/>
<path d="M16.2929 22.9052C15.9024 22.5147 15.9024 21.8815 16.2929 21.491L20.5858 17.1981L4 17.1981C3.44772 17.1981 3 16.7504 3 16.1981C3 15.6458 3.44772 15.1981 4 15.1981L20.5858 15.1981L16.2929 10.9052C15.9024 10.5147 15.9024 9.88154 16.2929 9.49101C16.6834 9.10049 17.3166 9.10049 17.7071 9.49101L23.7071 15.491C23.8946 15.6785 24 15.9329 24 16.1981C24 16.4633 23.8946 16.7177 23.7071 16.9052L17.7071 22.9052C17.3166 23.2958 16.6834 23.2958 16.2929 22.9052Z" fill="#333D47"/>
</svg>
