<svg width="32" height="33" viewBox="0 0 32 33" fill="none" xmlns="http://www.w3.org/2000/svg">
<path d="M4 5.19812C3.44772 5.19812 3 4.75041 3 4.19812C3 3.64584 3.44772 3.19812 4 3.19812L28 3.19812C28.5523 3.19812 29 3.64584 29 4.19812C29 4.7504 28.5523 5.19812 28 5.19812L4 5.19812Z" fill="#333D47"/>
<path d="M22.7071 15.9052C22.3166 16.2958 21.6834 16.2958 21.2929 15.9052L17 11.6123L17 28.1981C17 28.7504 16.5523 29.1981 16 29.1981C15.4477 29.1981 15 28.7504 15 28.1981L15 11.6123L10.7071 15.9052C10.3166 16.2958 9.68342 16.2958 9.29289 15.9052C8.90237 15.5147 8.90237 14.8815 9.29289 14.491L15.2929 8.49101C15.4804 8.30348 15.7348 8.19812 16 8.19812C16.2652 8.19812 16.5196 8.30348 16.7071 8.49101L22.7071 14.491C23.0976 14.8815 23.0976 15.5147 22.7071 15.9052Z" fill="#333D47"/>
</svg>
