<svg width="32" height="33" viewBox="0 0 32 33" fill="none" xmlns="http://www.w3.org/2000/svg">
<path d="M5 28.1981C5 28.7504 4.55229 29.1981 4 29.1981C3.44772 29.1981 3 28.7504 3 28.1981L3 4.19812C3 3.64583 3.44772 3.19812 4 3.19812C4.55228 3.19812 5 3.64583 5 4.19812L5 28.1981Z" fill="#333D47"/>
<path d="M15.7071 9.49101C16.0976 9.88154 16.0976 10.5147 15.7071 10.9052L11.4142 15.1981L28 15.1981C28.5523 15.1981 29 15.6458 29 16.1981C29 16.7504 28.5523 17.1981 28 17.1981L11.4142 17.1981L15.7071 21.491C16.0976 21.8815 16.0976 22.5147 15.7071 22.9052C15.3166 23.2958 14.6834 23.2958 14.2929 22.9052L8.29289 16.9052C8.10536 16.7177 8 16.4633 8 16.1981C8 15.9329 8.10536 15.6786 8.29289 15.491L14.2929 9.49101C14.6834 9.10049 15.3166 9.10049 15.7071 9.49101Z" fill="#333D47"/>
</svg>
