<svg width="32" height="33" viewBox="0 0 32 33" fill="none" xmlns="http://www.w3.org/2000/svg">
<path d="M15.152 27.7281C15.3347 28.0205 15.6552 28.1981 16 28.1981C16.3448 28.1981 16.6653 28.0205 16.848 27.7281L21.848 19.7281C22.0407 19.4199 22.0509 19.0313 21.8746 18.7134C21.6984 18.3954 21.3635 18.1981 21 18.1981H11C10.6365 18.1981 10.3016 18.3954 10.1254 18.7134C9.94913 19.0313 9.95933 19.4199 10.152 19.7281L15.152 27.7281Z" fill="#333D47"/>
<path d="M15.152 4.66812C15.3347 4.37574 15.6552 4.19812 16 4.19812C16.3448 4.19812 16.6653 4.37574 16.848 4.66812L21.848 12.6681C22.0407 12.9764 22.0509 13.3649 21.8746 13.6829C21.6984 14.0008 21.3635 14.1981 21 14.1981L11 14.1981C10.6365 14.1981 10.3016 14.0008 10.1254 13.6829C9.94913 13.3649 9.95933 12.9764 10.152 12.6681L15.152 4.66812Z" fill="#333D47"/>
<path d="M15.152 4.66812C15.3347 4.37574 15.6552 4.19812 16 4.19812C16.3448 4.19812 16.6653 4.37574 16.848 4.66812L21.848 12.6681C22.0407 12.9764 22.0509 13.3649 21.8746 13.6829C21.6984 14.0008 21.3635 14.1981 21 14.1981L11 14.1981C10.6365 14.1981 10.3016 14.0008 10.1254 13.6829C9.94913 13.3649 9.95933 12.9764 10.152 12.6681L15.152 4.66812Z" fill="#D6D8DA"/>
</svg>
