<svg width="32" height="33" viewBox="0 0 32 33" fill="none" xmlns="http://www.w3.org/2000/svg">
<path d="M16.848 4.66812C16.6653 4.37574 16.3448 4.19812 16 4.19812C15.6552 4.19812 15.3347 4.37574 15.152 4.66812L10.152 12.6681C9.95933 12.9764 9.94913 13.3649 10.1254 13.6829C10.3016 14.0008 10.6365 14.1981 11 14.1981H21C21.3635 14.1981 21.6984 14.0008 21.8746 13.6829C22.0509 13.3649 22.0407 12.9764 21.848 12.6681L16.848 4.66812Z" fill="#333D47"/>
<path d="M16.848 27.7281C16.6653 28.0205 16.3448 28.1981 16 28.1981C15.6552 28.1981 15.3347 28.0205 15.152 27.7281L10.152 19.7281C9.95933 19.4199 9.94913 19.0313 10.1254 18.7134C10.3016 18.3954 10.6365 18.1981 11 18.1981H21C21.3635 18.1981 21.6984 18.3954 21.8746 18.7134C22.0509 19.0313 22.0407 19.4199 21.848 19.7281L16.848 27.7281Z" fill="#333D47"/>
</svg>
