<svg width="32" height="33" viewBox="0 0 32 33" fill="none" xmlns="http://www.w3.org/2000/svg">
<path d="M16.848 4.66794C16.6653 4.37556 16.3448 4.19794 16 4.19794C15.6552 4.19794 15.3347 4.37556 15.152 4.66794L10.152 12.6679C9.95933 12.9762 9.94913 13.3648 10.1254 13.6827C10.3016 14.0007 10.6365 14.1979 11 14.1979H21C21.3635 14.1979 21.6984 14.0007 21.8746 13.6827C22.0509 13.3648 22.0407 12.9762 21.848 12.6679L16.848 4.66794Z" fill="#333D47"/>
<path d="M16.848 27.7279C16.6653 28.0203 16.3448 28.1979 16 28.1979C15.6552 28.1979 15.3347 28.0203 15.152 27.7279L10.152 19.7279C9.95933 19.4197 9.94913 19.0311 10.1254 18.7132C10.3016 18.3952 10.6365 18.1979 11 18.1979H21C21.3635 18.1979 21.6984 18.3952 21.8746 18.7132C22.0509 19.0311 22.0407 19.4197 21.848 19.7279L16.848 27.7279Z" fill="#333D47"/>
<path d="M16.848 27.7279C16.6653 28.0203 16.3448 28.1979 16 28.1979C15.6552 28.1979 15.3347 28.0203 15.152 27.7279L10.152 19.7279C9.95933 19.4197 9.94913 19.0311 10.1254 18.7132C10.3016 18.3952 10.6365 18.1979 11 18.1979H21C21.3635 18.1979 21.6984 18.3952 21.8746 18.7132C22.0509 19.0311 22.0407 19.4197 21.848 19.7279L16.848 27.7279Z" fill="#D6D8DA"/>
</svg>
