<svg width="32" height="33" viewBox="0 0 32 33" fill="none" xmlns="http://www.w3.org/2000/svg">
<path d="M25.5287 10.6981C23.6263 7.40941 20.0704 5.19812 16 5.19812C9.92487 5.19812 5 10.123 5 16.1981C5 22.2733 9.92487 27.1981 16 27.1981C16.5523 27.1981 17 27.6458 17 28.1981C17 28.7504 16.5523 29.1981 16 29.1981C8.8203 29.1981 3 23.3778 3 16.1981C3 9.01842 8.8203 3.19812 16 3.19812C20.6329 3.19812 24.6982 5.62126 27.0003 9.26762V4.19812C27.0003 3.64584 27.448 3.19812 28.0003 3.19812C28.5525 3.19812 29.0003 3.64584 29.0003 4.19812V11.6981C29.0003 12.2504 28.5525 12.6981 28.0003 12.6981H20.5003C19.948 12.6981 19.5003 12.2504 19.5003 11.6981C19.5003 11.1458 19.948 10.6981 20.5003 10.6981H25.5287Z" fill="#333D47"/>
</svg>
