<svg width="32" height="33" viewBox="0 0 32 33" fill="none" xmlns="http://www.w3.org/2000/svg">
<path d="M16.041 3.19812C8.86131 3.19812 3.04102 9.01842 3.04102 16.1981C3.04102 23.3778 8.86131 29.1981 16.041 29.1981C22.8564 29.1981 28.446 23.9542 28.9966 17.2803C29.042 16.7299 28.6326 16.2469 28.0822 16.2015C27.5317 16.1561 27.0487 16.5655 27.0033 17.1159C26.5376 22.7611 21.807 27.1981 16.041 27.1981C9.96588 27.1981 5.04102 22.2733 5.04102 16.1981C5.04102 10.123 9.96588 5.19812 16.041 5.19812C20.1115 5.19812 23.6673 7.40941 25.5697 10.6981H20.5C19.9477 10.6981 19.5 11.1458 19.5 11.6981C19.5 12.2504 19.9477 12.6981 20.5 12.6981H28C28.5523 12.6981 29 12.2504 29 11.6981V4.19812C29 3.64584 28.5523 3.19812 28 3.19812C27.4477 3.19812 27 3.64584 27 4.19812V9.20267C24.6908 5.59251 20.6464 3.19812 16.041 3.19812Z" fill="#333D47"/>
</svg>
