<svg width="32" height="33" viewBox="0 0 32 33" fill="none" xmlns="http://www.w3.org/2000/svg">
<path fill-rule="evenodd" clip-rule="evenodd" d="M4 3.19812C4.55228 3.19812 5 3.64584 5 4.19812V10.6981H11.5C12.0523 10.6981 12.5 11.1458 12.5 11.6981C12.5 12.2504 12.0523 12.6981 11.5 12.6981H4C3.44772 12.6981 3 12.2504 3 11.6981V4.19812C3 3.64584 3.44772 3.19812 4 3.19812Z" fill="#333D47"/>
<path fill-rule="evenodd" clip-rule="evenodd" d="M27.996 29.1981C27.4437 29.1981 26.996 28.7504 26.996 28.1981V21.6981H20.496C19.9437 21.6981 19.496 21.2504 19.496 20.6981C19.496 20.1458 19.9437 19.6981 20.496 19.6981H27.996C28.5483 19.6981 28.996 20.1458 28.996 20.6981V28.1981C28.996 28.7504 28.5483 29.1981 27.996 29.1981Z" fill="#333D47"/>
<path fill-rule="evenodd" clip-rule="evenodd" d="M16 5.19812C11.2121 5.19812 7.13624 8.25765 5.6257 12.5314L3.74002 11.8649C5.52417 6.81706 10.3382 3.19812 16 3.19812C22.4425 3.19812 27.7887 7.88353 28.8203 14.0327C28.9117 14.5773 28.5443 15.093 27.9996 15.1843C27.4549 15.2757 26.9393 14.9082 26.8479 14.3636C25.9752 9.16186 21.4495 5.19812 16 5.19812Z" fill="#333D47"/>
<path fill-rule="evenodd" clip-rule="evenodd" d="M4.00044 17.2119C4.54511 17.1205 5.06073 17.488 5.15211 18.0327C6.02479 23.2344 10.5505 27.1981 16 27.1981C20.7879 27.1981 24.8638 24.1386 26.3743 19.8649L28.26 20.5314C26.4758 25.5792 21.6618 29.1981 16 29.1981C9.55749 29.1981 4.21131 24.5127 3.17968 18.3636C3.0883 17.8189 3.45576 17.3033 4.00044 17.2119Z" fill="#333D47"/>
</svg>
