<svg width="32" height="33" viewBox="0 0 32 33" fill="none" xmlns="http://www.w3.org/2000/svg">
<path d="M5 4.19812C5 3.64584 4.55228 3.19812 4 3.19812C3.44772 3.19812 3 3.64584 3 4.19812V11.6981C3 12.2504 3.44772 12.6981 4 12.6981H11.5C12.0523 12.6981 12.5 12.2504 12.5 11.6981C12.5 11.1458 12.0523 10.6981 11.5 10.6981H6.4713C8.37373 7.40941 11.9296 5.19812 16 5.19812C22.0751 5.19812 27 10.123 27 16.1981C27 22.2733 22.0751 27.1981 16 27.1981C10.2341 27.1981 5.5034 22.7611 5.03768 17.1159C4.99228 16.5655 4.50927 16.1561 3.95885 16.2015C3.40844 16.2469 2.99905 16.7299 3.04446 17.2803C3.59504 23.9542 9.18461 29.1981 16 29.1981C23.1797 29.1981 29 23.3778 29 16.1981C29 9.01842 23.1797 3.19812 16 3.19812C11.3672 3.19812 7.3021 5.62108 5 9.26721V4.19812Z" fill="#333D47"/>
</svg>
