<svg width="32" height="33" viewBox="0 0 32 33" fill="none" xmlns="http://www.w3.org/2000/svg">
<path d="M5 4.19812C5 3.64584 4.55228 3.19812 4 3.19812C3.44772 3.19812 3 3.64584 3 4.19812V11.6981C3 12.2504 3.44772 12.6981 4 12.6981H11.5C12.0523 12.6981 12.5 12.2504 12.5 11.6981C12.5 11.1458 12.0523 10.6981 11.5 10.6981H6.4713C8.37373 7.40941 11.9296 5.19812 16 5.19812C22.0751 5.19812 27 10.123 27 16.1981C27 22.2733 22.0751 27.1981 16 27.1981C15.3038 27.1981 14.6236 27.1336 13.9647 27.0104C13.4218 26.9089 12.8995 27.2667 12.798 27.8096C12.6965 28.3525 13.0543 28.8748 13.5972 28.9763C14.3766 29.1221 15.1799 29.1981 16 29.1981C23.1797 29.1981 29 23.3778 29 16.1981C29 9.01842 23.1797 3.19812 16 3.19812C11.3672 3.19812 7.3021 5.62108 5 9.26721V4.19812Z" fill="#333D47"/>
<path d="M3.04446 17.2803C2.99905 16.7299 3.40844 16.2469 3.95885 16.2015C4.50927 16.1561 4.99227 16.5655 5.03769 17.1159C5.09467 17.8067 5.2154 18.4788 5.39386 19.1267C5.54052 19.6592 5.22778 20.2097 4.69532 20.3563C4.16287 20.503 3.61233 20.1903 3.46567 19.6578C3.25444 18.891 3.11175 18.0961 3.04446 17.2803Z" fill="#333D47"/>
<path d="M5.78389 22.5752C5.34154 22.9059 5.25102 23.5325 5.5817 23.9749C6.54684 25.2659 7.74638 26.3715 9.11768 27.2288C9.58598 27.5215 10.2029 27.3792 10.4957 26.9109C10.7885 26.4426 10.6462 25.8257 10.1778 25.5329C9.01709 24.8073 8.00103 23.8709 7.18357 22.7774C6.85289 22.335 6.22623 22.2445 5.78389 22.5752Z" fill="#333D47"/>
</svg>
