<svg width="32" height="33" viewBox="0 0 32 33" fill="none" xmlns="http://www.w3.org/2000/svg">
<path d="M27 4.19812C27 3.64584 27.4477 3.19812 28 3.19812C28.5523 3.19812 29 3.64584 29 4.19812V11.6981C29 12.2504 28.5523 12.6981 28 12.6981H20.5C19.9477 12.6981 19.5 12.2504 19.5 11.6981C19.5 11.1458 19.9477 10.6981 20.5 10.6981H25.5287C23.6263 7.40941 20.0704 5.19812 16 5.19812C9.92487 5.19812 5 10.123 5 16.1981C5 22.2733 9.92487 27.1981 16 27.1981C16.6962 27.1981 17.3764 27.1336 18.0353 27.0104C18.5782 26.9089 19.1005 27.2667 19.202 27.8096C19.3035 28.3525 18.9457 28.8748 18.4028 28.9763C17.6234 29.1221 16.8201 29.1981 16 29.1981C8.8203 29.1981 3 23.3778 3 16.1981C3 9.01842 8.8203 3.19812 16 3.19812C20.6328 3.19812 24.6979 5.62108 27 9.26721V4.19812Z" fill="#333D47"/>
<path d="M28.9555 17.2803C29.0009 16.7299 28.5916 16.2469 28.0411 16.2015C27.4907 16.1561 27.0077 16.5655 26.9623 17.1159C26.9053 17.8067 26.7846 18.4788 26.6061 19.1267C26.4595 19.6592 26.7722 20.2097 27.3047 20.3563C27.8371 20.503 28.3877 20.1903 28.5343 19.6578C28.7456 18.891 28.8882 18.0961 28.9555 17.2803Z" fill="#333D47"/>
<path d="M26.2161 22.5752C26.6585 22.9059 26.749 23.5325 26.4183 23.9749C25.4532 25.2659 24.2536 26.3715 22.8823 27.2288C22.414 27.5215 21.7971 27.3792 21.5043 26.9109C21.2115 26.4426 21.3538 25.8257 21.8221 25.5329C22.9829 24.8073 23.999 23.8709 24.8164 22.7774C25.1471 22.335 25.7738 22.2445 26.2161 22.5752Z" fill="#333D47"/>
</svg>
