<svg width="32" height="33" viewBox="0 0 32 33" fill="none" xmlns="http://www.w3.org/2000/svg">
<path d="M24.2929 6.90523C23.9024 6.5147 23.9024 5.88154 24.2929 5.49101C24.6834 5.10049 25.3166 5.10049 25.7071 5.49101L29.7071 9.49101C29.8946 9.67855 30 9.9329 30 10.1981C30 10.4633 29.8946 10.7177 29.7071 10.9052L25.7071 14.9052C25.3166 15.2958 24.6834 15.2958 24.2929 14.9052C23.9024 14.5147 23.9024 13.8815 24.2929 13.491L26.5858 11.1981L24 11.1981C22.6584 11.1981 21.4939 11.4807 20.3826 12.2519C19.2486 13.0387 18.0914 14.3888 16.8835 16.6666C15.5914 19.1031 14.2486 20.753 12.7576 21.7876C11.2439 22.8379 9.6584 23.1981 8 23.1981H3C2.44772 23.1981 2 22.7504 2 22.1981C2 21.6458 2.44772 21.1981 3 21.1981H8C9.3416 21.1981 10.5061 20.9155 11.6174 20.1444C12.7514 19.3575 13.9086 18.0075 15.1165 15.7296C16.4086 13.2932 17.7514 11.6433 19.2424 10.6087C20.7561 9.55837 22.3416 9.19812 24 9.19812L26.5858 9.19812L24.2929 6.90523Z" fill="#333D47"/>
<path d="M24.2929 18.9052C23.9024 18.5147 23.9024 17.8815 24.2929 17.491C24.6834 17.1005 25.3166 17.1005 25.7071 17.491L29.7071 21.491C29.8946 21.6785 30 21.9329 30 22.1981C30 22.4633 29.8946 22.7177 29.7071 22.9052L25.7071 26.9052C25.3166 27.2957 24.6834 27.2957 24.2929 26.9052C23.9024 26.5147 23.9024 25.8815 24.2929 25.491L26.5858 23.1981H24C22.7899 23.1981 21.6072 23.0069 20.4564 22.4812C19.3056 21.9555 18.2412 21.1201 17.2315 19.9072C16.8781 19.4828 16.9357 18.8522 17.3602 18.4989C17.7846 18.1455 18.4152 18.2031 18.7685 18.6276C19.6211 19.6516 20.4548 20.2816 21.2875 20.662C22.1202 21.0425 23.0064 21.1981 24 21.1981H26.5858L24.2929 18.9052Z" fill="#333D47"/>
<path d="M3 9.19812C2.44772 9.19812 2 9.64583 2 10.1981C2 10.7504 2.44772 11.1981 3 11.1981H8C8.99363 11.1981 9.87976 11.3538 10.7125 11.7342C11.5452 12.1146 12.3789 12.7446 13.2315 13.7687C13.5848 14.1931 14.2154 14.2507 14.6398 13.8974C15.0643 13.544 15.1219 12.9135 14.7685 12.489C13.7588 11.2761 12.6944 10.4408 11.5436 9.91505C10.3928 9.38935 9.21011 9.19812 8 9.19812H3Z" fill="#333D47"/>
</svg>
