<svg width="32" height="33" viewBox="0 0 32 33" fill="none" xmlns="http://www.w3.org/2000/svg">
<path d="M27.2929 10.9052C27.6834 11.2958 28.3166 11.2958 28.7071 10.9052C29.0976 10.5147 29.0976 9.88154 28.7071 9.49101L22.7071 3.49101C22.3166 3.10049 21.6834 3.10049 21.2929 3.49101L15.2929 9.49101C14.9024 9.88154 14.9024 10.5147 15.2929 10.9052C15.6834 11.2958 16.3166 11.2958 16.7071 10.9052L21 6.61233V22.1981C21 22.7504 21.4477 23.1981 22 23.1981C22.5523 23.1981 23 22.7504 23 22.1981V6.61234L27.2929 10.9052Z" fill="#333D47"/>
<path d="M15.2929 21.491C15.6834 21.1005 16.3166 21.1005 16.7071 21.491C17.0976 21.8815 17.0976 22.5147 16.7071 22.9052L10.7071 28.9052C10.3166 29.2958 9.68342 29.2958 9.29289 28.9052L3.29289 22.9052C2.90237 22.5147 2.90237 21.8815 3.29289 21.491C3.68342 21.1005 4.31658 21.1005 4.70711 21.491L9 25.7839L9 10.1981C9 9.64584 9.44772 9.19812 10 9.19812C10.5523 9.19812 11 9.64584 11 10.1981L11 25.7839L15.2929 21.491Z" fill="#333D47"/>
</svg>
