<svg width="32" height="33" viewBox="0 0 32 33" fill="none" xmlns="http://www.w3.org/2000/svg">
<path d="M10.7071 4.90523C11.0976 4.5147 11.0976 3.88154 10.7071 3.49101C10.3166 3.10049 9.68342 3.10049 9.29289 3.49101L3.29289 9.49101C2.90237 9.88154 2.90237 10.5147 3.29289 10.9052L9.29289 16.9052C9.68342 17.2958 10.3166 17.2958 10.7071 16.9052C11.0976 16.5147 11.0976 15.8815 10.7071 15.491L6.41421 11.1981H22C22.5523 11.1981 23 10.7504 23 10.1981C23 9.64583 22.5523 9.19812 22 9.19812H6.41422L10.7071 4.90523Z" fill="#333D47"/>
<path d="M21.2929 16.9052C20.9024 16.5147 20.9024 15.8815 21.2929 15.491C21.6834 15.1005 22.3166 15.1005 22.7071 15.491L28.7071 21.491C29.0976 21.8815 29.0976 22.5147 28.7071 22.9052L22.7071 28.9052C22.3166 29.2958 21.6834 29.2958 21.2929 28.9052C20.9024 28.5147 20.9024 27.8815 21.2929 27.491L25.5858 23.1981L10 23.1981C9.44772 23.1981 9 22.7504 9 22.1981C9 21.6458 9.44772 21.1981 10 21.1981L25.5858 21.1981L21.2929 16.9052Z" fill="#333D47"/>
</svg>
