<svg width="32" height="33" viewBox="0 0 32 33" fill="none" xmlns="http://www.w3.org/2000/svg">
<path d="M5 4.19812C5 3.64584 4.55228 3.19812 4 3.19812C3.44772 3.19812 3 3.64584 3 4.19812V11.6981C3 12.2504 3.44772 12.6981 4 12.6981H11.5C12.0523 12.6981 12.5 12.2504 12.5 11.6981C12.5 11.1458 12.0523 10.6981 11.5 10.6981H6.47107C8.3735 7.40941 11.9293 5.19812 15.9998 5.19812C22.0749 5.19812 26.9998 10.123 26.9998 16.1981C26.9998 22.2733 22.0749 27.1981 15.9998 27.1981C15.4475 27.1981 14.9998 27.6458 14.9998 28.1981C14.9998 28.7504 15.4475 29.1981 15.9998 29.1981C23.1795 29.1981 28.9998 23.3778 28.9998 16.1981C28.9998 9.01842 23.1795 3.19812 15.9998 3.19812C11.3672 3.19812 7.30214 5.62091 5 9.26684V4.19812Z" fill="#333D47"/>
</svg>
