<svg width="26" height="27" viewBox="0 0 26 27" fill="none" xmlns="http://www.w3.org/2000/svg">
<path d="M13 0.19812C5.8203 0.19812 0 6.01842 0 13.1981C0 20.3778 5.8203 26.1981 13 26.1981C19.8154 26.1981 25.405 20.9542 25.9555 14.2803C26.0009 13.7299 25.5916 13.2469 25.0411 13.2015C24.4907 13.1561 24.0077 13.5655 23.9623 14.1159C23.4966 19.7611 18.7659 24.1981 13 24.1981C6.92487 24.1981 2 19.2733 2 13.1981C2 7.12299 6.92487 2.19812 13 2.19812C17.0704 2.19812 20.6263 4.40941 22.5287 7.69812H17.459C16.9067 7.69812 16.459 8.14584 16.459 8.69812C16.459 9.25041 16.9067 9.69812 17.459 9.69812H24.959C25.5113 9.69812 25.959 9.25041 25.959 8.69812V1.19812C25.959 0.645835 25.5113 0.19812 24.959 0.19812C24.4067 0.19812 23.959 0.645835 23.959 1.19812V6.20267C21.6498 2.59251 17.6054 0.19812 13 0.19812Z" fill="#333D47"/>
</svg>
