<svg width="32" height="33" viewBox="0 0 32 33" fill="none" xmlns="http://www.w3.org/2000/svg">
<path d="M8.70711 4.90523C9.09763 4.5147 9.09763 3.88154 8.70711 3.49101C8.31658 3.10049 7.68342 3.10049 7.29289 3.49101L3.29289 7.49101C2.90237 7.88154 2.90237 8.5147 3.29289 8.90523C3.68342 9.29575 4.31658 9.29575 4.70711 8.90523L8.70711 4.90523Z" fill="#333D47"/>
<path d="M23.2929 3.49101C23.6834 3.10049 24.3166 3.10049 24.7071 3.49101L28.7071 7.49101C29.0976 7.88154 29.0976 8.5147 28.7071 8.90523C28.3166 9.29575 27.6834 9.29575 27.2929 8.90523L23.2929 4.90523C22.9024 4.5147 22.9024 3.88154 23.2929 3.49101Z" fill="#333D47"/>
<path fill-rule="evenodd" clip-rule="evenodd" d="M22.2414 25.2572C25.1161 23.2729 27 19.9555 27 16.1981C27 10.123 22.0751 5.19812 16 5.19812C9.92487 5.19812 5 10.123 5 16.1981C5 19.9556 6.88394 23.273 9.75877 25.2573L8.16806 27.6434C7.8617 28.1029 7.98588 28.7238 8.44541 29.0302C8.90493 29.3365 9.5258 29.2123 9.83216 28.7528L11.5064 26.2414C12.8784 26.8562 14.3993 27.1981 16 27.1981C17.6008 27.1981 19.1217 26.8562 20.4937 26.2413L22.1681 28.7528C22.4744 29.2123 23.0953 29.3365 23.5548 29.0302C24.0143 28.7238 24.1385 28.1029 23.8322 27.6434L22.2414 25.2572ZM17 11.1981C17 10.6458 16.5523 10.1981 16 10.1981C15.4477 10.1981 15 10.6458 15 11.1981V15.1981H13C12.4477 15.1981 12 15.6458 12 16.1981C12 16.7504 12.4477 17.1981 13 17.1981H16C16.5523 17.1981 17 16.7504 17 16.1981V11.1981Z" fill="#333D47"/>
</svg>
