<svg width="32" height="33" viewBox="0 0 32 33" fill="none" xmlns="http://www.w3.org/2000/svg">
<path fill-rule="evenodd" clip-rule="evenodd" d="M20 9.19812C20 8.64584 20.4477 8.19812 21 8.19812H29C29.5523 8.19812 30 8.64584 30 9.19812V17.1981C30 17.7504 29.5523 18.1981 29 18.1981C28.4477 18.1981 28 17.7504 28 17.1981V10.1981H21C20.4477 10.1981 20 9.7504 20 9.19812Z" fill="#333D47"/>
<path fill-rule="evenodd" clip-rule="evenodd" d="M29.7071 8.49101C30.0976 8.88154 30.0976 9.5147 29.7071 9.90523L18.4 21.2123C18.0262 21.5787 17.5235 21.784 17 21.784C16.4765 21.784 15.9739 21.5787 15.6 21.2123L15.5929 21.2053L11 16.6123L3.70711 23.9052C3.31658 24.2958 2.68342 24.2958 2.29289 23.9052C1.90237 23.5147 1.90237 22.8815 2.29289 22.491L9.59997 15.1839C9.97382 14.8175 10.4765 14.6123 11 14.6123C11.5235 14.6123 12.0261 14.8175 12.4 15.184L12.4071 15.191L17 19.7839L28.2929 8.49101C28.6834 8.10049 29.3166 8.10049 29.7071 8.49101Z" fill="#333D47"/>
</svg>
