<svg width="32" height="33" viewBox="0 0 32 33" fill="none" xmlns="http://www.w3.org/2000/svg">
<path fill-rule="evenodd" clip-rule="evenodd" d="M29 14.1981C29.5523 14.1981 30 14.6458 30 15.1981V23.1981C30 23.7504 29.5523 24.1981 29 24.1981H21C20.4477 24.1981 20 23.7504 20 23.1981C20 22.6458 20.4477 22.1981 21 22.1981H28V15.1981C28 14.6458 28.4477 14.1981 29 14.1981Z" fill="#333D47"/>
<path fill-rule="evenodd" clip-rule="evenodd" d="M2.29289 8.49101C2.68342 8.10049 3.31658 8.10049 3.70711 8.49101L11 15.7839L15.6 11.1839C15.9738 10.8175 16.4765 10.6123 17 10.6123C17.5235 10.6123 18.0261 10.8175 18.4 11.184L18.4071 11.191L29.7071 22.491C30.0976 22.8815 30.0976 23.5147 29.7071 23.9052C29.3166 24.2958 28.6834 24.2958 28.2929 23.9052L17 12.6123L12.4 17.2123C12.0262 17.5788 11.5235 17.784 11 17.784C10.4765 17.784 9.97386 17.5787 9.6 17.2123L9.59286 17.2053L2.29289 9.90523C1.90237 9.5147 1.90237 8.88154 2.29289 8.49101Z" fill="#333D47"/>
</svg>
