<svg width="32" height="33" viewBox="0 0 32 33" fill="none" xmlns="http://www.w3.org/2000/svg">
<path fill-rule="evenodd" clip-rule="evenodd" d="M5 28.1981C5 27.6458 5.44772 27.1981 6 27.1981L26 27.1981C26.5523 27.1981 27 27.6458 27 28.1981C27 28.7504 26.5523 29.1981 26 29.1981L6 29.1981C5.44772 29.1981 5 28.7504 5 28.1981Z" fill="#333D47"/>
<path fill-rule="evenodd" clip-rule="evenodd" d="M9.01713 8.01383C9.10581 7.54086 9.51878 7.19812 10 7.19812H22C22.4812 7.19812 22.8942 7.54086 22.9829 8.01383L25.9829 24.0138C26.0377 24.3062 25.9595 24.6078 25.7695 24.8368C25.5795 25.0657 25.2975 25.1981 25 25.1981H7C6.70252 25.1981 6.42048 25.0657 6.23049 24.8368C6.04051 24.6078 5.96231 24.3062 6.01713 24.0138L9.01713 8.01383ZM10.8299 9.19812L8.20493 23.1981H23.7951L21.1701 9.19812H10.8299Z" fill="#333D47"/>
<path fill-rule="evenodd" clip-rule="evenodd" d="M16 18.1981C17.1046 18.1981 18 17.3027 18 16.1981C18 15.0936 17.1046 14.1981 16 14.1981C14.8954 14.1981 14 15.0936 14 16.1981C14 17.3027 14.8954 18.1981 16 18.1981ZM16 20.1981C18.2091 20.1981 20 18.4073 20 16.1981C20 13.989 18.2091 12.1981 16 12.1981C13.7909 12.1981 12 13.989 12 16.1981C12 18.4073 13.7909 20.1981 16 20.1981Z" fill="#333D47"/>
<path fill-rule="evenodd" clip-rule="evenodd" d="M3 4.19812C3 3.64584 3.44772 3.19812 4 3.19812H28C28.5523 3.19812 29 3.64584 29 4.19812V9.19812C29 9.7504 28.5523 10.1981 28 10.1981H26C25.4477 10.1981 25 9.7504 25 9.19812C25 8.64584 25.4477 8.19812 26 8.19812H27V5.19812H5V8.19812H6C6.55228 8.19812 7 8.64584 7 9.19812C7 9.7504 6.55228 10.1981 6 10.1981H4C3.44772 10.1981 3 9.7504 3 9.19812V4.19812Z" fill="#333D47"/>
</svg>
