<svg width="32" height="33" viewBox="0 0 32 33" fill="none" xmlns="http://www.w3.org/2000/svg">
<path d="M4 3.19812C3.44772 3.19812 3 3.64584 3 4.19812V9.19812C3 9.7504 3.44772 10.1981 4 10.1981H6C6.55228 10.1981 7 9.7504 7 9.19812C7 8.64584 6.55228 8.19812 6 8.19812H5V5.19812H27V8.19812H26C25.4477 8.19812 25 8.64584 25 9.19812C25 9.7504 25.4477 10.1981 26 10.1981H28C28.5523 10.1981 29 9.7504 29 9.19812V4.19812C29 3.64584 28.5523 3.19812 28 3.19812H4Z" fill="#333D47"/>
<path d="M18 16.1981C18 17.3027 17.1046 18.1981 16 18.1981C14.8954 18.1981 14 17.3027 14 16.1981C14 15.0936 14.8954 14.1981 16 14.1981C17.1046 14.1981 18 15.0936 18 16.1981Z" fill="#333D47"/>
<path fill-rule="evenodd" clip-rule="evenodd" d="M9.01714 8.01383C9.10582 7.54086 9.51879 7.19812 10 7.19812H22C22.4812 7.19812 22.8942 7.54086 22.9829 8.01383L25.9829 24.0138C26.0377 24.3062 25.9595 24.6078 25.7695 24.8368C25.5795 25.0657 25.2975 25.1981 25 25.1981H7.00001C6.70252 25.1981 6.42048 25.0657 6.2305 24.8368C6.04051 24.6078 5.96231 24.3062 6.01714 24.0138L9.01714 8.01383ZM20 16.1981C20 18.4073 18.2091 20.1981 16 20.1981C13.7909 20.1981 12 18.4073 12 16.1981C12 13.989 13.7909 12.1981 16 12.1981C18.2091 12.1981 20 13.989 20 16.1981Z" fill="#333D47"/>
<path d="M5 28.1981C5 27.6458 5.44772 27.1981 6 27.1981L26 27.1981C26.5523 27.1981 27 27.6458 27 28.1981C27 28.7504 26.5523 29.1981 26 29.1981L6 29.1981C5.44772 29.1981 5 28.7504 5 28.1981Z" fill="#333D47"/>
</svg>
