<svg width="32" height="33" viewBox="0 0 32 33" fill="none" xmlns="http://www.w3.org/2000/svg">
<path fill-rule="evenodd" clip-rule="evenodd" d="M15.1274 4.96694C17.4858 2.60851 21.3096 2.60851 23.668 4.96694C26.0264 7.32536 26.0264 11.1491 23.668 13.5075L14.0474 23.1282C12.6729 24.5026 10.4444 24.5026 9.06997 23.1282C7.6955 21.7537 7.6955 19.5252 9.06997 18.1507L18.6906 8.53013C19.0811 8.1396 19.7143 8.1396 20.1048 8.53013C20.4953 8.92065 20.4953 9.55382 20.1048 9.94434L10.4842 19.565C9.89076 20.1584 9.89076 21.1205 10.4842 21.7139C11.0776 22.3074 12.0397 22.3074 12.6332 21.7139L22.2538 12.0933C23.8312 10.5159 23.8312 7.95852 22.2538 6.38115C20.6764 4.80378 18.119 4.80378 16.5416 6.38115L6.92099 16.0018C4.35967 18.5631 4.35967 22.7158 6.92099 25.2771C9.48231 27.8384 13.635 27.8384 16.1964 25.2771L27.2929 14.1806C27.6834 13.7901 28.3166 13.7901 28.7071 14.1806C29.0976 14.5711 29.0976 15.2043 28.7071 15.5948L17.6106 26.6913C14.2682 30.0337 8.84915 30.0337 5.50678 26.6913C2.16441 23.349 2.16441 17.9299 5.50678 14.5876L15.1274 4.96694Z" fill="#333D47"/>
</svg>
