<svg width="32" height="33" viewBox="0 0 32 33" fill="none" xmlns="http://www.w3.org/2000/svg">
<path fill-rule="evenodd" clip-rule="evenodd" d="M16 3.19812C12.6863 3.19812 10 5.88441 10 9.19812H7C5.89543 9.19812 5 10.0936 5 11.1981L4 26.1981C4 27.3027 4.89543 28.1981 6 28.1981H26C27.1046 28.1981 28 27.3027 28 26.1981L27 11.1981C27 10.0936 26.1046 9.19812 25 9.19812H22C22 5.88441 19.3137 3.19812 16 3.19812ZM20 9.19812C20 6.98898 18.2091 5.19812 16 5.19812C13.7909 5.19812 12 6.98898 12 9.19812H20ZM6 26.1981L7 11.1981H25L26 26.1981H6Z" fill="#333D47"/>
</svg>
