<svg width="32" height="33" viewBox="0 0 32 33" fill="none" xmlns="http://www.w3.org/2000/svg">
<path fill-rule="evenodd" clip-rule="evenodd" d="M2 3.19812C2 2.64584 2.44772 2.19812 3 2.19812H11C11.5523 2.19812 12 2.64584 12 3.19812V14.1981H18V9.19812C18 8.64584 18.4477 8.19812 19 8.19812H27C27.5523 8.19812 28 8.64584 28 9.19812V28.1981H29C29.5523 28.1981 30 28.6458 30 29.1981C30 29.7504 29.5523 30.1981 29 30.1981H3C2.44772 30.1981 2 29.7504 2 29.1981V3.19812ZM12 28.1981V16.1981H18V28.1981H12ZM20 28.1981V10.1981H26V28.1981H20ZM10 28.1981H4V4.19812H10V28.1981Z" fill="#333D47"/>
</svg>
