<svg width="32" height="33" viewBox="0 0 32 33" fill="none" xmlns="http://www.w3.org/2000/svg">
<path fill-rule="evenodd" clip-rule="evenodd" d="M2 29.1981C2 28.6458 2.44772 28.1981 3 28.1981H29C29.5523 28.1981 30 28.6458 30 29.1981C30 29.7504 29.5523 30.1981 29 30.1981H3C2.44772 30.1981 2 29.7504 2 29.1981Z" fill="#333D47"/>
<path fill-rule="evenodd" clip-rule="evenodd" d="M2 3.19812C2 2.64584 2.44772 2.19812 3 2.19812H9C9.55228 2.19812 10 2.64584 10 3.19812V29.1981C10 29.7504 9.55228 30.1981 9 30.1981C8.44772 30.1981 8 29.7504 8 29.1981H4C4 29.7504 3.55228 30.1981 3 30.1981C2.44772 30.1981 2 29.7504 2 29.1981V3.19812Z" fill="#333D47"/>
<path fill-rule="evenodd" clip-rule="evenodd" d="M12 15.1981C12 14.6458 12.4477 14.1981 13 14.1981H17C17.5523 14.1981 18 14.6458 18 15.1981V29.1981C18 29.7504 18.5523 30.1981 18 30.1981C17.4477 30.1981 17 29.7504 17 29.1981H13C13 29.7504 12.5523 30.1981 12 30.1981C11.4477 30.1981 12 29.7504 12 29.1981V15.1981Z" fill="#333D47"/>
<path fill-rule="evenodd" clip-rule="evenodd" d="M20 9.19812C20 8.64584 20.4477 8.19812 21 8.19812H27C27.5523 8.19812 28 8.64584 28 9.19812V29.1981C28 29.7504 27.5523 30.1981 27 30.1981C26.4477 30.1981 26 29.7504 26 29.1981H22C22 29.7504 21.5523 30.1981 21 30.1981C20.4477 30.1981 20 29.7504 20 29.1981V9.19812Z" fill="#333D47"/>
</svg>
