<svg width="32" height="33" viewBox="0 0 32 33" fill="none" xmlns="http://www.w3.org/2000/svg">
<path fill-rule="evenodd" clip-rule="evenodd" d="M4 22.1981C4.55228 22.1981 5 22.6458 5 23.1981V26.1981C5 26.7504 5.44772 27.1981 6 27.1981H9C9.55229 27.1981 10 27.6458 10 28.1981C10 28.7504 9.55229 29.1981 9 29.1981H6C4.34315 29.1981 3 27.855 3 26.1981V23.1981C3 22.6458 3.44772 22.1981 4 22.1981Z" fill="#333D47"/>
<path fill-rule="evenodd" clip-rule="evenodd" d="M28 10.1981C27.4477 10.1981 27 9.7504 27 9.19812V6.19812C27 5.64584 26.5523 5.19812 26 5.19812H23C22.4477 5.19812 22 4.7504 22 4.19812C22 3.64584 22.4477 3.19812 23 3.19812H26C27.6569 3.19812 29 4.54127 29 6.19812V9.19812C29 9.7504 28.5523 10.1981 28 10.1981Z" fill="#333D47"/>
<path fill-rule="evenodd" clip-rule="evenodd" d="M10 4.19812C10 4.7504 9.55228 5.19812 9 5.19812L6 5.19812C5.44772 5.19812 5 5.64584 5 6.19812L5 9.19812C5 9.7504 4.55228 10.1981 4 10.1981C3.44772 10.1981 3 9.7504 3 9.19812L3 6.19812C3 4.54127 4.34315 3.19812 6 3.19812L9 3.19812C9.55229 3.19812 10 3.64584 10 4.19812Z" fill="#333D47"/>
<path fill-rule="evenodd" clip-rule="evenodd" d="M22 28.1981C22 27.6458 22.4477 27.1981 23 27.1981H26C26.5523 27.1981 27 26.7504 27 26.1981V23.1981C27 22.6458 27.4477 22.1981 28 22.1981C28.5523 22.1981 29 22.6458 29 23.1981V26.1981C29 27.855 27.6569 29.1981 26 29.1981H23C22.4477 29.1981 22 28.7504 22 28.1981Z" fill="#333D47"/>
<path fill-rule="evenodd" clip-rule="evenodd" d="M8 10.1981C8.55229 10.1981 9 10.6458 9 11.1981V21.1981C9 21.7504 8.55229 22.1981 8 22.1981C7.44772 22.1981 7 21.7504 7 21.1981V11.1981C7 10.6458 7.44772 10.1981 8 10.1981Z" fill="#333D47"/>
<path fill-rule="evenodd" clip-rule="evenodd" d="M16 10.1981C16.5523 10.1981 17 10.6458 17 11.1981V17.1981C17 17.7504 16.5523 18.1981 16 18.1981C15.4477 18.1981 15 17.7504 15 17.1981V11.1981C15 10.6458 15.4477 10.1981 16 10.1981Z" fill="#333D47"/>
<path fill-rule="evenodd" clip-rule="evenodd" d="M12 10.1981C12.5523 10.1981 13 10.6458 13 11.1981V17.1981C13 17.7504 12.5523 18.1981 12 18.1981C11.4477 18.1981 11 17.7504 11 17.1981V11.1981C11 10.6458 11.4477 10.1981 12 10.1981Z" fill="#333D47"/>
<path fill-rule="evenodd" clip-rule="evenodd" d="M11 21.1981C11 20.6458 11.4477 20.1981 12 20.1981L20 20.1981C20.5523 20.1981 21 20.6458 21 21.1981C21 21.7504 20.5523 22.1981 20 22.1981L12 22.1981C11.4477 22.1981 11 21.7504 11 21.1981Z" fill="#333D47"/>
<path fill-rule="evenodd" clip-rule="evenodd" d="M20 10.1981C20.5523 10.1981 21 10.6458 21 11.1981V17.1981C21 17.7504 20.5523 18.1981 20 18.1981C19.4477 18.1981 19 17.7504 19 17.1981V11.1981C19 10.6458 19.4477 10.1981 20 10.1981Z" fill="#333D47"/>
<path fill-rule="evenodd" clip-rule="evenodd" d="M24 10.1981C24.5523 10.1981 25 10.6458 25 11.1981V21.1981C25 21.7504 24.5523 22.1981 24 22.1981C23.4477 22.1981 23 21.7504 23 21.1981V11.1981C23 10.6458 23.4477 10.1981 24 10.1981Z" fill="#333D47"/>
</svg>
