<svg width="32" height="33" viewBox="0 0 32 33" fill="none" xmlns="http://www.w3.org/2000/svg">
<path fill-rule="evenodd" clip-rule="evenodd" d="M10 7.19812V6.19812C10 4.54127 11.3431 3.19812 13 3.19812H19C20.6569 3.19812 22 4.54127 22 6.19812V7.19812H28C28.5523 7.19812 29 7.64584 29 8.19812C29 8.7504 28.5523 9.19812 28 9.19812H26.8913L24.6857 28.3127C24.6275 28.8173 24.2003 29.1981 23.6923 29.1981H8.3077C7.79976 29.1981 7.37251 28.8173 7.31429 28.3127L5.10875 9.19812H4C3.44772 9.19812 3 8.7504 3 8.19812C3 7.64584 3.44772 7.19812 4 7.19812H10ZM12 6.19812C12 5.64584 12.4477 5.19812 13 5.19812H19C19.5523 5.19812 20 5.64584 20 6.19812V7.19812H12V6.19812ZM13 13.1981C13.5523 13.1981 14 13.6458 14 14.1981V22.1981C14 22.7504 13.5523 23.1981 13 23.1981C12.4477 23.1981 12 22.7504 12 22.1981V14.1981C12 13.6458 12.4477 13.1981 13 13.1981ZM20 14.1981C20 13.6458 19.5523 13.1981 19 13.1981C18.4477 13.1981 18 13.6458 18 14.1981V22.1981C18 22.7504 18.4477 23.1981 19 23.1981C19.5523 23.1981 20 22.7504 20 22.1981V14.1981Z" fill="#333D47"/>
</svg>
