<svg width="32" height="33" viewBox="0 0 32 33" fill="none" xmlns="http://www.w3.org/2000/svg">
<path fill-rule="evenodd" clip-rule="evenodd" d="M3.39392 28.117C6.68344 26.7072 11.4586 26.218 15.7625 27.1695C15.8387 27.188 15.9182 27.1979 16 27.1979C16.0818 27.1979 16.1614 27.188 16.2375 27.1695C20.5414 26.218 25.3166 26.7072 28.6061 28.117C28.915 28.2494 29.2699 28.2178 29.5505 28.0327C29.8311 27.8477 30 27.534 30 27.1979V8.69788C30 7.86945 29.3284 7.19788 28.5 7.19788H27.0001V5.82762C27.0001 5.12575 26.5035 4.48185 25.7629 4.35932C22.3788 3.7994 18.6386 4.75001 16 6.87037C13.3614 4.75001 9.62117 3.7994 6.2371 4.35932C5.49651 4.48185 4.99992 5.12575 4.99992 5.82762V7.19788H3.5C2.67157 7.19788 2 7.86945 2 8.69788V27.1979C2 27.534 2.16888 27.8477 2.44951 28.0327C2.73014 28.2178 3.08495 28.2494 3.39392 28.117ZM15.0001 8.64042C12.9308 6.84312 9.84873 5.93259 7 6.27042V21.2354C9.72888 21.436 12.6696 22.438 15.0001 24.0678L15.0001 8.64042ZM25.0002 6.27042C22.1514 5.93259 19.0693 6.84312 17.0001 8.64042L17.0001 24.0678C19.3306 22.438 22.2713 21.436 25.0002 21.2354V6.27042Z" fill="#333D47"/>
</svg>
