<svg width="32" height="33" viewBox="0 0 32 33" fill="none" xmlns="http://www.w3.org/2000/svg">
<path fill-rule="evenodd" clip-rule="evenodd" d="M15.7625 27.1696C11.4586 26.2181 6.68344 26.7073 3.39392 28.1171C3.08495 28.2496 2.73014 28.2179 2.44951 28.0328C2.16888 27.8478 2 27.5341 2 27.198V8.698C2 7.86957 2.67157 7.198 3.5 7.198H4.99992V5.82775C4.99992 5.12587 5.49651 4.48197 6.2371 4.35944C9.62117 3.79953 13.3614 4.75013 16 6.87049C18.6386 4.75013 22.3788 3.79953 25.7629 4.35944C26.5035 4.48197 27.0001 5.12587 27.0001 5.82775V7.198H28.5C29.3284 7.198 30 7.86957 30 8.698V27.198C30 27.5341 29.8311 27.8478 29.5505 28.0328C29.2699 28.2179 28.915 28.2496 28.6061 28.1171C25.3166 26.7074 20.5414 26.2181 16.2375 27.1696C16.1614 27.1882 16.0818 27.198 16 27.198C15.9182 27.198 15.8387 27.1882 15.7625 27.1696ZM17 8.64073C19.0693 6.84343 22.1513 5.93291 25.0001 6.27073V21.2357C22.2712 21.4363 19.3305 22.4383 17 24.0681L17 8.64073ZM15 8.64073C12.9307 6.84343 9.84865 5.93291 6.99992 6.27073V21.2357C9.7288 21.4363 12.6695 22.4383 15 24.0681L15 8.64073ZM5.99993 23.1983C7.99774 23.1983 10.2066 23.7408 12.1435 24.6989C9.26638 24.5802 6.40809 24.966 4 25.7551V9.198H4.99992V22.1983C4.99992 22.4636 5.10528 22.7179 5.29282 22.9055C5.48035 23.093 5.73471 23.1983 5.99993 23.1983ZM27.0001 9.198V22.1983C27.0001 22.4636 26.8947 22.7179 26.7072 22.9055C26.5196 23.093 26.2653 23.1983 26.0001 23.1983C24.0023 23.1983 21.7934 23.7408 19.8565 24.6989C22.7336 24.5802 25.5919 24.966 28 25.7551V9.198H27.0001Z" fill="#333D47"/>
</svg>
