<svg width="32" height="33" viewBox="0 0 32 33" fill="none" xmlns="http://www.w3.org/2000/svg">
<path fill-rule="evenodd" clip-rule="evenodd" d="M13 4.19812C11.3431 4.19812 10 5.54127 10 7.19812V9.19812H5C3.34315 9.19812 2 10.5413 2 12.1981V25.1981C2 26.855 3.34315 28.1981 5 28.1981H27C28.6569 28.1981 30 26.855 30 25.1981V12.1981C30 10.5413 28.6569 9.19812 27 9.19812H22V7.19812C22 5.54127 20.6569 4.19812 19 4.19812H13ZM20 9.19812V7.19812C20 6.64584 19.5523 6.19812 19 6.19812H13C12.4477 6.19812 12 6.64584 12 7.19812V9.19812H20ZM7 13.1981C7.55228 13.1981 8 13.6458 8 14.1981V23.1981C8 23.7504 7.55228 24.1981 7 24.1981C6.44772 24.1981 6 23.7504 6 23.1981V14.1981C6 13.6458 6.44772 13.1981 7 13.1981ZM26 14.1981C26 13.6458 25.5523 13.1981 25 13.1981C24.4477 13.1981 24 13.6458 24 14.1981V23.1981C24 23.7504 24.4477 24.1981 25 24.1981C25.5523 24.1981 26 23.7504 26 23.1981V14.1981Z" fill="#333D47"/>
</svg>
