<svg width="32" height="33" viewBox="0 0 32 33" fill="none" xmlns="http://www.w3.org/2000/svg">
<path fill-rule="evenodd" clip-rule="evenodd" d="M12.5 2.19794C11.8557 2.19794 11.3333 2.72027 11.3333 3.3646V4.53127H9C8.35567 4.53127 7.83333 5.0536 7.83333 5.69794V17.3646H3.16667C2.52233 17.3646 2 17.8869 2 18.5313V29.0313C2 29.6756 2.52233 30.1979 3.16667 30.1979H12.5V24.3646C12.5 23.7203 13.0223 23.1979 13.6667 23.1979H18.3333C18.9777 23.1979 19.5 23.7203 19.5 24.3646V30.1979H28.8333C29.4777 30.1979 30 29.6756 30 29.0313V18.5313C30 17.8869 29.4777 17.3646 28.8333 17.3646H24.1667V5.69794C24.1667 5.0536 23.6443 4.53127 23 4.53127H20.6667V3.3646C20.6667 2.72027 20.1443 2.19794 19.5 2.19794H12.5ZM14.8333 9.19794H12.5V11.5313H14.8333V9.19794ZM14.8333 13.8644H12.5V16.1978H14.8333V13.8644ZM6.66602 23.1979H8.99935V25.5313H6.66602V23.1979ZM23 23.1979H25.3333V25.5313H23V23.1979ZM17.166 13.8644H19.4993V16.1978H17.166V13.8644ZM14.8333 18.5314H12.5V20.8648H14.8333V18.5314ZM17.166 18.5314H19.4993V20.8648H17.166V18.5314ZM17.166 9.19794H19.4993V11.5313H17.166V9.19794Z" fill="#333D47"/>
</svg>
