<svg width="32" height="33" viewBox="0 0 32 33" fill="none" xmlns="http://www.w3.org/2000/svg">
<path fill-rule="evenodd" clip-rule="evenodd" d="M11.3333 3.36479C11.3333 2.72045 11.8557 2.19812 12.5 2.19812H19.5C20.1443 2.19812 20.6667 2.72045 20.6667 3.36479V4.53145H23C23.6443 4.53145 24.1667 5.05379 24.1667 5.69812V17.3648H28.8333C29.4777 17.3648 30 17.8871 30 18.5315V29.0315C30 29.6758 29.4777 30.1981 28.8333 30.1981H3.16667C2.52233 30.1981 2 29.6758 2 29.0315V18.5315C2 17.8871 2.52233 17.3648 3.16667 17.3648H7.83333V5.69812C7.83333 5.05379 8.35567 4.53145 9 4.53145H11.3333V3.36479ZM13.6667 4.53145V5.69812C13.6667 6.34245 13.1443 6.86479 12.5 6.86479H10.1667V18.5315C10.1667 19.1758 9.64433 19.6981 9 19.6981H4.33333V27.8648H27.6667V19.6981H23C22.3557 19.6981 21.8333 19.1758 21.8333 18.5315V6.86479H19.5C18.8557 6.86479 18.3333 6.34245 18.3333 5.69812V4.53145H13.6667Z" fill="#333D47"/>
<path fill-rule="evenodd" clip-rule="evenodd" d="M12.5 24.3648C12.5 23.7205 13.0223 23.1981 13.6667 23.1981H18.3333C18.9777 23.1981 19.5 23.7205 19.5 24.3648V29.0315C19.5 29.6758 18.9777 30.1981 18.3333 30.1981H13.6667C13.0223 30.1981 12.5 29.6758 12.5 29.0315V24.3648ZM14.8333 25.5315V27.8648H17.1667V25.5315H14.8333Z" fill="#333D47"/>
<path d="M9 23.1983H6.66667V25.5316H9V23.1983Z" fill="#333D47"/>
<path d="M25.334 23.1983H23.0007V25.5316H25.334V23.1983Z" fill="#333D47"/>
<path d="M14.834 13.8648H12.5007V16.1981H14.834V13.8648Z" fill="#333D47"/>
<path d="M19.5 13.8648H17.1667V16.1981H19.5V13.8648Z" fill="#333D47"/>
<path d="M14.834 18.5318H12.5007V20.8651H14.834V18.5318Z" fill="#333D47"/>
<path d="M19.5 18.5318H17.1667V20.8651H19.5V18.5318Z" fill="#333D47"/>
<path d="M14.834 9.19828H12.5007V11.5316H14.834V9.19828Z" fill="#333D47"/>
<path d="M19.5 9.19828H17.1667V11.5316H19.5V9.19828Z" fill="#333D47"/>
</svg>
