<svg width="32" height="33" viewBox="0 0 32 33" fill="none" xmlns="http://www.w3.org/2000/svg">
<path d="M13 10.1979C13 10.7502 12.5523 11.1979 12 11.1979H11V12.1979C11 12.7502 10.5523 13.1979 10 13.1979C9.44772 13.1979 9 12.7502 9 12.1979V11.1979H8C7.44772 11.1979 7 10.7502 7 10.1979C7 9.64565 7.44772 9.19794 8 9.19794H9V8.19794C9 7.64565 9.44772 7.19794 10 7.19794C10.5523 7.19794 11 7.64565 11 8.19794V9.19794H12C12.5523 9.19794 13 9.64565 13 10.1979Z" fill="#333D47"/>
<path d="M25 20.6979C25 21.2502 24.5523 21.6979 24 21.6979H20C19.4477 21.6979 19 21.2502 19 20.6979C19 20.1457 19.4477 19.6979 20 19.6979H24C24.5523 19.6979 25 20.1457 25 20.6979Z" fill="#333D47"/>
<path d="M25 23.6979C25 24.2502 24.5523 24.6979 24 24.6979H20C19.4477 24.6979 19 24.2502 19 23.6979C19 23.1457 19.4477 22.6979 20 22.6979H24C24.5523 22.6979 25 23.1457 25 23.6979Z" fill="#333D47"/>
<path fill-rule="evenodd" clip-rule="evenodd" d="M6 3.19794C4.34315 3.19794 3 4.54108 3 6.19794V26.1979C3 27.8548 4.34315 29.1979 6 29.1979H26C27.6569 29.1979 29 27.8548 29 26.1979V6.19794C29 4.54108 27.6569 3.19794 26 3.19794H6ZM15 5.19794H6C5.44772 5.19794 5 5.64565 5 6.19794V15.1979H15V5.19794ZM17 27.1979V17.1979H27V26.1979C27 26.7502 26.5523 27.1979 26 27.1979H17ZM25.0002 10.1979C25.0002 10.7502 24.5525 11.1979 24.0002 11.1979H20.0002C19.4479 11.1979 19.0002 10.7502 19.0002 10.1979C19.0002 9.64565 19.4479 9.19794 20.0002 9.19794H24.0002C24.5525 9.19794 25.0002 9.64565 25.0002 10.1979ZM12.7071 20.905C13.0976 20.5145 13.0976 19.8814 12.7071 19.4908C12.3166 19.1003 11.6834 19.1003 11.2929 19.4908L10.0001 20.7836L8.70727 19.4908C8.31675 19.1003 7.68359 19.1003 7.29306 19.4908C6.90254 19.8814 6.90254 20.5145 7.29306 20.905L8.58588 22.1979L7.29289 23.4908C6.90237 23.8814 6.90237 24.5145 7.29289 24.9051C7.68342 25.2956 8.31658 25.2956 8.70711 24.9051L10.0001 23.6121L11.2931 24.9051C11.6836 25.2956 12.3168 25.2956 12.7073 24.9051C13.0978 24.5145 13.0978 23.8814 12.7073 23.4908L11.4143 22.1979L12.7071 20.905Z" fill="#333D47"/>
</svg>
