<svg width="32" height="33" viewBox="0 0 32 33" fill="none" xmlns="http://www.w3.org/2000/svg">
<path d="M12 11.1981C12.5523 11.1981 13 10.7504 13 10.1981C13 9.64584 12.5523 9.19812 12 9.19812H11V8.19812C11 7.64584 10.5523 7.19812 10 7.19812C9.44772 7.19812 9 7.64584 9 8.19812V9.19812H8C7.44772 9.19812 7 9.64584 7 10.1981C7 10.7504 7.44772 11.1981 8 11.1981H9V12.1981C9 12.7504 9.44772 13.1981 10 13.1981C10.5523 13.1981 11 12.7504 11 12.1981V11.1981H12Z" fill="#333D47"/>
<path d="M25 10.1981C25 10.7504 24.5523 11.1981 24 11.1981H20C19.4477 11.1981 19 10.7504 19 10.1981C19 9.64584 19.4477 9.19812 20 9.19812H24C24.5523 9.19812 25 9.64584 25 10.1981Z" fill="#333D47"/>
<path d="M12.707 20.9052C13.0975 20.5147 13.0975 19.8815 12.707 19.491C12.3164 19.1005 11.6833 19.1005 11.2927 19.491L9.99992 20.7838L8.70711 19.491C8.31658 19.1005 7.68342 19.1005 7.29289 19.491C6.90237 19.8815 6.90237 20.5147 7.29289 20.9052L8.58571 22.198L7.29273 23.491C6.9022 23.8816 6.9022 24.5147 7.29273 24.9052C7.68325 25.2958 8.31641 25.2958 8.70694 24.9052L9.99993 23.6123L11.2929 24.9052C11.6834 25.2958 12.3166 25.2958 12.7071 24.9052C13.0976 24.5147 13.0976 23.8816 12.7071 23.491L11.4141 22.198L12.707 20.9052Z" fill="#333D47"/>
<path d="M24 21.6981C24.5523 21.6981 25 21.2504 25 20.6981C25 20.1458 24.5523 19.6981 24 19.6981H20C19.4477 19.6981 19 20.1458 19 20.6981C19 21.2504 19.4477 21.6981 20 21.6981H24Z" fill="#333D47"/>
<path d="M25 23.6981C25 24.2504 24.5523 24.6981 24 24.6981H20C19.4477 24.6981 19 24.2504 19 23.6981C19 23.1458 19.4477 22.6981 20 22.6981H24C24.5523 22.6981 25 23.1458 25 23.6981Z" fill="#333D47"/>
<path fill-rule="evenodd" clip-rule="evenodd" d="M3 6.19812C3 4.54127 4.34315 3.19812 6 3.19812H26C27.6569 3.19812 29 4.54127 29 6.19812V26.1981C29 27.855 27.6569 29.1981 26 29.1981H6C4.34315 29.1981 3 27.855 3 26.1981V6.19812ZM6 5.19812H15V15.1981H5V6.19812C5 5.64584 5.44772 5.19812 6 5.19812ZM27 15.1981H17V5.19812H26C26.5523 5.19812 27 5.64584 27 6.19812V15.1981ZM5 26.1981V17.1981H15V27.1981H6C5.44772 27.1981 5 26.7504 5 26.1981ZM17 17.1981V27.1981H26C26.5523 27.1981 27 26.7504 27 26.1981V17.1981H17Z" fill="#333D47"/>
</svg>
