<svg width="32" height="33" viewBox="0 0 32 33" fill="none" xmlns="http://www.w3.org/2000/svg">
<path d="M16.999 11.1981C16.999 10.6458 16.5512 10.1981 15.9989 10.1981C15.4467 10.1981 14.999 10.6459 14.999 11.1981L14.999 11.6744C14.4245 11.7844 13.8861 11.9964 13.4318 12.3276C12.6905 12.8682 12.2298 13.6918 12.2298 14.6981C12.2298 15.2642 12.3779 15.9884 12.9666 16.6632C13.5376 17.3177 14.4384 17.8281 15.7491 18.1664C16.823 18.4435 17.3068 18.7985 17.5243 19.0478C17.724 19.2768 17.7682 19.495 17.7682 19.6981C17.7682 20.0379 17.6355 20.272 17.3878 20.4526C17.1098 20.6553 16.6425 20.8135 15.999 20.8135C14.8746 20.8135 14.3486 20.1995 14.1954 19.6305C14.0518 19.0972 13.5031 18.7812 12.9698 18.9248C12.4365 19.0684 12.1206 19.6171 12.2641 20.1504C12.5821 21.3317 13.5299 22.3776 14.999 22.7065V23.1981C14.999 23.7504 15.4467 24.1981 15.999 24.1981C16.5513 24.1981 16.999 23.7504 16.999 23.1981V22.7218C17.5735 22.6119 18.1119 22.3998 18.5662 22.0686C19.3075 21.5281 19.7682 20.7045 19.7682 19.6981C19.7682 19.132 19.6201 18.4079 19.0314 17.7331C18.4604 17.0785 17.5596 16.5681 16.2489 16.2298C15.175 15.9527 14.6912 15.5977 14.4737 15.3484C14.274 15.1194 14.2298 14.9012 14.2298 14.6981C14.2298 14.3583 14.3625 14.1242 14.6102 13.9436C14.8882 13.7409 15.3555 13.5827 15.999 13.5827C17.1234 13.5827 17.6494 14.1967 17.8026 14.7658C17.9462 15.2991 18.4949 15.615 19.0282 15.4714C19.5615 15.3279 19.8774 14.7792 19.7339 14.2459C19.4159 13.0645 18.4681 12.0186 16.999 11.6897L16.999 11.1981Z" fill="#333D47"/>
<path fill-rule="evenodd" clip-rule="evenodd" d="M11 3.19812C11.5523 3.19812 12 3.64584 12 4.19812V5.19812H20V4.19812C20 3.64584 20.4477 3.19812 21 3.19812C21.5523 3.19812 22 3.64584 22 4.19812V5.19812H26C27.6569 5.19812 29 6.54127 29 8.19812V26.1981C29 27.855 27.6569 29.1981 26 29.1981H6C4.34315 29.1981 3 27.855 3 26.1981V8.19812C3 6.54127 4.34315 5.19812 6 5.19812H10V4.19812C10 3.64584 10.4477 3.19812 11 3.19812ZM20 7.19812V8.19812C20 8.7504 20.4477 9.19812 21 9.19812C21.5523 9.19812 22 8.7504 22 8.19812V7.19812H26C26.5523 7.19812 27 7.64584 27 8.19812V26.1981C27 26.7504 26.5523 27.1981 26 27.1981H6C5.44772 27.1981 5 26.7504 5 26.1981V8.19812C5 7.64584 5.44772 7.19812 6 7.19812H10V8.19812C10 8.7504 10.4477 9.19812 11 9.19812C11.5523 9.19812 12 8.7504 12 8.19812V7.19812H20Z" fill="#333D47"/>
</svg>
