<svg width="32" height="33" viewBox="0 0 32 33" fill="none" xmlns="http://www.w3.org/2000/svg">
<path fill-rule="evenodd" clip-rule="evenodd" d="M11 3.19812C11.5523 3.19812 12 3.64584 12 4.19812V5.19812H20V4.19812C20 3.64584 20.4477 3.19812 21 3.19812C21.5523 3.19812 22 3.64584 22 4.19812V5.19812H26C27.6569 5.19812 29 6.54127 29 8.19812V26.1981C29 27.855 27.6569 29.1981 26 29.1981H6C4.34315 29.1981 3 27.855 3 26.1981V8.19812C3 6.54127 4.34315 5.19812 6 5.19812H10V4.19812C10 3.64584 10.4477 3.19812 11 3.19812ZM20 7.19812V8.19812C20 8.7504 20.4477 9.19812 21 9.19812C21.5523 9.19812 22 8.7504 22 8.19812V7.19812H26C26.5523 7.19812 27 7.64584 27 8.19812V11.1981H5V8.19812C5 7.64584 5.44772 7.19812 6 7.19812H10V8.19812C10 8.7504 10.4477 9.19812 11 9.19812C11.5523 9.19812 12 8.7504 12 8.19812V7.19812H20ZM5 13.1981V26.1981C5 26.7504 5.44772 27.1981 6 27.1981H26C26.5523 27.1981 27 26.7504 27 26.1981V13.1981H5Z" fill="#333D47"/>
</svg>
