<svg width="32" height="33" viewBox="0 0 32 33" fill="none" xmlns="http://www.w3.org/2000/svg">
<path fill-rule="evenodd" clip-rule="evenodd" d="M12 4.19812C12 3.64584 11.5523 3.19812 11 3.19812C10.4477 3.19812 10 3.64584 10 4.19812V5.19812H6C4.34315 5.19812 3 6.54127 3 8.19812V26.1981C3 27.855 4.34315 29.1981 6 29.1981H26C27.6569 29.1981 29 27.855 29 26.1981V8.19812C29 6.54127 27.6569 5.19812 26 5.19812H22V4.19812C22 3.64584 21.5523 3.19812 21 3.19812C20.4477 3.19812 20 3.64584 20 4.19812V5.19812H12V4.19812ZM16.9995 11.1981C16.9994 10.6458 16.5517 10.1981 15.9994 10.1981C15.4471 10.1981 14.9994 10.6459 14.9995 11.1981L14.9995 11.6744C14.425 11.7844 13.8865 11.9964 13.4323 12.3276C12.691 12.8682 12.2303 13.6918 12.2303 14.6981C12.2303 15.2642 12.3784 15.9884 12.9671 16.6632C13.5381 17.3177 14.4389 17.8281 15.7496 18.1664C16.8235 18.4435 17.3073 18.7985 17.5247 19.0478C17.7245 19.2768 17.7687 19.495 17.7687 19.6981C17.7687 20.0379 17.636 20.272 17.3883 20.4526C17.1103 20.6553 16.643 20.8135 15.9995 20.8135C14.8751 20.8135 14.349 20.1995 14.1959 19.6305C14.0523 19.0972 13.5036 18.7812 12.9703 18.9248C12.437 19.0684 12.121 19.6171 12.2646 20.1504C12.5826 21.3317 13.5304 22.3776 14.9995 22.7065V23.1981C14.9995 23.7504 15.4472 24.1981 15.9995 24.1981C16.5517 24.1981 16.9995 23.7504 16.9995 23.1981V22.7218C17.574 22.6119 18.1124 22.3998 18.5667 22.0686C19.308 21.5281 19.7687 20.7045 19.7687 19.6981C19.7687 19.132 19.6206 18.4079 19.0319 17.7331C18.4609 17.0785 17.5601 16.5681 16.2494 16.2298C15.1755 15.9527 14.6917 15.5977 14.4742 15.3484C14.2744 15.1194 14.2303 14.9012 14.2303 14.6981C14.2303 14.3583 14.363 14.1242 14.6106 13.9436C14.8887 13.7409 15.356 13.5827 15.9995 13.5827C17.1239 13.5827 17.6499 14.1967 17.8031 14.7658C17.9467 15.2991 18.4954 15.615 19.0287 15.4714C19.562 15.3279 19.8779 14.7792 19.7344 14.2459C19.4163 13.0645 18.4686 12.0186 16.9995 11.6897L16.9995 11.1981Z" fill="#333D47"/>
</svg>
