<svg width="32" height="33" viewBox="0 0 32 33" fill="none" xmlns="http://www.w3.org/2000/svg">
<path d="M11 17.6981C11 18.5265 10.3284 19.1981 9.5 19.1981C8.67157 19.1981 8 18.5265 8 17.6981C8 16.8697 8.67157 16.1981 9.5 16.1981C10.3284 16.1981 11 16.8697 11 17.6981Z" fill="#333D47"/>
<path d="M16 19.1981C16.8284 19.1981 17.5 18.5265 17.5 17.6981C17.5 16.8697 16.8284 16.1981 16 16.1981C15.1716 16.1981 14.5 16.8697 14.5 17.6981C14.5 18.5265 15.1716 19.1981 16 19.1981Z" fill="#333D47"/>
<path d="M24 17.6981C24 18.5265 23.3284 19.1981 22.5 19.1981C21.6716 19.1981 21 18.5265 21 17.6981C21 16.8697 21.6716 16.1981 22.5 16.1981C23.3284 16.1981 24 16.8697 24 17.6981Z" fill="#333D47"/>
<path d="M9.5 24.1981C10.3284 24.1981 11 23.5265 11 22.6981C11 21.8697 10.3284 21.1981 9.5 21.1981C8.67157 21.1981 8 21.8697 8 22.6981C8 23.5265 8.67157 24.1981 9.5 24.1981Z" fill="#333D47"/>
<path d="M17.5 22.6981C17.5 23.5265 16.8284 24.1981 16 24.1981C15.1716 24.1981 14.5 23.5265 14.5 22.6981C14.5 21.8697 15.1716 21.1981 16 21.1981C16.8284 21.1981 17.5 21.8697 17.5 22.6981Z" fill="#333D47"/>
<path d="M22.5 24.1981C23.3284 24.1981 24 23.5265 24 22.6981C24 21.8697 23.3284 21.1981 22.5 21.1981C21.6716 21.1981 21 21.8697 21 22.6981C21 23.5265 21.6716 24.1981 22.5 24.1981Z" fill="#333D47"/>
<path fill-rule="evenodd" clip-rule="evenodd" d="M11 3.19812C11.5523 3.19812 12 3.64584 12 4.19812V5.19812H20V4.19812C20 3.64584 20.4477 3.19812 21 3.19812C21.5523 3.19812 22 3.64584 22 4.19812V5.19812H26C27.6569 5.19812 29 6.54127 29 8.19812V26.1981C29 27.855 27.6569 29.1981 26 29.1981H6C4.34315 29.1981 3 27.855 3 26.1981V8.19812C3 6.54127 4.34315 5.19812 6 5.19812H10V4.19812C10 3.64584 10.4477 3.19812 11 3.19812ZM20 7.19812V8.19812C20 8.7504 20.4477 9.19812 21 9.19812C21.5523 9.19812 22 8.7504 22 8.19812V7.19812H26C26.5523 7.19812 27 7.64584 27 8.19812V11.1981H5V8.19812C5 7.64584 5.44772 7.19812 6 7.19812H10V8.19812C10 8.7504 10.4477 9.19812 11 9.19812C11.5523 9.19812 12 8.7504 12 8.19812V7.19812H20ZM5 13.1981V26.1981C5 26.7504 5.44772 27.1981 6 27.1981H26C26.5523 27.1981 27 26.7504 27 26.1981V13.1981H5Z" fill="#333D47"/>
</svg>
