<svg width="32" height="33" viewBox="0 0 32 33" fill="none" xmlns="http://www.w3.org/2000/svg">
<path fill-rule="evenodd" clip-rule="evenodd" d="M11 3.19794C11.5523 3.19794 12 3.64565 12 4.19794V5.19794H20V4.19794C20 3.64565 20.4477 3.19794 21 3.19794C21.5523 3.19794 22 3.64565 22 4.19794V5.19794H26C27.6569 5.19794 29 6.54108 29 8.19794V26.1979C29 27.8548 27.6569 29.1979 26 29.1979H6C4.34315 29.1979 3 27.8548 3 26.1979V8.19794C3 6.54108 4.34315 5.19794 6 5.19794H10V4.19794C10 3.64565 10.4477 3.19794 11 3.19794ZM5 8.19794C5 7.64565 5.44772 7.19794 6 7.19794H26C26.5523 7.19794 27 7.64565 27 8.19794V10.1979C27 10.7502 26.5523 11.1979 26 11.1979H6C5.44772 11.1979 5 10.7502 5 10.1979V8.19794ZM19 21.1979C19.5523 21.1979 20 20.7502 20 20.1979C20 19.6457 19.5523 19.1979 19 19.1979H17V17.1979C17 16.6457 16.5523 16.1979 16 16.1979C15.4477 16.1979 15 16.6457 15 17.1979V19.1979H13C12.4477 19.1979 12 19.6457 12 20.1979C12 20.7502 12.4477 21.1979 13 21.1979H15V23.1979C15 23.7502 15.4477 24.1979 16 24.1979C16.5523 24.1979 17 23.7502 17 23.1979V21.1979H19Z" fill="#333D47"/>
</svg>
