<svg width="32" height="33" viewBox="0 0 32 33" fill="none" xmlns="http://www.w3.org/2000/svg">
<path fill-rule="evenodd" clip-rule="evenodd" d="M12 4.19812C12 3.64584 11.5523 3.19812 11 3.19812C10.4477 3.19812 10 3.64584 10 4.19812V5.19812H6C4.34315 5.19812 3 6.54127 3 8.19812V26.1981C3 27.855 4.34315 29.1981 6 29.1981H26C27.6569 29.1981 29 27.855 29 26.1981V8.19812C29 6.54127 27.6569 5.19812 26 5.19812H22V4.19812C22 3.64584 21.5523 3.19812 21 3.19812C20.4477 3.19812 20 3.64584 20 4.19812V5.19812H12V4.19812ZM6 7.19812C5.44772 7.19812 5 7.64584 5 8.19812V10.1981C5 10.7504 5.44772 11.1981 6 11.1981H26C26.5523 11.1981 27 10.7504 27 10.1981V8.19812C27 7.64584 26.5523 7.19812 26 7.19812H6Z" fill="#333D47"/>
</svg>
