<svg width="32" height="33" viewBox="0 0 32 33" fill="none" xmlns="http://www.w3.org/2000/svg">
<path fill-rule="evenodd" clip-rule="evenodd" d="M12 3.99988C12 3.44759 11.5523 2.99988 11 2.99988C10.4477 2.99988 10 3.44759 10 3.99988V4.99988H6C4.34315 4.99988 3 6.34302 3 7.99988V25.9999C3 27.6567 4.34315 28.9999 6 28.9999H26C27.6569 28.9999 29 27.6567 29 25.9999V7.99988C29 6.34302 27.6569 4.99988 26 4.99988H22V3.99988C22 3.44759 21.5523 2.99988 21 2.99988C20.4477 2.99988 20 3.44759 20 3.99988V4.99988H12V3.99988ZM6 6.99988C5.44772 6.99988 5 7.44759 5 7.99988V9.99988C5 10.5522 5.44772 10.9999 6 10.9999H26C26.5523 10.9999 27 10.5522 27 9.99988V7.99988C27 7.44759 26.5523 6.99988 26 6.99988H6ZM11 17.4999C11 18.3283 10.3284 18.9999 9.5 18.9999C8.67157 18.9999 8 18.3283 8 17.4999C8 16.6715 8.67157 15.9999 9.5 15.9999C10.3284 15.9999 11 16.6715 11 17.4999ZM16 18.9999C16.8284 18.9999 17.5 18.3283 17.5 17.4999C17.5 16.6715 16.8284 15.9999 16 15.9999C15.1716 15.9999 14.5 16.6715 14.5 17.4999C14.5 18.3283 15.1716 18.9999 16 18.9999ZM24 17.4999C24 18.3283 23.3284 18.9999 22.5 18.9999C21.6716 18.9999 21 18.3283 21 17.4999C21 16.6715 21.6716 15.9999 22.5 15.9999C23.3284 15.9999 24 16.6715 24 17.4999ZM9.5 23.9999C10.3284 23.9999 11 23.3283 11 22.4999C11 21.6715 10.3284 20.9999 9.5 20.9999C8.67157 20.9999 8 21.6715 8 22.4999C8 23.3283 8.67157 23.9999 9.5 23.9999ZM17.5 22.4999C17.5 23.3283 16.8284 23.9999 16 23.9999C15.1716 23.9999 14.5 23.3283 14.5 22.4999C14.5 21.6715 15.1716 20.9999 16 20.9999C16.8284 20.9999 17.5 21.6715 17.5 22.4999ZM22.5 23.9999C23.3284 23.9999 24 23.3283 24 22.4999C24 21.6715 23.3284 20.9999 22.5 20.9999C21.6716 20.9999 21 21.6715 21 22.4999C21 23.3283 21.6716 23.9999 22.5 23.9999Z" fill="#333D47"/>
</svg>
