<svg width="32" height="33" viewBox="0 0 32 33" fill="none" xmlns="http://www.w3.org/2000/svg">
<path d="M21 11.1981C20.4477 11.1981 20 11.6458 20 12.1981V12.7174C18.9401 11.7728 17.5425 11.1981 16.0098 11.1981C12.6961 11.1981 10.0098 13.8844 10.0098 17.1981C10.0098 20.5118 12.6961 23.1981 16.0098 23.1981C18.4717 23.1981 20.5851 21.7155 21.5101 19.5985C21.7312 19.0924 21.5002 18.5029 20.9941 18.2818C20.488 18.0606 19.8985 18.2917 19.6774 18.7977C19.0592 20.2126 17.6485 21.1981 16.0098 21.1981C13.8006 21.1981 12.0098 19.4073 12.0098 17.1981C12.0098 14.989 13.8006 13.1981 16.0098 13.1981C17.0236 13.1981 17.9502 13.5754 18.6558 14.1981H18C17.4477 14.1981 17 14.6458 17 15.1981C17 15.7504 17.4477 16.1981 18 16.1981H21C21.5523 16.1981 22 15.7504 22 15.1981V12.1981C22 11.6458 21.5523 11.1981 21 11.1981Z" fill="#333D47"/>
<path fill-rule="evenodd" clip-rule="evenodd" d="M11 3.19812C11.5523 3.19812 12 3.64584 12 4.19812V5.19812H20V4.19812C20 3.64584 20.4477 3.19812 21 3.19812C21.5523 3.19812 22 3.64584 22 4.19812V5.19812H26C27.6569 5.19812 29 6.54127 29 8.19812V26.1981C29 27.855 27.6569 29.1981 26 29.1981H6C4.34315 29.1981 3 27.855 3 26.1981V8.19812C3 6.54127 4.34315 5.19812 6 5.19812H10V4.19812C10 3.64584 10.4477 3.19812 11 3.19812ZM20 7.19812V8.19812C20 8.7504 20.4477 9.19812 21 9.19812C21.5523 9.19812 22 8.7504 22 8.19812V7.19812H26C26.5523 7.19812 27 7.64584 27 8.19812V26.1981C27 26.7504 26.5523 27.1981 26 27.1981H6C5.44772 27.1981 5 26.7504 5 26.1981V8.19812C5 7.64584 5.44772 7.19812 6 7.19812H10V8.19812C10 8.7504 10.4477 9.19812 11 9.19812C11.5523 9.19812 12 8.7504 12 8.19812V7.19812H20Z" fill="#333D47"/>
</svg>
