<svg width="32" height="33" viewBox="0 0 32 33" fill="none" xmlns="http://www.w3.org/2000/svg">
<path d="M19.7071 18.9052C20.0976 18.5147 20.0976 17.8815 19.7071 17.491C19.3166 17.1005 18.6834 17.1005 18.2929 17.491L15 20.7839L13.7071 19.491C13.3166 19.1005 12.6834 19.1005 12.2929 19.491C11.9024 19.8815 11.9024 20.5147 12.2929 20.9052L14.2929 22.9052C14.6834 23.2958 15.3166 23.2958 15.7071 22.9052L19.7071 18.9052Z" fill="#333D47"/>
<path fill-rule="evenodd" clip-rule="evenodd" d="M12 4.19812C12 3.64584 11.5523 3.19812 11 3.19812C10.4477 3.19812 10 3.64584 10 4.19812V5.19812H6C4.34315 5.19812 3 6.54127 3 8.19812V26.1981C3 27.855 4.34315 29.1981 6 29.1981H26C27.6569 29.1981 29 27.855 29 26.1981V8.19812C29 6.54127 27.6569 5.19812 26 5.19812H22V4.19812C22 3.64584 21.5523 3.19812 21 3.19812C20.4477 3.19812 20 3.64584 20 4.19812V5.19812H12V4.19812ZM20 8.19812V7.19812H12V8.19812C12 8.7504 11.5523 9.19812 11 9.19812C10.4477 9.19812 10 8.7504 10 8.19812V7.19812H6C5.44772 7.19812 5 7.64584 5 8.19812V11.1981H27V8.19812C27 7.64584 26.5523 7.19812 26 7.19812H22V8.19812C22 8.7504 21.5523 9.19812 21 9.19812C20.4477 9.19812 20 8.7504 20 8.19812ZM5 26.1981V13.1981H27V26.1981C27 26.7504 26.5523 27.1981 26 27.1981H6C5.44772 27.1981 5 26.7504 5 26.1981Z" fill="#333D47"/>
</svg>
