<svg width="32" height="33" viewBox="0 0 32 33" fill="none" xmlns="http://www.w3.org/2000/svg">
<path fill-rule="evenodd" clip-rule="evenodd" d="M11 3.19794C11.5523 3.19794 12 3.64565 12 4.19794V5.19794H20V4.19794C20 3.64565 20.4477 3.19794 21 3.19794C21.5523 3.19794 22 3.64565 22 4.19794V5.19794H26C27.6569 5.19794 29 6.54108 29 8.19794V26.1979C29 27.8548 27.6569 29.1979 26 29.1979H6C4.34315 29.1979 3 27.8548 3 26.1979V8.19794C3 6.54108 4.34315 5.19794 6 5.19794H10V4.19794C10 3.64565 10.4477 3.19794 11 3.19794ZM5 8.19794C5 7.64565 5.44772 7.19794 6 7.19794H26C26.5523 7.19794 27 7.64565 27 8.19794V10.1979C27 10.7502 26.5523 11.1979 26 11.1979H6C5.44772 11.1979 5 10.7502 5 10.1979V8.19794ZM19.7071 17.4908C20.0976 17.8814 20.0976 18.5145 19.7071 18.905L15.7071 22.905C15.3166 23.2956 14.6834 23.2956 14.2929 22.905L12.2929 20.905C11.9024 20.5145 11.9024 19.8814 12.2929 19.4908C12.6834 19.1003 13.3166 19.1003 13.7071 19.4908L15 20.7837L18.2929 17.4908C18.6834 17.1003 19.3166 17.1003 19.7071 17.4908Z" fill="#333D47"/>
</svg>
