<svg width="32" height="33" viewBox="0 0 32 33" fill="none" xmlns="http://www.w3.org/2000/svg">
<path fill-rule="evenodd" clip-rule="evenodd" d="M11 3.19794C11.5523 3.19794 12 3.64565 12 4.19794V5.19794H20V4.19794C20 3.64565 20.4477 3.19794 21 3.19794C21.5523 3.19794 22 3.64565 22 4.19794V5.19794H26C27.6569 5.19794 29 6.54108 29 8.19794V26.1979C29 27.8548 27.6569 29.1979 26 29.1979H6C4.34315 29.1979 3 27.8548 3 26.1979V8.19794C3 6.54108 4.34315 5.19794 6 5.19794H10V4.19794C10 3.64565 10.4477 3.19794 11 3.19794ZM5 8.19794C5 7.64565 5.44772 7.19794 6 7.19794H26C26.5523 7.19794 27 7.64565 27 8.19794V10.1979C27 10.7502 26.5523 11.1979 26 11.1979H6C5.44772 11.1979 5 10.7502 5 10.1979V8.19794ZM19.2071 18.405C19.5977 18.0145 19.5977 17.3814 19.2071 16.9908C18.8166 16.6003 18.1834 16.6003 17.7929 16.9908L16.0001 18.7836L14.2073 16.9908C13.8168 16.6003 13.1836 16.6003 12.7931 16.9908C12.4025 17.3814 12.4025 18.0145 12.7931 18.405L14.5859 20.1979L12.7929 21.9909C12.4024 22.3814 12.4024 23.0145 12.7929 23.4051C13.1834 23.7956 13.8166 23.7956 14.2071 23.4051L16.0001 21.6121L17.7931 23.4051C18.1836 23.7956 18.8168 23.7956 19.2073 23.4051C19.5978 23.0145 19.5978 22.3814 19.2073 21.9909L17.4143 20.1979L19.2071 18.405Z" fill="#333D47"/>
</svg>
