<svg width="32" height="33" viewBox="0 0 32 33" fill="none" xmlns="http://www.w3.org/2000/svg">
<path d="M21 3.19812H28C28.2652 3.19812 28.5196 3.30348 28.7071 3.49101C28.8946 3.67855 29 3.9329 29 4.19812L29 11.1981C29 11.7504 28.5523 12.1981 28 12.1981C27.4477 12.1981 27 11.7504 27 11.1981L27 6.61226L19.707 13.9052C19.3165 14.2958 18.6833 14.2958 18.2928 13.9052C17.9023 13.5147 17.9023 12.8815 18.2928 12.491L25.5857 5.19812H21C20.4477 5.19812 20 4.75041 20 4.19812C20 3.64584 20.4477 3.19812 21 3.19812Z" fill="#333D47"/>
<path fill-rule="evenodd" clip-rule="evenodd" d="M12.4801 4.41029L14.3122 8.68515C14.692 9.57131 14.3855 10.6023 13.5833 11.1371L11.9606 12.2189C13.4999 15.6981 16.4999 18.6981 19.9791 20.2373L21.0609 18.6147C21.5957 17.8125 22.6267 17.506 23.5128 17.8858L27.7877 19.7178C28.5231 20.033 28.9999 20.7561 28.9999 21.5562L28.9998 27.2581C28.9998 28.3627 28.1023 29.2657 27.0001 29.194C19.9708 28.7366 14.5845 25.8682 10.4572 21.7408C6.32981 17.6134 3.46141 12.2271 3.004 5.19791C2.93227 4.09568 3.83528 3.1982 4.93985 3.19819L10.6418 3.19813C11.4419 3.19812 12.165 3.67492 12.4801 4.41029Z" fill="#333D47"/>
</svg>
