<svg width="32" height="33" viewBox="0 0 32 33" fill="none" xmlns="http://www.w3.org/2000/svg">
<path d="M25.9999 14.1981H18.9999C18.7347 14.1981 18.4804 14.0928 18.2928 13.9052C18.1053 13.7177 17.9999 13.4633 17.9999 13.1981L17.9999 6.19812C17.9999 5.64584 18.4476 5.19812 18.9999 5.19812C19.5522 5.19812 19.9999 5.64584 19.9999 6.19812L19.9999 10.784L27.2929 3.49101C27.6834 3.10049 28.3166 3.10049 28.7071 3.49101C29.0976 3.88154 29.0976 4.5147 28.7071 4.90523L21.4142 12.1981H25.9999C26.5522 12.1981 26.9999 12.6458 26.9999 13.1981C26.9999 13.7504 26.5522 14.1981 25.9999 14.1981Z" fill="#333D47"/>
<path fill-rule="evenodd" clip-rule="evenodd" d="M12.4801 4.41029L14.3122 8.68515C14.692 9.57131 14.3855 10.6023 13.5833 11.1371L11.9606 12.2189C13.4999 15.6981 16.4999 18.6981 19.9791 20.2373L21.0609 18.6147C21.5957 17.8125 22.6267 17.506 23.5128 17.8858L27.7877 19.7178C28.5231 20.033 28.9999 20.7561 28.9999 21.5562L28.9998 27.2581C28.9998 28.3627 28.1023 29.2657 27.0001 29.194C19.9708 28.7366 14.5845 25.8682 10.4572 21.7408C6.32981 17.6134 3.46141 12.2271 3.004 5.19791C2.93227 4.09568 3.83528 3.1982 4.93985 3.19819L10.6418 3.19813C11.4419 3.19812 12.165 3.67492 12.4801 4.41029Z" fill="#333D47"/>
</svg>
