<svg width="32" height="33" viewBox="0 0 32 33" fill="none" xmlns="http://www.w3.org/2000/svg">
<path d="M12 17.1981C12 14.9933 13.7951 13.1981 16 13.1981C18.2048 13.1981 20 14.9937 20 17.1981C20 19.4025 18.2044 21.1981 16 21.1981C13.7956 21.1981 12 19.4029 12 17.1981Z" fill="#333D47"/>
<path fill-rule="evenodd" clip-rule="evenodd" d="M13 5.19812C12.7348 5.19812 12.4804 5.30348 12.2929 5.49101L9.58579 8.19812H5C3.34315 8.19812 2 9.54127 2 11.1981V24.1981C2 25.855 3.34315 27.1981 5 27.1981H27C28.6569 27.1981 30 25.855 30 24.1981V11.1981C30 9.54127 28.6569 8.19812 27 8.19812H22.4142L19.7071 5.49101C19.5196 5.30348 19.2652 5.19812 19 5.19812H13ZM16 11.1981C12.6906 11.1981 10 13.8887 10 17.1981C10 20.5076 12.6911 23.1981 16 23.1981C19.3089 23.1981 22 20.507 22 17.1981C22 13.8893 19.3095 11.1981 16 11.1981Z" fill="#333D47"/>
</svg>
