<svg width="32" height="33" viewBox="0 0 32 33" fill="none" xmlns="http://www.w3.org/2000/svg">
<path fill-rule="evenodd" clip-rule="evenodd" d="M12.2929 5.49101C12.4804 5.30348 12.7348 5.19812 13 5.19812H19C19.2652 5.19812 19.5196 5.30348 19.7071 5.49101L22.4142 8.19812H27C28.6569 8.19812 30 9.54127 30 11.1981V24.1981C30 25.855 28.6569 27.1981 27 27.1981H5C3.34315 27.1981 2 25.855 2 24.1981V11.1981C2 9.54127 3.34315 8.19812 5 8.19812H9.58579L12.2929 5.49101ZM13.4142 7.19812L10.7071 9.90523C10.5196 10.0928 10.2652 10.1981 10 10.1981H5C4.44772 10.1981 4 10.6458 4 11.1981V24.1981C4 24.7504 4.44772 25.1981 5 25.1981H27C27.5523 25.1981 28 24.7504 28 24.1981V11.1981C28 10.6458 27.5523 10.1981 27 10.1981H22C21.7348 10.1981 21.4804 10.0928 21.2929 9.90523L18.5858 7.19812H13.4142Z" fill="#333D47"/>
<path fill-rule="evenodd" clip-rule="evenodd" d="M10 17.1981C10 13.8887 12.6906 11.1981 16 11.1981C19.3095 11.1981 22 13.8893 22 17.1981C22 20.507 19.3089 23.1981 16 23.1981C12.6911 23.1981 10 20.5076 10 17.1981ZM16 13.1981C13.7951 13.1981 12 14.9933 12 17.1981C12 19.4029 13.7956 21.1981 16 21.1981C18.2044 21.1981 20 19.4025 20 17.1981C20 14.9937 18.2048 13.1981 16 13.1981Z" fill="#333D47"/>
</svg>
