<svg width="32" height="33" viewBox="0 0 32 33" fill="none" xmlns="http://www.w3.org/2000/svg">
<path d="M14 11.6981C14 10.5961 14.898 9.69812 16 9.69812C17.1019 9.69812 18 10.5964 18 11.6981C18 12.7998 17.1017 13.6981 16 13.6981C14.8982 13.6981 14 12.8001 14 11.6981Z" fill="#333D47"/>
<path fill-rule="evenodd" clip-rule="evenodd" d="M13.2929 3.49101C13.4804 3.30348 13.7348 3.19812 14 3.19812H18C18.2652 3.19812 18.5196 3.30348 18.7071 3.49101L20.4142 5.19812H23C24.6569 5.19812 26 6.54127 26 8.19812V16.1981C26 17.855 24.6569 19.1981 23 19.1981H9C7.34315 19.1981 6 17.855 6 16.1981V8.19812C6 6.54127 7.34315 5.19812 9 5.19812H11.5858L13.2929 3.49101ZM16 7.69812C13.7934 7.69812 12 9.49155 12 11.6981C12 13.9048 13.7938 15.6981 16 15.6981C18.2063 15.6981 20 13.9044 20 11.6981C20 9.49192 18.2066 7.69812 16 7.69812Z" fill="#333D47"/>
<path d="M9.81062 28.8024C9.47824 28.3613 9.56636 27.7343 10.0074 27.402L11.3871 26.3623C9.48763 26.0592 7.7811 25.556 6.41335 24.8506C4.46993 23.8483 3 22.3089 3 20.1981C3 19.7463 3.06926 19.3096 3.20352 18.892C3.37257 18.3662 3.93584 18.0771 4.46162 18.2461C4.98739 18.4152 5.27657 18.9784 5.10751 19.5042C5.03712 19.7232 5 19.9534 5 20.1981C5 21.2275 5.69236 22.2285 7.33008 23.0731C8.49092 23.6718 10.0222 24.1276 11.8085 24.404L10.6457 22.8608C10.3133 22.4197 10.4014 21.7927 10.8425 21.4604C11.2835 21.128 11.9106 21.2161 12.2429 21.6572L14.7962 25.0455C14.9558 25.2573 15.0248 25.5238 14.9878 25.7865C14.9509 26.0491 14.8112 26.2863 14.5994 26.4459L11.2111 28.9992C10.77 29.3316 10.143 29.2435 9.81062 28.8024Z" fill="#333D47"/>
<path d="M28.7965 18.892C28.6274 18.3662 28.0642 18.0771 27.5384 18.2461C27.0126 18.4152 26.7234 18.9784 26.8925 19.5042C26.9629 19.7232 27 19.9534 27 20.1981C27 21.1688 26.389 22.1075 24.9484 22.9227C23.51 23.7366 21.4108 24.3158 18.9001 24.5678C18.3506 24.6229 17.9498 25.1131 18.005 25.6626C18.0601 26.2122 18.5503 26.6129 19.0999 26.5578C21.7649 26.2903 24.1657 25.6636 25.9334 24.6633C27.6988 23.6643 29 22.1803 29 20.1981C29 19.7463 28.9307 19.3096 28.7965 18.892Z" fill="#333D47"/>
</svg>
