<svg width="32" height="33" viewBox="0 0 32 33" fill="none" xmlns="http://www.w3.org/2000/svg">
<path fill-rule="evenodd" clip-rule="evenodd" d="M30 16.1981C30 23.9301 23.732 30.1981 16 30.1981C8.26801 30.1981 2 23.9301 2 16.1981C2 8.46613 8.26801 2.19812 16 2.19812C23.732 2.19812 30 8.46613 30 16.1981ZM28 16.1981C28 22.8255 22.6274 28.1981 16 28.1981C13.0463 28.1981 10.3419 27.131 8.2512 25.3612L25.1631 8.44932C26.9329 10.54 28 13.2444 28 16.1981ZM6.83698 23.947L23.7489 7.0351C21.6582 5.26529 18.9537 4.19812 16 4.19812C9.37258 4.19812 4 9.5707 4 16.1981C4 19.1518 5.06717 21.8563 6.83698 23.947Z" fill="#333D47"/>
</svg>
