<svg width="32" height="33" viewBox="0 0 32 33" fill="none" xmlns="http://www.w3.org/2000/svg">
<path fill-rule="evenodd" clip-rule="evenodd" d="M28.9487 3.88168C28.774 3.35773 28.2077 3.07457 27.6838 3.24922L25.8978 3.84455C24.7877 4.21459 23.994 5.19631 23.8648 6.35931L23.7716 7.1979H4.00001C3.70348 7.1979 3.42225 7.3295 3.23226 7.55716C3.04226 7.78481 2.96309 8.08505 3.01614 8.37679L4.56826 16.9134C4.91407 18.8154 6.57059 20.1979 8.50374 20.1979H22.3272L22.2038 21.3083C22.1475 21.8148 21.7195 22.1979 21.2099 22.1979H9.00001C8.44772 22.1979 8.00001 22.6456 8.00001 23.1979C8.00001 23.7502 8.44772 24.1979 9.00001 24.1979H21.2099C22.7386 24.1979 24.0228 23.0485 24.1916 21.5292L25.8526 6.58017C25.8956 6.19251 26.1602 5.86527 26.5302 5.74192L28.3162 5.14659C28.8402 4.97194 29.1233 4.40562 28.9487 3.88168ZM22.5494 18.1979H8.50374C7.53716 18.1979 6.7089 17.5067 6.536 16.5557L5.19822 9.1979H23.5494L22.5494 18.1979Z" fill="#333D47"/>
<path d="M12.9998 27.6979C12.9998 28.5263 12.3282 29.1979 11.4998 29.1979C10.6714 29.1979 9.99979 28.5263 9.99979 27.6979C9.99979 26.8695 10.6714 26.1979 11.4998 26.1979C12.3282 26.1979 12.9998 26.8695 12.9998 27.6979Z" fill="#333D47"/>
<path d="M20.4998 29.1979C21.3282 29.1979 21.9998 28.5263 21.9998 27.6979C21.9998 26.8695 21.3282 26.1979 20.4998 26.1979C19.6714 26.1979 18.9998 26.8695 18.9998 27.6979C18.9998 28.5263 19.6714 29.1979 20.4998 29.1979Z" fill="#333D47"/>
</svg>
