<svg width="32" height="33" viewBox="0 0 32 33" fill="none" xmlns="http://www.w3.org/2000/svg">
<path d="M6.63143 8.69812C8.83178 5.95324 12.211 4.19812 15.9996 4.19812C21.9983 4.19812 26.9705 8.60065 27.8584 14.3507C27.9427 14.8965 28.4535 15.2707 28.9993 15.1864C29.5451 15.1021 29.9193 14.5913 29.835 14.0455C28.7988 7.33523 23.0001 2.19812 15.9996 2.19812C11.5366 2.19812 7.56198 4.28709 4.99951 7.53715V5.19812C4.99951 4.64584 4.5518 4.19812 3.99951 4.19812C3.44723 4.19812 2.99951 4.64584 2.99951 5.19812V9.69812C2.99951 10.2504 3.44723 10.6981 3.99951 10.6981H8.49951C9.0518 10.6981 9.49951 10.2504 9.49951 9.69812C9.49951 9.14584 9.0518 8.69812 8.49951 8.69812H6.63143Z" fill="#333D47"/>
<path d="M4.14077 18.0455C4.05649 17.4997 3.5457 17.1256 2.99988 17.2098C2.45407 17.2941 2.07992 17.8049 2.1642 18.3507C3.20034 25.061 8.99913 30.1981 15.9996 30.1981C20.4625 30.1981 24.437 28.1092 26.9995 24.8593V27.1981C26.9995 27.7504 27.4472 28.1981 27.9995 28.1981C28.5518 28.1981 28.9995 27.7504 28.9995 27.1981V22.6981C28.9995 22.1458 28.5518 21.6981 27.9995 21.6981H23.4995C22.9472 21.6981 22.4995 22.1458 22.4995 22.6981C22.4995 23.2504 22.9472 23.6981 23.4995 23.6981H25.3677C23.1674 26.443 19.7882 28.1981 15.9996 28.1981C10.0009 28.1981 5.02865 23.7956 4.14077 18.0455Z" fill="#333D47"/>
<path d="M16.9993 9.1981C16.9993 8.64581 16.5515 8.19811 15.9993 8.19812C15.447 8.19813 14.9993 8.64586 14.9993 9.19814L14.9993 10.2835C14.3616 10.3967 13.7656 10.6257 13.2673 10.9891C12.4847 11.5597 11.9993 12.4273 11.9993 13.4898C11.9993 14.0879 12.1555 14.8513 12.777 15.5638C13.3809 16.256 14.3393 16.8025 15.7494 17.1664C16.9226 17.4692 17.4641 17.8602 17.7145 18.1472C17.9471 18.4138 17.9993 18.6713 17.9993 18.9065C17.9993 19.3023 17.8418 19.5805 17.553 19.7912C17.2337 20.0239 16.7087 20.1981 15.9993 20.1981C14.743 20.1981 14.1405 19.5072 13.9649 18.8548C13.8213 18.3215 13.2726 18.0056 12.7393 18.1492C12.206 18.2927 11.8901 18.8414 12.0336 19.3747C12.3747 20.6418 13.4007 21.7653 14.9993 22.0983V23.1981C14.9993 23.7504 15.447 24.1981 15.9993 24.1981C16.5516 24.1981 16.9993 23.7504 16.9993 23.1981L16.9993 22.1128C17.637 21.9995 18.233 21.7705 18.7313 21.4072C19.5138 20.8366 19.9993 19.9689 19.9993 18.9065C19.9993 18.3083 19.8431 17.5449 19.2216 16.8324C18.6178 16.1402 17.6593 15.5937 16.2492 15.2298C15.076 14.9271 14.5345 14.536 14.2841 14.2491C14.0515 13.9824 13.9993 13.725 13.9993 13.4898C13.9993 13.0939 14.1567 12.8157 14.4456 12.6051C14.7649 12.3723 15.2899 12.1981 15.9993 12.1981C17.2556 12.1981 17.8581 12.889 18.0337 13.5414C18.1772 14.0747 18.726 14.3906 19.2593 14.2471C19.7926 14.1035 20.1085 13.5548 19.9649 13.0215C19.6238 11.7544 18.5979 10.6309 16.9993 10.2979L16.9993 9.1981Z" fill="#333D47"/>
</svg>
