<svg width="32" height="33" viewBox="0 0 32 33" fill="none" xmlns="http://www.w3.org/2000/svg">
<path fill-rule="evenodd" clip-rule="evenodd" d="M8 2.198H18V10.198C18 10.7503 18.4477 11.198 19 11.198H27V27.198C27 28.8549 25.6569 30.198 24 30.198H8C6.34315 30.198 5 28.8549 5 27.198V5.198C5 3.54114 6.34315 2.198 8 2.198ZM9 21.198C9 21.7503 9.44772 22.198 10 22.198H17C17.5523 22.198 18 21.7503 18 21.198C18 20.6457 17.5523 20.198 17 20.198H10C9.44772 20.198 9 20.6457 9 21.198ZM10 26.198C9.44772 26.198 9 25.7503 9 25.198C9 24.6457 9.44772 24.198 10 24.198L22 24.198C22.5523 24.198 23 24.6457 23 25.198C23 25.7503 22.5523 26.198 22 26.198L10 26.198ZM12.3079 6.198C12.8602 6.19798 13.3079 6.64569 13.3079 7.19797L13.3079 7.47671C14.5189 7.7955 15.3098 8.68581 15.5813 9.69447C15.7248 10.2278 15.4089 10.7765 14.8756 10.92C14.3423 11.0636 13.7936 10.7476 13.65 10.2143C13.5417 9.81196 13.1686 9.35184 12.308 9.35184C11.7963 9.35184 11.4444 9.47796 11.2488 9.62059C11.0835 9.74109 11.0003 9.88704 11.0003 10.1147C11.0003 10.2537 11.0284 10.3933 11.1625 10.547C11.3143 10.721 11.6827 11.0039 12.5579 11.2297C13.6699 11.5167 14.4553 11.955 14.9606 12.5342C15.4835 13.1337 15.6156 13.7793 15.6156 14.2813C15.6156 15.1755 15.2044 15.911 14.5455 16.3914C14.1804 16.6576 13.7569 16.8347 13.3079 16.9365V17.198C13.3079 17.7503 12.8602 18.198 12.3079 18.198C11.7557 18.198 11.3079 17.7503 11.3079 17.198V16.9193C10.097 16.6005 9.30615 15.7102 9.03462 14.7015C8.89106 14.1682 9.20701 13.6195 9.74031 13.476C10.2736 13.3324 10.8223 13.6483 10.9659 14.1816C11.0742 14.584 11.4473 15.0442 12.3079 15.0442C12.8196 15.0442 13.1715 14.918 13.3671 14.7754C13.5324 14.6549 13.6156 14.509 13.6156 14.2813C13.6156 14.1423 13.5875 14.0026 13.4534 13.849C13.3017 13.675 12.9332 13.3921 12.0581 13.1663C10.9461 12.8793 10.1607 12.441 9.65538 11.8618C9.1324 11.2623 9.00028 10.6167 9.00028 10.1147C9.00028 9.22049 9.41154 8.48503 10.0704 8.00457C10.4355 7.73841 10.859 7.56126 11.3079 7.45949L11.3079 7.19803C11.3079 6.64574 11.7556 6.19801 12.3079 6.198Z" fill="#333D47"/>
<path d="M20 2.198V9.198H27L20 2.198Z" fill="#333D47"/>
</svg>
