<svg width="32" height="33" viewBox="0 0 32 33" fill="none" xmlns="http://www.w3.org/2000/svg">
<path d="M16 14.1981C16 15.3027 15.1046 16.1981 14 16.1981C12.8954 16.1981 12 15.3027 12 14.1981C12 13.0936 12.8954 12.1981 14 12.1981C15.1046 12.1981 16 13.0936 16 14.1981Z" fill="#333D47"/>
<path fill-rule="evenodd" clip-rule="evenodd" d="M2 9.19812C2 7.54127 3.34315 6.19812 5 6.19812H23C24.6569 6.19812 26 7.54127 26 9.19812V19.1981C26 20.855 24.6569 22.1981 23 22.1981H5C3.34315 22.1981 2 20.855 2 19.1981V9.19812ZM18 14.1981C18 16.4073 16.2091 18.1981 14 18.1981C11.7909 18.1981 10 16.4073 10 14.1981C10 11.989 11.7909 10.1981 14 10.1981C16.2091 10.1981 18 11.989 18 14.1981ZM8 10.6981C8 11.5265 7.32843 12.1981 6.5 12.1981C5.67157 12.1981 5 11.5265 5 10.6981C5 9.86969 5.67157 9.19812 6.5 9.19812C7.32843 9.19812 8 9.86969 8 10.6981ZM21.5 19.1981C22.3284 19.1981 23 18.5265 23 17.6981C23 16.8697 22.3284 16.1981 21.5 16.1981C20.6716 16.1981 20 16.8697 20 17.6981C20 18.5265 20.6716 19.1981 21.5 19.1981Z" fill="#333D47"/>
<path d="M29 10.1981C29.5523 10.1981 30 10.6458 30 11.1981V22.1981C30 24.4073 28.2091 26.1981 26 26.1981H7C6.44772 26.1981 6 25.7504 6 25.1981C6 24.6458 6.44772 24.1981 7 24.1981H26C27.1046 24.1981 28 23.3027 28 22.1981V11.1981C28 10.6458 28.4477 10.1981 29 10.1981Z" fill="#333D47"/>
</svg>
