<svg width="32" height="33" viewBox="0 0 32 33" fill="none" xmlns="http://www.w3.org/2000/svg">
<path d="M10 26.198C9.44772 26.198 9 25.7503 9 25.198C9 24.6457 9.44772 24.198 10 24.198L22 24.198C22.5523 24.198 23 24.6457 23 25.198C23 25.7503 22.5523 26.198 22 26.198L10 26.198Z" fill="#333D47"/>
<path d="M9 21.198C9 21.7503 9.44772 22.198 10 22.198H17C17.5523 22.198 18 21.7503 18 21.198C18 20.6457 17.5523 20.198 17 20.198H10C9.44772 20.198 9 20.6457 9 21.198Z" fill="#333D47"/>
<path d="M13.3075 7.19797C13.3074 6.64569 12.8597 6.19798 12.3074 6.198C11.7551 6.19801 11.3074 6.64574 11.3075 7.19803L11.3075 7.45949C10.8585 7.56126 10.435 7.73841 10.07 8.00457C9.41105 8.48503 8.99979 9.22049 8.99979 10.1147C8.99979 10.6167 9.13191 11.2623 9.65489 11.8618C10.1602 12.441 10.9456 12.8793 12.0576 13.1663C12.9327 13.3921 13.3012 13.675 13.4529 13.849C13.587 14.0026 13.6151 14.1423 13.6151 14.2813C13.6151 14.509 13.5319 14.6549 13.3666 14.7754C13.171 14.918 12.8191 15.0442 12.3075 15.0442C11.4468 15.0442 11.0737 14.584 10.9654 14.1816C10.8218 13.6483 10.2731 13.3324 9.73982 13.476C9.20652 13.6195 8.89058 14.1682 9.03414 14.7015C9.30566 15.7102 10.0965 16.6005 11.3075 16.9193V17.198C11.3075 17.7503 11.7552 18.198 12.3075 18.198C12.8597 18.198 13.3075 17.7503 13.3075 17.198V16.9365C13.7565 16.8347 14.1799 16.6576 14.545 16.3914C15.2039 15.911 15.6151 15.1755 15.6151 14.2813C15.6151 13.7793 15.483 13.1337 14.9601 12.5342C14.4548 11.955 13.6694 11.5167 12.5574 11.2297C11.6822 11.0039 11.3138 10.721 11.162 10.547C11.0279 10.3933 10.9998 10.2537 10.9998 10.1147C10.9998 9.88704 11.083 9.74109 11.2483 9.62059C11.4439 9.47796 11.7958 9.35184 12.3075 9.35184C13.1681 9.35184 13.5412 9.81196 13.6496 10.2143C13.7931 10.7476 14.3418 11.0636 14.8751 10.92C15.4084 10.7765 15.7244 10.2278 15.5808 9.69447C15.3093 8.68581 14.5184 7.7955 13.3075 7.47671L13.3075 7.19797Z" fill="#333D47"/>
<path fill-rule="evenodd" clip-rule="evenodd" d="M5 5.198C5 3.54114 6.34315 2.198 8 2.198H18.6716C19.4672 2.198 20.2303 2.51407 20.7929 3.07668L26.1213 8.4051C26.6839 8.96771 27 9.73078 27 10.5264V27.198C27 28.8549 25.6569 30.198 24 30.198H8C6.34315 30.198 5 28.8549 5 27.198V5.198ZM8 4.198C7.44772 4.198 7 4.64571 7 5.198V27.198C7 27.7503 7.44772 28.198 8 28.198H24C24.5523 28.198 25 27.7503 25 27.198V11.198H19C18.4477 11.198 18 10.7503 18 10.198V4.198H8ZM20 5.11221L24.0858 9.198H20V5.11221Z" fill="#333D47"/>
</svg>
