<svg width="32" height="33" viewBox="0 0 32 33" fill="none" xmlns="http://www.w3.org/2000/svg">
<path fill-rule="evenodd" clip-rule="evenodd" d="M30 15.9999C30 23.7319 23.732 29.9999 16 29.9999C8.26801 29.9999 2 23.7319 2 15.9999C2 8.26789 8.26801 1.99988 16 1.99988C23.732 1.99988 30 8.26789 30 15.9999ZM17.5 21.4999C17.5 20.6715 16.8284 19.9999 16 19.9999C15.1716 19.9999 14.5 20.6715 14.5 21.4999C14.5 22.3283 15.1716 22.9999 16 22.9999C16.8284 22.9999 17.5 22.3283 17.5 21.4999ZM15 16.9999C15 17.5522 15.4477 17.9999 16 17.9999C16.5523 17.9999 17 17.5522 17 16.9999V9.99988C17 9.44759 16.5523 8.99988 16 8.99988C15.4477 8.99988 15 9.44759 15 9.99988V16.9999Z" fill="#333D47"/>
</svg>
