<svg width="32" height="33" viewBox="0 0 32 33" fill="none" xmlns="http://www.w3.org/2000/svg">
<path fill-rule="evenodd" clip-rule="evenodd" d="M16 28.1981C22.6274 28.1981 28 22.8255 28 16.1981C28 9.5707 22.6274 4.19812 16 4.19812C9.37258 4.19812 4 9.5707 4 16.1981C4 22.8255 9.37258 28.1981 16 28.1981ZM16 30.1981C23.732 30.1981 30 23.9301 30 16.1981C30 8.46613 23.732 2.19812 16 2.19812C8.26801 2.19812 2 8.46613 2 16.1981C2 23.9301 8.26801 30.1981 16 30.1981Z" fill="#333D47"/>
<path d="M17.5 21.6981C17.5 20.8697 16.8284 20.1981 16 20.1981C15.1716 20.1981 14.5 20.8697 14.5 21.6981C14.5 22.5265 15.1716 23.1981 16 23.1981C16.8284 23.1981 17.5 22.5265 17.5 21.6981Z" fill="#333D47"/>
<path fill-rule="evenodd" clip-rule="evenodd" d="M16 18.1981C15.4477 18.1981 15 17.7504 15 17.1981V10.1981C15 9.64583 15.4477 9.19812 16 9.19812C16.5523 9.19812 17 9.64584 17 10.1981V17.1981C17 17.7504 16.5523 18.1981 16 18.1981Z" fill="#333D47"/>
</svg>
