<svg width="32" height="33" viewBox="0 0 32 33" fill="none" xmlns="http://www.w3.org/2000/svg">
<path fill-rule="evenodd" clip-rule="evenodd" d="M15.9999 6.30408L4.90523 26.1979H27.0945L15.9999 6.30408ZM14.2531 5.32994L3.1585 25.2237C2.41504 26.5569 3.37882 28.1979 4.90523 28.1979H27.0945C28.6209 28.1979 29.5847 26.5569 28.8412 25.2237L17.7466 5.32994C16.9838 3.96212 15.0159 3.96212 14.2531 5.32994Z" fill="#333D47"/>
<path d="M17.4999 22.6979C17.4999 21.8695 16.8283 21.1979 15.9999 21.1979C15.1714 21.1979 14.4999 21.8695 14.4999 22.6979C14.4999 23.5263 15.1714 24.1979 15.9999 24.1979C16.8283 24.1979 17.4999 23.5263 17.4999 22.6979Z" fill="#333D47"/>
<path fill-rule="evenodd" clip-rule="evenodd" d="M15.9999 19.1979C15.4476 19.1979 14.9999 18.7502 14.9999 18.1979L14.9999 13.1979C14.9999 12.6456 15.4476 12.1979 15.9999 12.1979C16.5521 12.1979 16.9999 12.6456 16.9999 13.1979L16.9999 18.1979C16.9999 18.7502 16.5521 19.1979 15.9999 19.1979Z" fill="#333D47"/>
</svg>
