<svg width="32" height="33" viewBox="0 0 32 33" fill="none" xmlns="http://www.w3.org/2000/svg">
<path fill-rule="evenodd" clip-rule="evenodd" d="M3.1585 25.0257L14.2531 5.13194C15.0159 3.76412 16.9838 3.76412 17.7466 5.13194L28.8412 25.0257C29.5847 26.3589 28.6209 27.9999 27.0945 27.9999H4.90523C3.37882 27.9999 2.41504 26.3589 3.1585 25.0257ZM17.4999 22.4999C17.4999 21.6715 16.8283 20.9999 15.9999 20.9999C15.1714 20.9999 14.4999 21.6715 14.4999 22.4999C14.4999 23.3283 15.1714 23.9999 15.9999 23.9999C16.8283 23.9999 17.4999 23.3283 17.4999 22.4999ZM14.9999 17.9999C14.9999 18.5522 15.4476 18.9999 15.9999 18.9999C16.5521 18.9999 16.9999 18.5522 16.9999 17.9999L16.9999 12.9999C16.9999 12.4476 16.5521 11.9999 15.9999 11.9999C15.4476 11.9999 14.9999 12.4476 14.9999 12.9999L14.9999 17.9999Z" fill="#333D47"/>
</svg>
