<svg width="32" height="33" viewBox="0 0 32 33" fill="none" xmlns="http://www.w3.org/2000/svg">
<path fill-rule="evenodd" clip-rule="evenodd" d="M3 8.19812C3 5.4367 5.23858 3.19812 8 3.19812H24C26.7614 3.19812 29 5.4367 29 8.19812V20.1981C29 22.9595 26.7614 25.1981 24 25.1981H14.3508L9.62469 28.979C9.32452 29.2191 8.91328 29.2659 8.56681 29.0994C8.22035 28.9329 8 28.5825 8 28.1981V25.1981C5.23858 25.1981 3 22.9595 3 20.1981V8.19812ZM8 5.19812C6.34315 5.19812 5 6.54127 5 8.19812V20.1981C5 21.855 6.34315 23.1981 8 23.1981H9C9.55228 23.1981 10 23.6458 10 24.1981V26.1175L13.3753 23.4173C13.5526 23.2754 13.7729 23.1981 14 23.1981H24C25.6569 23.1981 27 21.855 27 20.1981V8.19812C27 6.54127 25.6569 5.19812 24 5.19812H8Z" fill="#333D47"/>
<path fill-rule="evenodd" clip-rule="evenodd" d="M16 9.19812C14.8954 9.19812 14 10.0936 14 11.1981C14 11.7504 13.5523 12.1981 13 12.1981C12.4477 12.1981 12 11.7504 12 11.1981C12 8.98898 13.7909 7.19812 16 7.19812C18.2091 7.19812 20 8.98898 20 11.1981C20 13.062 18.7252 14.6281 17 15.0721V16.1981C17 16.7504 16.5523 17.1981 16 17.1981C15.4477 17.1981 15 16.7504 15 16.1981V14.1981C15 13.6458 15.4477 13.1981 16 13.1981C17.1046 13.1981 18 12.3027 18 11.1981C18 10.0936 17.1046 9.19812 16 9.19812Z" fill="#333D47"/>
<path d="M17.25 19.9481C17.25 20.6385 16.6904 21.1981 16 21.1981C15.3096 21.1981 14.75 20.6385 14.75 19.9481C14.75 19.2578 15.3096 18.6981 16 18.6981C16.6904 18.6981 17.25 19.2578 17.25 19.9481Z" fill="#333D47"/>
</svg>
