<svg width="32" height="33" viewBox="0 0 32 33" fill="none" xmlns="http://www.w3.org/2000/svg">
<path d="M7.33333 3.19812C4.9401 3.19812 3 5.13822 3 7.53145V17.5315C3 19.8125 4.76252 21.6819 7 21.8522V24.1981C7 24.5861 7.22446 24.9391 7.57584 25.1037C7.92723 25.2683 8.3421 25.2147 8.64018 24.9663L12.6402 21.633C12.8682 21.443 13 21.1616 13 20.8648V18.1981C13 15.4367 15.2386 13.1981 18 13.1981H24C24.5523 13.1981 25 12.7504 25 12.1981V7.53145C25 5.13822 23.0599 3.19812 20.6667 3.19812H7.33333Z" fill="#333D47"/>
<path d="M26 15.1981C27.6569 15.1981 29 16.5413 29 18.1981V24.1981C29 25.855 27.6569 27.1981 26 27.1981V28.1981C26 28.5825 25.7797 28.9329 25.4332 29.0994C25.0867 29.2659 24.6755 29.2191 24.3753 28.979L22.1492 27.1981H18C16.3431 27.1981 15 25.855 15 24.1981V18.1981C15 16.5413 16.3431 15.1981 18 15.1981H26Z" fill="#333D47"/>
</svg>
