<svg width="32" height="33" viewBox="0 0 32 33" fill="none" xmlns="http://www.w3.org/2000/svg">
<path fill-rule="evenodd" clip-rule="evenodd" d="M3 8.19812C3 5.4367 5.23858 3.19812 8 3.19812H24C26.7614 3.19812 29 5.4367 29 8.19812V20.1981C29 22.9595 26.7614 25.1981 24 25.1981H14.3508L9.62469 28.979C9.32452 29.2191 8.91328 29.2659 8.56681 29.0994C8.22035 28.9329 8 28.5825 8 28.1981V25.1981C5.23858 25.1981 3 22.9595 3 20.1981V8.19812ZM8 5.19812C6.34315 5.19812 5 6.54127 5 8.19812V20.1981C5 21.855 6.34315 23.1981 8 23.1981H9C9.55228 23.1981 10 23.6458 10 24.1981V26.1175L13.3753 23.4173C13.5526 23.2754 13.7729 23.1981 14 23.1981H24C25.6569 23.1981 27 21.855 27 20.1981V8.19812C27 6.54127 25.6569 5.19812 24 5.19812H8Z" fill="#333D47"/>
<path fill-rule="evenodd" clip-rule="evenodd" d="M9 12.1981C9 11.6458 9.44772 11.1981 10 11.1981L22 11.1981C22.5523 11.1981 23 11.6458 23 12.1981C23 12.7504 22.5523 13.1981 22 13.1981L10 13.1981C9.44772 13.1981 9 12.7504 9 12.1981Z" fill="#333D47"/>
<path fill-rule="evenodd" clip-rule="evenodd" d="M9 16.1981C9 15.6458 9.44772 15.1981 10 15.1981L17 15.1981C17.5523 15.1981 18 15.6458 18 16.1981C18 16.7504 17.5523 17.1981 17 17.1981L10 17.1981C9.44772 17.1981 9 16.7504 9 16.1981Z" fill="#333D47"/>
</svg>
