<svg width="32" height="33" viewBox="0 0 32 33" fill="none" xmlns="http://www.w3.org/2000/svg">
<path fill-rule="evenodd" clip-rule="evenodd" d="M8 3.19812C5.23858 3.19812 3 5.4367 3 8.19812V20.1981C3 22.9595 5.23858 25.1981 8 25.1981V28.1981C8 28.5825 8.22035 28.9329 8.56681 29.0994C8.91328 29.2659 9.32452 29.2191 9.62469 28.979L14.3508 25.1981H24C26.7614 25.1981 29 22.9595 29 20.1981V8.19812C29 5.4367 26.7614 3.19812 24 3.19812H8ZM9 12.1981C9 11.6458 9.44772 11.1981 10 11.1981L22 11.1981C22.5523 11.1981 23 11.6458 23 12.1981C23 12.7504 22.5523 13.1981 22 13.1981L10 13.1981C9.44772 13.1981 9 12.7504 9 12.1981ZM10 15.1981C9.44772 15.1981 9 15.6458 9 16.1981C9 16.7504 9.44772 17.1981 10 17.1981L17 17.1981C17.5523 17.1981 18 16.7504 18 16.1981C18 15.6458 17.5523 15.1981 17 15.1981L10 15.1981Z" fill="#333D47"/>
</svg>
