<svg width="32" height="33" viewBox="0 0 32 33" fill="none" xmlns="http://www.w3.org/2000/svg">
<path fill-rule="evenodd" clip-rule="evenodd" d="M8 3.19812C5.23858 3.19812 3 5.4367 3 8.19812V20.1981C3 22.9595 5.23858 25.1981 8 25.1981V28.1981C8 28.5825 8.22035 28.9329 8.56681 29.0994C8.91328 29.2659 9.32452 29.2191 9.62469 28.979L14.3508 25.1981H24C26.7614 25.1981 29 22.9595 29 20.1981V8.19812C29 5.4367 26.7614 3.19812 24 3.19812H8ZM16 9.19812C14.8954 9.19812 14 10.0936 14 11.1981C14 11.7504 13.5523 12.1981 13 12.1981C12.4477 12.1981 12 11.7504 12 11.1981C12 8.98898 13.7909 7.19812 16 7.19812C18.2091 7.19812 20 8.98898 20 11.1981C20 13.062 18.7252 14.6281 17 15.0721V16.1981C17 16.7504 16.5523 17.1981 16 17.1981C15.4477 17.1981 15 16.7504 15 16.1981V14.1981C15 13.6458 15.4477 13.1981 16 13.1981C17.1046 13.1981 18 12.3027 18 11.1981C18 10.0936 17.1046 9.19812 16 9.19812ZM16 21.1981C16.6904 21.1981 17.25 20.6385 17.25 19.9481C17.25 19.2578 16.6904 18.6981 16 18.6981C15.3096 18.6981 14.75 19.2578 14.75 19.9481C14.75 20.6385 15.3096 21.1981 16 21.1981Z" fill="#333D47"/>
</svg>
