<svg width="32" height="33" viewBox="0 0 32 33" fill="none" xmlns="http://www.w3.org/2000/svg">
<path d="M7.33333 3.198C4.9401 3.198 3 5.1381 3 7.53133V17.5313C3 19.8124 4.76252 21.6818 7 21.852V24.198C7 24.586 7.22446 24.939 7.57584 25.1036C7.92723 25.2682 8.3421 25.2146 8.64018 24.9662L12.362 21.8647C12.7144 21.8647 13 21.579 13 21.2267V20.6459C13 20.2144 12.6502 19.8647 12.2188 19.8647H12C11.7661 19.8647 11.5395 19.9467 11.3598 20.0964L9 22.063V20.8647C9 20.3124 8.55228 19.8647 8 19.8647H7.33333C6.04467 19.8647 5 18.82 5 17.5313V7.53133C5 6.24267 6.04467 5.198 7.33333 5.198H20.6667C21.9553 5.198 23 6.24267 23 7.53133V12.1793C23 12.7419 23.4561 13.198 24.0187 13.198C24.5607 13.198 25 12.7587 25 12.2167V7.53133C25 5.1381 23.0599 3.198 20.6667 3.198H7.33333Z" fill="#333D47"/>
<path fill-rule="evenodd" clip-rule="evenodd" d="M15 24.198C15 25.8549 16.3431 27.198 18 27.198H22.1492L24.3753 28.9789C24.6755 29.219 25.0867 29.2658 25.4332 29.0993C25.7797 28.9328 26 28.5824 26 28.198V27.198C27.6569 27.198 29 25.8549 29 24.198V18.198C29 16.5411 27.6569 15.198 26 15.198H18C16.3431 15.198 15 16.5411 15 18.198V24.198ZM23.1247 25.4171L24.003 26.1198C24.0429 25.6041 24.474 25.198 25 25.198H26C26.5523 25.198 27 24.7503 27 24.198V18.198C27 17.6457 26.5523 17.198 26 17.198H18C17.4477 17.198 17 17.6457 17 18.198V24.198C17 24.7503 17.4477 25.198 18 25.198H22.5C22.7271 25.198 22.9474 25.2753 23.1247 25.4171Z" fill="#333D47"/>
</svg>
