<svg width="32" height="33" viewBox="0 0 32 33" fill="none" xmlns="http://www.w3.org/2000/svg">
<path fill-rule="evenodd" clip-rule="evenodd" d="M23 14.1981H30V23.1981C30 24.855 28.6569 26.1981 27 26.1981L5 26.1981C3.34315 26.1981 2 24.855 2 23.1981V9.19812C2 7.54127 3.34315 6.19812 5 6.19812H22V13.1981C22 13.7504 22.4477 14.1981 23 14.1981ZM10.3075 11.1981C10.3074 10.6458 9.85971 10.1981 9.30743 10.1981C8.75514 10.1981 8.30744 10.6459 8.30745 11.1981L8.30746 11.4596C7.85846 11.5614 7.43498 11.7385 7.06996 12.0047C6.41105 12.4852 5.99979 13.2206 5.99979 14.1148C5.99979 14.6168 6.13191 15.2624 6.65489 15.8619C7.16019 16.4411 7.94559 16.8794 9.0576 17.1664C9.93274 17.3922 10.3012 17.6751 10.4529 17.8491C10.587 18.0028 10.6151 18.1424 10.6151 18.2815C10.6151 18.5091 10.5319 18.655 10.3666 18.7755C10.171 18.9182 9.81909 19.0443 9.30745 19.0443C8.44681 19.0443 8.07371 18.5842 7.96539 18.1818C7.82183 17.6485 7.27312 17.3325 6.73982 17.4761C6.20652 17.6196 5.89058 18.1683 6.03414 18.7016C6.30566 19.7103 7.09652 20.6006 8.30745 20.9194V21.1981C8.30745 21.7504 8.75517 22.1981 9.30745 22.1981C9.85974 22.1981 10.3075 21.7504 10.3075 21.1981V20.9366C10.7565 20.8349 11.1799 20.6577 11.545 20.3915C12.2039 19.9111 12.6151 19.1756 12.6151 18.2815C12.6151 17.7795 12.483 17.1339 11.9601 16.5343C11.4548 15.9551 10.6694 15.5168 9.55737 15.2298C8.68223 15.004 8.31378 14.7211 8.16202 14.5472C8.02794 14.3935 7.99979 14.2538 7.99979 14.1148C7.99979 13.8872 8.08304 13.7412 8.2483 13.6207C8.44391 13.4781 8.79584 13.352 9.30748 13.352C10.1681 13.352 10.5412 13.8121 10.6496 14.2145C10.7931 14.7478 11.3418 15.0637 11.8751 14.9202C12.4084 14.7766 12.7244 14.2279 12.5808 13.6946C12.3093 12.6859 11.5184 11.7956 10.3075 11.4768L10.3075 11.1981ZM14 21.1981C14 20.6458 14.4477 20.1981 15 20.1981H25C25.5523 20.1981 26 20.6458 26 21.1981C26 21.7504 25.5523 22.1981 25 22.1981H15C14.4477 22.1981 14 21.7504 14 21.1981ZM18 16.1981C17.4477 16.1981 17 16.6458 17 17.1981C17 17.7504 17.4477 18.1981 18 18.1981L25 18.1981C25.5523 18.1981 26 17.7504 26 17.1981C26 16.6458 25.5523 16.1981 25 16.1981L18 16.1981Z" fill="#333D47"/>
<path d="M24 12.1981L29.4142 12.1981L24 6.78391V12.1981Z" fill="#333D47"/>
</svg>
