<svg width="32" height="33" viewBox="0 0 32 33" fill="none" xmlns="http://www.w3.org/2000/svg">
<path fill-rule="evenodd" clip-rule="evenodd" d="M30 15.9999C30 23.7319 23.732 29.9999 16 29.9999C8.26801 29.9999 2 23.7319 2 15.9999C2 8.26789 8.26801 1.99988 16 1.99988C23.732 1.99988 30 8.26789 30 15.9999ZM20.9498 11.0502C21.3403 11.4407 21.3403 12.0738 20.9498 12.4644L17.4142 15.9999L20.9497 19.5354C21.3402 19.926 21.3402 20.5591 20.9497 20.9497C20.5592 21.3402 19.926 21.3402 19.5355 20.9497L16 17.4142L12.4645 20.9497C12.074 21.3402 11.4408 21.3402 11.0503 20.9497C10.6598 20.5591 10.6598 19.926 11.0503 19.5354L14.5858 15.9999L11.0502 12.4644C10.6597 12.0738 10.6597 11.4407 11.0502 11.0502C11.4407 10.6596 12.0739 10.6596 12.4644 11.0502L16 14.5857L19.5356 11.0502C19.9261 10.6596 20.5593 10.6596 20.9498 11.0502Z" fill="#333D47"/>
</svg>
