<svg width="32" height="33" viewBox="0 0 32 33" fill="none" xmlns="http://www.w3.org/2000/svg">
<path fill-rule="evenodd" clip-rule="evenodd" d="M16 29.9999C23.732 29.9999 30 23.7319 30 15.9999C30 8.26789 23.732 1.99988 16 1.99988C8.26801 1.99988 2 8.26789 2 15.9999C2 23.7319 8.26801 29.9999 16 29.9999ZM22.7071 12.707C23.0976 12.3165 23.0976 11.6833 22.7071 11.2928C22.3166 10.9022 21.6834 10.9022 21.2929 11.2928L14 18.5857L10.7071 15.2928C10.3166 14.9022 9.68342 14.9022 9.29289 15.2928C8.90237 15.6833 8.90237 16.3165 9.29289 16.707L13.2929 20.707C13.6834 21.0975 14.3166 21.0975 14.7071 20.707L22.7071 12.707Z" fill="#333D47"/>
</svg>
