<svg width="32" height="33" viewBox="0 0 32 33" fill="none" xmlns="http://www.w3.org/2000/svg">
<path fill-rule="evenodd" clip-rule="evenodd" d="M16 28.1981C22.6274 28.1981 28 22.8255 28 16.1981C28 9.5707 22.6274 4.19812 16 4.19812C9.37258 4.19812 4 9.5707 4 16.1981C4 22.8255 9.37258 28.1981 16 28.1981ZM16 30.1981C23.732 30.1981 30 23.9301 30 16.1981C30 8.46613 23.732 2.19812 16 2.19812C8.26801 2.19812 2 8.46613 2 16.1981C2 23.9301 8.26801 30.1981 16 30.1981Z" fill="#333D47"/>
<path fill-rule="evenodd" clip-rule="evenodd" d="M22.7071 11.491C23.0976 11.8815 23.0976 12.5147 22.7071 12.9052L14.7071 20.9052C14.3166 21.2958 13.6834 21.2958 13.2929 20.9052L9.29289 16.9052C8.90237 16.5147 8.90237 15.8815 9.29289 15.491C9.68342 15.1005 10.3166 15.1005 10.7071 15.491L14 18.7839L21.2929 11.491C21.6834 11.1005 22.3166 11.1005 22.7071 11.491Z" fill="#333D47"/>
</svg>
