<svg width="32" height="33" viewBox="0 0 32 33" fill="none" xmlns="http://www.w3.org/2000/svg">
<path fill-rule="evenodd" clip-rule="evenodd" d="M16 28.1981C22.6274 28.1981 28 22.8255 28 16.1981C28 9.5707 22.6274 4.19812 16 4.19812C9.37258 4.19812 4 9.5707 4 16.1981C4 22.8255 9.37258 28.1981 16 28.1981ZM16 30.1981C23.732 30.1981 30 23.9301 30 16.1981C30 8.46613 23.732 2.19812 16 2.19812C8.26801 2.19812 2 8.46613 2 16.1981C2 23.9301 8.26801 30.1981 16 30.1981Z" fill="#333D47"/>
<path fill-rule="evenodd" clip-rule="evenodd" d="M20.9498 11.2484C21.3403 11.6389 21.3403 12.2721 20.9498 12.6626L12.4645 21.1479C12.0739 21.5384 11.4408 21.5384 11.0503 21.1479C10.6597 20.7574 10.6597 20.1242 11.0503 19.7337L19.5355 11.2484C19.9261 10.8579 20.5592 10.8579 20.9498 11.2484Z" fill="#333D47"/>
<path fill-rule="evenodd" clip-rule="evenodd" d="M11.0503 11.2484C11.4408 10.8579 12.0739 10.8579 12.4645 11.2484L20.9498 19.7337C21.3403 20.1242 21.3403 20.7574 20.9498 21.1479C20.5592 21.5384 19.9261 21.5384 19.5355 21.1479L11.0503 12.6626C10.6597 12.2721 10.6597 11.6389 11.0503 11.2484Z" fill="#333D47"/>
</svg>
