<svg width="32" height="33" viewBox="0 0 32 33" fill="none" xmlns="http://www.w3.org/2000/svg">
<path fill-rule="evenodd" clip-rule="evenodd" d="M30 15.9999C30 23.7319 23.732 29.9999 16 29.9999C8.26801 29.9999 2 23.7319 2 15.9999C2 8.26789 8.26801 1.99988 16 1.99988C23.732 1.99988 30 8.26789 30 15.9999ZM23 15.9999C23 16.5522 22.5523 16.9999 22 16.9999H17V21.9999C17 22.5522 16.5523 22.9999 16 22.9999C15.4477 22.9999 15 22.5522 15 21.9999V16.9999H10C9.44771 16.9999 9 16.5522 9 15.9999C9 15.4476 9.44771 14.9999 10 14.9999H15V9.99988C15 9.44759 15.4477 8.99988 16 8.99988C16.5523 8.99988 17 9.44759 17 9.99988V14.9999H22C22.5523 14.9999 23 15.4476 23 15.9999Z" fill="#333D47"/>
</svg>
