<svg width="32" height="33" viewBox="0 0 32 33" fill="none" xmlns="http://www.w3.org/2000/svg">
<path fill-rule="evenodd" clip-rule="evenodd" d="M11.1 6.19812C11.5633 3.91588 13.581 2.19812 16 2.19812C18.419 2.19812 20.4367 3.91588 20.9 6.19812H24C25.6569 6.19812 27 7.54127 27 9.19812V27.1981C27 28.855 25.6569 30.1981 24 30.1981H8C6.34315 30.1981 5 28.855 5 27.1981V9.19812C5 7.54127 6.34315 6.19812 8 6.19812H11.1ZM16 4.19812C14.3431 4.19812 13 5.54127 13 7.19812C13 7.7504 12.5523 8.19812 12 8.19812H8C7.44771 8.19812 7 8.64584 7 9.19812V27.1981C7 27.7504 7.44772 28.1981 8 28.1981H24C24.5523 28.1981 25 27.7504 25 27.1981V9.19812C25 8.64584 24.5523 8.19812 24 8.19812H20C19.4477 8.19812 19 7.7504 19 7.19812C19 5.54127 17.6569 4.19812 16 4.19812Z" fill="#333D47"/>
<path d="M17.5 7.19812C17.5 8.02655 16.8284 8.69812 16 8.69812C15.1716 8.69812 14.5 8.02655 14.5 7.19812C14.5 6.36969 15.1716 5.69812 16 5.69812C16.8284 5.69812 17.5 6.36969 17.5 7.19812Z" fill="#333D47"/>
<path fill-rule="evenodd" clip-rule="evenodd" d="M9 14.1981C9 13.6458 9.44772 13.1981 10 13.1981L22 13.1981C22.5523 13.1981 23 13.6458 23 14.1981C23 14.7504 22.5523 15.1981 22 15.1981L10 15.1981C9.44772 15.1981 9 14.7504 9 14.1981Z" fill="#333D47"/>
<path fill-rule="evenodd" clip-rule="evenodd" d="M9 18.1981C9 17.6458 9.44772 17.1981 10 17.1981L22 17.1981C22.5523 17.1981 23 17.6458 23 18.1981C23 18.7504 22.5523 19.1981 22 19.1981L10 19.1981C9.44772 19.1981 9 18.7504 9 18.1981Z" fill="#333D47"/>
<path fill-rule="evenodd" clip-rule="evenodd" d="M9 22.1981C9 21.6458 9.44772 21.1981 10 21.1981H17C17.5523 21.1981 18 21.6458 18 22.1981C18 22.7504 17.5523 23.1981 17 23.1981H10C9.44772 23.1981 9 22.7504 9 22.1981Z" fill="#333D47"/>
</svg>
