<svg width="32" height="33" viewBox="0 0 32 33" fill="none" xmlns="http://www.w3.org/2000/svg">
<path d="M16 8.69812C16.8284 8.69812 17.5 8.02655 17.5 7.19812C17.5 6.36969 16.8284 5.69812 16 5.69812C15.1716 5.69812 14.5 6.36969 14.5 7.19812C14.5 8.02655 15.1716 8.69812 16 8.69812Z" fill="#333D47"/>
<path d="M20.207 13.991C20.5975 14.3815 20.5975 15.0147 20.207 15.4052L17.4141 18.1981L20.2071 20.991C20.5976 21.3815 20.5976 22.0147 20.2071 22.4052C19.8166 22.7958 19.1834 22.7958 18.7929 22.4052L15.9999 19.6123L13.207 22.4052C12.8165 22.7958 12.1833 22.7958 11.7928 22.4052C11.4023 22.0147 11.4023 21.3815 11.7928 20.991L14.5857 18.1981L11.7929 15.4052C11.4024 15.0147 11.4024 14.3815 11.7929 13.991C12.1834 13.6005 12.8166 13.6005 13.2071 13.991L15.9999 16.7838L18.7927 13.991C19.1833 13.6005 19.8164 13.6005 20.207 13.991Z" fill="#333D47"/>
<path fill-rule="evenodd" clip-rule="evenodd" d="M16 2.19812C13.581 2.19812 11.5633 3.91588 11.1 6.19812H8C6.34315 6.19812 5 7.54127 5 9.19812V27.1981C5 28.855 6.34315 30.1981 8 30.1981H24C25.6569 30.1981 27 28.855 27 27.1981V9.19812C27 7.54127 25.6569 6.19812 24 6.19812H20.9C20.4367 3.91588 18.419 2.19812 16 2.19812ZM13 7.19812C13 5.54127 14.3431 4.19812 16 4.19812C17.6569 4.19812 19 5.54127 19 7.19812C19 7.7504 19.4477 8.19812 20 8.19812H24C24.5523 8.19812 25 8.64584 25 9.19812V27.1981C25 27.7504 24.5523 28.1981 24 28.1981H8C7.44772 28.1981 7 27.7504 7 27.1981V9.19812C7 8.64584 7.44771 8.19812 8 8.19812H12C12.5523 8.19812 13 7.7504 13 7.19812Z" fill="#333D47"/>
</svg>
