<svg width="32" height="33" viewBox="0 0 32 33" fill="none" xmlns="http://www.w3.org/2000/svg">
<path fill-rule="evenodd" clip-rule="evenodd" d="M16 2.19812C13.581 2.19812 11.5633 3.91588 11.1 6.19812H8C6.34315 6.19812 5 7.54127 5 9.19812V27.1981C5 28.855 6.34315 30.1981 8 30.1981H24C25.6569 30.1981 27 28.855 27 27.1981V9.19812C27 7.54127 25.6569 6.19812 24 6.19812H20.9C20.4367 3.91588 18.419 2.19812 16 2.19812ZM17.5 7.19812C17.5 8.02655 16.8284 8.69812 16 8.69812C15.1716 8.69812 14.5 8.02655 14.5 7.19812C14.5 6.36969 15.1716 5.69812 16 5.69812C16.8284 5.69812 17.5 6.36969 17.5 7.19812ZM10 13.1981C9.44772 13.1981 9 13.6458 9 14.1981C9 14.7504 9.44772 15.1981 10 15.1981L22 15.1981C22.5523 15.1981 23 14.7504 23 14.1981C23 13.6458 22.5523 13.1981 22 13.1981L10 13.1981ZM9 18.1981C9 17.6458 9.44772 17.1981 10 17.1981L22 17.1981C22.5523 17.1981 23 17.6458 23 18.1981C23 18.7504 22.5523 19.1981 22 19.1981L10 19.1981C9.44772 19.1981 9 18.7504 9 18.1981ZM10 21.1981C9.44772 21.1981 9 21.6458 9 22.1981C9 22.7504 9.44772 23.1981 10 23.1981H17C17.5523 23.1981 18 22.7504 18 22.1981C18 21.6458 17.5523 21.1981 17 21.1981H10Z" fill="#333D47"/>
</svg>
