<svg width="32" height="33" viewBox="0 0 32 33" fill="none" xmlns="http://www.w3.org/2000/svg">
<path fill-rule="evenodd" clip-rule="evenodd" d="M16 28.1981C22.6274 28.1981 28 22.8255 28 16.1981C28 9.5707 22.6274 4.19812 16 4.19812C9.37258 4.19812 4 9.5707 4 16.1981C4 22.8255 9.37258 28.1981 16 28.1981ZM16 30.1981C23.732 30.1981 30 23.9301 30 16.1981C30 8.46613 23.732 2.19812 16 2.19812C8.26801 2.19812 2 8.46613 2 16.1981C2 23.9301 8.26801 30.1981 16 30.1981Z" fill="#333D47"/>
<path fill-rule="evenodd" clip-rule="evenodd" d="M16 8.19812C16.5523 8.19812 17 8.64584 17 9.19812V15.7839L21.7071 20.491C22.0976 20.8815 22.0976 21.5147 21.7071 21.9052C21.3166 22.2958 20.6834 22.2958 20.2929 21.9052L15.2929 16.9052C15.1054 16.7177 15 16.4633 15 16.1981V9.19812C15 8.64584 15.4477 8.19812 16 8.19812Z" fill="#333D47"/>
</svg>
