<svg width="32" height="33" viewBox="0 0 32 33" fill="none" xmlns="http://www.w3.org/2000/svg">
<path fill-rule="evenodd" clip-rule="evenodd" d="M16 30.1981C23.732 30.1981 30 23.9301 30 16.1981C30 8.46613 23.732 2.19812 16 2.19812C8.26801 2.19812 2 8.46613 2 16.1981C2 23.9301 8.26801 30.1981 16 30.1981ZM17 9.19812C17 8.64584 16.5523 8.19812 16 8.19812C15.4477 8.19812 15 8.64584 15 9.19812V16.1981C15 16.4633 15.1054 16.7177 15.2929 16.9052L20.2929 21.9052C20.6834 22.2958 21.3166 22.2958 21.7071 21.9052C22.0976 21.5147 22.0976 20.8815 21.7071 20.491L17 15.7839V9.19812Z" fill="#333D47"/>
</svg>
