<svg width="32" height="33" viewBox="0 0 32 33" fill="none" xmlns="http://www.w3.org/2000/svg">
<path d="M25.7072 7.90523C26.0977 7.5147 26.0977 6.88154 25.7072 6.49101C25.3166 6.10049 24.6835 6.10049 24.2929 6.49101L16.0001 14.7839L7.70719 6.49104C7.31667 6.10052 6.6835 6.10052 6.29298 6.49104C5.90245 6.88157 5.90245 7.51473 6.29298 7.90526L14.5858 16.1981L6.29289 24.4911C5.90237 24.8816 5.90237 25.5148 6.29289 25.9053C6.68342 26.2958 7.31658 26.2958 7.70711 25.9053L16.0001 17.6123L24.293 25.9053C24.6836 26.2958 25.3167 26.2958 25.7072 25.9053C26.0978 25.5148 26.0978 24.8816 25.7072 24.4911L17.4143 16.1981L25.7072 7.90523Z" fill="#333D47"/>
</svg>
