<svg width="32" height="33" viewBox="0 0 32 33" fill="none" xmlns="http://www.w3.org/2000/svg">
<path d="M12 5.99988C7.58172 5.99988 4 9.5816 4 13.9999C4 17.1395 5.80844 19.8586 8.44503 21.1688C8.93961 21.4146 9.1413 22.0148 8.89551 22.5094C8.64973 23.004 8.04955 23.2057 7.55497 22.9599C4.26468 21.3247 2 17.9277 2 13.9999C2 8.47703 6.47715 3.99988 12 3.99988C16.1859 3.99988 19.7691 6.57109 21.2601 10.2187C23.5752 9.62693 26.1357 10.2361 27.9497 12.0501C30.6834 14.7838 30.6834 19.216 27.9497 21.9496C26.8816 23.0177 25.5515 23.6696 24.1658 23.9026C23.6212 23.9942 23.1054 23.6269 23.0138 23.0823C22.9223 22.5376 23.2895 22.0219 23.8342 21.9303C24.8233 21.764 25.7711 21.2999 26.5355 20.5354C28.4882 18.5828 28.4882 15.417 26.5355 13.4643C25.0497 11.9785 22.8595 11.6219 21.0351 12.4004C20.772 12.5127 20.4734 12.5069 20.2148 12.3845C19.9562 12.2621 19.7624 12.0347 19.6825 11.76C18.7138 8.43104 15.6395 5.99988 12 5.99988Z" fill="#333D47"/>
<path d="M15 24.5857L12.7071 22.2928C12.3166 21.9022 11.6834 21.9022 11.2929 22.2928C10.9024 22.6833 10.9024 23.3165 11.2929 23.707L15.2929 27.707C15.6834 28.0975 16.3166 28.0975 16.7071 27.707L20.7071 23.707C21.0976 23.3165 21.0976 22.6833 20.7071 22.2928C20.3166 21.9022 19.6834 21.9022 19.2929 22.2928L17 24.5857V14.9999C17 14.4476 16.5523 13.9999 16 13.9999C15.4477 13.9999 15 14.4476 15 14.9999V24.5857Z" fill="#333D47"/>
</svg>
