<svg width="32" height="33" viewBox="0 0 32 33" fill="none" xmlns="http://www.w3.org/2000/svg">
<path fill-rule="evenodd" clip-rule="evenodd" d="M12 8.19812C7.58172 8.19812 4 11.7798 4 16.1981C4 20.6164 7.58172 24.1981 12 24.1981H23.0023C24.2827 24.1975 25.5596 23.7096 26.5355 22.7337C28.4882 20.781 28.4882 17.6152 26.5355 15.6626C25.0497 14.1767 22.8595 13.8201 21.0351 14.5986C20.772 14.7109 20.4734 14.7051 20.2148 14.5827C19.9562 14.4603 19.7624 14.233 19.6825 13.9583C18.7138 10.6293 15.6395 8.19812 12 8.19812ZM2 16.1981C2 10.6753 6.47715 6.19812 12 6.19812C16.1859 6.19812 19.7691 8.76933 21.2601 12.4169C23.5752 11.8252 26.1357 12.4344 27.9497 14.2484C30.6834 16.982 30.6834 21.4142 27.9497 24.1479C26.5839 25.5137 24.7921 26.1973 23.0033 26.1981H12C6.47715 26.1981 2 21.721 2 16.1981Z" fill="#333D47"/>
</svg>
