<svg width="32" height="33" viewBox="0 0 32 33" fill="none" xmlns="http://www.w3.org/2000/svg">
<path d="M12 6.19812C7.58172 6.19812 4 9.77984 4 14.1981C4 17.3377 5.80844 20.0568 8.44503 21.3671C8.93961 21.6129 9.1413 22.2131 8.89551 22.7076C8.64973 23.2022 8.04955 23.4039 7.55497 23.1581C4.26468 21.523 2 18.1259 2 14.1981C2 8.67527 6.47715 4.19812 12 4.19812C16.1859 4.19812 19.7691 6.76933 21.2601 10.4169C23.5752 9.82517 26.1357 10.4344 27.9497 12.2484C30.6834 14.982 30.6834 19.4142 27.9497 22.1479C26.8816 23.216 25.5515 23.8678 24.1658 24.1008C23.6212 24.1924 23.1054 23.8251 23.0138 23.2805C22.9223 22.7359 23.2895 22.2201 23.8342 22.1285C24.8233 21.9622 25.7711 21.4981 26.5355 20.7337C28.4882 18.781 28.4882 15.6152 26.5355 13.6626C25.0497 12.1767 22.8595 11.8201 21.0351 12.5986C20.772 12.7109 20.4734 12.7051 20.2148 12.5827C19.9562 12.4603 19.7624 12.233 19.6825 11.9583C18.7138 8.62928 15.6395 6.19812 12 6.19812Z" fill="#333D47"/>
<path d="M15 17.6123L12.7071 19.9052C12.3166 20.2958 11.6834 20.2958 11.2929 19.9052C10.9024 19.5147 10.9024 18.8815 11.2929 18.491L15.2929 14.491C15.6834 14.1005 16.3166 14.1005 16.7071 14.491L20.7071 18.491C21.0976 18.8815 21.0976 19.5147 20.7071 19.9052C20.3166 20.2957 19.6834 20.2957 19.2929 19.9052L17 17.6123V27.1981C17 27.7504 16.5523 28.1981 16 28.1981C15.4477 28.1981 15 27.7504 15 27.1981V17.6123Z" fill="#333D47"/>
</svg>
