<svg width="32" height="33" viewBox="0 0 32 33" fill="none" xmlns="http://www.w3.org/2000/svg">
<path d="M16 17.6981C16.8284 17.6981 17.5 17.0265 17.5 16.1981C17.5 15.3697 16.8284 14.6981 16 14.6981C15.1716 14.6981 14.5 15.3697 14.5 16.1981C14.5 17.0265 15.1716 17.6981 16 17.6981Z" fill="#333D47"/>
<path fill-rule="evenodd" clip-rule="evenodd" d="M30 16.1981C30 23.9301 23.732 30.1981 16 30.1981C8.26801 30.1981 2 23.9301 2 16.1981C2 8.46613 8.26801 2.19812 16 2.19812C23.732 2.19812 30 8.46613 30 16.1981ZM22.9487 10.5143C23.0685 10.155 22.975 9.75884 22.7071 9.49101C22.4393 9.22318 22.0431 9.12966 21.6838 9.24943L12.6838 12.2494C12.3852 12.349 12.1509 12.5833 12.0513 12.8819L9.05134 21.8819C8.93157 22.2412 9.02509 22.6374 9.29292 22.9052C9.56075 23.1731 9.95692 23.2666 10.3163 23.1468L19.3163 20.1468C19.6149 20.0473 19.8492 19.813 19.9487 19.5143L22.9487 10.5143Z" fill="#333D47"/>
</svg>
