<svg width="32" height="33" viewBox="0 0 32 33" fill="none" xmlns="http://www.w3.org/2000/svg">
<path fill-rule="evenodd" clip-rule="evenodd" d="M16 28.1981C22.6274 28.1981 28 22.8255 28 16.1981C28 9.5707 22.6274 4.19812 16 4.19812C9.37258 4.19812 4 9.5707 4 16.1981C4 22.8255 9.37258 28.1981 16 28.1981ZM16 30.1981C23.732 30.1981 30 23.9301 30 16.1981C30 8.46613 23.732 2.19812 16 2.19812C8.26801 2.19812 2 8.46613 2 16.1981C2 23.9301 8.26801 30.1981 16 30.1981Z" fill="#333D47"/>
<path fill-rule="evenodd" clip-rule="evenodd" d="M22.7071 9.49101C22.9749 9.75885 23.0685 10.155 22.9487 10.5143L19.9487 19.5143C19.8491 19.813 19.6148 20.0473 19.3162 20.1468L10.3162 23.1468C9.95689 23.2666 9.56073 23.1731 9.29289 22.9052C9.02506 22.6374 8.93154 22.2412 9.05132 21.8819L12.0513 12.8819C12.1509 12.5833 12.3852 12.349 12.6838 12.2494L21.6838 9.24944C22.0431 9.12966 22.4393 9.22318 22.7071 9.49101ZM13.7906 13.9887L11.5811 20.617L18.2094 18.4076L20.4189 11.7793L13.7906 13.9887Z" fill="#333D47"/>
<path d="M17.5 16.1981C17.5 17.0265 16.8284 17.6981 16 17.6981C15.1716 17.6981 14.5 17.0265 14.5 16.1981C14.5 15.3697 15.1716 14.6981 16 14.6981C16.8284 14.6981 17.5 15.3697 17.5 16.1981Z" fill="#333D47"/>
</svg>
