<svg width="32" height="33" viewBox="0 0 32 33" fill="none" xmlns="http://www.w3.org/2000/svg">
<path fill-rule="evenodd" clip-rule="evenodd" d="M8 2.19812C6.34315 2.19812 5 3.54127 5 5.19812V27.1981C5 28.855 6.34315 30.1981 8 30.1981H24C25.6569 30.1981 27 28.855 27 27.1981V10.5265C27 9.7309 26.6839 8.96783 26.1213 8.40523L20.7929 3.0768C20.2303 2.51419 19.4672 2.19812 18.6716 2.19812H8ZM7 5.19812C7 4.64584 7.44772 4.19812 8 4.19812H18V10.1981C18 10.7504 18.4477 11.1981 19 11.1981H25V27.1981C25 27.7504 24.5523 28.1981 24 28.1981H8C7.44772 28.1981 7 27.7504 7 27.1981V5.19812ZM24.0858 9.19812L20 5.11233V9.19812H24.0858Z" fill="#333D47"/>
</svg>
