<svg width="32" height="33" viewBox="0 0 32 33" fill="none" xmlns="http://www.w3.org/2000/svg">
<path d="M14.2929 20.491L10 24.7839L10 5.19812C10 4.64584 9.55228 4.19812 9 4.19812C8.44772 4.19812 8 4.64584 8 5.19812L8 24.7839L3.70711 20.491C3.31658 20.1005 2.68342 20.1005 2.29289 20.491C1.90237 20.8815 1.90237 21.5147 2.29289 21.9052L8.29289 27.9052C8.48043 28.0928 8.73478 28.1981 9 28.1981C9.26521 28.1981 9.51957 28.0928 9.70711 27.9052L15.7071 21.9052C16.0976 21.5147 16.0976 20.8815 15.7071 20.491C15.3166 20.1005 14.6834 20.1005 14.2929 20.491Z" fill="#333D47"/>
<path d="M15 4.19812C14.4477 4.19812 14 4.64584 14 5.19812C14 5.7504 14.4477 6.19812 15 6.19812H29C29.5523 6.19812 30 5.7504 30 5.19812C30 4.64584 29.5523 4.19812 29 4.19812H15Z" fill="#333D47"/>
<path d="M14 10.1981C14 9.64584 14.4477 9.19812 15 9.19812H25C25.5523 9.19812 26 9.64584 26 10.1981C26 10.7504 25.5523 11.1981 25 11.1981H15C14.4477 11.1981 14 10.7504 14 10.1981Z" fill="#333D47"/>
<path d="M15 14.1981C14.4477 14.1981 14 14.6458 14 15.1981C14 15.7504 14.4477 16.1981 15 16.1981H21C21.5523 16.1981 22 15.7504 22 15.1981C22 14.6458 21.5523 14.1981 21 14.1981H15Z" fill="#333D47"/>
</svg>
