<svg width="32" height="33" viewBox="0 0 32 33" fill="none" xmlns="http://www.w3.org/2000/svg">
<path fill-rule="evenodd" clip-rule="evenodd" d="M4 9.19812C4 8.64584 4.44772 8.19812 5 8.19812H27C27.5523 8.19812 28 8.64584 28 9.19812C28 9.7504 27.5523 10.1981 27 10.1981H5C4.44772 10.1981 4 9.7504 4 9.19812Z" fill="#333D47"/>
<path fill-rule="evenodd" clip-rule="evenodd" d="M8 16.1981C8 15.6458 8.44772 15.1981 9 15.1981H23C23.5523 15.1981 24 15.6458 24 16.1981C24 16.7504 23.5523 17.1981 23 17.1981H9C8.44772 17.1981 8 16.7504 8 16.1981Z" fill="#333D47"/>
<path fill-rule="evenodd" clip-rule="evenodd" d="M12 23.1981C12 22.6458 12.4477 22.1981 13 22.1981H19C19.5523 22.1981 20 22.6458 20 23.1981C20 23.7504 19.5523 24.1981 19 24.1981H13C12.4477 24.1981 12 23.7504 12 23.1981Z" fill="#333D47"/>
</svg>
