<svg width="32" height="33" viewBox="0 0 32 33" fill="none" xmlns="http://www.w3.org/2000/svg">
<path fill-rule="evenodd" clip-rule="evenodd" d="M19 4.19812H7C6.44772 4.19812 6 4.64584 6 5.19812V21.1981C6 21.7504 6.44772 22.1981 7 22.1981H19C19.5523 22.1981 20 21.7504 20 21.1981V5.19812C20 4.64584 19.5523 4.19812 19 4.19812ZM19 2.19812C20.6569 2.19812 22 3.54127 22 5.19812V21.1981C22 22.855 20.6569 24.1981 19 24.1981H7C5.34315 24.1981 4 22.855 4 21.1981V5.19812C4 3.54127 5.34315 2.19812 7 2.19812H19Z" fill="#333D47"/>
<path fill-rule="evenodd" clip-rule="evenodd" d="M24 8.19812H25C26.6569 8.19812 28 9.54127 28 11.1981V12.1981H26V11.1981C26 10.6458 25.5523 10.1981 25 10.1981H24V8.19812ZM26 18.1981V14.1981H28V18.1981H26ZM28 20.1981V24.1981H26V20.1981H28ZM12 26.1981V27.1981C12 27.7504 12.4477 28.1981 13 28.1981H14V30.1981H13C11.3431 30.1981 10 28.855 10 27.1981V26.1981H12ZM28 26.1981V27.1981C28 28.855 26.6569 30.1981 25 30.1981H24V28.1981H25C25.5523 28.1981 26 27.7504 26 27.1981V26.1981H28ZM22 30.1981H16V28.1981H22V30.1981Z" fill="#333D47"/>
</svg>
