<svg width="32" height="33" viewBox="0 0 32 33" fill="none" xmlns="http://www.w3.org/2000/svg">
<path fill-rule="evenodd" clip-rule="evenodd" d="M2 8.69794V23.6979C2 25.3548 3.34315 26.6979 5 26.6979H27C28.6569 26.6979 30 25.3548 30 23.6979V8.69794C30 7.04108 28.6569 5.69794 27 5.69794H5C3.34315 5.69794 2 7.04108 2 8.69794ZM5 7.69794C4.44772 7.69794 4 8.14565 4 8.69794V12.6979H28V8.69794C28 8.14565 27.5523 7.69794 27 7.69794H5ZM21 19.6979C20.4477 19.6979 20 20.1457 20 20.6979C20 21.2502 20.4477 21.6979 21 21.6979H24C24.5523 21.6979 25 21.2502 25 20.6979C25 20.1457 24.5523 19.6979 24 19.6979H21Z" fill="#333D47"/>
</svg>
