<svg width="32" height="33" viewBox="0 0 32 33" fill="none" xmlns="http://www.w3.org/2000/svg">
<path fill-rule="evenodd" clip-rule="evenodd" d="M5 7.69812C4.44772 7.69812 4 8.14584 4 8.69812V23.6981C4 24.2504 4.44772 24.6981 5 24.6981H27C27.5523 24.6981 28 24.2504 28 23.6981V8.69812C28 8.14584 27.5523 7.69812 27 7.69812H5ZM2 8.69812C2 7.04127 3.34315 5.69812 5 5.69812H27C28.6569 5.69812 30 7.04127 30 8.69812V23.6981C30 25.355 28.6569 26.6981 27 26.6981H5C3.34315 26.6981 2 25.355 2 23.6981V8.69812Z" fill="#333D47"/>
<path fill-rule="evenodd" clip-rule="evenodd" d="M2 13.6981C2 13.1458 2.44772 12.6981 3 12.6981H29C29.5523 12.6981 30 13.1458 30 13.6981C30 14.2504 29.5523 14.6981 29 14.6981H3C2.44772 14.6981 2 14.2504 2 13.6981Z" fill="#333D47"/>
<path fill-rule="evenodd" clip-rule="evenodd" d="M20 20.6981C20 20.1458 20.4477 19.6981 21 19.6981H24C24.5523 19.6981 25 20.1458 25 20.6981C25 21.2504 24.5523 21.6981 24 21.6981H21C20.4477 21.6981 20 21.2504 20 20.6981Z" fill="#333D47"/>
</svg>
