<svg width="32" height="33" viewBox="0 0 32 33" fill="none" xmlns="http://www.w3.org/2000/svg">
<path d="M11 4.19812C11 3.64584 10.5523 3.19812 10 3.19812C9.44772 3.19812 9 3.64584 9 4.19812V9.19812H4C3.44772 9.19812 3 9.64584 3 10.1981C3 10.7504 3.44772 11.1981 4 11.1981H9V21.1981C9 22.3027 9.89543 23.1981 11 23.1981H21V28.1981C21 28.7504 21.4477 29.1981 22 29.1981C22.5523 29.1981 23 28.7504 23 28.1981V23.1981H28C28.5523 23.1981 29 22.7504 29 22.1981C29 21.6458 28.5523 21.1981 28 21.1981H11V4.19812Z" fill="#333D47"/>
<path d="M21 11.1981V19.1981H23V11.1981C23 10.0936 22.1046 9.19812 21 9.19812H13V11.1981H21Z" fill="#333D47"/>
</svg>
