<svg width="32" height="33" viewBox="0 0 32 33" fill="none" xmlns="http://www.w3.org/2000/svg">
<path fill-rule="evenodd" clip-rule="evenodd" d="M2 5.19812C2 4.64584 2.44772 4.19812 3 4.19812H29C29.5523 4.19812 30 4.64584 30 5.19812V22.1981C30 22.7504 29.5523 23.1981 29 23.1981H20.2197L20.8197 26.1981H23C23.5523 26.1981 24 26.6458 24 27.1981C24 27.7504 23.5523 28.1981 23 28.1981L9 28.1981C8.44772 28.1981 8 27.7504 8 27.1981C8 26.6458 8.44772 26.1981 9 26.1981H11.1803L11.7803 23.1981H3C2.44772 23.1981 2 22.7504 2 22.1981V5.19812ZM18.7801 26.1981L18.1801 23.1981H13.8199L13.2199 26.1981L18.7801 26.1981ZM4 19.1981H28V21.1981H4V19.1981ZM28 6.19812V17.1981H4V6.19812H28Z" fill="#333D47"/>
</svg>
