<svg width="32" height="33" viewBox="0 0 32 33" fill="none" xmlns="http://www.w3.org/2000/svg">
<path d="M16.0005 2.19812C16.5528 2.19812 17.0005 2.64584 17.0005 3.19812V5.25139C20.2966 5.61072 22.3288 7.73803 22.966 10.1048C23.1095 10.6381 22.7936 11.1869 22.2603 11.3304C21.727 11.474 21.1783 11.158 21.0347 10.6247C20.5675 8.889 18.9709 7.19812 16.0003 7.19812C14.4337 7.19812 13.1587 7.58065 12.3038 8.20404C11.4792 8.80532 11.0003 9.65639 11.0003 10.7815C11.0003 11.4333 11.1567 12.2011 11.8164 12.9574C12.4938 13.7339 13.7854 14.5937 16.2502 15.2298C18.9519 15.9271 20.6604 16.9423 21.6913 18.1241C22.7399 19.3262 23.0002 20.6 23.0002 21.6148C23.0002 23.4064 22.1934 24.847 20.8751 25.8082C19.8214 26.5766 18.4751 27.018 17.0005 27.1532V29.1981C17.0005 29.7504 16.5528 30.1981 16.0005 30.1981C15.4482 30.1981 15.0005 29.7504 15.0005 29.1981V27.1449C11.7042 26.7857 9.67178 24.6583 9.03462 22.2914C8.89106 21.7581 9.20701 21.2094 9.74031 21.0658C10.2736 20.9223 10.8223 21.2382 10.9659 21.7715C11.4331 23.5072 13.0297 25.1981 16.0002 25.1981C17.5668 25.1981 18.8418 24.8156 19.6968 24.1922C20.5214 23.5909 21.0002 22.7398 21.0002 21.6148C21.0002 20.9629 20.8439 20.1951 20.1842 19.4388C19.5068 18.6623 18.2153 17.8025 15.7504 17.1664C13.0487 16.4692 11.3402 15.454 10.3093 14.2722C9.26067 13.0701 9.00033 11.7963 9.00033 10.7815C9.00033 8.98985 9.80719 7.54926 11.1254 6.58803C12.1793 5.81961 13.5258 5.37811 15.0005 5.24302V3.19812C15.0005 2.64584 15.4482 2.19812 16.0005 2.19812Z" fill="#333D47"/>
</svg>
