<svg width="32" height="33" viewBox="0 0 32 33" fill="none" xmlns="http://www.w3.org/2000/svg">
<path d="M17 9.19812V10.298C18.5985 10.631 19.6243 11.7545 19.9654 13.0215C20.109 13.5548 19.793 14.1035 19.2597 14.2471C18.7264 14.3906 18.1777 14.0747 18.0342 13.5414C17.8586 12.889 17.256 12.1981 15.9998 12.1981C15.2904 12.1981 14.7653 12.3723 14.4461 12.6051C14.1572 12.8157 13.9998 13.0939 13.9998 13.4898C13.9998 13.725 14.052 13.9824 14.2846 14.2491C14.535 14.536 15.0765 14.9271 16.2497 15.2298C17.6598 15.5937 18.6182 16.1402 19.2221 16.8324C19.8436 17.5449 19.9998 18.3083 19.9998 18.9065C19.9998 19.9689 19.5143 20.8366 18.7318 21.4072C18.2336 21.7704 17.6376 21.9995 17 22.1127V23.1981C17 23.7504 16.5523 24.1981 16 24.1981C15.4477 24.1981 15 23.7504 15 23.1981V22.0983C13.4013 21.7654 12.3753 20.6419 12.0341 19.3747C11.8906 18.8414 12.2065 18.2927 12.7398 18.1492C13.2731 18.0056 13.8218 18.3215 13.9654 18.8548C14.141 19.5072 14.7435 20.1981 15.9998 20.1981C16.7092 20.1981 17.2342 20.0239 17.5534 19.7912C17.8423 19.5805 17.9998 19.3023 17.9998 18.9065C17.9998 18.6713 17.9476 18.4138 17.7149 18.1472C17.4646 17.8602 16.9231 17.4692 15.7499 17.1664C14.3398 16.8025 13.3814 16.256 12.7775 15.5638C12.156 14.8513 11.9998 14.0879 11.9998 13.4898C11.9998 12.4273 12.4852 11.5597 13.2678 10.9891C13.7661 10.6257 14.3622 10.3967 15 10.2834V9.19812C15 8.64584 15.4477 8.19812 16 8.19812C16.5523 8.19812 17 8.64584 17 9.19812Z" fill="#333D47"/>
<path fill-rule="evenodd" clip-rule="evenodd" d="M30 16.1981C30 23.9301 23.732 30.1981 16 30.1981C8.26801 30.1981 2 23.9301 2 16.1981C2 8.46613 8.26801 2.19812 16 2.19812C23.732 2.19812 30 8.46613 30 16.1981ZM28 16.1981C28 22.8255 22.6274 28.1981 16 28.1981C9.37258 28.1981 4 22.8255 4 16.1981C4 9.5707 9.37258 4.19812 16 4.19812C22.6274 4.19812 28 9.5707 28 16.1981Z" fill="#333D47"/>
</svg>
