<svg width="32" height="33" viewBox="0 0 32 33" fill="none" xmlns="http://www.w3.org/2000/svg">
<path fill-rule="evenodd" clip-rule="evenodd" d="M16 30.1979C23.732 30.1979 30 23.9299 30 16.1979C30 8.46595 23.732 2.19794 16 2.19794C8.26801 2.19794 2 8.46595 2 16.1979C2 23.9299 8.26801 30.1979 16 30.1979ZM17.0005 10.2978V9.19794C17.0005 8.64565 16.5528 8.19794 16.0005 8.19794C15.4482 8.19794 15.0005 8.64565 15.0005 9.19794V10.2832C14.3627 10.3965 13.7666 10.6255 13.2683 10.9889C12.4857 11.5595 12.0003 12.4272 12.0003 13.4896C12.0003 14.0878 12.1565 14.8512 12.778 15.5636C13.3818 16.2559 14.3403 16.8023 15.7504 17.1662C16.9236 17.469 17.4651 17.86 17.7154 18.147C17.9481 18.4136 18.0002 18.6711 18.0002 18.9063C18.0002 19.3022 17.8428 19.5803 17.5539 19.791C17.2347 20.0237 16.7097 20.1979 16.0002 20.1979C14.744 20.1979 14.1415 19.5071 13.9659 18.8547C13.8223 18.3214 13.2736 18.0054 12.7403 18.149C12.207 18.2925 11.8911 18.8412 12.0346 19.3745C12.3757 20.6417 13.4017 21.7652 15.0005 22.0982V23.1979C15.0005 23.7502 15.4482 24.1979 16.0005 24.1979C16.5528 24.1979 17.0005 23.7502 17.0005 23.1979V22.1126C17.6381 21.9993 18.2341 21.7703 18.7323 21.407C19.5148 20.8364 20.0002 19.9687 20.0002 18.9063C20.0002 18.3081 19.8441 17.5447 19.2226 16.8322C18.6187 16.14 17.6603 15.5936 16.2502 15.2297C15.077 14.9269 14.5354 14.5358 14.2851 14.2489C14.0525 13.9822 14.0003 13.7248 14.0003 13.4896C14.0003 13.0937 14.1577 12.8156 14.4466 12.6049C14.7658 12.3721 15.2908 12.1979 16.0003 12.1979C17.2565 12.1979 17.859 12.8888 18.0347 13.5412C18.1782 14.0745 18.7269 14.3905 19.2602 14.2469C19.7935 14.1033 20.1095 13.5546 19.9659 13.0213C19.6248 11.7543 18.599 10.6308 17.0005 10.2978Z" fill="#333D47"/>
</svg>
