<svg width="32" height="33" viewBox="0 0 32 33" fill="none" xmlns="http://www.w3.org/2000/svg">
<path d="M10.2929 14.491C10.6834 14.1005 11.3166 14.1005 11.7071 14.491L15 17.7839L15 5.19812C15 4.64584 15.4477 4.19812 16 4.19812C16.5523 4.19812 17 4.64584 17 5.19812L17 17.7839L20.2929 14.491C20.6834 14.1005 21.3166 14.1005 21.7071 14.491C22.0976 14.8815 22.0976 15.5147 21.7071 15.9052L16.7071 20.9052C16.3166 21.2958 15.6834 21.2958 15.2929 20.9052L10.2929 15.9052C9.90237 15.5147 9.90237 14.8815 10.2929 14.491Z" fill="#333D47"/>
<path d="M4 18.1981C4.55228 18.1981 5 18.6458 5 19.1981V24.1981C5 25.3027 5.89543 26.1981 7 26.1981H25C26.1046 26.1981 27 25.3027 27 24.1981V19.1981C27 18.6458 27.4477 18.1981 28 18.1981C28.5523 18.1981 29 18.6458 29 19.1981V24.1981C29 26.4073 27.2091 28.1981 25 28.1981H7C4.79086 28.1981 3 26.4073 3 24.1981V19.1981C3 18.6458 3.44772 18.1981 4 18.1981Z" fill="#333D47"/>
</svg>
