<svg width="32" height="33" viewBox="0 0 32 33" fill="none" xmlns="http://www.w3.org/2000/svg">
<path fill-rule="evenodd" clip-rule="evenodd" d="M3 13.198C3 12.6457 3.44772 12.198 4 12.198H28C28.5523 12.198 29 12.6457 29 13.198C29 13.7503 28.5523 14.198 28 14.198H4C3.44772 14.198 3 13.7503 3 13.198Z" fill="#333D47"/>
<path fill-rule="evenodd" clip-rule="evenodd" d="M3 19.198C3 18.6457 3.44772 18.198 4 18.198H28C28.5523 18.198 29 18.6457 29 19.198C29 19.7503 28.5523 20.198 28 20.198H4C3.44772 20.198 3 19.7503 3 19.198Z" fill="#333D47"/>
<path d="M15.4794 3.84871L12.8665 7.11486C12.5173 7.55137 12.8281 8.19799 13.3871 8.19799H18.6129C19.1719 8.19799 19.4827 7.55137 19.1335 7.11486L16.5206 3.84871C16.2537 3.51511 15.7463 3.51511 15.4794 3.84871Z" fill="#333D47"/>
<path d="M15.4794 28.5473L12.8665 25.2811C12.5173 24.8446 12.8281 24.198 13.3871 24.198H18.6129C19.1719 24.198 19.4827 24.8446 19.1335 25.2811L16.5206 28.5473C16.2537 28.8809 15.7463 28.8809 15.4794 28.5473Z" fill="#333D47"/>
</svg>
