<svg width="32" height="33" viewBox="0 0 32 33" fill="none" xmlns="http://www.w3.org/2000/svg">
<path fill-rule="evenodd" clip-rule="evenodd" d="M7 10.1981C6.44772 10.1981 6 10.6458 6 11.1981V27.1981C6 27.7504 6.44771 28.1981 7 28.1981H19C19.5523 28.1981 20 27.7504 20 27.1981V26.1981H22V27.1981C22 28.855 20.6569 30.1981 19 30.1981H7C5.34315 30.1981 4 28.855 4 27.1981V11.1981C4 9.54127 5.34315 8.19812 7 8.19812H8V10.1981H7Z" fill="#333D47"/>
<path fill-rule="evenodd" clip-rule="evenodd" d="M13 4.19812H25C25.5523 4.19812 26 4.64584 26 5.19812V21.1981C26 21.7504 25.5523 22.1981 25 22.1981H13C12.4477 22.1981 12 21.7504 12 21.1981V5.19812C12 4.64584 12.4477 4.19812 13 4.19812ZM13 2.19812C11.3431 2.19812 10 3.54127 10 5.19812V21.1981C10 22.855 11.3431 24.1981 13 24.1981H25C26.6569 24.1981 28 22.855 28 21.1981V5.19812C28 3.54127 26.6569 2.19812 25 2.19812H13Z" fill="#333D47"/>
</svg>
