<svg width="32" height="33" viewBox="0 0 32 33" fill="none" xmlns="http://www.w3.org/2000/svg">
<path fill-rule="evenodd" clip-rule="evenodd" d="M16 3.99988C9.37258 3.99988 4 9.37246 4 15.9999C4 22.6273 9.37258 27.9999 16 27.9999C22.6274 27.9999 28 22.6273 28 15.9999C28 9.37246 22.6274 3.99988 16 3.99988ZM2 15.9999C2 8.26789 8.26801 1.99988 16 1.99988C23.732 1.99988 30 8.26789 30 15.9999C30 23.7319 23.732 29.9999 16 29.9999C8.26801 29.9999 2 23.7319 2 15.9999Z" fill="#333D47"/>
<path fill-rule="evenodd" clip-rule="evenodd" d="M18 2.13988C18.5523 2.13988 19 2.58759 19 3.13988V7.49988C19 8.69335 18.5259 9.83795 17.682 10.6819C16.8381 11.5258 15.6935 11.9999 14.5 11.9999C13.837 11.9999 13.2011 12.2633 12.7322 12.7321C12.2634 13.201 12 13.8368 12 14.4999V17.4999C12 18.6934 11.5259 19.8379 10.682 20.6819C9.83807 21.5258 8.69347 21.9999 7.5 21.9999H4C3.44772 21.9999 3 21.5522 3 20.9999C3 20.4476 3.44772 19.9999 4 19.9999H7.5C8.16304 19.9999 8.79893 19.7365 9.26777 19.2676C9.73661 18.7988 10 18.1629 10 17.4999V14.4999C10 13.3064 10.4741 12.1618 11.318 11.3179C12.1619 10.474 13.3065 9.99988 14.5 9.99988C15.163 9.99988 15.7989 9.73649 16.2678 9.26764C16.7366 8.7988 17 8.16292 17 7.49988V3.13988C17 2.58759 17.4477 2.13988 18 2.13988Z" fill="#333D47"/>
<path fill-rule="evenodd" clip-rule="evenodd" d="M18.318 15.3179C19.1619 14.474 20.3065 13.9999 21.5 13.9999H25.7655C27.0521 14.007 28.3186 14.3197 29.4606 14.9123C29.9508 15.1666 30.142 15.7702 29.8876 16.2604C29.6333 16.7507 29.0297 16.9419 28.5394 16.6875C27.6795 16.2413 26.7259 16.0056 25.7571 15.9999H21.5C20.837 15.9999 20.2011 16.2633 19.7322 16.7321C19.2634 17.201 19 17.8368 19 18.4999C19 19.1629 19.2634 19.7988 19.7322 20.2676C20.2011 20.7365 20.837 20.9999 21.5 20.9999C22.4283 20.9999 23.3185 21.3686 23.9749 22.025C24.6313 22.6814 25 23.5716 25 24.4999V26.2399C25 26.7922 24.5523 27.2399 24 27.2399C23.4477 27.2399 23 26.7922 23 26.2399V24.4999C23 24.1021 22.842 23.7205 22.5607 23.4392C22.2794 23.1579 21.8978 22.9999 21.5 22.9999C20.3065 22.9999 19.1619 22.5258 18.318 21.6819C17.4741 20.8379 17 19.6934 17 18.4999C17 17.3064 17.4741 16.1618 18.318 15.3179Z" fill="#333D47"/>
</svg>
