<svg width="32" height="33" viewBox="0 0 32 33" fill="none" xmlns="http://www.w3.org/2000/svg">
<path fill-rule="evenodd" clip-rule="evenodd" d="M22.0256 5.19817C23.0148 5.1949 23.9975 5.35881 24.9322 5.68304C25.454 5.86405 26.0237 5.58779 26.2047 5.06601C26.3857 4.54423 26.1094 3.97451 25.5876 3.7935C24.4323 3.39272 23.2172 3.19144 21.9943 3.19829C21.9809 3.19836 21.9674 3.19871 21.954 3.19933C18.6426 3.35167 15.5263 4.80893 13.2863 7.25249C11.0556 9.68599 9.87486 12.9005 9.99914 16.1983C9.87486 19.496 11.0556 22.7106 13.2863 25.1441C15.5263 27.5876 18.6426 29.0449 21.954 29.1972C21.9681 29.1979 21.9823 29.1982 21.9965 29.1983C23.5096 29.2034 25.0075 28.8964 26.3965 28.2963C26.9035 28.0772 27.1369 27.4887 26.9179 26.9817C26.6989 26.4747 26.1103 26.2412 25.6033 26.4603C24.4733 26.9485 23.2553 27.1996 22.0245 27.1983C19.2492 27.065 16.6385 25.8412 14.7606 23.7926C12.878 21.7388 11.8851 19.023 11.9991 16.2392C12.0002 16.2119 12.0002 16.1846 11.9991 16.1574C11.8851 13.3735 12.878 10.6578 14.7606 8.60394C16.6388 6.55509 19.2499 5.33121 22.0256 5.19817Z" fill="#333D47"/>
<path fill-rule="evenodd" clip-rule="evenodd" d="M5 13.1981C5 12.6458 5.44772 12.1981 6 12.1981H18C18.5523 12.1981 19 12.6458 19 13.1981C19 13.7504 18.5523 14.1981 18 14.1981H6C5.44772 14.1981 5 13.7504 5 13.1981Z" fill="#333D47"/>
<path fill-rule="evenodd" clip-rule="evenodd" d="M5 19.1981C5 18.6458 5.44772 18.1981 6 18.1981H18C18.5523 18.1981 19 18.6458 19 19.1981C19 19.7504 18.5523 20.1981 18 20.1981H6C5.44772 20.1981 5 19.7504 5 19.1981Z" fill="#333D47"/>
</svg>
