<svg width="32" height="33" viewBox="0 0 32 33" fill="none" xmlns="http://www.w3.org/2000/svg">
<path fill-rule="evenodd" clip-rule="evenodd" d="M11.6286 22.2694C12.1414 22.0642 12.7234 22.3137 12.9285 22.8264L15.3286 28.8268C15.5337 29.3396 15.2843 29.9215 14.7715 30.1266C14.2587 30.3318 13.6768 30.0823 13.4717 29.5696L11.0715 23.5692C10.8664 23.0564 11.1158 22.4745 11.6286 22.2694Z" fill="#333D47"/>
<path fill-rule="evenodd" clip-rule="evenodd" d="M14.7715 22.2694C15.2843 22.4745 15.5337 23.0564 15.3286 23.5692L12.9285 29.5696C12.7234 30.0823 12.1414 30.3318 11.6286 30.1266C11.1158 29.9215 10.8664 29.3396 11.0715 28.8268L13.4717 22.8264C13.6768 22.3137 14.2587 22.0642 14.7715 22.2694Z" fill="#333D47"/>
<path fill-rule="evenodd" clip-rule="evenodd" d="M17.7999 22.1978C18.3522 22.1978 18.7999 22.6455 18.7999 23.1978V27.9981C18.7999 28.0512 18.821 28.1021 18.8585 28.1396C18.8961 28.1771 18.9469 28.1982 19 28.1982H20.2001C20.7524 28.1982 21.2001 28.6459 21.2001 29.1982C21.2001 29.7505 20.7524 30.1982 20.2001 30.1982H19C18.4165 30.1982 17.8569 29.9664 17.4443 29.5538C17.0317 29.1412 16.7999 28.5816 16.7999 27.9981V23.1978C16.7999 22.6455 17.2476 22.1978 17.7999 22.1978Z" fill="#333D47"/>
<path fill-rule="evenodd" clip-rule="evenodd" d="M23.2443 22.8422C23.6568 22.4296 24.2164 22.1978 24.7999 22.1978H26C26.5523 22.1978 27 22.6455 27 23.1978C27 23.7501 26.5523 24.1978 26 24.1978H24.7999C24.7469 24.1978 24.696 24.2189 24.6585 24.2564C24.6209 24.294 24.5999 24.3448 24.5999 24.3979C24.5999 24.737 24.7489 24.9097 25.3999 25.398C25.4204 25.4134 25.4417 25.4292 25.4635 25.4455C26.026 25.8651 27 26.5917 27 27.9981C27 28.5816 26.7682 29.1412 26.3556 29.5538C25.943 29.9664 25.3834 30.1982 24.7999 30.1982H23.5999C23.0476 30.1982 22.5999 29.7505 22.5999 29.1982C22.5999 28.6459 23.0476 28.1982 23.5999 28.1982H24.7999C24.853 28.1982 24.9039 28.1771 24.9414 28.1396C24.9789 28.1021 25 28.0512 25 27.9981C25 27.659 24.851 27.4863 24.1999 26.998C24.1794 26.9826 24.1582 26.9668 24.1364 26.9505C23.5738 26.5309 22.5999 25.8043 22.5999 24.3979C22.5999 23.8144 22.8317 23.2548 23.2443 22.8422Z" fill="#333D47"/>
<path fill-rule="evenodd" clip-rule="evenodd" d="M7 5.19812C7 4.64584 7.44772 4.19812 8 4.19812H18V10.1981C18 10.7504 18.4477 11.1981 19 11.1981H25V18.1981C25 18.7504 25.4477 19.1981 26 19.1981C26.5523 19.1981 27 18.7504 27 18.1981V10.5265C27 9.7309 26.6839 8.96783 26.1213 8.40523L20.7929 3.0768C20.2303 2.51419 19.4672 2.19812 18.6716 2.19812H8C6.34315 2.19812 5 3.54127 5 5.19812V27.1981C5 28.855 6.34315 30.1981 8 30.1981C8.55229 30.1981 9 29.7504 9 29.1981C9 28.6458 8.55229 28.1981 8 28.1981C7.44772 28.1981 7 27.7504 7 27.1981V5.19812ZM24.0858 9.19812L20 5.11233V9.19812H24.0858Z" fill="#333D47"/>
</svg>
