<svg width="32" height="33" viewBox="0 0 32 33" fill="none" xmlns="http://www.w3.org/2000/svg">
<path fill-rule="evenodd" clip-rule="evenodd" d="M7 8.19812C5.89543 8.19812 5 9.09355 5 10.1981V25.1981C5 26.3027 5.89543 27.1981 7 27.1981H22C23.1046 27.1981 24 26.3027 24 25.1981V16.1981C24 15.6458 24.4477 15.1981 25 15.1981C25.5523 15.1981 26 15.6458 26 16.1981V25.1981C26 27.4073 24.2091 29.1981 22 29.1981H7C4.79086 29.1981 3 27.4073 3 25.1981V10.1981C3 7.98898 4.79086 6.19812 7 6.19812H16C16.5523 6.19812 17 6.64584 17 7.19812C17 7.7504 16.5523 8.19812 16 8.19812H7Z" fill="#333D47"/>
<path fill-rule="evenodd" clip-rule="evenodd" d="M21 3.19812L28 3.19812C28.2652 3.19812 28.5196 3.30348 28.7071 3.49101C28.8946 3.67855 29 3.9329 29 4.19812L29 11.1981C29 11.7504 28.5523 12.1981 28 12.1981C27.4477 12.1981 27 11.7504 27 11.1981L27 5.19812H21C20.4477 5.19812 20 4.75041 20 4.19812C20 3.64584 20.4477 3.19812 21 3.19812Z" fill="#333D47"/>
<path fill-rule="evenodd" clip-rule="evenodd" d="M28.2071 5.40523L16.7071 16.9052C16.3166 17.2958 15.6834 17.2958 15.2929 16.9052C14.9024 16.5147 14.9024 15.8815 15.2929 15.491L26.7929 3.99101L28.2071 5.40523Z" fill="#333D47"/>
</svg>
