<svg width="32" height="33" viewBox="0 0 32 33" fill="none" xmlns="http://www.w3.org/2000/svg">
<path fill-rule="evenodd" clip-rule="evenodd" d="M4 22.1981C4.55228 22.1981 5 22.6458 5 23.1981V26.1981C5 26.7504 5.44772 27.1981 6 27.1981H9C9.55229 27.1981 10 27.6458 10 28.1981C10 28.7504 9.55229 29.1981 9 29.1981H6C4.34315 29.1981 3 27.855 3 26.1981V23.1981C3 22.6458 3.44772 22.1981 4 22.1981Z" fill="#333D47"/>
<path fill-rule="evenodd" clip-rule="evenodd" d="M28 10.1981C27.4477 10.1981 27 9.7504 27 9.19812V6.19812C27 5.64584 26.5523 5.19812 26 5.19812H23C22.4477 5.19812 22 4.7504 22 4.19812C22 3.64584 22.4477 3.19812 23 3.19812H26C27.6569 3.19812 29 4.54127 29 6.19812V9.19812C29 9.7504 28.5523 10.1981 28 10.1981Z" fill="#333D47"/>
<path fill-rule="evenodd" clip-rule="evenodd" d="M10 4.19812C10 4.75041 9.55228 5.19812 9 5.19812L6 5.19812C5.44772 5.19812 5 5.64584 5 6.19812L5 9.19812C5 9.7504 4.55228 10.1981 4 10.1981C3.44772 10.1981 3 9.7504 3 9.19812L3 6.19812C3 4.54127 4.34315 3.19812 6 3.19812L9 3.19812C9.55229 3.19812 10 3.64584 10 4.19812Z" fill="#333D47"/>
<path fill-rule="evenodd" clip-rule="evenodd" d="M22 28.1981C22 27.6458 22.4477 27.1981 23 27.1981H26C26.5523 27.1981 27 26.7504 27 26.1981V23.1981C27 22.6458 27.4477 22.1981 28 22.1981C28.5523 22.1981 29 22.6458 29 23.1981V26.1981C29 27.855 27.6569 29.1981 26 29.1981H23C22.4477 29.1981 22 28.7504 22 28.1981Z" fill="#333D47"/>
<path fill-rule="evenodd" clip-rule="evenodd" d="M10 9.19812C10.5523 9.19812 11 9.64584 11 10.1981V13.1981C11 13.7504 10.5523 14.1981 10 14.1981C9.44772 14.1981 9 13.7504 9 13.1981V10.1981C9 9.64584 9.44772 9.19812 10 9.19812Z" fill="#333D47"/>
<path fill-rule="evenodd" clip-rule="evenodd" d="M22 9.19812C22.5523 9.19812 23 9.64584 23 10.1981V13.1981C23 13.7504 22.5523 14.1981 22 14.1981C21.4477 14.1981 21 13.7504 21 13.1981V10.1981C21 9.64584 21.4477 9.19812 22 9.19812Z" fill="#333D47"/>
<path fill-rule="evenodd" clip-rule="evenodd" d="M16 9.19812C16.5523 9.19812 17 9.64584 17 10.1981V16.1981C17 17.855 15.6569 19.1981 14 19.1981H13.5C12.9477 19.1981 12.5 18.7504 12.5 18.1981C12.5 17.6458 12.9477 17.1981 13.5 17.1981H14C14.5523 17.1981 15 16.7504 15 16.1981V10.1981C15 9.64584 15.4477 9.19812 16 9.19812Z" fill="#333D47"/>
<path fill-rule="evenodd" clip-rule="evenodd" d="M10.3868 21.4982C10.7733 21.1038 11.4065 21.0973 11.8009 21.4839C12.8841 22.5453 14.3648 23.1981 16 23.1981C17.6352 23.1981 19.1159 22.5453 20.1991 21.4839C20.5935 21.0973 21.2267 21.1038 21.6132 21.4982C21.9998 21.8927 21.9933 22.5258 21.5989 22.9124C20.157 24.3253 18.1794 25.1981 16 25.1981C13.8206 25.1981 11.843 24.3253 10.4011 22.9124C10.0067 22.5258 10.0002 21.8927 10.3868 21.4982Z" fill="#333D47"/>
</svg>
