<svg width="32" height="33" viewBox="0 0 32 33" fill="none" xmlns="http://www.w3.org/2000/svg">
<path fill-rule="evenodd" clip-rule="evenodd" d="M2.53589 6.31234C2.86535 6.13972 3.2634 6.16422 3.56921 6.37593L16.5692 15.3759C16.839 15.5627 17 15.87 17 16.1981C17 16.5263 16.839 16.8335 16.5692 17.0203L3.56921 26.0203C3.2634 26.232 2.86535 26.2565 2.53589 26.0839C2.20643 25.9113 2 25.5701 2 25.1981V7.19812C2 6.82618 2.20643 6.48497 2.53589 6.31234Z" fill="#333D47"/>
<path fill-rule="evenodd" clip-rule="evenodd" d="M15.5359 6.31234C15.8654 6.13972 16.2634 6.16422 16.5692 6.37593L29.5692 15.3759C29.839 15.5627 30 15.87 30 16.1981C30 16.5263 29.839 16.8335 29.5692 17.0203L16.5692 26.0203C16.2634 26.232 15.8654 26.2565 15.5359 26.0839C15.2064 25.9113 15 25.5701 15 25.1981V7.19812C15 6.82618 15.2064 6.48497 15.5359 6.31234Z" fill="#333D47"/>
</svg>
