<svg width="32" height="33" viewBox="0 0 32 33" fill="none" xmlns="http://www.w3.org/2000/svg">
<path fill-rule="evenodd" clip-rule="evenodd" d="M18 10.198V2.198H8C6.34315 2.198 5 3.54114 5 5.198V27.198C5 28.8549 6.34315 30.198 8 30.198H24C25.6569 30.198 27 28.8549 27 27.198V11.198H19C18.4477 11.198 18 10.7503 18 10.198ZM10 22.198C9.44772 22.198 9 21.7503 9 21.198C9 20.6457 9.44772 20.198 10 20.198H17C17.5523 20.198 18 20.6457 18 21.198C18 21.7503 17.5523 22.198 17 22.198H10ZM9 25.198C9 25.7503 9.44772 26.198 10 26.198L22 26.198C22.5523 26.198 23 25.7503 23 25.198C23 24.6457 22.5523 24.198 22 24.198L10 24.198C9.44772 24.198 9 24.6457 9 25.198Z" fill="#333D47"/>
<path d="M20 9.198V2.198L27 9.198H20Z" fill="#333D47"/>
</svg>
