<svg width="32" height="33" viewBox="0 0 32 33" fill="none" xmlns="http://www.w3.org/2000/svg">
<path fill-rule="evenodd" clip-rule="evenodd" d="M7 5.19812C7 4.64584 7.44772 4.19812 8 4.19812H18V10.1981C18 10.7504 18.4477 11.1981 19 11.1981H25V18.1981C25 18.7504 25.4477 19.1981 26 19.1981C26.5523 19.1981 27 18.7504 27 18.1981V10.5265C27 9.7309 26.6839 8.96783 26.1213 8.40523L20.7929 3.0768C20.2303 2.51419 19.4672 2.19812 18.6716 2.19812H8C6.34315 2.19812 5 3.54127 5 5.19812V27.1981C5 28.855 6.34315 30.1981 8 30.1981H15C15.5523 30.1981 16 29.7504 16 29.1981C16 28.6458 15.5523 28.1981 15 28.1981H8C7.44772 28.1981 7 27.7504 7 27.1981V5.19812ZM24.0858 9.19812L20 5.11233V9.19812H24.0858Z" fill="#333D47"/>
<path d="M22 20.1981C22.5523 20.1981 23 20.6458 23 21.1981V24.1981H26C26.5523 24.1981 27 24.6458 27 25.1981C27 25.7504 26.5523 26.1981 26 26.1981H23V29.1981C23 29.7504 22.5523 30.1981 22 30.1981C21.4477 30.1981 21 29.7504 21 29.1981V26.1981H18C17.4477 26.1981 17 25.7504 17 25.1981C17 24.6458 17.4477 24.1981 18 24.1981H21V21.1981C21 20.6458 21.4477 20.1981 22 20.1981Z" fill="#333D47"/>
</svg>
