<svg width="32" height="33" viewBox="0 0 32 33" fill="none" xmlns="http://www.w3.org/2000/svg">
<path fill-rule="evenodd" clip-rule="evenodd" d="M8 2.198C6.34315 2.198 5 3.54114 5 5.198V27.198C5 28.8549 6.34315 30.198 8 30.198H24C25.6569 30.198 27 28.8549 27 27.198V10.5264C27 9.73078 26.6839 8.96771 26.1213 8.4051L20.7929 3.07668C20.2303 2.51407 19.4672 2.198 18.6716 2.198H8ZM7 5.198C7 4.64571 7.44772 4.198 8 4.198H18V10.198C18 10.7503 18.4477 11.198 19 11.198H25V27.198C25 27.7503 24.5523 28.198 24 28.198H8C7.44772 28.198 7 27.7503 7 27.198V5.198ZM24.0858 9.198L20 5.11221V9.198H24.0858Z" fill="#333D47"/>
<path d="M10 26.198C9.44772 26.198 9 25.7503 9 25.198C9 24.6457 9.44772 24.198 10 24.198L22 24.198C22.5523 24.198 23 24.6457 23 25.198C23 25.7503 22.5523 26.198 22 26.198L10 26.198Z" fill="#333D47"/>
<path d="M9 21.198C9 21.7503 9.44772 22.198 10 22.198H17C17.5523 22.198 18 21.7503 18 21.198C18 20.6457 17.5523 20.198 17 20.198H10C9.44772 20.198 9 20.6457 9 21.198Z" fill="#333D47"/>
</svg>
