<svg width="32" height="33" viewBox="0 0 32 33" fill="none" xmlns="http://www.w3.org/2000/svg">
<path d="M19.5 19.6981C20.0523 19.6981 20.5 19.2504 20.5 18.6981C20.5 18.1458 20.0523 17.6981 19.5 17.6981H17V15.1981C17 14.6458 16.5523 14.1981 16 14.1981C15.4477 14.1981 15 14.6458 15 15.1981V17.6981H12.5C11.9477 17.6981 11.5 18.1458 11.5 18.6981C11.5 19.2504 11.9477 19.6981 12.5 19.6981H15V22.1981C15 22.7504 15.4477 23.1981 16 23.1981C16.5523 23.1981 17 22.7504 17 22.1981V19.6981H19.5Z" fill="#333D47"/>
<path fill-rule="evenodd" clip-rule="evenodd" d="M13 4.19812C11.3431 4.19812 10 5.54127 10 7.19812V9.19812H5C3.34315 9.19812 2 10.5413 2 12.1981V25.1981C2 26.855 3.34315 28.1981 5 28.1981H27C28.6569 28.1981 30 26.855 30 25.1981V12.1981C30 10.5413 28.6569 9.19812 27 9.19812H22V7.19812C22 5.54127 20.6569 4.19812 19 4.19812H13ZM20 9.19812V7.19812C20 6.64584 19.5523 6.19812 19 6.19812H13C12.4477 6.19812 12 6.64584 12 7.19812V9.19812H20ZM4 12.1981C4 11.6458 4.44772 11.1981 5 11.1981H27C27.5523 11.1981 28 11.6458 28 12.1981V25.1981C28 25.7504 27.5523 26.1981 27 26.1981H5C4.44772 26.1981 4 25.7504 4 25.1981V12.1981Z" fill="#333D47"/>
</svg>
