<svg width="32" height="33" viewBox="0 0 32 33" fill="none" xmlns="http://www.w3.org/2000/svg">
<path fill-rule="evenodd" clip-rule="evenodd" d="M7 2.01813C7.55228 2.01813 8 2.46584 8 3.01813V29.0181C8 29.5704 7.55228 30.0181 7 30.0181C6.44772 30.0181 6 29.5704 6 29.0181V3.01813C6 2.46584 6.44772 2.01813 7 2.01813Z" fill="#333D47"/>
<path fill-rule="evenodd" clip-rule="evenodd" d="M6 3.01813C6 2.46584 6.44772 2.01813 7 2.01813H25C25.3905 2.01813 25.7453 2.24547 25.9085 2.60027C26.0717 2.95507 26.0134 3.37241 25.7593 3.66892L20.3171 10.0181L25.7593 16.3673C26.0134 16.6638 26.0717 17.0812 25.9085 17.436C25.7453 17.7908 25.3905 18.0181 25 18.0181H7C6.44772 18.0181 6 17.5704 6 17.0181V3.01813Z" fill="#333D47"/>
</svg>
