<svg width="32" height="33" viewBox="0 0 32 33" fill="none" xmlns="http://www.w3.org/2000/svg">
<path d="M15.9999 5.19812C12.1939 5.19812 9.00646 7.85691 8.19808 11.4194C8.07587 11.958 7.54018 12.2955 7.00159 12.1733C6.463 12.0511 6.12545 11.5154 6.24767 10.9768C7.25821 6.52337 11.2395 3.19812 15.9999 3.19812C19.8366 3.19812 23.1672 5.35816 24.8443 8.52798L25.6623 5.4752C25.8052 4.94174 26.3536 4.62515 26.887 4.7681C27.4205 4.91104 27.7371 5.45937 27.5941 5.99284L26.13 11.4569C25.9871 11.9904 25.4388 12.307 24.9053 12.164L19.4412 10.6999C18.9077 10.557 18.5911 10.0087 18.7341 9.4752C18.877 8.94174 19.4254 8.62515 19.9588 8.7681L23.1603 9.62593C21.848 7.00062 19.1336 5.19812 15.9999 5.19812Z" fill="#333D47"/>
<path fill-rule="evenodd" clip-rule="evenodd" d="M13 21.1981C13 20.9097 12.8755 20.6354 12.6585 20.4455L4.65851 13.4455C4.36321 13.1871 3.9441 13.1253 3.58678 13.2875C3.22947 13.4496 3 13.8057 3 14.1981V28.1981C3 28.5905 3.22947 28.9466 3.58678 29.1087C3.94409 29.2709 4.36321 29.2091 4.6585 28.9507L12.6585 21.9507C12.8755 21.7608 13 21.4865 13 21.1981ZM5 25.9943L5 16.4019L10.4814 21.1981L5 25.9943Z" fill="#333D47"/>
<path fill-rule="evenodd" clip-rule="evenodd" d="M19 21.1981C19 20.9097 19.1245 20.6354 19.3415 20.4455L27.3415 13.4455C27.6368 13.1871 28.0559 13.1253 28.4132 13.2875C28.7705 13.4496 29 13.8057 29 14.1981V28.1981C29 28.5905 28.7705 28.9466 28.4132 29.1087C28.0559 29.2709 27.6368 29.2091 27.3415 28.9507L19.3415 21.9507C19.1245 21.7608 19 21.4865 19 21.1981ZM27 16.4019L21.5186 21.1981L27 25.9943V16.4019Z" fill="#333D47"/>
<path d="M17 14.1981C17 13.6458 16.5523 13.1981 16 13.1981C15.4477 13.1981 15 13.6458 15 14.1981L15 28.1981C15 28.7504 15.4477 29.1981 16 29.1981C16.5523 29.1981 17 28.7504 17 28.1981L17 14.1981Z" fill="#333D47"/>
</svg>
