<svg width="32" height="33" viewBox="0 0 32 33" fill="none" xmlns="http://www.w3.org/2000/svg">
<path d="M5 6.198C5 5.64571 5.44772 5.198 6 5.198H10.2978L12.5363 7.9113C12.7263 8.14156 13.0092 8.27492 13.3077 8.27492H24C24.5523 8.27492 25 8.72263 25 9.27492V13.7171C25 14.0582 25.1859 14.3707 25.4687 14.5614C26.0594 14.96 27 14.5736 27 13.861V9.27492C27 7.61807 25.6569 6.27492 24 6.27492H13.7791L11.5406 3.56161C11.3506 3.33135 11.0677 3.198 10.7692 3.198H6C4.34315 3.198 3 4.54114 3 6.198V19.198C3 20.8549 4.34314 22.198 6 22.198H12.0593C12.5917 22.198 13 21.7304 13 21.198C13 20.6656 12.5917 20.198 12.0593 20.198H6C5.44772 20.198 5 19.7503 5 19.198V6.198Z" fill="#333D47"/>
<path fill-rule="evenodd" clip-rule="evenodd" d="M25.8908 24.6745C26.5892 23.6937 27 22.4938 27 21.198C27 17.8843 24.3137 15.198 21 15.198C17.6863 15.198 15 17.8843 15 21.198C15 24.5117 17.6863 27.198 21 27.198C22.2958 27.198 23.4957 26.7872 24.4766 26.0887L27.2929 28.9051C27.6834 29.2956 28.3166 29.2956 28.7071 28.9051C29.0976 28.5146 29.0976 27.8814 28.7071 27.4909L25.8908 24.6745ZM21 25.198C23.2091 25.198 25 23.4071 25 21.198C25 18.9889 23.2091 17.198 21 17.198C18.7909 17.198 17 18.9889 17 21.198C17 23.4071 18.7909 25.198 21 25.198Z" fill="#333D47"/>
</svg>
