<svg width="32" height="33" viewBox="0 0 32 33" fill="none" xmlns="http://www.w3.org/2000/svg">
<path d="M3 6.19812C3 4.54127 4.34315 3.19812 6 3.19812H10.7692C11.0677 3.19812 11.3506 3.33148 11.5406 3.56174L13.7791 6.27504H24C25.6569 6.27504 27 7.61819 27 9.27504V15.9065C25.5341 14.2456 23.3894 13.1981 21 13.1981C16.5817 13.1981 13 16.7798 13 21.1981C13 21.5368 13.021 21.8705 13.0619 22.1981H6C4.34314 22.1981 3 20.855 3 19.1981V6.19812Z" fill="#333D47"/>
<path fill-rule="evenodd" clip-rule="evenodd" d="M25.8908 24.6746C26.5892 23.6938 27 22.4939 27 21.1981C27 17.8844 24.3137 15.1981 21 15.1981C17.6863 15.1981 15 17.8844 15 21.1981C15 24.5118 17.6863 27.1981 21 27.1981C22.2958 27.1981 23.4957 26.7873 24.4766 26.0888L27.2929 28.9052C27.6834 29.2957 28.3166 29.2958 28.7071 28.9052C29.0976 28.5147 29.0976 27.8815 28.7071 27.491L25.8908 24.6746ZM21 25.1981C23.2091 25.1981 25 23.4073 25 21.1981C25 18.989 23.2091 17.1981 21 17.1981C18.7909 17.1981 17 18.989 17 21.1981C17 23.4073 18.7909 25.1981 21 25.1981Z" fill="#333D47"/>
</svg>
