<svg width="32" height="33" viewBox="0 0 32 33" fill="none" xmlns="http://www.w3.org/2000/svg">
<path fill-rule="evenodd" clip-rule="evenodd" d="M5 7.19812C4.44772 7.19812 4 7.64584 4 8.19812V24.1981C4 24.7504 4.44772 25.1981 5 25.1981H27C27.5523 25.1981 28 24.7504 28 24.1981V11.8345C28 11.2822 27.5523 10.8345 27 10.8345H14C13.7015 10.8345 13.4186 10.7011 13.2286 10.4709L10.5286 7.19812H5ZM2 8.19812C2 6.54127 3.34315 5.19812 5 5.19812H11C11.2985 5.19812 11.5814 5.33148 11.7714 5.56174L14.4714 8.83448H27C28.6569 8.83448 30 10.1776 30 11.8345V24.1981C30 25.855 28.6569 27.1981 27 27.1981H5C3.34315 27.1981 2 25.855 2 24.1981V8.19812Z" fill="#333D47"/>
</svg>
