<svg width="32" height="33" viewBox="0 0 32 33" fill="none" xmlns="http://www.w3.org/2000/svg">
<path fill-rule="evenodd" clip-rule="evenodd" d="M3 4.19812C3 3.64584 3.44772 3.19812 4 3.19812H28C28.5523 3.19812 29 3.64584 29 4.19812V7.40186C29 8.83005 28.3893 10.1901 27.3218 11.1389L20 17.6472V25.1981C20 25.5769 19.786 25.9232 19.4472 26.0925L13.4472 29.0925C13.1372 29.2475 12.7691 29.231 12.4743 29.0488C12.1795 28.8666 12 28.5447 12 28.1981V17.6472L4.67818 11.1389C3.61074 10.1901 3 8.83004 3 7.40186V4.19812ZM5 5.19812V7.40186C5 8.25877 5.36644 9.07478 6.00691 9.64408L13.6644 16.4507C13.8779 16.6405 14 16.9125 14 17.1981V26.5801L18 24.5801V17.1981C18 16.9125 18.1221 16.6405 18.3356 16.4507L25.9931 9.64408C26.6336 9.07478 27 8.25877 27 7.40186V5.19812H5Z" fill="#333D47"/>
</svg>
