<svg width="32" height="33" viewBox="0 0 32 33" fill="none" xmlns="http://www.w3.org/2000/svg">
<path fill-rule="evenodd" clip-rule="evenodd" d="M5 9.19815C4.44772 9.19815 4 9.64586 4 10.1981V16.1981C4 16.7504 4.44772 17.1981 5 17.1981H27C27.5523 17.1981 28 16.7504 28 16.1981V10.1981C28 9.64586 27.5523 9.19815 27 9.19815H5ZM2 10.1981C2 8.54129 3.34315 7.19815 5 7.19815H27C28.6569 7.19815 30 8.54129 30 10.1981V16.1981C30 17.855 28.6569 19.1981 27 19.1981H5C3.34315 19.1981 2 17.855 2 16.1981V10.1981Z" fill="#333D47"/>
<path fill-rule="evenodd" clip-rule="evenodd" d="M5 17.1981C5.55228 17.1981 6 17.6459 6 18.1981V27.1981C6 27.4634 6.10536 27.7177 6.29289 27.9053C6.48043 28.0928 6.73478 28.1981 7 28.1981H25C25.2652 28.1981 25.5196 28.0928 25.7071 27.9053C25.8946 27.7177 26 27.4634 26 27.1981V18.1981C26 17.6459 26.4477 17.1981 27 17.1981C27.5523 17.1981 28 17.6459 28 18.1981V27.1981C28 27.9938 27.6839 28.7569 27.1213 29.3195C26.5587 29.8821 25.7957 30.1981 25 30.1981H7C6.20435 30.1981 5.44129 29.8821 4.87868 29.3195C4.31607 28.7569 4 27.9938 4 27.1981V18.1981C4 17.6459 4.44772 17.1981 5 17.1981Z" fill="#333D47"/>
<path fill-rule="evenodd" clip-rule="evenodd" d="M16 7.19815C16.5523 7.19815 17 7.64586 17 8.19815V29.1981C17 29.7504 16.5523 30.1981 16 30.1981C15.4477 30.1981 15 29.7504 15 29.1981V8.19815C15 7.64586 15.4477 7.19815 16 7.19815Z" fill="#333D47"/>
<path fill-rule="evenodd" clip-rule="evenodd" d="M9.23178 2.55796C9.58534 2.13368 10.2159 2.07636 10.6402 2.42992L16 6.89644L21.3598 2.42992C21.7841 2.07636 22.4147 2.13368 22.7682 2.55796C23.1218 2.98224 23.0645 3.6128 22.6402 3.96637L16.6402 8.96637C16.2693 9.2754 15.7307 9.2754 15.3598 8.96637L9.35982 3.96637C8.93554 3.6128 8.87821 2.98224 9.23178 2.55796Z" fill="#333D47"/>
</svg>
