<svg width="32" height="33" viewBox="0 0 32 33" fill="none" xmlns="http://www.w3.org/2000/svg">
<path fill-rule="evenodd" clip-rule="evenodd" d="M16 30.1981C23.732 30.1981 30 23.9301 30 16.1981C30 8.46613 23.732 2.19812 16 2.19812C8.26801 2.19812 2 8.46613 2 16.1981C2 23.9301 8.26801 30.1981 16 30.1981ZM16 28.1981C16.6705 28.1981 17.3281 28.1431 17.9686 28.0374L18.1965 27.7298C18.9829 26.6684 19.669 25.1077 20.1656 23.1981H11.8344C12.331 25.1077 13.0171 26.6684 13.8035 27.7298L14.0314 28.0374C14.6719 28.1431 15.3295 28.1981 16 28.1981ZM11.4077 21.1981C11.1963 19.957 11.0596 18.6136 11.0155 17.1981H20.9845C20.9404 18.6136 20.8037 19.957 20.5923 21.1981H11.4077ZM22.2263 23.1981C21.873 24.688 21.4072 26.0351 20.8467 27.1791C22.8149 26.3091 24.5053 24.9255 25.7479 23.1981H22.2263ZM26.9119 21.1981H22.6188C22.8194 19.9283 22.9446 18.5849 22.9853 17.1981H27.9589C27.842 18.6156 27.4787 19.9633 26.9119 21.1981ZM9.38123 21.1981H5.08808C4.52132 19.9633 4.15801 18.6156 4.04107 17.1981H9.01466C9.05544 18.5849 9.18058 19.9283 9.38123 21.1981ZM6.25209 23.1981H9.77374C10.127 24.688 10.5928 26.0351 11.1533 27.1791C9.1851 26.3091 7.4947 24.9255 6.25209 23.1981ZM11.0155 15.1981C11.0596 13.7826 11.1963 12.4393 11.4077 11.1981H20.5923C20.8037 12.4393 20.9404 13.7826 20.9845 15.1981H11.0155ZM13.8035 4.66634C13.0171 5.72777 12.331 7.28853 11.8344 9.19812H20.1656C19.669 7.28853 18.9829 5.72777 18.1965 4.66634L17.9687 4.35882C17.3281 4.25311 16.6705 4.19812 16 4.19812C15.3295 4.19812 14.6719 4.25311 14.0313 4.35882L13.8035 4.66634ZM22.9853 15.1981C22.9446 13.8113 22.8194 12.468 22.6188 11.1981H26.9119C27.4787 12.433 27.842 13.7806 27.9589 15.1981H22.9853ZM22.2263 9.19812H25.7479C24.5053 7.47078 22.8149 6.08714 20.8467 5.21714C21.4072 6.36116 21.873 7.70823 22.2263 9.19812ZM6.25209 9.19812H9.77373C10.127 7.70823 10.5928 6.36116 11.1533 5.21714C9.18508 6.08714 7.4947 7.47078 6.25209 9.19812ZM9.38122 11.1981H5.08808C4.52132 12.433 4.15802 13.7806 4.04107 15.1981H9.01466C9.05543 13.8113 9.18057 12.468 9.38122 11.1981Z" fill="#333D47"/>
</svg>
