<svg width="32" height="33" viewBox="0 0 32 33" fill="none" xmlns="http://www.w3.org/2000/svg">
<path d="M16 19.1981C17.6569 19.1981 19 17.855 19 16.1981C19 14.5413 17.6569 13.1981 16 13.1981C14.3431 13.1981 13 14.5413 13 16.1981C13 17.855 14.3431 19.1981 16 19.1981Z" fill="#333D47"/>
<path fill-rule="evenodd" clip-rule="evenodd" d="M17 3.19812C17 2.64584 16.5523 2.19812 16 2.19812C15.4477 2.19812 15 2.64584 15 3.19812V6.2475C10.2756 6.71656 6.51844 10.4737 6.04938 15.1981H3C2.44772 15.1981 2 15.6458 2 16.1981C2 16.7504 2.44772 17.1981 3 17.1981H6.04938C6.51844 21.9225 10.2756 25.6797 15 26.1487V29.1981C15 29.7504 15.4477 30.1981 16 30.1981C16.5523 30.1981 17 29.7504 17 29.1981V26.1487C21.7244 25.6797 25.4816 21.9225 25.9506 17.1981H29C29.5523 17.1981 30 16.7504 30 16.1981C30 15.6458 29.5523 15.1981 29 15.1981H25.9506C25.4816 10.4737 21.7244 6.71656 17 6.2475V3.19812ZM16 24.1981C11.5817 24.1981 8 20.6164 8 16.1981C8 11.7798 11.5817 8.19812 16 8.19812C20.4183 8.19812 24 11.7798 24 16.1981C24 20.6164 20.4183 24.1981 16 24.1981Z" fill="#333D47"/>
</svg>
