<svg width="32" height="33" viewBox="0 0 32 33" fill="none" xmlns="http://www.w3.org/2000/svg">
<path fill-rule="evenodd" clip-rule="evenodd" d="M2 19.1981C2 18.6458 2.44772 18.1981 3 18.1981H9C9.78793 18.1981 10.5681 18.3533 11.2961 18.6548C12.0241 18.9564 12.6855 19.3983 13.2426 19.9555C13.7998 20.5126 14.2417 21.1741 14.5433 21.902C14.8448 22.63 15 23.4102 15 24.1981H13C13 23.6728 12.8965 23.1527 12.6955 22.6674C12.4945 22.1821 12.1999 21.7411 11.8284 21.3697C11.457 20.9983 11.016 20.7036 10.5307 20.5026C10.0454 20.3016 9.52529 20.1981 9 20.1981H3C2.44772 20.1981 2 19.7504 2 19.1981Z" fill="#333D47"/>
<path fill-rule="evenodd" clip-rule="evenodd" d="M7 24.1981C7 23.6458 7.44772 23.1981 8 23.1981H18C19.3261 23.1981 20.5979 23.7249 21.5355 24.6626C22.4732 25.6003 23 26.872 23 28.1981C23 28.7285 22.7893 29.2373 22.4142 29.6123C22.0391 29.9874 21.5304 30.1981 21 30.1981H3C2.44772 30.1981 2 29.7504 2 29.1981C2 28.6458 2.44772 28.1981 3 28.1981H21C21 27.4025 20.6839 26.6394 20.1213 26.0768C19.5587 25.5142 18.7956 25.1981 18 25.1981H8C7.44772 25.1981 7 24.7504 7 24.1981Z" fill="#333D47"/>
<path fill-rule="evenodd" clip-rule="evenodd" d="M13.5251 3.72948C14.5021 2.74934 15.8279 2.19812 17.2109 2.19812C18.594 2.19812 19.9198 2.74934 20.8968 3.72948L21 3.83303L21.1032 3.72948C22.0802 2.7494 23.406 2.19812 24.7891 2.19812C26.1721 2.19812 27.4979 2.74934 28.4749 3.72948C29.4518 4.70951 30 6.03803 30 7.42262C30 8.80721 29.4518 10.1357 28.4749 11.1158L21.7081 17.9041C21.5205 18.0923 21.2657 18.1981 20.9999 18.1981C20.7341 18.1981 20.4793 18.0923 20.2917 17.9041L13.5251 11.1158C12.5482 10.1357 12 8.80721 12 7.42262C12 6.03803 12.5482 4.70951 13.5251 3.72948Z" fill="#333D47"/>
</svg>
