<svg width="32" height="33" viewBox="0 0 32 33" fill="none" xmlns="http://www.w3.org/2000/svg">
<path fill-rule="evenodd" clip-rule="evenodd" d="M8.52511 4.72948C9.5021 3.74934 10.8279 3.19812 12.2109 3.19812C13.594 3.19812 14.9198 3.74934 15.8968 4.72948L16 4.83303L16.1032 4.72948C17.0802 3.7494 18.406 3.19812 19.7891 3.19812C21.1721 3.19812 22.4979 3.74934 23.4749 4.72948C24.4518 5.70951 25 7.03803 25 8.42262C25 9.80721 24.4518 11.1357 23.4749 12.1158L16.7081 18.9041C16.5205 19.0923 16.2657 19.1981 15.9999 19.1981C15.7341 19.1981 15.4793 19.0923 15.2917 18.9041L8.52511 12.1158C7.54823 11.1357 7 9.80721 7 8.42262C7 7.03803 7.54823 5.70951 8.52511 4.72948ZM12.2109 5.19812C11.3604 5.19812 10.544 5.53706 9.9416 6.14142C9.33907 6.74588 9 7.56639 9 8.42262C9 9.27884 9.33907 10.0994 9.9416 10.7038L15.9999 16.7816L22.0584 10.7038C22.6609 10.0994 23 9.27884 23 8.42262C23 7.56639 22.6609 6.74588 22.0584 6.14142C21.456 5.53706 20.6396 5.19812 19.7891 5.19812C18.9385 5.19812 18.1221 5.53706 17.5197 6.14142L16.708 6.95549C16.5204 7.14368 16.2656 7.24945 15.9998 7.24943C15.7341 7.24942 15.4793 7.14362 15.2917 6.9554L14.4803 6.14142C13.8779 5.53706 13.0615 5.19812 12.2109 5.19812Z" fill="#333D47"/>
<path fill-rule="evenodd" clip-rule="evenodd" d="M24 16.6981C24 15.3174 25.1193 14.1981 26.5 14.1981C27.8807 14.1981 29 15.3174 29 16.6981V22.1981C29 23.7127 28.5088 25.1864 27.6 26.3981L25.8 28.7981C25.4686 29.2399 24.8418 29.3295 24.4 28.9981C23.9582 28.6667 23.8686 28.0399 24.2 27.5981L26 25.1981C26.6491 24.3326 27 23.28 27 22.1981V16.6981C27 16.422 26.7761 16.1981 26.5 16.1981C26.2239 16.1981 26 16.422 26 16.6981V21.1981C26 21.7504 25.5523 22.1981 25 22.1981C24.4477 22.1981 24 21.7504 24 21.1981V16.6981Z" fill="#333D47"/>
<path fill-rule="evenodd" clip-rule="evenodd" d="M8 16.6981C8 15.3174 6.88071 14.1981 5.5 14.1981C4.11929 14.1981 3 15.3174 3 16.6981V22.1981C3 23.7127 3.49124 25.1864 4.4 26.3981L6.2 28.7981C6.53137 29.2399 7.15817 29.3295 7.6 28.9981C8.04183 28.6667 8.13137 28.0399 7.8 27.5981L6 25.1981C5.35089 24.3326 5 23.28 5 22.1981V16.6981C5 16.422 5.22386 16.1981 5.5 16.1981C5.77614 16.1981 6 16.422 6 16.6981V21.1981C6 21.7504 6.44772 22.1981 7 22.1981C7.55228 22.1981 8 21.7504 8 21.1981V16.6981Z" fill="#333D47"/>
<path fill-rule="evenodd" clip-rule="evenodd" d="M25.6661 22.4972C26.3564 21.3014 25.9467 19.7724 24.751 19.0821C23.5553 18.3917 22.0263 18.8014 21.3359 19.9972L19.4019 23.347C19.1386 23.803 19 24.3204 19 24.847V28.1981C19 28.7504 19.4477 29.1981 20 29.1981C20.5523 29.1981 21 28.7504 21 28.1981V24.847C21 24.6714 21.0462 24.499 21.134 24.347L23.068 20.9972C23.2061 20.758 23.5119 20.6761 23.751 20.8141C23.9902 20.9522 24.0721 21.258 23.934 21.4972L22.434 24.0952C22.1579 24.5735 22.3218 25.1851 22.8 25.4613C23.2783 25.7374 23.8899 25.5735 24.1661 25.0952L25.6661 22.4972Z" fill="#333D47"/>
<path fill-rule="evenodd" clip-rule="evenodd" d="M6.33393 22.4972C5.64357 21.3014 6.05326 19.7724 7.24899 19.0821C8.44472 18.3917 9.9737 18.8014 10.6641 19.9972L12.5981 23.347C12.8614 23.803 13 24.3204 13 24.847V28.1981C13 28.7504 12.5523 29.1981 12 29.1981C11.4477 29.1981 11 28.7504 11 28.1981L11 24.847C11 24.6714 10.9538 24.499 10.866 24.347L8.932 20.9972C8.79393 20.758 8.48813 20.6761 8.24899 20.8141C8.00984 20.9522 7.92791 21.258 8.06598 21.4972L9.56598 24.0952C9.84212 24.5735 9.67824 25.1851 9.19995 25.4613C8.72166 25.7374 8.11007 25.5735 7.83393 25.0952L6.33393 22.4972Z" fill="#333D47"/>
</svg>
