<svg width="32" height="33" viewBox="0 0 32 33" fill="none" xmlns="http://www.w3.org/2000/svg">
<path fill-rule="evenodd" clip-rule="evenodd" d="M16 10.1981C16 9.09355 16.8954 8.19812 18 8.19812H28C29.1046 8.19812 30 9.09355 30 10.1981V17.1981C30 18.3027 29.1046 19.1981 28 19.1981H18C16.8954 19.1981 16 18.3027 16 17.1981V10.1981ZM28 10.1981H18V17.1981H28V10.1981Z" fill="#333D47"/>
<path fill-rule="evenodd" clip-rule="evenodd" d="M23 4.19812C22.2044 4.19812 21.4413 4.51419 20.8787 5.0768C20.3161 5.63941 20 6.40247 20 7.19812V9.19812C20 9.7504 19.5523 10.1981 19 10.1981C18.4477 10.1981 18 9.7504 18 9.19812V7.19812C18 5.87204 18.5268 4.60027 19.4645 3.66259C20.4021 2.7249 21.6739 2.19812 23 2.19812C24.3261 2.19812 25.5979 2.7249 26.5355 3.66259C27.4732 4.60027 28 5.87204 28 7.19812V9.19812C28 9.7504 27.5523 10.1981 27 10.1981C26.4477 10.1981 26 9.7504 26 9.19812V7.19812C26 6.40247 25.6839 5.63941 25.1213 5.0768C24.5587 4.51419 23.7956 4.19812 23 4.19812Z" fill="#333D47"/>
<path fill-rule="evenodd" clip-rule="evenodd" d="M2 19.1981C2 18.6458 2.44772 18.1981 3 18.1981H9C9.78793 18.1981 10.5681 18.3533 11.2961 18.6548C12.0241 18.9564 12.6855 19.3983 13.2426 19.9555C13.7998 20.5126 14.2417 21.1741 14.5433 21.902C14.8448 22.63 15 23.4102 15 24.1981H13C13 23.6728 12.8965 23.1527 12.6955 22.6674C12.4945 22.1821 12.1999 21.7411 11.8284 21.3697C11.457 20.9983 11.016 20.7036 10.5307 20.5026C10.0454 20.3016 9.52529 20.1981 9 20.1981H3C2.44772 20.1981 2 19.7504 2 19.1981Z" fill="#333D47"/>
<path fill-rule="evenodd" clip-rule="evenodd" d="M7 24.1981C7 23.6458 7.44772 23.1981 8 23.1981H18C19.3261 23.1981 20.5979 23.7249 21.5355 24.6626C22.4732 25.6003 23 26.872 23 28.1981C23 28.7285 22.7893 29.2373 22.4142 29.6123C22.0391 29.9874 21.5304 30.1981 21 30.1981H3C2.44772 30.1981 2 29.7504 2 29.1981C2 28.6458 2.44772 28.1981 3 28.1981H21C21 27.4025 20.6839 26.6394 20.1213 26.0768C19.5587 25.5142 18.7956 25.1981 18 25.1981H8C7.44772 25.1981 7 24.7504 7 24.1981Z" fill="#333D47"/>
</svg>
