<svg width="32" height="33" viewBox="0 0 32 33" fill="none" xmlns="http://www.w3.org/2000/svg">
<path fill-rule="evenodd" clip-rule="evenodd" d="M5.66488 16.1327L16.0081 25.6219L26.3514 16.1327C28.8383 13.5946 28.2999 9.82004 26.1333 7.63229C25.0716 6.56015 23.6645 5.93174 22.106 6.04369C20.5476 6.15563 18.6862 7.02023 16.7577 9.23491C16.5679 9.45278 16.295 9.57758 16.0081 9.57758C15.7213 9.57758 15.4483 9.45278 15.2586 9.23491C13.3302 7.02036 11.4658 6.15257 9.9031 6.03788C8.34039 5.9232 6.92983 6.54919 5.86654 7.61855C3.69905 9.7984 3.15595 13.5724 5.66488 16.1327ZM16.0081 7.09074C14.052 5.13096 12.0086 4.16266 10.0475 4.01875C7.83448 3.85634 5.87588 4.75625 4.45821 6.18201C1.6686 8.98752 0.800159 14.0686 4.26832 17.5813C4.27996 17.5931 4.29188 17.6045 4.30407 17.6157L15.3372 27.7379C15.718 28.0872 16.2983 28.0872 16.6791 27.7379L27.7122 17.6157C27.7244 17.6045 27.7363 17.5931 27.748 17.5813C31.1982 14.0868 30.325 9.00632 27.5445 6.19863C26.1303 4.7706 24.1757 3.86551 21.9646 4.02433C20.0054 4.16506 17.9638 5.1315 16.0081 7.09074Z" fill="#333D47"/>
</svg>
