<svg width="32" height="33" viewBox="0 0 32 33" fill="none" xmlns="http://www.w3.org/2000/svg">
<path fill-rule="evenodd" clip-rule="evenodd" d="M16.0081 7.09074C14.052 5.13096 12.0086 4.16266 10.0475 4.01875C7.83448 3.85634 5.87588 4.75625 4.45821 6.18201C1.6686 8.98752 0.800159 14.0686 4.26832 17.5813C4.27996 17.5931 4.29188 17.6045 4.30407 17.6157L15.3372 27.7379C15.718 28.0872 16.2983 28.0872 16.6791 27.7379L27.7122 17.6157C27.7244 17.6045 27.7363 17.5931 27.748 17.5813C31.1982 14.0868 30.325 9.00632 27.5445 6.19863C26.1303 4.7706 24.1757 3.86551 21.9646 4.02433C20.0054 4.16506 17.9638 5.1315 16.0081 7.09074Z" fill="#333D47"/>
</svg>
