<svg width="32" height="33" viewBox="0 0 32 33" fill="none" xmlns="http://www.w3.org/2000/svg">
<path fill-rule="evenodd" clip-rule="evenodd" d="M27.7071 4.49101C28.0976 4.88154 28.0976 5.5147 27.7071 5.90523L5.70711 27.9052C5.31658 28.2958 4.68342 28.2958 4.29289 27.9052C3.90237 27.5147 3.90237 26.8815 4.29289 26.491L7.35384 23.4301C6.63038 22.9086 5.98563 22.348 5.41789 21.7802C4.28814 20.6505 3.45514 19.4858 2.9002 18.5273C2.6229 18.0483 2.40955 17.6114 2.26217 17.2463C2.12888 16.9162 2 16.5586 2 16.1981C2 15.8376 2.12888 15.4801 2.26217 15.1499C2.40955 14.7849 2.6229 14.3479 2.9002 13.869C3.45514 12.9104 4.28814 11.7458 5.41789 10.616C7.68324 8.35067 11.1748 6.19812 16 6.19812C18.7173 6.19812 21.0116 6.88075 22.9022 7.88173L26.2929 4.49101C26.6834 4.10049 27.3166 4.10049 27.7071 4.49101ZM18.7574 12.0265L11.8284 18.9555C11.3049 18.1651 11 17.2172 11 16.1981C11 13.4367 13.2386 11.1981 16 11.1981C17.0191 11.1981 17.967 11.503 18.7574 12.0265Z" fill="#333D47"/>
<path d="M29.0998 13.869C28.4837 12.8047 27.5264 11.4877 26.1973 10.2437L20.9503 15.4906C20.9831 15.7217 21 15.958 21 16.1981C21 18.9595 18.7614 21.1981 16 21.1981C15.7598 21.1981 15.5236 21.1812 15.2925 21.1485L11.0654 25.3756C12.5211 25.8865 14.164 26.1981 16 26.1981C20.8252 26.1981 24.3168 24.0456 26.5821 21.7802C27.7119 20.6505 28.5449 19.4858 29.0998 18.5273C29.3771 18.0483 29.5905 17.6114 29.7378 17.2463C29.8711 16.9162 30 16.5586 30 16.1981C30 15.8376 29.8711 15.4801 29.7378 15.1499C29.5905 14.7849 29.3771 14.3479 29.0998 13.869Z" fill="#333D47"/>
</svg>
