<svg width="32" height="33" viewBox="0 0 32 33" fill="none" xmlns="http://www.w3.org/2000/svg">
<path fill-rule="evenodd" clip-rule="evenodd" d="M27.7071 5.90523C28.0976 5.5147 28.0976 4.88154 27.7071 4.49101C27.3166 4.10049 26.6834 4.10049 26.2929 4.49101L22.9022 7.88173C21.0116 6.88075 18.7173 6.19812 16 6.19812C11.1748 6.19812 7.68324 8.35067 5.41789 10.616C4.28814 11.7458 3.45514 12.9104 2.9002 13.869C2.6229 14.3479 2.40955 14.7849 2.26217 15.1499C2.12888 15.4801 2 15.8376 2 16.1981C2 16.5586 2.12888 16.9162 2.26217 17.2463C2.40955 17.6114 2.6229 18.0483 2.9002 18.5273C3.45514 19.4858 4.28814 20.6505 5.41789 21.7802C5.98563 22.348 6.63038 22.9086 7.35384 23.4301L4.29289 26.491C3.90237 26.8815 3.90237 27.5147 4.29289 27.9052C4.68342 28.2958 5.31658 28.2958 5.70711 27.9052L27.7071 5.90523ZM8.78905 21.9949L11.1093 19.6747C10.4108 18.6938 10 17.4939 10 16.1981C10 12.8844 12.6863 10.1981 16 10.1981C17.2958 10.1981 18.4957 10.6089 19.4765 11.3074L21.4112 9.37271C19.8879 8.66119 18.0901 8.19812 16 8.19812C11.8252 8.19812 8.81676 10.0456 6.83211 12.0302C5.83686 13.0255 5.10736 14.0483 4.63105 14.871C4.39273 15.2827 4.22327 15.6348 4.11673 15.8987C4.06365 16.0302 4.03006 16.1302 4.01113 16.1981C4.03006 16.2661 4.06365 16.3661 4.11673 16.4976C4.22327 16.7615 4.39273 17.1136 4.63105 17.5252C5.10736 18.3479 5.83686 19.3708 6.83211 20.366C7.3996 20.9335 8.05081 21.4898 8.78905 21.9949ZM18.032 12.7519C17.4365 12.4001 16.7418 12.1981 16 12.1981C13.7909 12.1981 12 13.989 12 16.1981C12 16.9399 12.2019 17.6346 12.5538 18.2301L18.032 12.7519Z" fill="#333D47"/>
<path d="M24.7822 11.6587L26.1973 10.2437C26.3293 10.3672 26.4575 10.4914 26.5821 10.616C27.7119 11.7458 28.5449 12.9104 29.0998 13.869C29.3771 14.3479 29.5905 14.7849 29.7378 15.1499C29.8711 15.4801 30 15.8376 30 16.1981C30 16.5586 29.8711 16.9162 29.7378 17.2463C29.5905 17.6114 29.3771 18.0483 29.0998 18.5273C28.5449 19.4858 27.7119 20.6505 26.5821 21.7802C24.3168 24.0456 20.8252 26.1981 16 26.1981C14.164 26.1981 12.5211 25.8865 11.0654 25.3756L12.6655 23.7755C13.6816 24.0434 14.792 24.1981 16 24.1981C20.1748 24.1981 23.1832 22.3507 25.1679 20.366C26.1631 19.3708 26.8926 18.3479 27.3689 17.5252C27.6073 17.1136 27.7767 16.7615 27.8833 16.4976C27.9364 16.3661 27.9699 16.2661 27.9889 16.1981C27.9699 16.1302 27.9364 16.0301 27.8833 15.8987C27.7767 15.6348 27.6073 15.2827 27.3689 14.871C26.8926 14.0483 26.1631 13.0255 25.1679 12.0302C25.0434 11.9057 24.9148 11.7817 24.7822 11.6587Z" fill="#333D47"/>
<path d="M14.446 21.9949C14.9417 22.1275 15.4626 22.1981 16 22.1981C19.3137 22.1981 22 19.5118 22 16.1981C22 15.6607 21.9293 15.1398 21.7968 14.6441L19.9923 16.4487C19.8681 18.4582 18.2601 20.0662 16.2505 20.1904L14.446 21.9949Z" fill="#333D47"/>
</svg>
