<svg width="32" height="33" viewBox="0 0 32 33" fill="none" xmlns="http://www.w3.org/2000/svg">
<path fill-rule="evenodd" clip-rule="evenodd" d="M12 7.19812C12 4.98898 13.7909 3.19812 16 3.19812C18.2091 3.19812 20 4.98898 20 7.19812C20 9.40726 18.2091 11.1981 16 11.1981C13.7909 11.1981 12 9.40726 12 7.19812Z" fill="#333D47"/>
<path fill-rule="evenodd" clip-rule="evenodd" d="M2 25.1981C2 22.989 3.79086 21.1981 6 21.1981C8.20914 21.1981 10 22.989 10 25.1981C10 27.4073 8.20914 29.1981 6 29.1981C3.79086 29.1981 2 27.4073 2 25.1981Z" fill="#333D47"/>
<path fill-rule="evenodd" clip-rule="evenodd" d="M12 25.1981C12 22.989 13.7909 21.1981 16 21.1981C18.2091 21.1981 20 22.989 20 25.1981C20 27.4073 18.2091 29.1981 16 29.1981C13.7909 29.1981 12 27.4073 12 25.1981Z" fill="#333D47"/>
<path fill-rule="evenodd" clip-rule="evenodd" d="M22 25.1981C22 22.989 23.7909 21.1981 26 21.1981C28.2091 21.1981 30 22.989 30 25.1981C30 27.4073 28.2091 29.1981 26 29.1981C23.7909 29.1981 22 27.4073 22 25.1981Z" fill="#333D47"/>
<path fill-rule="evenodd" clip-rule="evenodd" d="M8 17.1981C7.73478 17.1981 7.48043 17.3035 7.29289 17.491C7.10536 17.6785 7 17.9329 7 18.1981V22.1981C7 22.7504 6.55228 23.1981 6 23.1981C5.44772 23.1981 5 22.7504 5 22.1981V18.1981C5 17.4025 5.31607 16.6394 5.87868 16.0768C6.44129 15.5142 7.20435 15.1981 8 15.1981H24C24.7957 15.1981 25.5587 15.5142 26.1213 16.0768C26.6839 16.6394 27 17.4025 27 18.1981V22.1981C27 22.7504 26.5523 23.1981 26 23.1981C25.4477 23.1981 25 22.7504 25 22.1981V18.1981C25 17.9329 24.8946 17.6786 24.7071 17.491C24.5196 17.3035 24.2652 17.1981 24 17.1981H8Z" fill="#333D47"/>
<path fill-rule="evenodd" clip-rule="evenodd" d="M16 9.19812C16.5523 9.19812 17 9.64584 17 10.1981V22.1981C17 22.7504 16.5523 23.1981 16 23.1981C15.4477 23.1981 15 22.7504 15 22.1981V10.1981C15 9.64584 15.4477 9.19812 16 9.19812Z" fill="#333D47"/>
</svg>
