<svg width="32" height="33" viewBox="0 0 32 33" fill="none" xmlns="http://www.w3.org/2000/svg">
<path fill-rule="evenodd" clip-rule="evenodd" d="M4 3.19812C4 2.64584 4.44772 2.19812 5 2.19812H27C27.5523 2.19812 28 2.64584 28 3.19812C28 3.7504 27.5523 4.19812 27 4.19812H25V8.19812C25 11.6811 23.0216 14.7019 20.1272 16.1981C23.0216 17.6943 25 20.7152 25 24.1981V28.1981H27C27.5523 28.1981 28 28.6458 28 29.1981C28 29.7504 27.5523 30.1981 27 30.1981H5C4.44772 30.1981 4 29.7504 4 29.1981C4 28.6458 4.44772 28.1981 5 28.1981H7V24.1981C7 20.7152 8.97844 17.6943 11.8728 16.1981C8.97844 14.7019 7 11.6811 7 8.19812V4.19812H5C4.44772 4.19812 4 3.7504 4 3.19812ZM11.6696 10.6988C12.5326 12.1907 14.1481 13.1981 16 13.1981C17.852 13.1981 19.4675 12.1907 20.3305 10.6988C20.5095 10.3895 20.5097 10.0081 20.3311 9.69848C20.1526 9.38888 19.8223 9.19812 19.4649 9.19812H12.5352C12.1777 9.19812 11.8475 9.38888 11.6689 9.69848C11.4903 10.0081 11.4906 10.3895 11.6696 10.6988ZM15.2929 20.491C15.6834 20.1005 16.3166 20.1005 16.7071 20.491L20.7071 24.491C20.9931 24.777 21.0787 25.2071 20.9239 25.5808C20.7691 25.9545 20.4045 26.1981 20 26.1981H12C11.5956 26.1981 11.2309 25.9545 11.0761 25.5808C10.9214 25.2071 11.0069 24.777 11.2929 24.491L15.2929 20.491Z" fill="#333D47"/>
</svg>
