<svg width="32" height="33" viewBox="0 0 32 33" fill="none" xmlns="http://www.w3.org/2000/svg">
<path fill-rule="evenodd" clip-rule="evenodd" d="M10.5 17.1981C12.433 17.1981 14 15.6311 14 13.6981C14 11.7651 12.433 10.1981 10.5 10.1981C8.567 10.1981 7 11.7651 7 13.6981C7 15.6311 8.567 17.1981 10.5 17.1981ZM10.5 15.1981C11.3284 15.1981 12 14.5265 12 13.6981C12 12.8697 11.3284 12.1981 10.5 12.1981C9.67157 12.1981 9 12.8697 9 13.6981C9 14.5265 9.67157 15.1981 10.5 15.1981Z" fill="#333D47"/>
<path fill-rule="evenodd" clip-rule="evenodd" d="M5 5.19812C3.34315 5.19812 2 6.54127 2 8.19812V24.1981C2 25.855 3.34315 27.1981 5 27.1981H27C28.6569 27.1981 30 25.855 30 24.1981V8.19812C30 6.54127 28.6569 5.19812 27 5.19812H5ZM27 7.19812H5C4.44772 7.19812 4 7.64584 4 8.19812V24.1981C4 24.7504 4.44772 25.1981 5 25.1981H9.58586L22.293 12.491C22.6835 12.1005 23.3167 12.1005 23.7072 12.491L28 16.7838V8.19812C28 7.64584 27.5523 7.19812 27 7.19812ZM28 19.6123L23.0001 14.6123L12.4143 25.1981H27C27.5523 25.1981 28 24.7504 28 24.1981V19.6123Z" fill="#333D47"/>
</svg>
