<svg width="32" height="33" viewBox="0 0 32 33" fill="none" xmlns="http://www.w3.org/2000/svg">
<path fill-rule="evenodd" clip-rule="evenodd" d="M5 10.1981C4.44772 10.1981 4 10.6458 4 11.1981V25.1981C4 25.7504 4.44771 26.1981 5 26.1981H23C23.5523 26.1981 24 25.7504 24 25.1981V24.1981H26V25.1981C26 26.855 24.6569 28.1981 23 28.1981H5C3.34315 28.1981 2 26.855 2 25.1981V11.1981C2 9.54127 3.34315 8.19812 5 8.19812H6V10.1981H5Z" fill="#333D47"/>
<path fill-rule="evenodd" clip-rule="evenodd" d="M8.00024 7.19812C8.00024 5.54127 9.34339 4.19812 11.0002 4.19812H27.0002C28.6571 4.19812 30.0002 5.54127 30.0002 7.19812V19.1981C30.0002 20.855 28.6571 22.1981 27.0002 22.1981H11.0002C9.34339 22.1981 8.00024 20.855 8.00024 19.1981V7.19812ZM18.0002 11.1981C18.0002 12.855 16.6571 14.1981 15.0002 14.1981C13.3434 14.1981 12.0002 12.855 12.0002 11.1981C12.0002 9.54127 13.3434 8.19812 15.0002 8.19812C16.6571 8.19812 18.0002 9.54127 18.0002 11.1981ZM24.9616 10.4819L28.0006 13.4429V19.1981C28.0006 19.7504 27.5529 20.1981 27.0006 20.1981H13.594L23.5659 10.4819C23.9542 10.1035 24.5733 10.1035 24.9616 10.4819Z" fill="#333D47"/>
</svg>
