<svg width="32" height="33" viewBox="0 0 32 33" fill="none" xmlns="http://www.w3.org/2000/svg">
<path fill-rule="evenodd" clip-rule="evenodd" d="M15 14.1981C16.6569 14.1981 18 12.855 18 11.1981C18 9.54127 16.6569 8.19812 15 8.19812C13.3431 8.19812 12 9.54127 12 11.1981C12 12.855 13.3431 14.1981 15 14.1981ZM15 12.1981C15.5523 12.1981 16 11.7504 16 11.1981C16 10.6458 15.5523 10.1981 15 10.1981C14.4477 10.1981 14 10.6458 14 11.1981C14 11.7504 14.4477 12.1981 15 12.1981Z" fill="#333D47"/>
<path fill-rule="evenodd" clip-rule="evenodd" d="M8 7.19812C8 5.54127 9.34315 4.19812 11 4.19812H27C28.6569 4.19812 30 5.54127 30 7.19812V19.1981C30 20.855 28.6569 22.1981 27 22.1981H11C9.34315 22.1981 8 20.855 8 19.1981V7.19812ZM11 6.19812H27C27.5523 6.19812 28 6.64584 28 7.19812V13.4428L24.9611 10.4819C24.5728 10.1035 23.9537 10.1035 23.5654 10.4819L13.5935 20.1981H11C10.4477 20.1981 10 19.7504 10 19.1981V7.19812C10 6.64584 10.4477 6.19812 11 6.19812ZM16.4594 20.1981H27C27.5523 20.1981 28 19.7504 28 19.1981V16.2352L24.2633 12.5943L16.4594 20.1981Z" fill="#333D47"/>
<path d="M4 11.1981C4 10.6458 4.44772 10.1981 5 10.1981H6V8.19812H5C3.34315 8.19812 2 9.54127 2 11.1981V25.1981C2 26.855 3.34315 28.1981 5 28.1981H23C24.6569 28.1981 26 26.855 26 25.1981V24.1981H24V25.1981C24 25.7504 23.5523 26.1981 23 26.1981H5C4.44771 26.1981 4 25.7504 4 25.1981V11.1981Z" fill="#333D47"/>
</svg>
