<svg width="32" height="33" viewBox="0 0 32 33" fill="none" xmlns="http://www.w3.org/2000/svg">
<path fill-rule="evenodd" clip-rule="evenodd" d="M2 8.19812C2 6.54127 3.34315 5.19812 5 5.19812H27C28.6569 5.19812 30 6.54127 30 8.19812V24.1981C30 25.855 28.6569 27.1981 27 27.1981H5C3.34315 27.1981 2 25.855 2 24.1981V8.19812ZM14 13.6981C14 15.6311 12.433 17.1981 10.5 17.1981C8.567 17.1981 7 15.6311 7 13.6981C7 11.7651 8.567 10.1981 10.5 10.1981C12.433 10.1981 14 11.7651 14 13.6981ZM23.7073 12.491L28.0001 16.7839V24.1981C28.0001 24.7504 27.5524 25.1981 27.0001 25.1981H9.58594L22.293 12.491C22.6836 12.1005 23.3167 12.1005 23.7073 12.491Z" fill="#333D47"/>
</svg>
