<svg width="32" height="33" viewBox="0 0 32 33" fill="none" xmlns="http://www.w3.org/2000/svg">
<path fill-rule="evenodd" clip-rule="evenodd" d="M16 29.9999C23.732 29.9999 30 23.7319 30 15.9999C30 8.26789 23.732 1.99988 16 1.99988C8.26801 1.99988 2 8.26789 2 15.9999C2 23.7319 8.26801 29.9999 16 29.9999ZM16 11.9999C16.8284 11.9999 17.5 11.3283 17.5 10.4999C17.5 9.67145 16.8284 8.99988 16 8.99988C15.1716 8.99988 14.5 9.67145 14.5 10.4999C14.5 11.3283 15.1716 11.9999 16 11.9999ZM13 14.9999C13 15.5522 13.4477 15.9999 14 15.9999L15 15.9999V21.9999C15 22.5522 15.4477 22.9999 16 22.9999C16.5523 22.9999 17 22.5522 17 21.9999V14.9999C17 14.4476 16.5523 13.9999 16 13.9999L14 13.9999C13.4477 13.9999 13 14.4476 13 14.9999Z" fill="#333D47"/>
</svg>
