<svg width="32" height="33" viewBox="0 0 32 33" fill="none" xmlns="http://www.w3.org/2000/svg">
<path d="M14.0005 22.1981C13.4482 22.1981 13.0005 22.6458 13.0005 23.1981C13.0005 23.7504 13.4482 24.1981 14.0005 24.1981H18.0005C18.5528 24.1981 19.0005 23.7504 19.0005 23.1981C19.0005 22.6458 18.5528 22.1981 18.0005 22.1981H14.0005Z" fill="#333D47"/>
<path fill-rule="evenodd" clip-rule="evenodd" d="M5.00049 7.19812C5.00049 5.54127 6.34363 4.19812 8.00049 4.19812H24.0005C25.6573 4.19812 27.0005 5.54127 27.0005 7.19812V18.9481L29.6338 23.7625C30.7235 25.7616 29.2762 28.1981 26.9989 28.1981H5.00889C2.7316 28.1981 1.28425 25.7616 2.37406 23.7625L5.00049 18.9446V7.19812ZM6.59548 20.1981H25.4124L27.8772 24.7196C28.2405 25.3859 27.758 26.1981 26.9989 26.1981H5.00889C4.24979 26.1981 3.76734 25.3859 4.13061 24.7196L6.59548 20.1981Z" fill="#333D47"/>
</svg>
