<svg width="32" height="33" viewBox="0 0 32 33" fill="none" xmlns="http://www.w3.org/2000/svg">
<path fill-rule="evenodd" clip-rule="evenodd" d="M15.553 3.10545C15.8345 2.96469 16.1659 2.96469 16.4474 3.10545L28.4474 9.10545C28.7862 9.27484 29.0002 9.62111 29.0002 9.99988C29.0002 10.3787 28.7862 10.7249 28.4474 10.8943L16.4474 16.8943C16.1659 17.0351 15.8345 17.0351 15.553 16.8943L3.55301 10.8943C3.21422 10.7249 3.00022 10.3787 3.00022 9.99988C3.00022 9.62111 3.21422 9.27484 3.55301 9.10545L15.553 3.10545ZM6.23629 9.99988L16.0002 14.8818L25.7642 9.99988L16.0002 5.11791L6.23629 9.99988Z" fill="#333D47"/>
<path fill-rule="evenodd" clip-rule="evenodd" d="M3.10579 15.5527C3.35278 15.0587 3.95345 14.8585 4.44743 15.1055L16.0002 20.8818L27.553 15.1055C28.047 14.8585 28.6477 15.0587 28.8946 15.5527C29.1416 16.0466 28.9414 16.6473 28.4474 16.8943L16.4474 22.8943C16.1659 23.0351 15.8345 23.0351 15.553 22.8943L3.55301 16.8943C3.05903 16.6473 2.8588 16.0466 3.10579 15.5527Z" fill="#333D47"/>
<path fill-rule="evenodd" clip-rule="evenodd" d="M3.10579 21.5527C3.35278 21.0587 3.95345 20.8585 4.44743 21.1054L16.0002 26.8818L27.553 21.1054C28.047 20.8585 28.6477 21.0587 28.8946 21.5527C29.1416 22.0466 28.9414 22.6473 28.4474 22.8943L16.4474 28.8943C16.1659 29.0351 15.8345 29.0351 15.553 28.8943L3.55301 22.8943C3.05903 22.6473 2.8588 22.0466 3.10579 21.5527Z" fill="#333D47"/>
</svg>
