<svg width="32" height="33" viewBox="0 0 32 33" fill="none" xmlns="http://www.w3.org/2000/svg">
<path fill-rule="evenodd" clip-rule="evenodd" d="M3 2.19812C3.55228 2.19812 4 2.64584 4 3.19812V28.1981H29C29.5523 28.1981 30 28.6458 30 29.1981C30 29.7504 29.5523 30.1981 29 30.1981H3C2.44772 30.1981 2 29.7504 2 29.1981V3.19812C2 2.64584 2.44772 2.19812 3 2.19812Z" fill="#333D47"/>
<path fill-rule="evenodd" clip-rule="evenodd" d="M21.8197 7.21451C22.0861 7.16568 22.3609 7.22698 22.5812 7.38439L29.5812 12.3844C30.0307 12.7054 30.1347 13.3299 29.8137 13.7794C29.4927 14.2288 28.8682 14.3329 28.4188 14.0119L22.2592 9.61214L14.8321 20.7528C14.6659 21.0021 14.3967 21.1637 14.0985 21.1933C13.8004 21.2228 13.5047 21.1171 13.2929 20.9052L8.29289 15.9052C7.90237 15.5147 7.90237 14.8815 8.29289 14.491C8.68342 14.1005 9.31658 14.1005 9.70711 14.491L13.8446 18.6285L21.1679 7.64342C21.3182 7.41809 21.5533 7.26333 21.8197 7.21451Z" fill="#333D47"/>
</svg>
