<svg width="32" height="33" viewBox="0 0 32 33" fill="none" xmlns="http://www.w3.org/2000/svg">
<path fill-rule="evenodd" clip-rule="evenodd" d="M25.8285 6.3697C27.3906 7.93179 27.3906 10.4645 25.8285 12.0265L20.364 17.491C18.8019 19.0531 16.2693 19.0531 14.7072 17.491C14.3166 17.1005 13.6835 17.1005 13.293 17.491C12.9024 17.8815 12.9024 18.5147 13.293 18.9052C15.6361 21.2484 19.4351 21.2484 21.7782 18.9052L27.2427 13.4408C29.5858 11.0976 29.5858 7.29863 27.2427 4.95548C24.8996 2.61233 21.1006 2.61233 18.7574 4.95548L15.7219 7.99102C15.3314 8.38154 15.3314 9.01471 15.7219 9.40523C16.1124 9.79576 16.7456 9.79576 17.1361 9.40523L20.1716 6.3697C21.7337 4.8076 24.2664 4.8076 25.8285 6.3697Z" fill="#333D47"/>
<path fill-rule="evenodd" clip-rule="evenodd" d="M18.7072 14.9052C19.0977 14.5147 19.0977 13.8815 18.7072 13.491C16.364 11.1479 12.565 11.1479 10.2219 13.491L4.75736 18.9555C2.41422 21.2986 2.41421 25.0976 4.75736 27.4408C7.1005 29.7839 10.8995 29.7839 13.2426 27.4408L16.2782 24.4052C16.6687 24.0147 16.6687 23.3815 16.2782 22.991C15.8876 22.6005 15.2545 22.6005 14.864 22.991L11.8284 26.0266C10.2663 27.5886 7.73367 27.5886 6.17157 26.0266C4.60948 24.4645 4.60948 21.9318 6.17157 20.3697L11.6361 14.9052C13.1982 13.3431 15.7309 13.3431 17.293 14.9052C17.6835 15.2958 18.3166 15.2958 18.7072 14.9052Z" fill="#333D47"/>
</svg>
