<svg width="32" height="33" viewBox="0 0 32 33" fill="none" xmlns="http://www.w3.org/2000/svg">
<path fill-rule="evenodd" clip-rule="evenodd" d="M10.7071 4.49101C11.0976 4.88154 11.0976 5.5147 10.7071 5.90523L6.70711 9.90523C6.31658 10.2958 5.68342 10.2958 5.29289 9.90523L3.29289 7.90523C2.90237 7.5147 2.90237 6.88154 3.29289 6.49101C3.68342 6.10049 4.31658 6.10049 4.70711 6.49101L6 7.78391L9.29289 4.49101C9.68342 4.10049 10.3166 4.10049 10.7071 4.49101Z" fill="#333D47"/>
<path fill-rule="evenodd" clip-rule="evenodd" d="M10.7071 22.491C11.0976 22.8815 11.0976 23.5147 10.7071 23.9052L6.70711 27.9052C6.31658 28.2958 5.68342 28.2958 5.29289 27.9052L3.29289 25.9052C2.90237 25.5147 2.90237 24.8815 3.29289 24.491C3.68342 24.1005 4.31658 24.1005 4.70711 24.491L6 25.7839L9.29289 22.491C9.68342 22.1005 10.3166 22.1005 10.7071 22.491Z" fill="#333D47"/>
<path fill-rule="evenodd" clip-rule="evenodd" d="M10.7071 13.491C11.0976 13.8815 11.0976 14.5147 10.7071 14.9052L6.70711 18.9052C6.31658 19.2958 5.68342 19.2958 5.29289 18.9052L3.29289 16.9052C2.90237 16.5147 2.90237 15.8815 3.29289 15.491C3.68342 15.1005 4.31658 15.1005 4.70711 15.491L6 16.7839L9.29289 13.491C9.68342 13.1005 10.3166 13.1005 10.7071 13.491Z" fill="#333D47"/>
<path fill-rule="evenodd" clip-rule="evenodd" d="M13 7.19812C13 6.64584 13.4477 6.19812 14 6.19812L28 6.19812C28.5523 6.19812 29 6.64584 29 7.19812C29 7.75041 28.5523 8.19812 28 8.19812L14 8.19812C13.4477 8.19812 13 7.7504 13 7.19812Z" fill="#333D47"/>
<path fill-rule="evenodd" clip-rule="evenodd" d="M13 16.1981C13 15.6458 13.4477 15.1981 14 15.1981H28C28.5523 15.1981 29 15.6458 29 16.1981C29 16.7504 28.5523 17.1981 28 17.1981H14C13.4477 17.1981 13 16.7504 13 16.1981Z" fill="#333D47"/>
<path fill-rule="evenodd" clip-rule="evenodd" d="M13 25.1981C13 24.6458 13.4477 24.1981 14 24.1981L28 24.1981C28.5523 24.1981 29 24.6458 29 25.1981C29 25.7504 28.5523 26.1981 28 26.1981L14 26.1981C13.4477 26.1981 13 25.7504 13 25.1981Z" fill="#333D47"/>
</svg>
