<svg width="32" height="33" viewBox="0 0 32 33" fill="none" xmlns="http://www.w3.org/2000/svg">
<path d="M7 7.19812C7 8.30269 6.10457 9.19812 5 9.19812C3.89543 9.19812 3 8.30269 3 7.19812C3 6.09355 3.89543 5.19812 5 5.19812C6.10457 5.19812 7 6.09355 7 7.19812Z" fill="#333D47"/>
<path fill-rule="evenodd" clip-rule="evenodd" d="M5 9.19812C6.10457 9.19812 7 8.30269 7 7.19812C7 6.09355 6.10457 5.19812 5 5.19812C3.89543 5.19812 3 6.09355 3 7.19812C3 8.30269 3.89543 9.19812 5 9.19812Z" fill="#333D47"/>
<path d="M7 16.1981C7 17.3027 6.10457 18.1981 5 18.1981C3.89543 18.1981 3 17.3027 3 16.1981C3 15.0936 3.89543 14.1981 5 14.1981C6.10457 14.1981 7 15.0936 7 16.1981Z" fill="#333D47"/>
<path fill-rule="evenodd" clip-rule="evenodd" d="M5 18.1981C6.10457 18.1981 7 17.3027 7 16.1981C7 15.0936 6.10457 14.1981 5 14.1981C3.89543 14.1981 3 15.0936 3 16.1981C3 17.3027 3.89543 18.1981 5 18.1981Z" fill="#333D47"/>
<path d="M7 25.1981C7 26.3027 6.10457 27.1981 5 27.1981C3.89543 27.1981 3 26.3027 3 25.1981C3 24.0935 3.89543 23.1981 5 23.1981C6.10457 23.1981 7 24.0935 7 25.1981Z" fill="#333D47"/>
<path fill-rule="evenodd" clip-rule="evenodd" d="M5 27.1981C6.10457 27.1981 7 26.3027 7 25.1981C7 24.0935 6.10457 23.1981 5 23.1981C3.89543 23.1981 3 24.0935 3 25.1981C3 26.3027 3.89543 27.1981 5 27.1981Z" fill="#333D47"/>
<path fill-rule="evenodd" clip-rule="evenodd" d="M11 7.19812C11 6.64584 11.4477 6.19812 12 6.19812L28 6.19812C28.5523 6.19812 29 6.64584 29 7.19812C29 7.75041 28.5523 8.19812 28 8.19812L12 8.19812C11.4477 8.19812 11 7.7504 11 7.19812Z" fill="#333D47"/>
<path fill-rule="evenodd" clip-rule="evenodd" d="M11 16.1981C11 15.6458 11.4477 15.1981 12 15.1981H28C28.5523 15.1981 29 15.6458 29 16.1981C29 16.7504 28.5523 17.1981 28 17.1981H12C11.4477 17.1981 11 16.7504 11 16.1981Z" fill="#333D47"/>
<path fill-rule="evenodd" clip-rule="evenodd" d="M11 25.1981C11 24.6458 11.4477 24.1981 12 24.1981L28 24.1981C28.5523 24.1981 29 24.6458 29 25.1981C29 25.7504 28.5523 26.1981 28 26.1981L12 26.1981C11.4477 26.1981 11 25.7504 11 25.1981Z" fill="#333D47"/>
</svg>
