<svg width="32" height="33" viewBox="0 0 32 33" fill="none" xmlns="http://www.w3.org/2000/svg">
<path fill-rule="evenodd" clip-rule="evenodd" d="M16 4.19812C11.0244 4.19812 7 8.21952 7 13.169C7 18.0414 9.20253 21.8397 11.6028 24.4719C12.8016 25.7865 14.0249 26.7808 14.9858 27.4357C15.3917 27.7123 15.7368 27.9189 16 28.0598C16.2632 27.9189 16.6083 27.7123 17.0142 27.4357C17.9751 26.7808 19.1984 25.7865 20.3972 24.4719C22.7975 21.8397 25 18.0414 25 13.169C25 8.21952 20.9756 4.19812 16 4.19812ZM15.6045 28.2486C15.5663 28.2625 15.5704 28.258 15.6078 28.2474L15.6045 28.2486ZM16.3922 28.2474C16.4296 28.258 16.4337 28.2625 16.3955 28.2486L16.3922 28.2474ZM5 13.169C5 7.10996 9.92487 2.19812 16 2.19812C22.0751 2.19812 27 7.10996 27 13.169C27 24.1981 17 30.1981 16 30.1981C15 30.1981 5 24.1981 5 13.169Z" fill="#333D47"/>
<path fill-rule="evenodd" clip-rule="evenodd" d="M15.9999 16.1982C17.6568 16.1982 19 14.855 19 13.1982C19 11.5413 17.6568 10.1981 15.9999 10.1981C14.343 10.1981 12.9999 11.5413 12.9999 13.1982C12.9999 14.855 14.343 16.1982 15.9999 16.1982ZM15.9999 18.1982C18.7614 18.1982 21 15.9596 21 13.1982C21 10.4367 18.7614 8.19812 15.9999 8.19812C13.2385 8.19812 10.9999 10.4367 10.9999 13.1982C10.9999 15.9596 13.2385 18.1982 15.9999 18.1982Z" fill="#333D47"/>
</svg>
