<svg width="32" height="33" viewBox="0 0 32 33" fill="none" xmlns="http://www.w3.org/2000/svg">
<path fill-rule="evenodd" clip-rule="evenodd" d="M9 9.19812C9 5.33213 12.134 2.19812 16 2.19812C19.866 2.19812 23 5.33213 23 9.19812V12.1981H25C26.6569 12.1981 28 13.5413 28 15.1981V27.1981C28 28.855 26.6569 30.1981 25 30.1981H7C5.34315 30.1981 4 28.855 4 27.1981V15.1981C4 13.5413 5.34315 12.1981 7 12.1981H9V9.19812ZM21 9.19812V12.1981H11V9.19812C11 6.4367 13.2386 4.19812 16 4.19812C18.7614 4.19812 21 6.4367 21 9.19812ZM7 14.1981C6.44772 14.1981 6 14.6458 6 15.1981V27.1981C6 27.7504 6.44772 28.1981 7 28.1981H25C25.5523 28.1981 26 27.7504 26 27.1981V15.1981C26 14.6458 25.5523 14.1981 25 14.1981H7Z" fill="#333D47"/>
</svg>
