<svg width="32" height="33" viewBox="0 0 32 33" fill="none" xmlns="http://www.w3.org/2000/svg">
<path d="M3 6.19812C3 4.54127 4.34315 3.19812 6 3.19812H16C16.5523 3.19812 17 3.64584 17 4.19812C17 4.7504 16.5523 5.19812 16 5.19812H6C5.44772 5.19812 5 5.64584 5 6.19812V26.1981C5 26.7504 5.44772 27.1981 6 27.1981H16C16.5523 27.1981 17 27.6458 17 28.1981C17 28.7504 16.5523 29.1981 16 29.1981H6C4.34315 29.1981 3 27.855 3 26.1981V6.19812Z" fill="#333D47"/>
<path d="M18.7071 21.9052C19.0976 21.5147 19.0976 20.8815 18.7071 20.491L15.4142 17.1981H28C28.5523 17.1981 29 16.7504 29 16.1981C29 15.6458 28.5523 15.1981 28 15.1981H15.4142L18.7071 11.9052C19.0976 11.5147 19.0976 10.8815 18.7071 10.491C18.3166 10.1005 17.6834 10.1005 17.2929 10.491L12.2929 15.491C12.1054 15.6785 12 15.9329 12 16.1981C12 16.4633 12.1054 16.7177 12.2929 16.9052L17.2929 21.9052C17.6834 22.2958 18.3166 22.2958 18.7071 21.9052Z" fill="#333D47"/>
</svg>
