<svg width="32" height="33" viewBox="0 0 32 33" fill="none" xmlns="http://www.w3.org/2000/svg">
<path d="M3 6.19812C3 4.54127 4.34315 3.19812 6 3.19812H16C16.5523 3.19812 17 3.64584 17 4.19812C17 4.7504 16.5523 5.19812 16 5.19812H6C5.44772 5.19812 5 5.64584 5 6.19812V26.1981C5 26.7504 5.44772 27.1981 6 27.1981H16C16.5523 27.1981 17 27.6458 17 28.1981C17 28.7504 16.5523 29.1981 16 29.1981H6C4.34315 29.1981 3 27.855 3 26.1981V6.19812Z" fill="#333D47"/>
<path d="M22.2929 21.9052C21.9024 21.5147 21.9024 20.8815 22.2929 20.491L25.5858 17.1981H13C12.4477 17.1981 12 16.7504 12 16.1981C12 15.6458 12.4477 15.1981 13 15.1981H25.5858L22.2929 11.9052C21.9024 11.5147 21.9024 10.8815 22.2929 10.491C22.6834 10.1005 23.3166 10.1005 23.7071 10.491L28.7071 15.491C28.8946 15.6785 29 15.9329 29 16.1981C29 16.4633 28.8946 16.7177 28.7071 16.9052L23.7071 21.9052C23.3166 22.2958 22.6834 22.2958 22.2929 21.9052Z" fill="#333D47"/>
</svg>
