<svg width="32" height="33" viewBox="0 0 32 33" fill="none" xmlns="http://www.w3.org/2000/svg">
<path d="M2.03019 8.77088C2.01029 8.91043 2 9.05307 2 9.19812V23.1981C2 24.855 3.34315 26.1981 5 26.1981H27C28.6569 26.1981 30 24.855 30 23.1981V9.19812C30 9.05307 29.9897 8.91043 29.9698 8.77088L16.5241 17.0452C16.2027 17.243 15.7973 17.243 15.4759 17.0452L2.03019 8.77088Z" fill="#333D47"/>
<path d="M2.96244 6.99621L16 15.0193L29.0376 6.99621C28.5025 6.50087 27.7866 6.19812 27 6.19812H5C4.21338 6.19812 3.49747 6.50087 2.96244 6.99621Z" fill="#333D47"/>
</svg>
