<svg width="32" height="33" viewBox="0 0 32 33" fill="none" xmlns="http://www.w3.org/2000/svg">
<path fill-rule="evenodd" clip-rule="evenodd" d="M5 4.19812C4.44772 4.19812 4 4.64584 4 5.19812V27.1981C4 27.7504 4.44772 28.1981 5 28.1981H27C27.5523 28.1981 28 27.7504 28 27.1981V5.19812C28 4.64584 27.5523 4.19812 27 4.19812H5ZM2 5.19812C2 3.54127 3.34315 2.19812 5 2.19812H27C28.6569 2.19812 30 3.54127 30 5.19812V27.1981C30 28.855 28.6569 30.1981 27 30.1981H5C3.34315 30.1981 2 28.855 2 27.1981V5.19812Z" fill="#333D47"/>
<path fill-rule="evenodd" clip-rule="evenodd" d="M2 18.1981C2 17.6458 2.44772 17.1981 3 17.1981H10C10.7957 17.1981 11.5587 17.5142 12.1213 18.0768C12.6839 18.6394 13 19.4025 13 20.1981C13 20.9938 13.3161 21.7568 13.8787 22.3194C14.4413 22.882 15.2044 23.1981 16 23.1981C16.7956 23.1981 17.5587 22.882 18.1213 22.3194C18.6839 21.7568 19 20.9938 19 20.1981C19 19.4025 19.3161 18.6394 19.8787 18.0768C20.4413 17.5142 21.2043 17.1981 22 17.1981H29C29.5523 17.1981 30 17.6458 30 18.1981C30 18.7504 29.5523 19.1981 29 19.1981H22C21.7348 19.1981 21.4804 19.3035 21.2929 19.491C21.1054 19.6786 21 19.9329 21 20.1981C21 21.5242 20.4732 22.796 19.5355 23.7337C18.5979 24.6713 17.3261 25.1981 16 25.1981C14.6739 25.1981 13.4021 24.6713 12.4645 23.7337C11.5268 22.796 11 21.5242 11 20.1981C11 19.9329 10.8946 19.6786 10.7071 19.491C10.5196 19.3035 10.2652 19.1981 10 19.1981H3C2.44772 19.1981 2 18.7504 2 18.1981Z" fill="#333D47"/>
</svg>
