<svg width="32" height="33" viewBox="0 0 32 33" fill="none" xmlns="http://www.w3.org/2000/svg">
<path fill-rule="evenodd" clip-rule="evenodd" d="M2 9.19812C2 7.54127 3.34315 6.19812 5 6.19812H27C28.6569 6.19812 30 7.54127 30 9.19812V23.1981C30 24.855 28.6569 26.1981 27 26.1981H5C3.34315 26.1981 2 24.855 2 23.1981V9.19812ZM5 8.19812H27C27.0289 8.19812 27.0576 8.19935 27.0859 8.20176L15.9999 15.0239L4.91395 8.20177C4.94231 8.19935 4.97101 8.19812 5 8.19812ZM4 9.9877V23.1981C4 23.7504 4.44772 24.1981 5 24.1981H27C27.5523 24.1981 28 23.7504 28 23.1981V9.98761L16.524 17.0498C16.2026 17.2475 15.7972 17.2475 15.4758 17.0498L4 9.9877Z" fill="#333D47"/>
</svg>
