<svg width="32" height="33" viewBox="0 0 32 33" fill="none" xmlns="http://www.w3.org/2000/svg">
<path d="M5 2.19794C3.34315 2.19794 2 3.54108 2 5.19794V17.1979H10C10.7957 17.1979 11.5587 17.514 12.1213 18.0766C12.6839 18.6392 13 19.4023 13 20.1979C13 20.9936 13.3161 21.7566 13.8787 22.3193C14.4413 22.8819 15.2044 23.1979 16 23.1979C16.7956 23.1979 17.5587 22.8819 18.1213 22.3193C18.6839 21.7566 19 20.9936 19 20.1979C19 19.4023 19.3161 18.6392 19.8787 18.0766C20.4413 17.514 21.2043 17.1979 22 17.1979H30V5.19794C30 3.54108 28.6569 2.19794 27 2.19794H5Z" fill="#333D47"/>
<path d="M30 19.1979H22C21.7348 19.1979 21.4804 19.3033 21.2929 19.4908C21.1054 19.6784 21 19.9327 21 20.1979C21 21.524 20.4732 22.7958 19.5355 23.7335C18.5979 24.6712 17.3261 25.1979 16 25.1979C14.6739 25.1979 13.4021 24.6712 12.4645 23.7335C11.5268 22.7958 11 21.524 11 20.1979C11 19.9327 10.8946 19.6784 10.7071 19.4908C10.5196 19.3033 10.2652 19.1979 10 19.1979H2V27.1979C2 28.8548 3.34315 30.1979 5 30.1979H27C28.6569 30.1979 30 28.8548 30 27.1979V19.1979Z" fill="#333D47"/>
</svg>
