<svg width="32" height="33" viewBox="0 0 32 33" fill="none" xmlns="http://www.w3.org/2000/svg">
<path fill-rule="evenodd" clip-rule="evenodd" d="M20.6667 25.1981L28.2435 28.0394C29.0934 28.3581 30 27.7299 30 26.8222V8.099C30 7.5571 29.6639 7.07204 29.1565 6.88177L21.1231 3.86927C20.8288 3.75891 20.5045 3.75891 20.2102 3.86927L11.3333 7.1981L3.75646 4.35677C2.90658 4.03807 2 4.66633 2 5.574V24.1365C2 24.6706 2.32664 25.1503 2.82355 25.346L10.8684 28.5149C11.1677 28.6328 11.5001 28.6356 11.8013 28.5226L20.6667 25.1981ZM4 6.5841V23.6599L10.33 26.1533L10.33 8.95783L4 6.5841ZM19.67 23.4358L12.33 26.1884L12.33 8.96037L19.67 6.20783V23.4358ZM21.67 23.4384L28 25.8121V8.5841L21.67 6.21037V23.4384Z" fill="#333D47"/>
</svg>
