<svg width="32" height="33" viewBox="0 0 32 33" fill="none" xmlns="http://www.w3.org/2000/svg">
<path fill-rule="evenodd" clip-rule="evenodd" d="M11 7.19812C11 4.4367 13.2386 2.19812 16 2.19812C18.7614 2.19812 21 4.4367 21 7.19812V16.1981C21 18.9595 18.7614 21.1981 16 21.1981C13.2386 21.1981 11 18.9595 11 16.1981V7.19812Z" fill="#333D47"/>
<path d="M8 13.1981C8.55228 13.1981 9 13.6458 9 14.1981V16.1981C9 20.0641 12.134 23.1981 16 23.1981C19.866 23.1981 23 20.0641 23 16.1981V14.1981C23 13.6458 23.4477 13.1981 24 13.1981C24.5523 13.1981 25 13.6458 25 14.1981V16.1981C25 20.8307 21.5 24.6457 17 25.1432V28.1981H21C21.5523 28.1981 22 28.6458 22 29.1981C22 29.7504 21.5523 30.1981 21 30.1981H11C10.4477 30.1981 10 29.7504 10 29.1981C10 28.6458 10.4477 28.1981 11 28.1981H15V25.1432C10.5 24.6457 7 20.8307 7 16.1981V14.1981C7 13.6458 7.44772 13.1981 8 13.1981Z" fill="#333D47"/>
</svg>
