<svg width="32" height="33" viewBox="0 0 32 33" fill="none" xmlns="http://www.w3.org/2000/svg">
<path fill-rule="evenodd" clip-rule="evenodd" d="M11 7.19812C11 4.4367 13.2386 2.19812 16 2.19812C18.7614 2.19812 21 4.4367 21 7.19812V9.78391L26.2929 4.49101C26.6834 4.10049 27.3166 4.10049 27.7071 4.49101C28.0976 4.88154 28.0976 5.5147 27.7071 5.90523L5.70711 27.9052C5.31658 28.2958 4.68342 28.2958 4.29289 27.9052C3.90237 27.5147 3.90237 26.8815 4.29289 26.491L8.9681 21.8158C7.73647 20.2761 7 18.3231 7 16.1981V14.1981C7 13.6458 7.44772 13.1981 8 13.1981C8.55228 13.1981 9 13.6458 9 14.1981V16.1981C9 17.7705 9.5184 19.2217 10.3936 20.3903L11.8284 18.9555C11.3049 18.1651 11 17.2172 11 16.1981V7.19812Z" fill="#333D47"/>
<path d="M15.2925 21.1484L21 15.4409V16.1981C21 18.9595 18.7614 21.1981 16 21.1981C15.7598 21.1981 15.5236 21.1812 15.2925 21.1484Z" fill="#333D47"/>
<path d="M13.6478 22.7931L12.1199 24.3211C13.0089 24.7465 13.9787 25.0303 15 25.1432V28.1981H11C10.4477 28.1981 10 28.6458 10 29.1981C10 29.7504 10.4477 30.1981 11 30.1981H21C21.5523 30.1981 22 29.7504 22 29.1981C22 28.6458 21.5523 28.1981 21 28.1981H17V25.1432C21.5 24.6457 25 20.8307 25 16.1981V14.1981C25 13.6458 24.5523 13.1981 24 13.1981C23.4477 13.1981 23 13.6458 23 14.1981V16.1981C23 20.0641 19.866 23.1981 16 23.1981C15.1748 23.1981 14.383 23.0553 13.6478 22.7931Z" fill="#333D47"/>
</svg>
