<svg width="32" height="33" viewBox="0 0 32 33" fill="none" xmlns="http://www.w3.org/2000/svg">
<path fill-rule="evenodd" clip-rule="evenodd" d="M2.87868 10.8753C3.44129 10.3127 4.20435 9.9966 5 9.9966H24C24.7957 9.9966 25.5587 10.3127 26.1213 10.8753C26.6839 11.4379 27 12.201 27 12.9966V16.9966C27 17.5489 26.5523 17.9966 26 17.9966C25.4477 17.9966 25 17.5489 25 16.9966V12.9966C25 12.7314 24.8946 12.477 24.7071 12.2895C24.5196 12.102 24.2652 11.9966 24 11.9966H5C4.73478 11.9966 4.48043 12.102 4.29289 12.2895C4.10536 12.477 4 12.7314 4 12.9966V26.9966C4 27.2618 4.10536 27.5162 4.29289 27.7037C4.48043 27.8912 4.73478 27.9966 5 27.9966H24C24.2652 27.9966 24.5196 27.8912 24.7071 27.7037C24.8946 27.5162 25 27.2618 25 26.9966V21.9966C25 21.4443 25.4477 20.9966 26 20.9966C26.5523 20.9966 27 21.4443 27 21.9966V26.9966C27 27.7923 26.6839 28.5553 26.1213 29.1179C25.5587 29.6805 24.7957 29.9966 24 29.9966H5C4.20435 29.9966 3.44129 29.6805 2.87868 29.1179C2.31607 28.5553 2 27.7923 2 26.9966V12.9966C2 12.201 2.31607 11.4379 2.87868 10.8753Z" fill="#333D47"/>
<path fill-rule="evenodd" clip-rule="evenodd" d="M21.2712 4.00454L9.93256 6.96419C9.39818 7.10367 8.8519 6.78355 8.71242 6.24917C8.57293 5.71479 8.89306 5.16851 9.42744 5.02902L20.7597 2.07104C21.0139 2.001 21.2795 1.9824 21.541 2.0164C21.8062 2.05087 22.0618 2.13874 22.2921 2.27469C22.5225 2.41064 22.7229 2.59185 22.8813 2.80739C23.0379 3.02054 23.1502 3.26288 23.2117 3.52011L23.7701 5.75407C23.9041 6.28986 23.5783 6.8328 23.0425 6.96675C22.5067 7.1007 21.9638 6.77493 21.8299 6.23914L21.2712 4.00454Z" fill="#333D47"/>
<path fill-rule="evenodd" clip-rule="evenodd" d="M21 17.9966C21 16.892 21.8954 15.9966 23 15.9966H28C29.1046 15.9966 30 16.892 30 17.9966V20.9966C30 22.1012 29.1046 22.9966 28 22.9966H23C21.8954 22.9966 21 22.1012 21 20.9966V17.9966ZM28 17.9966H23V20.9966H28V17.9966Z" fill="#333D47"/>
</svg>
