<svg width="32" height="33" viewBox="0 0 32 33" fill="none" xmlns="http://www.w3.org/2000/svg">
<path fill-rule="evenodd" clip-rule="evenodd" d="M12.4317 12.3417C12.0993 12.6907 12 12.982 12 13.2088C12 13.4355 12.0993 13.7268 12.4317 14.0758C12.7689 14.43 13.3042 14.7944 14.0422 15.1222C15.5156 15.7766 17.6211 16.2069 20 16.2069C22.3789 16.2069 24.4844 15.7766 25.9578 15.1222C26.6958 14.7944 27.2311 14.43 27.5683 14.0758C27.9007 13.7268 28 13.4355 28 13.2088C28 12.982 27.9007 12.6907 27.5683 12.3417C27.2311 11.9875 26.6958 11.6231 25.9578 11.2954C24.4844 10.6409 22.3789 10.2107 20 10.2107C17.6211 10.2107 15.5156 10.6409 14.0422 11.2954C13.3042 11.6231 12.7689 11.9875 12.4317 12.3417ZM13.2299 9.46888C15.0139 8.6765 17.4083 8.2119 20 8.2119C22.5917 8.2119 24.9861 8.6765 26.7701 9.46888C27.6608 9.8645 28.4435 10.3615 29.0171 10.9638C29.5956 11.5713 30 12.3317 30 13.2088C30 14.0859 29.5956 14.8462 29.0171 15.4537C28.4435 16.0561 27.6608 16.553 26.7701 16.9487C24.9861 17.741 22.5917 18.2056 20 18.2056C17.4083 18.2056 15.0139 17.741 13.2299 16.9487C12.3392 16.553 11.5565 16.0561 10.9829 15.4537C10.4044 14.8462 10 14.0859 10 13.2088C10 12.3317 10.4044 11.5713 10.9829 10.9638C11.5565 10.3615 12.3392 9.8645 13.2299 9.46888Z" fill="#333D47"/>
<path fill-rule="evenodd" clip-rule="evenodd" d="M11 12.2094C11.5523 12.2094 12 12.6568 12 13.2088V25.2013C12 25.427 12.0986 25.7176 12.429 26.066C12.7641 26.4194 13.2967 26.7838 14.0324 27.1118C15.5015 27.7668 17.6064 28.1994 20 28.1994C22.3936 28.1994 24.4985 27.7668 25.9676 27.1118C26.7033 26.7838 27.2359 26.4194 27.571 26.066C27.9014 25.7176 28 25.427 28 25.2013V13.2088C28 12.6568 28.4477 12.2094 29 12.2094C29.5523 12.2094 30 12.6568 30 13.2088V25.2013C30 26.0748 29.5986 26.8335 29.0227 27.4408C28.4516 28.043 27.6717 28.5406 26.7824 28.9371C25.0015 29.7312 22.6064 30.1981 20 30.1981C17.3936 30.1981 14.9985 29.7312 13.2176 28.9371C12.3283 28.5406 11.5484 28.043 10.9773 27.4408C10.4014 26.8335 10 26.0748 10 25.2013V13.2088C10 12.6568 10.4477 12.2094 11 12.2094Z" fill="#333D47"/>
<path fill-rule="evenodd" clip-rule="evenodd" d="M11 18.2056C11.5523 18.2056 12 18.6531 12 19.205C12 19.4308 12.0986 19.7214 12.429 20.0697C12.7641 20.4232 13.2967 20.7875 14.0324 21.1156C15.5015 21.7706 17.6064 22.2031 20 22.2031C22.3936 22.2031 24.4985 21.7706 25.9676 21.1156C26.7033 20.7875 27.2359 20.4232 27.571 20.0697C27.9014 19.7214 28 19.4308 28 19.205C28 18.6531 28.4477 18.2056 29 18.2056C29.5523 18.2056 30 18.6531 30 19.205C30 20.0786 29.5986 20.8373 29.0227 21.4446C28.4516 22.0468 27.6717 22.5444 26.7824 22.9409C25.0015 23.735 22.6064 24.2019 20 24.2019C17.3936 24.2019 14.9985 23.735 13.2176 22.9409C12.3283 22.5444 11.5484 22.0468 10.9773 21.4446C10.4014 20.8373 10 20.0786 10 19.205C10 18.6531 10.4477 18.2056 11 18.2056Z" fill="#333D47"/>
<path fill-rule="evenodd" clip-rule="evenodd" d="M11.9747 2.21568C14.9112 2.0713 17.8228 2.82001 20.3252 4.36332C20.7952 4.65319 20.941 5.26893 20.651 5.73863C20.3609 6.20833 19.7448 6.35411 19.2748 6.06424C17.1104 4.72935 14.591 4.08375 12.0509 4.21311C12.0339 4.21398 12.017 4.21441 12 4.21441C9.61692 4.21441 7.51158 4.6468 6.03942 5.30219C5.30206 5.63046 4.76738 5.99513 4.43058 6.34907C4.09846 6.6981 4 6.98834 4 7.21253C4 7.45026 4.11275 7.76783 4.50845 8.15378C4.90726 8.54276 5.53367 8.93689 6.38176 9.28697C6.89222 9.49768 7.1351 10.082 6.92426 10.5922C6.71342 11.1023 6.1287 11.345 5.61824 11.1343C4.62633 10.7249 3.75274 10.2096 3.11155 9.5842C2.46725 8.95579 2 8.15406 2 7.21253C2 6.33741 2.40404 5.57831 2.98129 4.97169C3.55387 4.36997 4.33544 3.87269 5.22558 3.47641C7.00262 2.68529 9.38752 2.2187 11.9747 2.21568Z" fill="#333D47"/>
<path fill-rule="evenodd" clip-rule="evenodd" d="M3 6.21316C3.55228 6.21316 4 6.66059 4 7.21253V19.205C4 19.4427 4.11275 19.7603 4.50845 20.1463C4.90726 20.5352 5.53367 20.9294 6.38176 21.2794C6.89222 21.4902 7.1351 22.0745 6.92426 22.5847C6.71342 23.0948 6.1287 23.3375 5.61824 23.1268C4.62633 22.7174 3.75274 22.2021 3.11155 21.5767C2.46725 20.9483 2 20.1465 2 19.205V7.21253C2 6.66059 2.44772 6.21316 3 6.21316Z" fill="#333D47"/>
<path fill-rule="evenodd" clip-rule="evenodd" d="M3 12.2094C3.55228 12.2094 4 12.6568 4 13.2088C4 13.4465 4.11275 13.7641 4.50845 14.15C4.90726 14.539 5.53367 14.9331 6.38176 15.2832C6.89222 15.4939 7.1351 16.0783 6.92426 16.5884C6.71342 17.0985 6.1287 17.3413 5.61824 17.1306C4.62633 16.7211 3.75274 16.2058 3.11155 15.5804C2.46725 14.952 2 14.1503 2 13.2088C2 12.6568 2.44772 12.2094 3 12.2094Z" fill="#333D47"/>
</svg>
