<svg width="32" height="33" viewBox="0 0 32 33" fill="none" xmlns="http://www.w3.org/2000/svg">
<path fill-rule="evenodd" clip-rule="evenodd" d="M16 4.19812C11.5817 4.19812 8 7.77984 8 12.1981V20.1981C8 24.6164 11.5817 28.1981 16 28.1981C20.4183 28.1981 24 24.6164 24 20.1981V12.1981C24 7.77984 20.4183 4.19812 16 4.19812ZM6 12.1981C6 6.67527 10.4772 2.19812 16 2.19812C21.5228 2.19812 26 6.67527 26 12.1981V20.1981C26 25.721 21.5228 30.1981 16 30.1981C10.4772 30.1981 6 25.721 6 20.1981V12.1981Z" fill="#333D47"/>
<path fill-rule="evenodd" clip-rule="evenodd" d="M16 8.19812C16.5523 8.19812 17 8.64584 17 9.19812V12.1981C17 12.7504 16.5523 13.1981 16 13.1981C15.4477 13.1981 15 12.7504 15 12.1981V9.19812C15 8.64584 15.4477 8.19812 16 8.19812Z" fill="#333D47"/>
</svg>
