<svg width="32" height="33" viewBox="0 0 32 33" fill="none" xmlns="http://www.w3.org/2000/svg">
<path fill-rule="evenodd" clip-rule="evenodd" d="M16.4472 5.3037C16.786 5.47309 17 5.81935 17 6.19813V26.1981C17 26.5769 16.786 26.9232 16.4472 27.0926C16.1084 27.2619 15.703 27.2254 15.4 26.9981L7.66667 21.1981H3C2.44772 21.1981 2 20.7504 2 20.1981V12.1981C2 11.6458 2.44772 11.1981 3 11.1981H7.66667L15.4 5.39813C15.703 5.17086 16.1084 5.13431 16.4472 5.3037ZM15 8.19813L8.6 12.9981C8.4269 13.1279 8.21637 13.1981 8 13.1981H4V19.1981H8C8.21637 19.1981 8.4269 19.2683 8.6 19.3981L15 24.1981V8.19813Z" fill="#333D47"/>
<path fill-rule="evenodd" clip-rule="evenodd" d="M20.2929 11.491C20.6834 11.1005 21.3166 11.1005 21.7071 11.491L25 14.7839L28.2929 11.491C28.6834 11.1005 29.3166 11.1005 29.7071 11.491C30.0976 11.8815 30.0976 12.5147 29.7071 12.9052L26.4142 16.1981L29.7071 19.491C30.0976 19.8815 30.0976 20.5147 29.7071 20.9052C29.3166 21.2958 28.6834 21.2958 28.2929 20.9052L25 17.6123L21.7071 20.9052C21.3166 21.2958 20.6834 21.2958 20.2929 20.9052C19.9024 20.5147 19.9024 19.8815 20.2929 19.491L23.5858 16.1981L20.2929 12.9052C19.9024 12.5147 19.9024 11.8815 20.2929 11.491Z" fill="#333D47"/>
</svg>
