<svg width="32" height="33" viewBox="0 0 32 33" fill="none" xmlns="http://www.w3.org/2000/svg">
<path fill-rule="evenodd" clip-rule="evenodd" d="M2.58579 5.28391C2.96086 4.90883 3.46957 4.69812 4 4.69812H23C23.5304 4.69812 24.0391 4.90883 24.4142 5.28391C24.7893 5.65898 25 6.16769 25 6.69812V24.1981C25 24.5959 25.158 24.9775 25.4393 25.2588C25.7206 25.5401 26.1022 25.6981 26.5 25.6981C26.8978 25.6981 27.2794 25.5401 27.5607 25.2588C27.842 24.9775 28 24.5959 28 24.1981V11.1981C28 10.6458 28.4477 10.1981 29 10.1981C29.5523 10.1981 30 10.6458 30 11.1981V24.1981C30 25.1264 29.6313 26.0166 28.9749 26.673C28.3185 27.3294 27.4283 27.6981 26.5 27.6981H5C4.20435 27.6981 3.44129 27.382 2.87868 26.8194C2.31607 26.2568 2 25.4938 2 24.6981V6.69812C2 6.16769 2.21071 5.65898 2.58579 5.28391ZM23.3377 25.6981C23.1174 25.2337 23 24.722 23 24.1981V6.69812H4V24.6981C4 24.9633 4.10536 25.2177 4.29289 25.4052C4.48043 25.5928 4.73478 25.6981 5 25.6981H23.3377Z" fill="#333D47"/>
<path fill-rule="evenodd" clip-rule="evenodd" d="M8 10.6981C8 10.1458 8.44772 9.69812 9 9.69812H18C18.5523 9.69812 19 10.1458 19 10.6981V15.6981C19 16.2504 18.5523 16.6981 18 16.6981H9C8.44772 16.6981 8 16.2504 8 15.6981V10.6981ZM10 11.6981V14.6981H17V11.6981H10Z" fill="#333D47"/>
<path fill-rule="evenodd" clip-rule="evenodd" d="M8 21.6981C8 21.1458 8.44772 20.6981 9 20.6981H18C18.5523 20.6981 19 21.1458 19 21.6981C19 22.2504 18.5523 22.6981 18 22.6981H9C8.44772 22.6981 8 22.2504 8 21.6981Z" fill="#333D47"/>
</svg>
