<svg width="32" height="33" viewBox="0 0 32 33" fill="none" xmlns="http://www.w3.org/2000/svg">
<path fill-rule="evenodd" clip-rule="evenodd" d="M2.58579 5.28378C2.96086 4.90871 3.46957 4.698 4 4.698H23C23.5304 4.698 24.0391 4.90871 24.4142 5.28378C24.7893 5.65886 25 6.16757 25 6.698V24.198C25 24.5958 25.158 24.9774 25.4393 25.2587C25.7206 25.54 26.1022 25.698 26.5 25.698C26.8978 25.698 27.2794 25.54 27.5607 25.2587C27.842 24.9774 28 24.5958 28 24.198V11.198C28 10.6457 28.4477 10.198 29 10.198C29.5523 10.198 30 10.6457 30 11.198V24.198C30 25.1263 29.6313 26.0165 28.9749 26.6729C28.3185 27.3292 27.4283 27.698 26.5 27.698H5C4.20435 27.698 3.44129 27.3819 2.87868 26.8193C2.31607 26.2567 2 25.4936 2 24.698V6.698C2 6.16757 2.21071 5.65886 2.58579 5.28378ZM9 10.698C8.44772 10.698 8 11.1457 8 11.698V14.698C8 15.2503 8.44772 15.698 9 15.698H18C18.5523 15.698 19 15.2503 19 14.698V11.698C19 11.1457 18.5523 10.698 18 10.698H9ZM9 20.698C8.44772 20.698 8 21.1457 8 21.698C8 22.2503 8.44772 22.698 9 22.698H18C18.5523 22.698 19 22.2503 19 21.698C19 21.1457 18.5523 20.698 18 20.698H9Z" fill="#333D47"/>
</svg>
