<svg width="32" height="33" viewBox="0 0 32 33" fill="none" xmlns="http://www.w3.org/2000/svg">
<path d="M28.9999 7.19812C28.9999 9.40726 27.209 11.1981 24.9999 11.1981C22.7907 11.1981 20.9999 9.40726 20.9999 7.19812C20.9999 4.98898 22.7907 3.19812 24.9999 3.19812C27.209 3.19812 28.9999 4.98898 28.9999 7.19812Z" fill="#333D47"/>
<path d="M19.1704 5.77241C18.483 5.51364 17.7556 5.33657 17 5.25305V3.19812C17 2.64584 16.5523 2.19812 16 2.19812C15.4477 2.19812 15 2.64584 15 3.19812V5.25305C10.5001 5.75051 7.00003 9.56558 7.00003 14.1981V18.1981C7.00003 19.4743 6.57403 20.553 6.13179 21.327C5.89748 21.737 5.62591 22.1564 5.29029 22.4937C5.0064 22.7797 4.92184 23.2083 5.07615 23.5808C5.23093 23.9545 5.59557 24.1981 6.00003 24.1981H26C26.4045 24.1981 26.7691 23.9545 26.9239 23.5808C27.0766 23.2122 26.9909 22.7754 26.7088 22.4927C26.3739 22.1552 26.1025 21.7368 25.8683 21.327C25.426 20.553 25 19.4743 25 18.1981V14.1981C25 13.86 24.9814 13.5263 24.9451 13.1979C21.6567 13.1684 19 10.4935 19 7.19812C19 6.70686 19.059 6.22939 19.1704 5.77241Z" fill="#333D47"/>
<path d="M16 28.1981C14.8954 28.1981 14 27.3027 14 26.1981H12C12 28.4073 13.7909 30.1981 16 30.1981C18.2091 30.1981 20 28.4073 20 26.1981H18C18 27.3027 17.1046 28.1981 16 28.1981Z" fill="#333D47"/>
</svg>
