<svg width="32" height="33" viewBox="0 0 32 33" fill="none" xmlns="http://www.w3.org/2000/svg">
<path d="M16 2.19812C16.5523 2.19812 17 2.64584 17 3.19812V5.25305C19.2306 5.49961 21.2155 6.56135 22.6502 8.13374L26.2929 4.49101C26.6834 4.10049 27.3166 4.10049 27.7071 4.49101C28.0976 4.88154 28.0976 5.5147 27.7071 5.90523L5.70711 27.9052C5.31658 28.2958 4.68342 28.2958 4.29289 27.9052C3.90237 27.5147 3.90237 26.8815 4.29289 26.491L6.58579 24.1981H6.00003C5.59557 24.1981 5.23093 23.9545 5.07615 23.5808C4.92184 23.2083 5.0064 22.7797 5.29029 22.4937C5.62591 22.1564 5.89748 21.737 6.13179 21.327C6.57403 20.553 7.00003 19.4743 7.00003 18.1981V14.1981C7.00003 9.56558 10.5001 5.75051 15 5.25305V3.19812C15 2.64584 15.4477 2.19812 16 2.19812Z" fill="#333D47"/>
<path d="M12.2428 24.1981H26C26.4045 24.1981 26.7691 23.9545 26.9239 23.5808C27.0766 23.2122 26.9909 22.7754 26.7088 22.4927C26.3739 22.1552 26.1025 21.7368 25.8683 21.327C25.426 20.553 25 19.4743 25 18.1981V14.1981C25 13.3574 24.8848 12.5437 24.6692 11.7718L12.2428 24.1981Z" fill="#333D47"/>
<path d="M14 26.1981C14 27.3027 14.8954 28.1981 16 28.1981C17.1046 28.1981 18 27.3027 18 26.1981H20C20 28.4073 18.2091 30.1981 16 30.1981C13.7909 30.1981 12 28.4073 12 26.1981H14Z" fill="#333D47"/>
</svg>
