<svg width="32" height="33" viewBox="0 0 32 33" fill="none" xmlns="http://www.w3.org/2000/svg">
<path d="M29 7.19812C29 9.40726 27.2091 11.1981 25 11.1981C22.7909 11.1981 21 9.40726 21 7.19812C21 4.98898 22.7909 3.19812 25 3.19812C27.2091 3.19812 29 4.98898 29 7.19812Z" fill="#333D47"/>
<path d="M19.1704 5.77241C18.483 5.51364 17.7556 5.33657 17 5.25305V3.19812C17 2.64584 16.5523 2.19812 16 2.19812C15.4477 2.19812 15 2.64584 15 3.19812V5.25305C10.5001 5.75051 7.00003 9.56558 7.00003 14.1981V18.1981C7.00003 19.4743 6.57403 20.553 6.13179 21.327C5.89748 21.737 5.62591 22.1564 5.29029 22.4937C5.0064 22.7797 4.92184 23.2083 5.07615 23.5808C5.23093 23.9545 5.59557 24.1981 6.00003 24.1981H26C26.4045 24.1981 26.7691 23.9545 26.9239 23.5808C27.0766 23.2122 26.9909 22.7754 26.7088 22.4927C26.3739 22.1552 26.1025 21.7368 25.8683 21.327C25.426 20.553 25 19.4743 25 18.1981V14.1981C25 13.86 24.9814 13.5263 24.9451 13.1979C24.2117 13.1913 23.5097 13.0531 22.8616 12.8058C22.9524 13.2558 23 13.7214 23 14.1981V18.1981C23 19.8519 23.5283 21.2272 24.0638 22.1981H7.93628C8.47171 21.2272 9.00003 19.8519 9.00003 18.1981V14.1981C9.00003 10.3321 12.134 7.19812 16 7.19812C17.0892 7.19812 18.1203 7.44688 19.0395 7.89067C18.9586 7.18686 19.0059 6.44727 19.1704 5.77241Z" fill="#333D47"/>
<path d="M16 28.1981C14.8954 28.1981 14 27.3027 14 26.1981H12C12 28.4073 13.7909 30.1981 16 30.1981C18.2091 30.1981 20 28.4073 20 26.1981H18C18 27.3027 17.1046 28.1981 16 28.1981Z" fill="#333D47"/>
</svg>
