<svg width="32" height="33" viewBox="0 0 32 33" fill="none" xmlns="http://www.w3.org/2000/svg">
<path fill-rule="evenodd" clip-rule="evenodd" d="M17 3.19812C17 2.64584 16.5523 2.19812 16 2.19812C15.4477 2.19812 15 2.64584 15 3.19812V5.25305C10.5001 5.75051 7.00003 9.56558 7.00003 14.1981V18.1981C7.00003 19.4743 6.57403 20.553 6.13179 21.327C5.89748 21.737 5.62591 22.1564 5.29029 22.4937C5.0064 22.7797 4.92184 23.2083 5.07615 23.5808C5.23093 23.9545 5.59557 24.1981 6.00003 24.1981H26C26.4045 24.1981 26.7691 23.9545 26.9239 23.5808C27.0766 23.2122 26.9909 22.7754 26.7088 22.4927C26.3739 22.1552 26.1025 21.7368 25.8683 21.327C25.426 20.553 25 19.4743 25 18.1981V14.1981C25 9.56556 21.5 5.75048 17 5.25305V3.19812ZM16 7.19812C12.134 7.19812 9.00003 10.3321 9.00003 14.1981V18.1981C9.00003 19.8519 8.47171 21.2272 7.93628 22.1981H24.0638C23.5283 21.2272 23 19.8519 23 18.1981V14.1981C23 10.3321 19.866 7.19812 16 7.19812Z" fill="#333D47"/>
<path d="M14 26.1981C14 27.3027 14.8954 28.1981 16 28.1981C17.1046 28.1981 18 27.3027 18 26.1981H20C20 28.4073 18.2091 30.1981 16 30.1981C13.7909 30.1981 12 28.4073 12 26.1981H14Z" fill="#333D47"/>
</svg>
