<svg width="32" height="33" viewBox="0 0 32 33" fill="none" xmlns="http://www.w3.org/2000/svg">
<path fill-rule="evenodd" clip-rule="evenodd" d="M12 26.1981V6.19812C12 5.64584 11.5523 5.19812 11 5.19812C10.4477 5.19812 10 5.64584 10 6.19812V26.1981C10 26.7504 10.4477 27.1981 11 27.1981C11.5523 27.1981 12 26.7504 12 26.1981ZM11 3.19812C9.34315 3.19812 8 4.54127 8 6.19812V26.1981C8 27.855 9.34315 29.1981 11 29.1981C12.6569 29.1981 14 27.855 14 26.1981V6.19812C14 4.54127 12.6569 3.19812 11 3.19812Z" fill="#333D47"/>
<path fill-rule="evenodd" clip-rule="evenodd" d="M22 26.1981V6.19812C22 5.64584 21.5523 5.19812 21 5.19812C20.4477 5.19812 20 5.64584 20 6.19812V26.1981C20 26.7504 20.4477 27.1981 21 27.1981C21.5523 27.1981 22 26.7504 22 26.1981ZM21 3.19812C19.3431 3.19812 18 4.54127 18 6.19812V26.1981C18 27.855 19.3431 29.1981 21 29.1981C22.6569 29.1981 24 27.855 24 26.1981V6.19812C24 4.54127 22.6569 3.19812 21 3.19812Z" fill="#333D47"/>
</svg>
