<svg width="32" height="33" viewBox="0 0 32 33" fill="none" xmlns="http://www.w3.org/2000/svg">
<path fill-rule="evenodd" clip-rule="evenodd" d="M7 5.198C7 4.64571 7.44772 4.198 8 4.198H18V10.198C18 10.7503 18.4477 11.198 19 11.198H25V18.198C25 18.7503 25.4477 19.198 26 19.198C26.5523 19.198 27 18.7503 27 18.198V10.5264C27 9.73078 26.6839 8.96771 26.1213 8.4051L20.7929 3.07668C20.2303 2.51407 19.4672 2.198 18.6716 2.198H8C6.34315 2.198 5 3.54114 5 5.198V27.198C5 28.8549 6.34315 30.198 8 30.198C8.55229 30.198 9 29.7503 9 29.198C9 28.6457 8.55229 28.198 8 28.198C7.44772 28.198 7 27.7503 7 27.198V5.198ZM24.0858 9.198L20 5.11221V9.198H24.0858Z" fill="#333D47"/>
<path fill-rule="evenodd" clip-rule="evenodd" d="M12 22.1977C12.5523 22.1977 13 22.6454 13 23.1977V29.198C13 29.7503 12.5523 30.198 12 30.198C11.4477 30.198 11 29.7503 11 29.198V23.1977C11 22.6454 11.4477 22.1977 12 22.1977Z" fill="#333D47"/>
<path fill-rule="evenodd" clip-rule="evenodd" d="M11 23.1977C11 22.6454 11.4477 22.1977 12 22.1977H12.6032C13.3459 22.1977 14.0581 22.4927 14.5832 23.0178C15.1083 23.5429 15.4033 24.2551 15.4033 24.9978C15.4033 25.7404 15.1083 26.4526 14.5832 26.9777C14.0581 27.5029 13.3459 27.7979 12.6032 27.7979H12.0032C11.4509 27.7979 11.0032 27.3501 11.0032 26.7979C11.0032 26.2456 11.4509 25.7979 12.0032 25.7979H12.6032C12.8154 25.7979 13.0189 25.7136 13.169 25.5635C13.319 25.4135 13.4033 25.21 13.4033 24.9978C13.4033 24.7856 13.319 24.5821 13.169 24.432C13.0189 24.282 12.8154 24.1977 12.6032 24.1977H12C11.4477 24.1977 11 23.7499 11 23.1977Z" fill="#333D47"/>
<path fill-rule="evenodd" clip-rule="evenodd" d="M16.7999 23.1977C16.7999 22.6454 17.2476 22.1977 17.7999 22.1977C18.7017 22.1977 19.5665 22.5559 20.2042 23.1935C20.8418 23.8312 21.2001 24.696 21.2001 25.5978V26.7979C21.2001 27.6996 20.8418 28.5645 20.2042 29.2021C19.5665 29.8398 18.7017 30.198 17.7999 30.198C17.5347 30.198 17.2804 30.0926 17.0928 29.9051C16.9053 29.7176 16.7999 29.4632 16.7999 29.198V23.1977ZM18.7999 24.6178V27.7779C19.0563 27.5163 19.2001 27.1645 19.2001 26.7979V25.5978C19.2001 25.2312 19.0563 24.8794 18.7999 24.6178Z" fill="#333D47"/>
<path fill-rule="evenodd" clip-rule="evenodd" d="M24.7999 24.1977C24.7469 24.1977 24.696 24.2187 24.6585 24.2563C24.6209 24.2938 24.5999 24.3447 24.5999 24.3977V29.198C24.5999 29.7503 24.1521 30.198 23.5999 30.198C23.0476 30.198 22.5999 29.7503 22.5999 29.198V24.3977C22.5999 23.8142 22.8317 23.2546 23.2442 22.842C23.6568 22.4295 24.2164 22.1977 24.7999 22.1977H26C26.5523 22.1977 27 22.6454 27 23.1977C27 23.7499 26.5523 24.1977 26 24.1977H24.7999Z" fill="#333D47"/>
<path fill-rule="evenodd" clip-rule="evenodd" d="M22.5999 26.7979C22.5999 26.2457 23.0476 25.7979 23.5999 25.7979H25.4C25.9523 25.7979 26.4 26.2457 26.4 26.7979C26.4 27.3502 25.9523 27.7979 25.4 27.7979H23.5999C23.0476 27.7979 22.5999 27.3502 22.5999 26.7979Z" fill="#333D47"/>
</svg>
