<svg width="32" height="33" viewBox="0 0 32 33" fill="none" xmlns="http://www.w3.org/2000/svg">
<path fill-rule="evenodd" clip-rule="evenodd" d="M26.2529 5.94515C25.2627 4.95497 23.6573 4.95497 22.6671 5.94515L7.41424 21.1981L11 24.7838L26.2529 9.53094C27.2431 8.54075 27.2431 6.93534 26.2529 5.94515ZM9.09118 25.7034L6.49466 23.1069L5.45605 26.742L9.09118 25.7034ZM21.2529 4.53094C23.0242 2.75971 25.8959 2.75971 27.6671 4.53094C29.4384 6.30217 29.4384 9.17391 27.6671 10.9451L11.7071 26.9052C11.587 27.0253 11.4382 27.1129 11.2747 27.1596L4.27475 29.1596C3.92555 29.2593 3.54972 29.162 3.29292 28.9052C3.03612 28.6484 2.93873 28.2725 3.0385 27.9233L5.0385 20.9233C5.08519 20.7599 5.17275 20.6111 5.29292 20.4909L21.2529 4.53094Z" fill="#333D47"/>
</svg>
