<svg width="32" height="33" viewBox="0 0 32 33" fill="none" xmlns="http://www.w3.org/2000/svg">
<path fill-rule="evenodd" clip-rule="evenodd" d="M10.1316 13.0281C9.73801 12.1383 10.0417 11.0944 10.8512 10.5548L12.4739 9.47298L10.6418 5.19812L5.00855 5.19817C5.45823 11.6376 8.08259 16.5378 11.8714 20.3266C15.6602 24.1154 20.5603 26.7397 26.9998 27.1894L26.9999 21.5561L22.725 19.724L21.6432 21.3467C21.1035 22.1562 20.0596 22.46 19.1699 22.0663C15.2358 20.3258 11.8722 16.9622 10.1316 13.0281ZM12.4801 4.41028L14.3122 8.68514C14.692 9.5713 14.3855 10.6023 13.5833 11.1371L11.9606 12.2189C13.4999 15.6981 16.4999 18.6981 19.9791 20.2373L21.0609 18.6146C21.5957 17.8124 22.6267 17.506 23.5128 17.8858L27.7877 19.7178C28.5231 20.033 28.9999 20.7561 28.9999 21.5561L28.9998 27.2581C28.9998 28.3627 28.1023 29.2657 27.0001 29.194C19.9708 28.7366 14.5845 25.8682 10.4572 21.7408C6.32981 17.6134 3.46141 12.2271 3.004 5.1979C2.93227 4.09567 3.83528 3.19819 4.93985 3.19818L10.6418 3.19812C11.4419 3.19811 12.165 3.67491 12.4801 4.41028Z" fill="#333D47"/>
</svg>
