<svg width="32" height="33" viewBox="0 0 32 33" fill="none" xmlns="http://www.w3.org/2000/svg">
<path fill-rule="evenodd" clip-rule="evenodd" d="M14.5567 16.2272C13.4871 15.0199 12.5985 13.6605 11.9606 12.2189L13.5833 11.1371C14.3855 10.6023 14.692 9.5713 14.3122 8.68514L12.4801 4.41028C12.165 3.67491 11.4419 3.19811 10.6418 3.19812L4.93985 3.19818C3.83528 3.19819 2.93227 4.09567 3.004 5.1979C3.43528 11.8257 6.01006 16.9929 9.76259 21.0213L4.29289 26.491C3.90237 26.8815 3.90237 27.5147 4.29289 27.9052C4.68342 28.2957 5.31658 28.2957 5.70711 27.9052L27.7071 5.90522C28.0976 5.51469 28.0976 4.88153 27.7071 4.491C27.3166 4.10048 26.6834 4.10048 26.2929 4.491L14.5567 16.2272Z" fill="#333D47"/>
<path d="M17.5585 18.8824C18.3282 19.4099 19.1396 19.8662 19.9789 20.2375L21.0607 18.6148C21.5955 17.8126 22.6264 17.5061 23.5126 17.8859L27.7875 19.718C28.5228 20.0332 28.9996 20.7562 28.9996 21.5563L28.9996 27.2583C28.9996 28.3629 28.1021 29.2659 26.9998 29.1941C21.1761 28.8152 16.48 26.7812 12.6934 23.7475L17.5585 18.8824Z" fill="#333D47"/>
</svg>
