<svg width="32" height="33" viewBox="0 0 32 33" fill="none" xmlns="http://www.w3.org/2000/svg">
<path fill-rule="evenodd" clip-rule="evenodd" d="M14.5567 16.2272C13.4871 15.0199 12.5985 13.6605 11.9606 12.2189L13.5833 11.1371C14.3855 10.6023 14.692 9.5713 14.3122 8.68514L12.4801 4.41028C12.165 3.67491 11.4419 3.19811 10.6418 3.19812L4.93985 3.19818C3.83528 3.19819 2.93227 4.09567 3.004 5.1979C3.43528 11.8257 6.01006 16.9929 9.76259 21.0213L4.29289 26.491C3.90237 26.8815 3.90237 27.5147 4.29289 27.9052C4.68342 28.2957 5.31658 28.2957 5.70711 27.9052L27.7071 5.90522C28.0976 5.51469 28.0976 4.88153 27.7071 4.491C27.3166 4.10048 26.6834 4.10048 26.2929 4.491L14.5567 16.2272ZM10.1316 13.0281C9.73801 12.1383 10.0417 11.0944 10.8512 10.5548L12.4739 9.47298L10.6418 5.19812L5.00855 5.19817C5.43025 11.2369 7.76434 15.9219 11.1777 19.6062L13.1402 17.6437C11.8991 16.2612 10.8695 14.6959 10.1316 13.0281Z" fill="#333D47"/>
<path d="M12.6936 23.7473L14.117 22.3239C17.5473 25.0211 21.7649 26.8239 26.9998 27.1894L26.9999 21.5561L22.725 19.724L21.6432 21.3467C21.1035 22.1562 20.0596 22.46 19.1699 22.0663C18.1055 21.5954 17.0829 21.0057 16.1229 20.318L17.5587 18.8822C18.3284 19.4097 19.1398 19.866 19.9791 20.2373L21.0609 18.6146C21.5957 17.8124 22.6267 17.506 23.5128 17.8858L27.7877 19.7178C28.5231 20.033 28.9999 20.7561 28.9999 21.5561L28.9998 27.2581C28.9998 28.3627 28.1023 29.2657 27.0001 29.194C21.1763 28.815 16.4803 26.7811 12.6936 23.7473Z" fill="#333D47"/>
</svg>
