<svg width="32" height="33" viewBox="0 0 32 33" fill="none" xmlns="http://www.w3.org/2000/svg">
<path fill-rule="evenodd" clip-rule="evenodd" d="M13 9.25384C11.5738 9.4133 10.2012 9.91221 8.99988 10.7149C7.51983 11.7038 6.36628 13.1094 5.68509 14.754C5.0039 16.3985 4.82567 18.2081 5.17294 19.9539C5.5202 21.6998 6.37737 23.3034 7.63604 24.5621C8.89471 25.8208 10.4984 26.6779 12.2442 27.0252C13.99 27.3725 15.7996 27.1942 17.4442 26.513C19.0887 25.8318 20.4943 24.6783 21.4832 23.1983C22.2859 21.997 22.7848 20.6244 22.9443 19.1981H14C13.7348 19.1981 13.4804 19.0928 13.2929 18.9052C13.1054 18.7177 13 18.4633 13 18.1981L13 9.25384ZM7.88874 9.05195C9.69768 7.84326 11.8244 7.19812 14 7.19812C14.5523 7.19812 15 7.64584 15 8.19812L15 17.1981H24C24.5523 17.1981 25 17.6458 25 18.1981C25 20.3737 24.3549 22.5005 23.1462 24.3094C21.9375 26.1183 20.2195 27.5282 18.2095 28.3608C16.1995 29.1934 13.9878 29.4112 11.854 28.9868C9.72022 28.5623 7.76021 27.5147 6.22183 25.9763C4.68345 24.4379 3.6358 22.4779 3.21137 20.3441C2.78693 18.2103 3.00477 15.9986 3.83733 13.9886C4.6699 11.9786 6.07979 10.2606 7.88874 9.05195Z" fill="#333D47"/>
<path fill-rule="evenodd" clip-rule="evenodd" d="M17.2929 3.49101C17.4804 3.30348 17.7348 3.19812 18 3.19812C19.4445 3.19812 20.8749 3.48264 22.2095 4.03545C23.5441 4.58825 24.7567 5.3985 25.7782 6.41995C26.7996 7.44139 27.6099 8.65402 28.1627 9.9886C28.7155 11.3232 29 12.7536 29 14.1981C29 14.4633 28.8946 14.7177 28.7071 14.9052C28.5196 15.0928 28.2652 15.1981 28 15.1981L18 15.1981C17.4477 15.1981 17 14.7504 17 14.1981V4.19812C17 3.9329 17.1054 3.67855 17.2929 3.49101ZM19 5.25385V13.1981L26.9443 13.1981C26.8505 12.3595 26.6391 11.5366 26.3149 10.754C25.8626 9.66204 25.1997 8.66989 24.364 7.83416C23.5282 6.99843 22.5361 6.3355 21.4442 5.8832C20.6615 5.55902 19.8386 5.34761 19 5.25385Z" fill="#333D47"/>
</svg>
