<svg width="32" height="33" viewBox="0 0 32 33" fill="none" xmlns="http://www.w3.org/2000/svg">
<path d="M18 3.19812C17.7348 3.19812 17.4804 3.30348 17.2929 3.49101C17.1054 3.67855 17 3.9329 17 4.19812V14.1981C17 14.7504 17.4477 15.1981 18 15.1981L28 15.1981C28.2652 15.1981 28.5196 15.0928 28.7071 14.9052C28.8946 14.7177 29 14.4633 29 14.1981C29 12.7536 28.7155 11.3232 28.1627 9.9886C27.6099 8.65402 26.7996 7.44139 25.7782 6.41995C24.7567 5.3985 23.5441 4.58825 22.2095 4.03545C20.8749 3.48264 19.4445 3.19812 18 3.19812Z" fill="#333D47"/>
<path d="M14 7.19812C11.8244 7.19812 9.69768 7.84326 7.88874 9.05195C6.07979 10.2606 4.6699 11.9786 3.83733 13.9886C3.00477 15.9986 2.78693 18.2103 3.21137 20.3441C3.6358 22.4779 4.68345 24.4379 6.22183 25.9763C7.76021 27.5147 9.72022 28.5623 11.854 28.9868C13.9878 29.4112 16.1995 29.1934 18.2095 28.3608C20.2195 27.5282 21.9375 26.1183 23.1462 24.3094C24.3549 22.5005 25 20.3737 25 18.1981C25 17.6458 24.5523 17.1981 24 17.1981H15L15 8.19812C15 7.64584 14.5523 7.19812 14 7.19812Z" fill="#333D47"/>
</svg>
