<svg width="32" height="33" viewBox="0 0 32 33" fill="none" xmlns="http://www.w3.org/2000/svg">
<path fill-rule="evenodd" clip-rule="evenodd" d="M20.3165 3.24952C19.8887 3.10692 19.4183 3.26829 19.1682 3.64351L13.6022 11.9925C11.2007 11.2228 9.21738 11.487 7.78349 12.0084C7.00065 12.2931 6.39294 12.6498 5.97605 12.9398C5.73053 13.1106 5.50153 13.2976 5.28317 13.5014C4.9201 13.8927 4.90603 14.5182 5.29313 14.9053L10.5859 20.1981L3.29289 27.4911C2.90237 27.8816 2.90237 28.5148 3.29289 28.9053C3.68342 29.2958 4.31658 29.2958 4.70711 28.9053L12.0001 21.6123L17.2931 26.9053C17.6837 27.2958 18.3168 27.2958 18.7073 26.9053C18.9049 26.6877 19.0904 26.4642 19.2586 26.2224C19.5487 25.8055 19.9054 25.1978 20.19 24.4149C20.7114 22.9811 20.9756 20.9978 20.206 18.5962L28.5549 13.0303C28.9302 12.7801 29.0915 12.3098 28.9489 11.882C28.3798 10.1746 27.0113 8.29501 25.4573 6.7411C23.9034 5.18719 22.0238 3.81864 20.3165 3.24952Z" fill="#333D47"/>
</svg>
