<svg width="32" height="33" viewBox="0 0 32 33" fill="none" xmlns="http://www.w3.org/2000/svg">
<path fill-rule="evenodd" clip-rule="evenodd" d="M13.2025 4.40064C14.6072 2.99601 16.5105 2.2042 18.4969 2.19812L18.5 3.19812L18.5031 2.19812C20.4895 2.2042 22.3928 2.99601 23.7975 4.40064C25.2021 5.80527 25.9939 7.70861 26 9.69505L26 9.69812L26 11.1981C26 11.7504 25.5523 12.1981 25 12.1981C24.4477 12.1981 24 11.7504 24 11.1981V9.69998C23.9952 8.24228 23.414 6.84563 22.3833 5.81486C21.3529 4.78452 19.957 4.20339 18.5 4.19812C17.043 4.20339 15.6471 4.78452 14.6167 5.81486C13.586 6.84556 13.0049 8.2421 13 9.69969V22.1981C13 22.3955 12.9416 22.5885 12.8321 22.7528L9.86852 27.1981H25C25.5523 27.1981 26 27.6458 26 28.1981C26 28.7504 25.5523 29.1981 25 29.1981H8C7.6312 29.1981 7.29234 28.9951 7.11833 28.67C6.94431 28.3448 6.96338 27.9503 7.16795 27.6434L11 21.8953V9.69505C11.0061 7.70861 11.7979 5.80527 13.2025 4.40064Z" fill="#333D47"/>
<path fill-rule="evenodd" clip-rule="evenodd" d="M5 16.1981C5 15.6458 5.44772 15.1981 6 15.1981H17.98C18.5323 15.1981 18.98 15.6458 18.98 16.1981C18.98 16.7504 18.5323 17.1981 17.98 17.1981H6C5.44772 17.1981 5 16.7504 5 16.1981Z" fill="#333D47"/>
</svg>
