<svg width="32" height="33" viewBox="0 0 32 33" fill="none" xmlns="http://www.w3.org/2000/svg">
<path fill-rule="evenodd" clip-rule="evenodd" d="M11.8904 7.94237C12.1418 8.43413 11.9469 9.03656 11.4552 9.28794C8.21481 10.9444 6 14.3135 6 18.1981C6 23.721 10.4772 28.1981 16 28.1981C21.5228 28.1981 26 23.721 26 18.1981C26 14.3135 23.7852 10.9444 20.5448 9.28794C20.0531 9.03656 19.8582 8.43413 20.1096 7.94237C20.361 7.45061 20.9634 7.25575 21.4552 7.50713C25.3382 9.4921 28 13.5334 28 18.1981C28 24.8255 22.6274 30.1981 16 30.1981C9.37258 30.1981 4 24.8255 4 18.1981C4 13.5334 6.66184 9.4921 10.5448 7.50713C11.0366 7.25575 11.639 7.45061 11.8904 7.94237Z" fill="#333D47"/>
<path fill-rule="evenodd" clip-rule="evenodd" d="M16 2.19812C16.5523 2.19812 17 2.64584 17 3.19812V15.1981C17 15.7504 16.5523 16.1981 16 16.1981C15.4477 16.1981 15 15.7504 15 15.1981V3.19812C15 2.64584 15.4477 2.19812 16 2.19812Z" fill="#333D47"/>
</svg>
