<svg width="32" height="33" viewBox="0 0 32 33" fill="none" xmlns="http://www.w3.org/2000/svg">
<path d="M12 20.1981C12 19.6458 12.4477 19.1981 13 19.1981L19 19.1981C19.5523 19.1981 20 19.6458 20 20.1981C20 20.7504 19.5523 21.1981 19 21.1981L13 21.1981C12.4477 21.1981 12 20.7504 12 20.1981Z" fill="#333D47"/>
<path d="M13 23.1981C12.4477 23.1981 12 23.6458 12 24.1981C12 24.7504 12.4477 25.1981 13 25.1981H16C16.5523 25.1981 17 24.7504 17 24.1981C17 23.6458 16.5523 23.1981 16 23.1981H13Z" fill="#333D47"/>
<path fill-rule="evenodd" clip-rule="evenodd" d="M8 6.19812C8 4.54127 9.34315 3.19812 11 3.19812H21C22.6569 3.19812 24 4.54127 24 6.19812V8.19812H26C27.6569 8.19812 29 9.54127 29 11.1981V20.1981C29 21.855 27.6569 23.1981 26 23.1981H24V28.1981C24 28.7504 23.5523 29.1981 23 29.1981H9C8.44772 29.1981 8 28.7504 8 28.1981V23.1981H6C4.34314 23.1981 3 21.855 3 20.1981V11.1981C3 9.54127 4.34315 8.19812 6 8.19812H8V6.19812ZM22 6.19812V8.19812H10V6.19812C10 5.64584 10.4477 5.19812 11 5.19812H21C21.5523 5.19812 22 5.64584 22 6.19812ZM22 17.1981H10V27.1981H22V17.1981ZM7 13.1981C7.55228 13.1981 8 12.7504 8 12.1981C8 11.6458 7.55228 11.1981 7 11.1981C6.44772 11.1981 6 11.6458 6 12.1981C6 12.7504 6.44772 13.1981 7 13.1981Z" fill="#333D47"/>
</svg>
