<svg width="32" height="33" viewBox="0 0 32 33" fill="none" xmlns="http://www.w3.org/2000/svg">
<path d="M8 12.1981C8 12.7504 7.55228 13.1981 7 13.1981C6.44772 13.1981 6 12.7504 6 12.1981C6 11.6458 6.44772 11.1981 7 11.1981C7.55228 11.1981 8 11.6458 8 12.1981Z" fill="#333D47"/>
<path d="M12 20.1981C12 19.6458 12.4477 19.1981 13 19.1981L19 19.1981C19.5523 19.1981 20 19.6458 20 20.1981C20 20.7504 19.5523 21.1981 19 21.1981L13 21.1981C12.4477 21.1981 12 20.7504 12 20.1981Z" fill="#333D47"/>
<path d="M13 23.1981C12.4477 23.1981 12 23.6458 12 24.1981C12 24.7504 12.4477 25.1981 13 25.1981H16C16.5523 25.1981 17 24.7504 17 24.1981C17 23.6458 16.5523 23.1981 16 23.1981H13Z" fill="#333D47"/>
<path fill-rule="evenodd" clip-rule="evenodd" d="M11 3.19812C9.34315 3.19812 8 4.54127 8 6.19812V8.19812H6C4.34315 8.19812 3 9.54127 3 11.1981V20.1981C3 21.855 4.34315 23.1981 6 23.1981H8V28.1981C8 28.7504 8.44772 29.1981 9 29.1981H23C23.5523 29.1981 24 28.7504 24 28.1981V23.1981H26C27.6569 23.1981 29 21.855 29 20.1981V11.1981C29 9.54127 27.6569 8.19812 26 8.19812H24V6.19812C24 4.54127 22.6569 3.19812 21 3.19812H11ZM24 21.1981H26C26.5523 21.1981 27 20.7504 27 20.1981V11.1981C27 10.6458 26.5523 10.1981 26 10.1981H6C5.44772 10.1981 5 10.6458 5 11.1981V20.1981C5 20.7504 5.44772 21.1981 6 21.1981H8V16.1981C8 15.6458 8.44772 15.1981 9 15.1981H23C23.5523 15.1981 24 15.6458 24 16.1981V21.1981ZM22 8.19812V6.19812C22 5.64584 21.5523 5.19812 21 5.19812H11C10.4477 5.19812 10 5.64584 10 6.19812V8.19812H22ZM10 27.1981V17.1981H22V27.1981H10Z" fill="#333D47"/>
</svg>
