<svg width="32" height="33" viewBox="0 0 32 33" fill="none" xmlns="http://www.w3.org/2000/svg">
<path fill-rule="evenodd" clip-rule="evenodd" d="M25 20.1981V24.1981C25 24.7504 24.5523 25.1981 24 25.1981H21V28.1981C21 28.7504 20.5523 29.1981 20 29.1981C19.4477 29.1981 19 28.7504 19 28.1981V24.1981C19 23.6458 19.4477 23.1981 20 23.1981H23V20.1981C23 19.6458 23.4477 19.1981 24 19.1981C24.5523 19.1981 25 19.6458 25 20.1981Z" fill="#333D47"/>
<path fill-rule="evenodd" clip-rule="evenodd" d="M28 21.1981C27.4477 21.1981 27 20.7504 27 20.1981V17.1981L16 17.1981C15.4477 17.1981 15 16.7504 15 16.1981C15 15.6458 15.4477 15.1981 16 15.1981L28 15.1981C28.5523 15.1981 29 15.6458 29 16.1981V20.1981C29 20.7504 28.5523 21.1981 28 21.1981Z" fill="#333D47"/>
<path fill-rule="evenodd" clip-rule="evenodd" d="M16 9.1981C16.5523 9.1981 17 9.64582 17 10.1981L17 16.1981C17 16.7504 16.5523 17.1981 16 17.1981C15.4477 17.1981 15 16.7504 15 16.1981V10.1981C15 9.64582 15.4477 9.1981 16 9.1981Z" fill="#333D47"/>
<path fill-rule="evenodd" clip-rule="evenodd" d="M16 3.19812C16.5523 3.19812 17 3.64584 17 4.19812V6.19812C17 6.7504 16.5523 7.19812 16 7.19812C15.4477 7.19812 15 6.7504 15 6.19812V4.19812C15 3.64584 15.4477 3.19812 16 3.19812Z" fill="#333D47"/>
<path fill-rule="evenodd" clip-rule="evenodd" d="M16 19.1981C16.5523 19.1981 17 19.6458 17 20.1981V28.1981C17 28.7504 16.5523 29.1981 16 29.1981C15.4477 29.1981 15 28.7504 15 28.1981V20.1981C15 19.6458 15.4477 19.1981 16 19.1981Z" fill="#333D47"/>
<path fill-rule="evenodd" clip-rule="evenodd" d="M23 28.1981C23 27.6458 23.4477 27.1981 24 27.1981H28C28.5523 27.1981 29 27.6458 29 28.1981C29 28.7504 28.5523 29.1981 28 29.1981H24C23.4477 29.1981 23 28.7504 23 28.1981Z" fill="#333D47"/>
<path fill-rule="evenodd" clip-rule="evenodd" d="M21 20.1981C21 20.7504 20.5523 21.1981 20 21.1981H16C15.4477 21.1981 15 20.7504 15 20.1981C15 19.6458 15.4477 19.1981 16 19.1981H20C20.5523 19.1981 21 19.6458 21 20.1981Z" fill="#333D47"/>
<path fill-rule="evenodd" clip-rule="evenodd" d="M5 5.19812V11.1981H11V5.19812H5ZM4 3.19812C3.44772 3.19812 3 3.64584 3 4.19812V12.1981C3 12.7504 3.44772 13.1981 4 13.1981H12C12.5523 13.1981 13 12.7504 13 12.1981V4.19812C13 3.64584 12.5523 3.19812 12 3.19812H4Z" fill="#333D47"/>
<path d="M6.5 7.19812C6.5 6.92198 6.72386 6.69812 7 6.69812H9C9.27614 6.69812 9.5 6.92198 9.5 7.19812V9.19812C9.5 9.47426 9.27614 9.69812 9 9.69812H7C6.72386 9.69812 6.5 9.47426 6.5 9.19812V7.19812Z" fill="#333D47"/>
<path d="M6.5 23.1981C6.5 22.922 6.72386 22.6981 7 22.6981H9C9.27614 22.6981 9.5 22.922 9.5 23.1981V25.1981C9.5 25.4743 9.27614 25.6981 9 25.6981H7C6.72386 25.6981 6.5 25.4743 6.5 25.1981V23.1981Z" fill="#333D47"/>
<path d="M22.5 7.19812C22.5 6.92198 22.7239 6.69812 23 6.69812H25C25.2761 6.69812 25.5 6.92198 25.5 7.19812V9.19812C25.5 9.47426 25.2761 9.69812 25 9.69812H23C22.7239 9.69812 22.5 9.47426 22.5 9.19812V7.19812Z" fill="#333D47"/>
<path fill-rule="evenodd" clip-rule="evenodd" d="M21 5.19812V11.1981H27V5.19812H21ZM20 3.19812C19.4477 3.19812 19 3.64584 19 4.19812V12.1981C19 12.7504 19.4477 13.1981 20 13.1981H28C28.5523 13.1981 29 12.7504 29 12.1981V4.19812C29 3.64584 28.5523 3.19812 28 3.19812H20Z" fill="#333D47"/>
<path fill-rule="evenodd" clip-rule="evenodd" d="M5 21.1981V27.1981H11V21.1981H5ZM4 19.1981C3.44772 19.1981 3 19.6458 3 20.1981V28.1981C3 28.7504 3.44772 29.1981 4 29.1981H12C12.5523 29.1981 13 28.7504 13 28.1981V20.1981C13 19.6458 12.5523 19.1981 12 19.1981H4Z" fill="#333D47"/>
<path fill-rule="evenodd" clip-rule="evenodd" d="M3 16.1981C3 15.6458 3.44772 15.1981 4 15.1981H8C8.55228 15.1981 9 15.6458 9 16.1981C9 16.7504 8.55228 17.1981 8 17.1981H4C3.44772 17.1981 3 16.7504 3 16.1981Z" fill="#333D47"/>
<path d="M27 23.6981C27 23.422 27.2239 23.1981 27.5 23.1981H28.5C28.7761 23.1981 29 23.422 29 23.6981V24.6981C29 24.9743 28.7761 25.1981 28.5 25.1981H27.5C27.2239 25.1981 27 24.9743 27 24.6981V23.6981Z" fill="#333D47"/>
<path d="M11 15.6981C11 15.422 11.2239 15.1981 11.5 15.1981H12.5C12.7761 15.1981 13 15.422 13 15.6981V16.6981C13 16.9743 12.7761 17.1981 12.5 17.1981H11.5C11.2239 17.1981 11 16.9743 11 16.6981V15.6981Z" fill="#333D47"/>
</svg>
