<svg width="32" height="33" viewBox="0 0 32 33" fill="none" xmlns="http://www.w3.org/2000/svg">
<path fill-rule="evenodd" clip-rule="evenodd" d="M30 15.9999C30 23.7319 23.732 29.9999 16 29.9999C8.26801 29.9999 2 23.7319 2 15.9999C2 8.26789 8.26801 1.99988 16 1.99988C23.732 1.99988 30 8.26789 30 15.9999ZM16 10.9999C14.8954 10.9999 14 11.8953 14 12.9999C14 13.5522 13.5523 13.9999 13 13.9999C12.4477 13.9999 12 13.5522 12 12.9999C12 10.7907 13.7909 8.99988 16 8.99988C18.2091 8.99988 20 10.7907 20 12.9999C20 14.8637 18.7252 16.4298 17 16.8739V17.9999C17 18.5522 16.5523 18.9999 16 18.9999C15.4477 18.9999 15 18.5522 15 17.9999V15.9999C15 15.4476 15.4477 14.9999 16 14.9999C17.1046 14.9999 18 14.1044 18 12.9999C18 11.8953 17.1046 10.9999 16 10.9999ZM16 22.9999C16.6904 22.9999 17.25 22.4402 17.25 21.7499C17.25 21.0595 16.6904 20.4999 16 20.4999C15.3096 20.4999 14.75 21.0595 14.75 21.7499C14.75 22.4402 15.3096 22.9999 16 22.9999Z" fill="#333D47"/>
</svg>
