<svg width="32" height="33" viewBox="0 0 32 33" fill="none" xmlns="http://www.w3.org/2000/svg">
<path fill-rule="evenodd" clip-rule="evenodd" d="M16 28.1981C22.6274 28.1981 28 22.8255 28 16.1981C28 9.5707 22.6274 4.19812 16 4.19812C9.37258 4.19812 4 9.5707 4 16.1981C4 22.8255 9.37258 28.1981 16 28.1981ZM16 30.1981C23.732 30.1981 30 23.9301 30 16.1981C30 8.46613 23.732 2.19812 16 2.19812C8.26801 2.19812 2 8.46613 2 16.1981C2 23.9301 8.26801 30.1981 16 30.1981Z" fill="#333D47"/>
<path fill-rule="evenodd" clip-rule="evenodd" d="M16 11.1981C14.8954 11.1981 14 12.0936 14 13.1981C14 13.7504 13.5523 14.1981 13 14.1981C12.4477 14.1981 12 13.7504 12 13.1981C12 10.989 13.7909 9.19812 16 9.19812C18.2091 9.19812 20 10.989 20 13.1981C20 15.062 18.7252 16.6281 17 17.0721V18.1981C17 18.7504 16.5523 19.1981 16 19.1981C15.4477 19.1981 15 18.7504 15 18.1981V16.1981C15 15.6458 15.4477 15.1981 16 15.1981C17.1046 15.1981 18 14.3027 18 13.1981C18 12.0936 17.1046 11.1981 16 11.1981Z" fill="#333D47"/>
<path d="M17.25 21.9481C17.25 22.6385 16.6904 23.1981 16 23.1981C15.3096 23.1981 14.75 22.6385 14.75 21.9481C14.75 21.2578 15.3096 20.6981 16 20.6981C16.6904 20.6981 17.25 21.2578 17.25 21.9481Z" fill="#333D47"/>
</svg>
