<svg width="32" height="33" viewBox="0 0 32 33" fill="none" xmlns="http://www.w3.org/2000/svg">
<path fill-rule="evenodd" clip-rule="evenodd" d="M29.4641 6.31234C29.1346 6.13972 28.7366 6.16422 28.4308 6.37593L15.4308 15.3759C15.161 15.5627 15 15.87 15 16.1981C15 16.5263 15.161 16.8335 15.4308 17.0203L28.4308 26.0203C28.7366 26.232 29.1346 26.2565 29.4641 26.0839C29.7936 25.9113 30 25.5701 30 25.1981V7.19812C30 6.82618 29.7936 6.48497 29.4641 6.31234ZM28 9.10669V23.2896L17.7568 16.1981L28 9.10669Z" fill="#333D47"/>
<path fill-rule="evenodd" clip-rule="evenodd" d="M16.4641 6.31234C16.1346 6.13972 15.7366 6.16422 15.4308 6.37593L2.43079 15.3759C2.16099 15.5627 2 15.87 2 16.1981C2 16.5263 2.16099 16.8335 2.43079 17.0203L15.4308 26.0203C15.7366 26.232 16.1346 26.2565 16.4641 26.0839C16.7936 25.9113 17 25.5701 17 25.1981V7.19812C17 6.82618 16.7936 6.48497 16.4641 6.31234ZM15 9.10669V23.2896L4.75682 16.1981L15 9.10669Z" fill="#333D47"/>
</svg>
