<svg width="32" height="33" viewBox="0 0 32 33" fill="none" xmlns="http://www.w3.org/2000/svg">
<path fill-rule="evenodd" clip-rule="evenodd" d="M26 3.19812C27.6569 3.19812 29 4.54127 29 6.19812V26.1981C29 27.855 27.6569 29.1981 26 29.1981H6C4.34315 29.1981 3 27.855 3 26.1981V11.0265C3 10.2309 3.31607 9.46784 3.87868 8.90523L8.70711 4.0768C9.26972 3.51419 10.0328 3.19812 10.8284 3.19812H26ZM9 19.1981C9 18.6458 9.44772 18.1981 10 18.1981H22C22.5523 18.1981 23 18.6458 23 19.1981V27.1981H9V19.1981ZM13 11.1981C12.4477 11.1981 12 10.7504 12 10.1981V5.19812H23V10.1981C23 10.7504 22.5523 11.1981 22 11.1981H13Z" fill="#333D47"/>
<path fill-rule="evenodd" clip-rule="evenodd" d="M20.9999 6.19812C21.5522 6.19812 21.9999 6.64584 21.9999 7.19812V9.19812C21.9999 9.7504 21.5522 10.1981 20.9999 10.1981C20.4476 10.1981 19.9999 9.7504 19.9999 9.19812V7.19812C19.9999 6.64584 20.4476 6.19812 20.9999 6.19812Z" fill="#333D47"/>
<path fill-rule="evenodd" clip-rule="evenodd" d="M10.9999 21.1981C10.9999 20.6458 11.4476 20.1981 11.9999 20.1981H15.9999C16.5522 20.1981 16.9999 20.6458 16.9999 21.1981C16.9999 21.7504 16.5522 22.1981 15.9999 22.1981H11.9999C11.4476 22.1981 10.9999 21.7504 10.9999 21.1981Z" fill="#333D47"/>
<path fill-rule="evenodd" clip-rule="evenodd" d="M10.9999 24.1981C10.9999 23.6458 11.4476 23.1981 11.9999 23.1981H19.9999C20.5522 23.1981 20.9999 23.6458 20.9999 24.1981C20.9999 24.7504 20.5522 25.1981 19.9999 25.1981H11.9999C11.4476 25.1981 10.9999 24.7504 10.9999 24.1981Z" fill="#333D47"/>
</svg>
