<svg width="32" height="33" viewBox="0 0 32 33" fill="none" xmlns="http://www.w3.org/2000/svg">
<path d="M22 7.19812C22 6.64584 21.5523 6.19812 21 6.19812C20.4477 6.19812 20 6.64584 20 7.19812V9.19812C20 9.7504 20.4477 10.1981 21 10.1981C21.5523 10.1981 22 9.7504 22 9.19812V7.19812Z" fill="#333D47"/>
<path d="M11 21.1981C11 20.6458 11.4477 20.1981 12 20.1981H16C16.5523 20.1981 17 20.6458 17 21.1981C17 21.7504 16.5523 22.1981 16 22.1981H12C11.4477 22.1981 11 21.7504 11 21.1981Z" fill="#333D47"/>
<path d="M12 23.1981C11.4477 23.1981 11 23.6458 11 24.1981C11 24.7504 11.4477 25.1981 12 25.1981H20C20.5523 25.1981 21 24.7504 21 24.1981C21 23.6458 20.5523 23.1981 20 23.1981H12Z" fill="#333D47"/>
<path fill-rule="evenodd" clip-rule="evenodd" d="M26 3.19812C27.6569 3.19812 29 4.54127 29 6.19812V26.1981C29 27.855 27.6569 29.1981 26 29.1981H6C4.34315 29.1981 3 27.855 3 26.1981V11.0265C3 10.2309 3.31607 9.46784 3.87868 8.90523L8.70711 4.0768C9.26972 3.51419 10.0328 3.19812 10.8284 3.19812H26ZM27 6.19812C27 5.64584 26.5523 5.19812 26 5.19812H25V10.1981C25 11.855 23.6569 13.1981 22 13.1981H13C11.3431 13.1981 10 11.855 10 10.1981V5.61233L5.29289 10.3194C5.10536 10.507 5 10.7613 5 11.0265V26.1981C5 26.7504 5.44772 27.1981 6 27.1981H7V19.1981C7 17.5413 8.34315 16.1981 10 16.1981H22C23.6569 16.1981 25 17.5413 25 19.1981V27.1981H26C26.5523 27.1981 27 26.7504 27 26.1981V6.19812ZM12 5.19812H23V10.1981C23 10.7504 22.5523 11.1981 22 11.1981H13C12.4477 11.1981 12 10.7504 12 10.1981V5.19812ZM9 27.1981H23V19.1981C23 18.6458 22.5523 18.1981 22 18.1981H10C9.44772 18.1981 9 18.6458 9 19.1981V27.1981Z" fill="#333D47"/>
</svg>
