<svg width="32" height="33" viewBox="0 0 32 33" fill="none" xmlns="http://www.w3.org/2000/svg">
<path fill-rule="evenodd" clip-rule="evenodd" d="M6 20.1981C6.55228 20.1981 7 20.6458 7 21.1981V24.1981C7 24.7504 7.44772 25.1981 8 25.1981H11C11.5523 25.1981 12 25.6458 12 26.1981C12 26.7504 11.5523 27.1981 11 27.1981H8C6.34315 27.1981 5 25.855 5 24.1981V21.1981C5 20.6458 5.44772 20.1981 6 20.1981Z" fill="#333D47"/>
<path fill-rule="evenodd" clip-rule="evenodd" d="M26 12.1981C25.4477 12.1981 25 11.7504 25 11.1981V8.19812C25 7.64584 24.5523 7.19812 24 7.19812H21C20.4477 7.19812 20 6.7504 20 6.19812C20 5.64584 20.4477 5.19812 21 5.19812H24C25.6569 5.19812 27 6.54127 27 8.19812V11.1981C27 11.7504 26.5523 12.1981 26 12.1981Z" fill="#333D47"/>
<path fill-rule="evenodd" clip-rule="evenodd" d="M12 6.19812C12 6.75041 11.5523 7.19812 11 7.19812L8 7.19812C7.44772 7.19812 7 7.64584 7 8.19812V11.1981C7 11.7504 6.55228 12.1981 6 12.1981C5.44772 12.1981 5 11.7504 5 11.1981L5 8.19812C5 6.54127 6.34315 5.19812 8 5.19812L11 5.19812C11.5523 5.19812 12 5.64584 12 6.19812Z" fill="#333D47"/>
<path fill-rule="evenodd" clip-rule="evenodd" d="M20 26.1981C20 25.6458 20.4477 25.1981 21 25.1981H24C24.5523 25.1981 25 24.7504 25 24.1981V21.1981C25 20.6458 25.4477 20.1981 26 20.1981C26.5523 20.1981 27 20.6458 27 21.1981V24.1981C27 25.855 25.6569 27.1981 24 27.1981H21C20.4477 27.1981 20 26.7504 20 26.1981Z" fill="#333D47"/>
<path fill-rule="evenodd" clip-rule="evenodd" d="M2 16.1981C2 15.6458 2.44772 15.1981 3 15.1981L29 15.1981C29.5523 15.1981 30 15.6458 30 16.1981C30 16.7504 29.5523 17.1981 29 17.1981L3 17.1981C2.44772 17.1981 2 16.7504 2 16.1981Z" fill="#333D47"/>
</svg>
