<svg width="32" height="33" viewBox="0 0 32 33" fill="none" xmlns="http://www.w3.org/2000/svg">
<path fill-rule="evenodd" clip-rule="evenodd" d="M3 8.19812C3 5.4367 5.23858 3.19812 8 3.19812C10.7614 3.19812 13 5.4367 13 8.19812C13 10.2523 11.7612 12.0172 9.9899 12.7865L13.9575 15.0469L27.505 7.32921C27.9849 7.05583 28.5955 7.22323 28.8689 7.70311C29.1423 8.18299 28.9749 8.79362 28.495 9.067L15.9777 16.1979L28.4948 23.3292C28.9747 23.6026 29.1421 24.2133 28.8687 24.6931C28.5953 25.173 27.9846 25.3404 27.5048 25.067L13.9575 17.3487L9.98915 19.6094C11.7608 20.3785 13 22.1436 13 24.1981C13 26.9595 10.7614 29.1981 8 29.1981C5.23858 29.1981 3 26.9595 3 24.1981C3 22.3447 4.0084 20.7269 5.50647 19.8633L5.505 19.8622L11.9374 16.1978L5.50477 12.533C4.00721 11.6693 3 10.0511 3 8.19812ZM8 5.19812C6.34315 5.19812 5 6.54127 5 8.19812C5 9.85497 6.34315 11.1981 8 11.1981C9.65685 11.1981 11 9.85497 11 8.19812C11 6.54127 9.65685 5.19812 8 5.19812ZM5 24.1981C5 22.5413 6.34315 21.1981 8 21.1981C9.65685 21.1981 11 22.5413 11 24.1981C11 25.855 9.65685 27.1981 8 27.1981C6.34315 27.1981 5 25.855 5 24.1981Z" fill="#333D47"/>
</svg>
