<svg width="32" height="33" viewBox="0 0 32 33" fill="none" xmlns="http://www.w3.org/2000/svg">
<path fill-rule="evenodd" clip-rule="evenodd" d="M13 4.19812C12.2044 4.19812 11.4413 4.51419 10.8787 5.0768C10.3161 5.63941 10 6.40247 10 7.19812V23.1981C10 23.7504 9.55228 24.1981 9 24.1981C8.44772 24.1981 8 23.7504 8 23.1981V7.19812C8 5.87204 8.52678 4.60027 9.46447 3.66259C10.4021 2.7249 11.6739 2.19812 13 2.19812H25.5C26.0523 2.19812 26.5 2.64584 26.5 3.19812C26.5 3.7504 26.0523 4.19812 25.5 4.19812H13Z" fill="#333D47"/>
<path fill-rule="evenodd" clip-rule="evenodd" d="M22 8.19812C22.5523 8.19812 23 8.64584 23 9.19812V25.1981C23 26.5242 22.4732 27.796 21.5355 28.7337C20.5979 29.6713 19.3261 30.1981 18 30.1981C17.4477 30.1981 17 29.7504 17 29.1981C17 28.6458 17.4477 28.1981 18 28.1981C18.7956 28.1981 19.5587 27.882 20.1213 27.3194C20.6839 26.7568 21 25.9938 21 25.1981V9.19812C21 8.64584 21.4477 8.19812 22 8.19812Z" fill="#333D47"/>
<path fill-rule="evenodd" clip-rule="evenodd" d="M2.58579 22.7839C2.96086 22.4088 3.46957 22.1981 4 22.1981H13C13.5304 22.1981 14.0391 22.4088 14.4142 22.7839C14.7893 23.159 15 23.6677 15 24.1981V25.1981C15 25.9938 15.3161 26.7568 15.8787 27.3194C16.4413 27.882 17.2044 28.1981 18 28.1981C18.5523 28.1981 19 28.6458 19 29.1981C19 29.7504 18.5523 30.1981 18 30.1981H7C5.67392 30.1981 4.40215 29.6713 3.46447 28.7337C2.52678 27.796 2 26.5242 2 25.1981V24.1981C2 23.6677 2.21071 23.159 2.58579 22.7839ZM14 28.1981C13.3547 27.3377 13 26.2862 13 25.1981V24.1981H4V25.1981C4 25.9938 4.31607 26.7568 4.87868 27.3194C5.44129 27.882 6.20435 28.1981 7 28.1981H14Z" fill="#333D47"/>
<path fill-rule="evenodd" clip-rule="evenodd" d="M25.5 4.19812C24.837 4.19812 24.2011 4.46151 23.7322 4.93035C23.2634 5.39919 23 6.03508 23 6.69812V8.19812H28V6.69812C28 6.03508 27.7366 5.39919 27.2678 4.93035C26.7989 4.46151 26.163 4.19812 25.5 4.19812ZM22.318 3.51614C23.1619 2.67223 24.3065 2.19812 25.5 2.19812C26.6935 2.19812 27.8381 2.67223 28.682 3.51614C29.5259 4.36005 30 5.50465 30 6.69812V8.19812C30 8.72855 29.7893 9.23726 29.4142 9.61233C29.0391 9.98741 28.5304 10.1981 28 10.1981H22C21.4477 10.1981 21 9.7504 21 9.19812V6.69812C21 5.50465 21.4741 4.36005 22.318 3.51614Z" fill="#333D47"/>
<path fill-rule="evenodd" clip-rule="evenodd" d="M13 10.1981C13 9.64584 13.4477 9.19812 14 9.19812H17C17.5523 9.19812 18 9.64584 18 10.1981C18 10.7504 17.5523 11.1981 17 11.1981H14C13.4477 11.1981 13 10.7504 13 10.1981Z" fill="#333D47"/>
<path fill-rule="evenodd" clip-rule="evenodd" d="M13 16.1981C13 15.6458 13.4477 15.1981 14 15.1981H17C17.5523 15.1981 18 15.6458 18 16.1981C18 16.7504 17.5523 17.1981 17 17.1981H14C13.4477 17.1981 13 16.7504 13 16.1981Z" fill="#333D47"/>
</svg>
