<svg width="32" height="33" viewBox="0 0 32 33" fill="none" xmlns="http://www.w3.org/2000/svg">
<path d="M18.707 11.491C19.0975 11.8815 19.0975 12.5146 18.707 12.9052L16.4141 15.198L18.7072 17.4911C19.0978 17.8816 19.0978 18.5148 18.7072 18.9053C18.3167 19.2958 17.6835 19.2958 17.293 18.9053L14.9999 16.6122L12.7068 18.9053C12.3163 19.2958 11.6831 19.2958 11.2926 18.9053C10.9021 18.5148 10.9021 17.8816 11.2926 17.4911L13.5857 15.198L11.2929 12.9052C10.9024 12.5146 10.9024 11.8815 11.2929 11.491C11.6834 11.1004 12.3166 11.1004 12.7071 11.491L14.9999 13.7838L17.2927 11.491C17.6833 11.1004 18.3164 11.1004 18.707 11.491Z" fill="#333D47"/>
<path fill-rule="evenodd" clip-rule="evenodd" d="M22.7489 24.3611C20.6582 26.1309 17.9537 27.1981 15 27.1981C8.37258 27.1981 3 21.8255 3 15.1981C3 8.5707 8.37258 3.19812 15 3.19812C21.6274 3.19812 27 8.5707 27 15.1981C27 18.1518 25.9329 20.8562 24.1631 22.9469L28.7072 27.491C29.0977 27.8815 29.0977 28.5147 28.7072 28.9052C28.3167 29.2957 27.6835 29.2957 27.293 28.9052L22.7489 24.3611ZM25 15.1981C25 20.721 20.5228 25.1981 15 25.1981C9.47715 25.1981 5 20.721 5 15.1981C5 9.67527 9.47715 5.19812 15 5.19812C20.5228 5.19812 25 9.67527 25 15.1981Z" fill="#333D47"/>
</svg>
