<svg width="32" height="33" viewBox="0 0 32 33" fill="none" xmlns="http://www.w3.org/2000/svg">
<path fill-rule="evenodd" clip-rule="evenodd" d="M2.3202 5.46478C2.59997 5.20542 3.00294 5.12785 3.35901 5.2648L29.359 15.2648C29.7452 15.4133 30 15.7844 30 16.1981C30 16.6119 29.7452 16.983 29.359 17.1315L3.35901 27.1315C3.00294 27.2684 2.59997 27.1909 2.3202 26.9315C2.04042 26.6721 1.93258 26.2762 2.04221 25.9108L4.956 16.1981L2.04221 6.48549C1.93258 6.12008 2.04042 5.72413 2.3202 5.46478ZM6.74406 17.1981L4.54359 24.5331L23.6144 17.1981H6.74406ZM23.6144 15.1981H6.74406L4.54359 7.86323L23.6144 15.1981Z" fill="#333D47"/>
</svg>
