<svg width="32" height="33" viewBox="0 0 32 33" fill="none" xmlns="http://www.w3.org/2000/svg">
<path fill-rule="evenodd" clip-rule="evenodd" d="M15.4615 2.19812H16.5385C17.728 2.19812 18.6923 3.16243 18.6923 4.35197V5.7696C19.679 6.0245 20.6113 6.41611 21.4677 6.92292L22.4727 5.91788C23.3139 5.07675 24.6776 5.07675 25.5187 5.91788L26.2802 6.67938C27.1214 7.5205 27.1214 8.88424 26.2802 9.72537L25.2752 10.7304C25.782 11.5869 26.1736 12.5192 26.4285 13.5058H27.8462C29.0357 13.5058 30 14.4701 30 15.6597V16.7366C30 17.9261 29.0357 18.8904 27.8462 18.8904H26.4284C26.1735 19.877 25.7819 20.8092 25.275 21.6656L26.2802 22.6709C27.1214 23.512 27.1214 24.8757 26.2802 25.7169L25.5187 26.4784C24.6776 27.3195 23.3139 27.3195 22.4727 26.4784L21.4675 25.4731C20.6111 25.98 19.6789 26.3716 18.6923 26.6265V28.0443C18.6923 29.2338 17.728 30.1981 16.5385 30.1981H15.4615C14.272 30.1981 13.3077 29.2338 13.3077 28.0443V26.6266C12.3211 26.3717 11.3888 25.9801 10.5323 25.4733L9.52725 26.4784C8.68613 27.3195 7.32239 27.3195 6.48126 26.4784L5.71976 25.7169C4.87863 24.8757 4.87863 23.512 5.71976 22.6709L6.7248 21.6658C6.21799 20.8094 5.82638 19.8771 5.57148 18.8904H4.15385C2.96431 18.8904 2 17.9261 2 16.7366V15.6597C2 14.4701 2.96431 13.5058 4.15385 13.5058H5.57141C5.82628 12.5191 6.21786 11.5867 6.72465 10.7303L5.71976 9.72537C4.87863 8.88424 4.87863 7.5205 5.71976 6.67937L6.48126 5.91787C7.32239 5.07675 8.68613 5.07675 9.52726 5.91787L10.5321 6.92277C11.3886 6.41598 12.321 6.0244 13.3077 5.76953V4.35197C13.3077 3.16243 14.272 2.19812 15.4615 2.19812ZM10 16.1981C10 12.8896 12.6914 10.1981 16 10.1981C19.3086 10.1981 22 12.8902 22 16.1981C22 19.5061 19.308 22.1981 16 22.1981C12.692 22.1981 10 19.5067 10 16.1981Z" fill="#333D47"/>
</svg>
