<svg width="32" height="33" viewBox="0 0 32 33" fill="none" xmlns="http://www.w3.org/2000/svg">
<path fill-rule="evenodd" clip-rule="evenodd" d="M12.5 5.19812C12.5 3.54127 13.8431 2.19812 15.5 2.19812H16.5C18.1569 2.19812 19.5 3.54127 19.5 5.19812V5.76897C19.9819 5.93109 20.4489 6.12567 20.8983 6.35006L21.3033 5.94507C22.4749 4.7735 24.3744 4.7735 25.5459 5.94507L26.253 6.65218C27.4246 7.82375 27.4246 9.72325 26.253 10.8948L25.848 11.2998C26.0724 11.7493 26.267 12.2162 26.4291 12.6981H27C28.6569 12.6981 30 14.0413 30 15.6981V16.6981C30 18.355 28.6569 19.6981 27 19.6981H26.429C26.2669 20.18 26.0723 20.6469 25.8479 21.0963L26.253 21.5014C27.4246 22.673 27.4246 24.5725 26.253 25.7441L25.5459 26.4512C24.3744 27.6227 22.4749 27.6227 21.3033 26.4512L20.8982 26.046C20.4488 26.2704 19.9818 26.465 19.5 26.6271V27.1981C19.5 28.855 18.1569 30.1981 16.5 30.1981H15.5C13.8431 30.1981 12.5 28.855 12.5 27.1981V26.6272C12.0181 26.4651 11.5512 26.2705 11.1017 26.0462L10.6967 26.4512C9.52513 27.6227 7.62563 27.6227 6.45406 26.4512L5.74695 25.7441C4.57538 24.5725 4.57538 22.673 5.74695 21.5014L6.15194 21.0964C5.92755 20.647 5.73297 20.18 5.57085 19.6981H5C3.34315 19.6981 2 18.355 2 16.6981L2 15.6981C2 14.0413 3.34315 12.6981 5 12.6981H5.57075C5.73286 12.2162 5.92743 11.7492 6.15182 11.2997L5.74695 10.8948C4.57538 9.72324 4.57538 7.82375 5.74695 6.65218L6.45406 5.94507C7.62563 4.7735 9.52513 4.7735 10.6967 5.94507L11.1016 6.34994C11.551 6.12555 12.0181 5.93098 12.5 5.76887V5.19812ZM15.5 4.19812C14.9477 4.19812 14.5 4.64584 14.5 5.19812V6.51443C14.5 6.9704 14.1916 7.36862 13.7501 7.48266C12.9264 7.6954 12.1478 8.02235 11.432 8.44591C11.039 8.67843 10.5385 8.61526 10.2156 8.2924L9.28249 7.35928C8.89196 6.96876 8.2588 6.96876 7.86827 7.35928L7.16117 8.06639C6.77064 8.45692 6.77064 9.09008 7.16117 9.4806L8.09428 10.4137C8.41714 10.7366 8.48031 11.2371 8.24779 11.6301C7.82423 12.3459 7.49728 13.1245 7.28453 13.9482C7.1705 14.3897 6.77228 14.6981 6.31631 14.6981H5C4.44772 14.6981 4 15.1458 4 15.6981V16.6981C4 17.2504 4.44772 17.6981 5 17.6981H6.31637C6.77232 17.6981 7.17054 18.0065 7.28459 18.448C7.49736 19.2716 7.82434 20.0502 8.24791 20.766C8.48045 21.1589 8.41729 21.6595 8.09442 21.9824L7.16117 22.9156C6.77064 23.3062 6.77064 23.9393 7.16117 24.3298L7.86827 25.037C8.2588 25.4275 8.89196 25.4275 9.28249 25.037L10.2158 24.1037C10.5386 23.7808 11.0392 23.7176 11.4321 23.9502C12.1479 24.3738 12.9266 24.7007 13.7501 24.9135C14.1916 25.0276 14.5 25.4258 14.5 25.8817V27.1981C14.5 27.7504 14.9477 28.1981 15.5 28.1981H16.5C17.0523 28.1981 17.5 27.7504 17.5 27.1981V25.8817C17.5 25.4257 17.8084 25.0275 18.2498 24.9135C19.0733 24.7007 19.8519 24.3737 20.5677 23.9501C20.9606 23.7175 21.4612 23.7807 21.7841 24.1035L22.7175 25.037C23.108 25.4275 23.7412 25.4275 24.1317 25.037L24.8388 24.3298C25.2294 23.9393 25.2294 23.3062 24.8388 22.9156L23.9054 21.9822C23.5825 21.6593 23.5194 21.1588 23.7519 20.7658C24.1755 20.05 24.5025 19.2715 24.7153 18.4479C24.8294 18.0065 25.2276 17.6981 25.6835 17.6981H27C27.5523 17.6981 28 17.2504 28 16.6981V15.6981C28 15.1458 27.5523 14.6981 27 14.6981H25.6836C25.2277 14.6981 24.8294 14.3897 24.7154 13.9483C24.5026 13.1247 24.1756 12.3461 23.7521 11.6303C23.5195 11.2373 23.5827 10.7368 23.9056 10.4139L24.8388 9.48061C25.2294 9.09008 25.2294 8.45692 24.8388 8.06639L24.1317 7.35929C23.7412 6.96876 23.108 6.96876 22.7175 7.35929L21.7843 8.29254C21.4614 8.61541 20.9608 8.67858 20.5679 8.44603C19.8521 8.02246 19.0735 7.69548 18.2499 7.48271C17.8084 7.36866 17.5 6.97044 17.5 6.51449V5.19812C17.5 4.64584 17.0523 4.19812 16.5 4.19812H15.5Z" fill="#333D47"/>
<path fill-rule="evenodd" clip-rule="evenodd" d="M9 16.1981C9 12.3373 12.1391 9.19812 16 9.19812C19.8609 9.19812 23 12.3379 23 16.1981C23 20.0584 19.8603 23.1981 16 23.1981C12.1398 23.1981 9 20.059 9 16.1981ZM16 11.1981C13.2437 11.1981 11 13.4418 11 16.1981C11 18.9543 13.2443 21.1981 16 21.1981C18.7557 21.1981 21 18.9538 21 16.1981C21 13.4424 18.7562 11.1981 16 11.1981Z" fill="#333D47"/>
</svg>
