<svg width="32" height="33" viewBox="0 0 32 33" fill="none" xmlns="http://www.w3.org/2000/svg">
<path fill-rule="evenodd" clip-rule="evenodd" d="M12 8.19812C12 10.062 10.7252 11.6281 9 12.0721V27.1981C9 27.7504 8.55228 28.1981 8 28.1981C7.44772 28.1981 7 27.7504 7 27.1981V12.0721C5.27477 11.6281 4 10.062 4 8.19812C4 5.98898 5.79086 4.19812 8 4.19812C10.2091 4.19812 12 5.98898 12 8.19812Z" fill="#333D47"/>
<path fill-rule="evenodd" clip-rule="evenodd" d="M17 20.0721C18.7252 19.6281 20 18.062 20 16.1981C20 14.3343 18.7252 12.7682 17 12.3241V5.19812C17 4.64584 16.5523 4.19812 16 4.19812C15.4477 4.19812 15 4.64584 15 5.19812V12.3241C13.2748 12.7682 12 14.3343 12 16.1981C12 18.062 13.2748 19.6281 15 20.0721V27.1981C15 27.7504 15.4477 28.1981 16 28.1981C16.5523 28.1981 17 27.7504 17 27.1981V20.0721Z" fill="#333D47"/>
<path fill-rule="evenodd" clip-rule="evenodd" d="M28 24.1981C28 26.4073 26.2091 28.1981 24 28.1981C21.7909 28.1981 20 26.4073 20 24.1981C20 22.3343 21.2748 20.7682 23 20.3241V5.19812C23 4.64584 23.4477 4.19812 24 4.19812C24.5523 4.19812 25 4.64584 25 5.19812V20.3241C26.7252 20.7682 28 22.3343 28 24.1981Z" fill="#333D47"/>
</svg>
