<svg width="32" height="33" viewBox="0 0 32 33" fill="none" xmlns="http://www.w3.org/2000/svg">
<path d="M17 20.1981C17 20.7504 17.4477 21.1981 18 21.1981C18.5523 21.1981 19 20.7504 19 20.1981C19 19.6458 18.5523 19.1981 18 19.1981C17.4477 19.1981 17 19.6458 17 20.1981Z" fill="#333D47"/>
<path d="M14 13.1981C13.4477 13.1981 13 12.7504 13 12.1981C13 11.6458 13.4477 11.1981 14 11.1981C14.5523 11.1981 15 11.6458 15 12.1981C15 12.7504 14.5523 13.1981 14 13.1981Z" fill="#333D47"/>
<path fill-rule="evenodd" clip-rule="evenodd" d="M6 3.19812C4.34315 3.19812 3 4.54127 3 6.19812V26.1981C3 27.855 4.34314 29.1981 6 29.1981H26C27.6569 29.1981 29 27.855 29 26.1981V6.19812C29 4.54127 27.6569 3.19812 26 3.19812H6ZM9 19.1981H15.1707C15.5825 18.0329 16.6938 17.1981 18 17.1981C19.3062 17.1981 20.4175 18.0329 20.8293 19.1981H23C23.5523 19.1981 24 19.6458 24 20.1981C24 20.7504 23.5523 21.1981 23 21.1981H20.8293C20.4175 22.3633 19.3062 23.1981 18 23.1981C16.6938 23.1981 15.5825 22.3633 15.1707 21.1981H9C8.44772 21.1981 8 20.7504 8 20.1981C8 19.6458 8.44772 19.1981 9 19.1981ZM11.1707 11.1981H9C8.44771 11.1981 8 11.6458 8 12.1981C8 12.7504 8.44771 13.1981 9 13.1981H11.1707C11.5825 14.3633 12.6938 15.1981 14 15.1981C15.3062 15.1981 16.4175 14.3633 16.8293 13.1981L23 13.1981C23.5523 13.1981 24 12.7504 24 12.1981C24 11.6458 23.5523 11.1981 23 11.1981L16.8293 11.1981C16.4175 10.0329 15.3062 9.19812 14 9.19812C12.6938 9.19812 11.5825 10.0329 11.1707 11.1981Z" fill="#333D47"/>
</svg>
