<svg width="32" height="33" viewBox="0 0 32 33" fill="none" xmlns="http://www.w3.org/2000/svg">
<path fill-rule="evenodd" clip-rule="evenodd" d="M24 13.1981C26.7614 13.1981 29 10.9595 29 8.19812C29 5.4367 26.7614 3.19812 24 3.19812C21.2386 3.19812 19 5.4367 19 8.19812C19 8.64665 19.0591 9.08139 19.1698 9.49498L11.9347 13.1126C11.0193 11.9469 9.59708 11.1981 8 11.1981C5.23858 11.1981 3 13.4367 3 16.1981C3 18.9595 5.23858 21.1981 8 21.1981C9.59707 21.1981 11.0192 20.4493 11.9346 19.2837L19.1698 22.9013C19.0591 23.3149 19 23.7496 19 24.1981C19 26.9595 21.2386 29.1981 24 29.1981C26.7614 29.1981 29 26.9595 29 24.1981C29 21.4367 26.7614 19.1981 24 19.1981C22.4028 19.1981 20.9805 19.947 20.0651 21.1129L12.8301 17.4953C12.9409 17.0816 13 16.6468 13 16.1981C13 15.7495 12.9409 15.3146 12.8301 14.9009L20.0651 11.2834C20.9805 12.4492 22.4028 13.1981 24 13.1981ZM27 8.19812C27 9.85497 25.6569 11.1981 24 11.1981C22.3431 11.1981 21 9.85497 21 8.19812C21 6.54127 22.3431 5.19812 24 5.19812C25.6569 5.19812 27 6.54127 27 8.19812ZM27 24.1981C27 25.855 25.6569 27.1981 24 27.1981C22.3431 27.1981 21 25.855 21 24.1981C21 22.5413 22.3431 21.1981 24 21.1981C25.6569 21.1981 27 22.5413 27 24.1981ZM11 16.1981C11 17.855 9.65685 19.1981 8 19.1981C6.34315 19.1981 5 17.855 5 16.1981C5 14.5413 6.34315 13.1981 8 13.1981C9.65685 13.1981 11 14.5413 11 16.1981Z" fill="#333D47"/>
</svg>
