<svg width="32" height="33" viewBox="0 0 32 33" fill="none" xmlns="http://www.w3.org/2000/svg">
<path fill-rule="evenodd" clip-rule="evenodd" d="M4.45867 5.35547C4.99051 4.97664 9.12384 2.19812 16 2.19812C22.8762 2.19812 27.0095 4.97664 27.5413 5.35547C27.8563 5.5798 28 5.92637 28 6.24812V13.1981C28 19.8458 25.2448 24.0665 22.3812 26.6299C19.5476 29.1664 16.6428 30.0536 16.2991 30.1527C16.2454 30.1682 16.138 30.1956 16 30.1956C15.862 30.1956 15.7545 30.1682 15.7009 30.1527C15.3571 30.0536 12.4524 29.1664 9.6188 26.6298C6.75524 24.0665 4 19.8458 4 13.1981V6.24812C4 5.92636 4.14374 5.57979 4.45867 5.35547ZM6 6.73532V13.1981C6 19.2128 8.46276 22.9108 10.9527 25.1397C13.0818 27.0455 15.2569 27.8969 16 28.1496C16.7431 27.8969 18.9182 27.0455 21.0473 25.1397C23.5372 22.9108 26 19.2128 26 13.1981V6.73532C24.8629 6.03616 21.3633 4.19812 16 4.19812C10.6367 4.19812 7.13709 6.03616 6 6.73532Z" fill="#333D47"/>
</svg>
