<svg width="32" height="33" viewBox="0 0 32 33" fill="none" xmlns="http://www.w3.org/2000/svg">
<path fill-rule="evenodd" clip-rule="evenodd" d="M26.6729 5.52496C26.235 5.08706 25.525 5.08706 25.0871 5.52496L14.3725 16.2181L13.8439 18.3325L15.9583 17.8039L26.6729 7.11075C27.1108 6.67285 27.1108 5.96287 26.6729 5.52496ZM23.6729 4.11075C24.8918 2.89179 26.8682 2.8918 28.0871 4.11075C29.3061 5.3297 29.3061 7.30601 28.0871 8.52496L17.1766 19.414C17.0485 19.5421 16.8879 19.633 16.7121 19.677L12.7121 20.677C12.3713 20.7622 12.0108 20.6623 11.7624 20.414C11.5141 20.1656 11.4142 19.8051 11.4994 19.4643L12.4994 15.4643C12.5434 15.2885 12.6343 15.1279 12.7624 14.9998L23.6729 4.11075Z" fill="#333D47"/>
<path fill-rule="evenodd" clip-rule="evenodd" d="M3 27.9998C3 27.4475 3.44772 26.9998 4 26.9998H16C16.5523 26.9998 17 27.4475 17 27.9998C17 28.552 16.5523 28.9998 16 28.9998H4C3.44772 28.9998 3 28.552 3 27.9998Z" fill="#333D47"/>
<path fill-rule="evenodd" clip-rule="evenodd" d="M12 27.9998C12 27.4475 12.4477 26.9998 13 26.9998H25C25.5523 26.9998 26 27.4475 26 27.9998C26 28.552 25.5523 28.9998 25 28.9998H13C12.4477 28.9998 12 28.552 12 27.9998Z" fill="#333D47"/>
</svg>
