<svg width="32" height="33" viewBox="0 0 32 33" fill="none" xmlns="http://www.w3.org/2000/svg">
<path fill-rule="evenodd" clip-rule="evenodd" d="M28.4719 3.31645C28.1467 3.14243 27.7522 3.1615 27.4453 3.36607L9.4453 15.3661C9.1671 15.5515 9 15.8638 9 16.1981C9 16.5325 9.1671 16.8447 9.4453 17.0302L27.4453 29.0302C27.7522 29.2347 28.1467 29.2538 28.4719 29.0798C28.797 28.9058 29 28.5669 29 28.1981V4.19812C29 3.82933 28.797 3.49047 28.4719 3.31645Z" fill="#333D47"/>
<path fill-rule="evenodd" clip-rule="evenodd" d="M4 3.19812C4.55228 3.19812 5 3.64584 5 4.19812V28.1981C5 28.7504 4.55228 29.1981 4 29.1981C3.44772 29.1981 3 28.7504 3 28.1981V4.19812C3 3.64584 3.44772 3.19812 4 3.19812Z" fill="#333D47"/>
</svg>
