<svg width="32" height="33" viewBox="0 0 32 33" fill="none" xmlns="http://www.w3.org/2000/svg">
<path fill-rule="evenodd" clip-rule="evenodd" d="M3.52814 3.31645C3.8533 3.14243 4.24784 3.1615 4.5547 3.36607L22.5547 15.3661C22.8329 15.5515 23 15.8638 23 16.1981C23 16.5325 22.8329 16.8447 22.5547 17.0302L4.5547 29.0302C4.24784 29.2347 3.8533 29.2538 3.52814 29.0798C3.20298 28.9058 3 28.5669 3 28.1981V4.19812C3 3.82933 3.20298 3.49047 3.52814 3.31645ZM5 6.06664V26.3296L20.1972 16.1981L5 6.06664Z" fill="#333D47"/>
<path fill-rule="evenodd" clip-rule="evenodd" d="M28 3.19812C28.5523 3.19812 29 3.64584 29 4.19812V28.1981C29 28.7504 28.5523 29.1981 28 29.1981C27.4477 29.1981 27 28.7504 27 28.1981V4.19812C27 3.64584 27.4477 3.19812 28 3.19812Z" fill="#333D47"/>
</svg>
