<svg width="32" height="33" viewBox="0 0 32 33" fill="none" xmlns="http://www.w3.org/2000/svg">
<path fill-rule="evenodd" clip-rule="evenodd" d="M14.2928 4.80744C14.5938 4.14156 15.2507 3.69812 16.0007 3.69812C16.7521 3.69812 17.4285 4.15458 17.7178 4.83832L17.7187 4.84027L20.4288 11.1967L27.2941 11.809L27.2973 11.8093C28.0513 11.8738 28.6847 12.3936 28.9112 13.0977C29.1432 13.8189 28.9046 14.5758 28.4048 15.059C28.3935 15.07 28.3818 15.0808 28.3699 15.0912L25.6602 17.4733C25.2454 17.838 24.6135 17.7973 24.2489 17.3825C23.8842 16.9677 23.9249 16.3358 24.3397 15.9712L26.8367 13.7762L19.6549 13.1356C19.2878 13.1029 18.9684 12.8708 18.8239 12.5318L15.9987 5.90569L13.1777 12.5313C13.0333 12.8706 12.7138 13.1029 12.3465 13.1356L5.17201 13.7755L10.5906 18.6027C10.8624 18.8449 10.9812 19.2156 10.9007 19.5706L9.31681 26.5529L13.4858 24.0537C13.9595 23.7697 14.5737 23.9235 14.8576 24.3972C15.1416 24.8709 14.9878 25.4851 14.5141 25.7691L10.065 28.4363C9.42384 28.8107 8.6206 28.7687 8.0219 28.3328C7.42018 27.8946 7.1344 27.1324 7.29943 26.4056L8.81969 19.7036L3.62522 15.0761C3.06672 14.5768 2.86553 13.796 3.09019 13.0977L3.09563 13.0813C3.33232 12.387 3.94467 11.8742 4.70407 11.8093L4.70723 11.809L11.5722 11.1967L14.284 4.82757L14.2928 4.80744Z" fill="#333D47"/>
<path fill-rule="evenodd" clip-rule="evenodd" d="M21.9999 18.6981C22.5522 18.6981 22.9999 19.1458 22.9999 19.6981V27.6981C22.9999 28.2504 22.5522 28.6981 21.9999 28.6981C21.4477 28.6981 20.9999 28.2504 20.9999 27.6981V19.6981C20.9999 19.1458 21.4477 18.6981 21.9999 18.6981Z" fill="#333D47"/>
<path fill-rule="evenodd" clip-rule="evenodd" d="M26.9999 23.6981C26.9999 24.2504 26.5522 24.6981 25.9999 24.6981H17.9999C17.4477 24.6981 16.9999 24.2504 16.9999 23.6981C16.9999 23.1458 17.4477 22.6981 17.9999 22.6981H25.9999C26.5522 22.6981 26.9999 23.1458 26.9999 23.6981Z" fill="#333D47"/>
</svg>
