<svg width="32" height="33" viewBox="0 0 32 33" fill="none" xmlns="http://www.w3.org/2000/svg">
<path fill-rule="evenodd" clip-rule="evenodd" d="M14.2928 4.80744C14.5938 4.14156 15.2507 3.69812 16.0007 3.69812C16.7521 3.69812 17.4285 4.15458 17.7178 4.83832L17.7187 4.84027L20.4288 11.1967L27.2941 11.809L27.2973 11.8093C28.0513 11.8738 28.6847 12.3936 28.9112 13.0977C29.1432 13.8189 28.9046 14.5758 28.4048 15.059C28.3935 15.07 28.3818 15.0808 28.3699 15.0912L23.1728 19.6599L24.7018 26.4148C24.8667 27.1415 24.5811 27.9043 23.9795 28.3424C23.9758 28.3451 23.9722 28.3477 23.9685 28.3503C23.9655 28.3524 23.9625 28.3545 23.9595 28.3566C23.6534 28.5682 23.2847 28.6981 22.8821 28.6981C22.523 28.6981 22.1993 28.5873 21.9424 28.4397L21.9265 28.4303L16.0007 24.8779L10.065 28.4363C9.42384 28.8107 8.6206 28.7687 8.0219 28.3328C7.42018 27.8946 7.1344 27.1324 7.29943 26.4056L8.81969 19.7036L3.62522 15.0761C3.06672 14.5768 2.86553 13.796 3.09019 13.0977L3.09563 13.0813C3.33232 12.387 3.94467 11.8742 4.70407 11.8093L4.70723 11.809L11.5722 11.1967L14.284 4.82757L14.2928 4.80744Z" fill="#333D47"/>
</svg>
