<svg width="32" height="33" viewBox="0 0 32 33" fill="none" xmlns="http://www.w3.org/2000/svg">
<path fill-rule="evenodd" clip-rule="evenodd" d="M24 18.1981C24 22.6164 20.4183 26.1981 16 26.1981C11.5817 26.1981 8 22.6164 8 18.1981C8 13.7798 11.5817 10.1981 16 10.1981C20.4183 10.1981 24 13.7798 24 18.1981ZM13.7071 14.491L16.7071 17.491C17.0976 17.8815 17.0976 18.5147 16.7071 18.9052C16.3166 19.2958 15.6834 19.2958 15.2929 18.9052L12.2929 15.9052C11.9024 15.5147 11.9024 14.8815 12.2929 14.491C12.6834 14.1005 13.3166 14.1005 13.7071 14.491Z" fill="#333D47"/>
<path fill-rule="evenodd" clip-rule="evenodd" d="M12 3.19812C12 2.64584 12.4477 2.19812 13 2.19812H19C19.5523 2.19812 20 2.64584 20 3.19812C20 3.7504 19.5523 4.19812 19 4.19812H17V6.23919C19.5624 6.45059 21.8966 7.46707 23.7489 9.03511L24.5858 8.19817L24.2929 7.90523C23.9024 7.5147 23.9024 6.88154 24.2929 6.49101C24.6834 6.10049 25.3166 6.10049 25.7071 6.49101L27.7071 8.49101C28.0976 8.88154 28.0976 9.5147 27.7071 9.90523C27.3166 10.2958 26.6834 10.2958 26.2929 9.90523L26 9.61238L25.1631 10.4493C26.9329 12.54 28 15.2444 28 18.1981C28 24.8255 22.6274 30.1981 16 30.1981C9.37258 30.1981 4 24.8255 4 18.1981C4 11.9075 8.84047 6.74734 15 6.23919V4.19812H13C12.4477 4.19812 12 3.7504 12 3.19812ZM26 18.1981C26 23.721 21.5228 28.1981 16 28.1981C10.4772 28.1981 6 23.721 6 18.1981C6 12.6753 10.4772 8.19812 16 8.19812C21.5228 8.19812 26 12.6753 26 18.1981Z" fill="#333D47"/>
</svg>
