<svg width="32" height="33" viewBox="0 0 32 33" fill="none" xmlns="http://www.w3.org/2000/svg">
<path d="M12.7071 13.491L16.7071 17.491C17.0976 17.8815 17.0976 18.5147 16.7071 18.9052C16.3166 19.2958 15.6834 19.2958 15.2929 18.9052L11.2929 14.9052C10.9024 14.5147 10.9024 13.8815 11.2929 13.491C11.6834 13.1005 12.3166 13.1005 12.7071 13.491Z" fill="#333D47"/>
<path fill-rule="evenodd" clip-rule="evenodd" d="M13 2.19812C12.4477 2.19812 12 2.64584 12 3.19812C12 3.7504 12.4477 4.19812 13 4.19812H15V6.23919C8.84047 6.74734 4 11.9075 4 18.1981C4 24.8255 9.37258 30.1981 16 30.1981C22.6274 30.1981 28 24.8255 28 18.1981C28 15.2444 26.9329 12.54 25.1631 10.4493L26 9.61238L26.2929 9.90523C26.6834 10.2958 27.3166 10.2958 27.7071 9.90523C28.0976 9.5147 28.0976 8.88154 27.7071 8.49101L25.7071 6.49101C25.3166 6.10049 24.6834 6.10049 24.2929 6.49101C23.9024 6.88154 23.9024 7.5147 24.2929 7.90523L24.5858 8.19817L23.7489 9.03511C21.8966 7.46707 19.5624 6.45059 17 6.23919V4.19812H19C19.5523 4.19812 20 3.7504 20 3.19812C20 2.64584 19.5523 2.19812 19 2.19812H13ZM26 18.1981C26 23.721 21.5228 28.1981 16 28.1981C10.4772 28.1981 6 23.721 6 18.1981C6 12.6753 10.4772 8.19812 16 8.19812C21.5228 8.19812 26 12.6753 26 18.1981Z" fill="#333D47"/>
</svg>
