<svg width="32" height="33" viewBox="0 0 32 33" fill="none" xmlns="http://www.w3.org/2000/svg">
<path fill-rule="evenodd" clip-rule="evenodd" d="M25 5.19812H7C5.89543 5.19812 5 6.09355 5 7.19812V25.1981C5 26.3027 5.89543 27.1981 7 27.1981H25C26.1046 27.1981 27 26.3027 27 25.1981V7.19812C27 6.09355 26.1046 5.19812 25 5.19812ZM7 3.19812C4.79086 3.19812 3 4.98898 3 7.19812V25.1981C3 27.4073 4.79086 29.1981 7 29.1981H25C27.2091 29.1981 29 27.4073 29 25.1981V7.19812C29 4.98898 27.2091 3.19812 25 3.19812H7Z" fill="#333D47"/>
</svg>
