<svg width="32" height="33" viewBox="0 0 32 33" fill="none" xmlns="http://www.w3.org/2000/svg">
<path fill-rule="evenodd" clip-rule="evenodd" d="M6 3.19812C4.34315 3.19812 3 4.54127 3 6.19812V26.1981C3 27.855 4.34315 29.1981 6 29.1981H26C27.6569 29.1981 29 27.855 29 26.1981V6.19812C29 4.54127 27.6569 3.19812 26 3.19812H6ZM15 5.19812H6C5.44772 5.19812 5 5.64584 5 6.19812V15.1981H15V5.19812ZM17 5.19812V15.1981H27V6.19812C27 5.64584 26.5523 5.19812 26 5.19812H17ZM15 17.1981H5V26.1981C5 26.7504 5.44772 27.1981 6 27.1981H15V17.1981ZM17 27.1981V17.1981H27V26.1981C27 26.7504 26.5523 27.1981 26 27.1981H17Z" fill="#333D47"/>
</svg>
