<svg width="32" height="33" viewBox="0 0 32 33" fill="none" xmlns="http://www.w3.org/2000/svg">
<path fill-rule="evenodd" clip-rule="evenodd" d="M16 2.19812C16.5523 2.19812 17 2.64584 17 3.19812V6.2475C21.7244 6.71656 25.4816 10.4737 25.9506 15.1981H29C29.5523 15.1981 30 15.6458 30 16.1981C30 16.7504 29.5523 17.1981 29 17.1981H25.9506C25.4816 21.9225 21.7244 25.6797 17 26.1487V29.1981C17 29.7504 16.5523 30.1981 16 30.1981C15.4477 30.1981 15 29.7504 15 29.1981V26.1487C10.2756 25.6797 6.51844 21.9225 6.04938 17.1981H3C2.44771 17.1981 2 16.7504 2 16.1981C2 15.6458 2.44771 15.1981 3 15.1981H6.04938C6.51844 10.4737 10.2756 6.71656 15 6.2475V3.19812C15 2.64584 15.4477 2.19812 16 2.19812ZM8.06189 17.1981H11C11.5523 17.1981 12 16.7504 12 16.1981C12 15.6458 11.5523 15.1981 11 15.1981H8.06189C8.51314 11.5794 11.3813 8.71126 15 8.26001V11.1981C15 11.7504 15.4477 12.1981 16 12.1981C16.5523 12.1981 17 11.7504 17 11.1981V8.26001C20.6187 8.71126 23.4869 11.5794 23.9381 15.1981H21C20.4477 15.1981 20 15.6458 20 16.1981C20 16.7504 20.4477 17.1981 21 17.1981H23.9381C23.4869 20.8168 20.6187 23.685 17 24.1362V21.1981C17 20.6458 16.5523 20.1981 16 20.1981C15.4477 20.1981 15 20.6458 15 21.1981V24.1362C11.3813 23.685 8.51314 20.8168 8.06189 17.1981Z" fill="#333D47"/>
</svg>
