<svg width="32" height="33" viewBox="0 0 32 33" fill="none" xmlns="http://www.w3.org/2000/svg">
<path fill-rule="evenodd" clip-rule="evenodd" d="M27 9.19812H21.917C21.441 6.36041 18.973 4.19812 16 4.19812C13.027 4.19812 10.559 6.36041 10.083 9.19812H5C3.34315 9.19812 2 10.5413 2 12.1981V16.1981H13C13 14.5413 14.3431 13.1981 16 13.1981C17.6569 13.1981 19 14.5413 19 16.1981H30V12.1981C30 10.5413 28.6569 9.19812 27 9.19812ZM16 6.19812C17.8638 6.19812 19.4299 7.47289 19.874 9.19812H12.126C12.5701 7.47289 14.1362 6.19812 16 6.19812Z" fill="#333D47"/>
<path d="M30 18.1981H19C19 19.855 17.6569 21.1981 16 21.1981C14.3431 21.1981 13 19.855 13 18.1981H2V25.1981C2 26.855 3.34315 28.1981 5 28.1981H27C28.6569 28.1981 30 26.855 30 25.1981V18.1981Z" fill="#333D47"/>
<path d="M15 16.1981C15 15.6458 15.4477 15.1981 16 15.1981C16.5523 15.1981 17 15.6458 17 16.1981V18.1981C17 18.7504 16.5523 19.1981 16 19.1981C15.4477 19.1981 15 18.7504 15 18.1981V16.1981Z" fill="#333D47"/>
</svg>
