<svg width="32" height="33" viewBox="0 0 32 33" fill="none" xmlns="http://www.w3.org/2000/svg">
<path d="M16 4.19812C11.0294 4.19812 7 8.22756 7 13.1981C7 13.7504 6.55228 14.1981 6 14.1981C5.44772 14.1981 5 13.7504 5 13.1981C5 7.12299 9.92487 2.19812 16 2.19812C18.0019 2.19812 19.8818 2.73381 21.5007 3.67034C21.9788 3.94688 22.1421 4.55861 21.8656 5.03667C21.5891 5.51473 20.9773 5.67809 20.4993 5.40155C19.1765 4.63637 17.641 4.19812 16 4.19812Z" fill="#333D47"/>
<path d="M23.4002 6.39855C23.8417 6.06686 24.4686 6.15595 24.8003 6.59754C26.1813 8.43609 27 10.7229 27 13.1981V23.1981C27 23.7504 26.5523 24.1981 26 24.1981C25.4477 24.1981 25 23.7504 25 23.1981V13.1981C25 11.1709 24.3309 9.30279 23.2012 7.7987C22.8695 7.35711 22.9586 6.73024 23.4002 6.39855Z" fill="#333D47"/>
<path d="M22 22.1981C22.5523 22.1981 23 22.6458 23 23.1981V27.1981C23 27.7504 22.5523 28.1981 22 28.1981C21.4477 28.1981 21 27.7504 21 27.1981V23.1981C21 22.6458 21.4477 22.1981 22 22.1981Z" fill="#333D47"/>
<path d="M7 17.1981C7 16.6458 6.55228 16.1981 6 16.1981C5.44772 16.1981 5 16.6458 5 17.1981V23.1981C5 23.7504 5.44772 24.1981 6 24.1981C6.55229 24.1981 7 23.7504 7 23.1981L7 17.1981Z" fill="#333D47"/>
<path d="M14 19.1981C14.5523 19.1981 15 19.6458 15 20.1981V29.1981C15 29.7504 14.5523 30.1981 14 30.1981C13.4477 30.1981 13 29.7504 13 29.1981V20.1981C13 19.6458 13.4477 19.1981 14 19.1981Z" fill="#333D47"/>
<path d="M17 13.1981L17 29.1981C17 29.7504 17.4477 30.1981 18 30.1981C18.5523 30.1981 19 29.7504 19 29.1981L19 13.1981C19 11.5413 17.6569 10.1981 16 10.1981C14.3431 10.1981 13 11.5413 13 13.1981V16.1981C13 16.7504 13.4477 17.1981 14 17.1981C14.5523 17.1981 15 16.7504 15 16.1981V13.1981C15 12.6458 15.4477 12.1981 16 12.1981C16.5523 12.1981 17 12.6458 17 13.1981Z" fill="#333D47"/>
<path d="M9 27.1981L9 13.1981C9 9.33213 12.134 6.19812 16 6.19812C19.866 6.19812 23 9.33213 23 13.1981V19.1981C23 19.7504 22.5523 20.1981 22 20.1981C21.4477 20.1981 21 19.7504 21 19.1981V13.1981C21 10.4367 18.7614 8.19812 16 8.19812C13.2386 8.19812 11 10.4367 11 13.1981L11 27.1981C11 27.7504 10.5523 28.1981 10 28.1981C9.44772 28.1981 9 27.7504 9 27.1981Z" fill="#333D47"/>
</svg>
