<svg width="32" height="33" viewBox="0 0 32 33" fill="none" xmlns="http://www.w3.org/2000/svg">
<path d="M7.51472 7.71284C2.82843 12.3991 2.82843 19.9971 7.51472 24.6834C7.90524 25.0739 7.90524 25.7071 7.51472 26.0976C7.12419 26.4881 6.49103 26.4881 6.1005 26.0976C0.633165 20.6303 0.633165 11.766 6.1005 6.29863C6.49103 5.90811 7.12419 5.90811 7.51472 6.29863C7.90524 6.68915 7.90524 7.32232 7.51472 7.71284Z" fill="#333D47"/>
<path d="M24.4853 6.29863C24.8758 5.90811 25.509 5.90811 25.8995 6.29863C31.3668 11.766 31.3668 20.6303 25.8995 26.0976C25.509 26.4881 24.8758 26.4881 24.4853 26.0976C24.0948 25.7071 24.0948 25.0739 24.4853 24.6834C29.1716 19.9971 29.1716 12.3991 24.4853 7.71284C24.0948 7.32232 24.0948 6.68915 24.4853 6.29863Z" fill="#333D47"/>
<path d="M11.0502 11.2484C8.31656 13.982 8.31656 18.4142 11.0502 21.1479C11.4408 21.5384 11.4408 22.1716 11.0502 22.5621C10.6597 22.9526 10.0265 22.9526 9.63602 22.5621C6.1213 19.0474 6.1213 13.3489 9.63602 9.83416C10.0265 9.44364 10.6597 9.44364 11.0502 9.83416C11.4408 10.2247 11.4408 10.8579 11.0502 11.2484Z" fill="#333D47"/>
<path d="M20.9497 9.83416C21.3402 9.44364 21.9734 9.44364 22.3639 9.83416C25.8787 13.3489 25.8787 19.0474 22.3639 22.5621C21.9734 22.9526 21.3402 22.9526 20.9497 22.5621C20.5592 22.1716 20.5592 21.5384 20.9497 21.1479C23.6834 18.4142 23.6834 13.982 20.9497 11.2484C20.5592 10.8579 20.5592 10.2247 20.9497 9.83416Z" fill="#333D47"/>
<path fill-rule="evenodd" clip-rule="evenodd" d="M16 12.1981C13.7909 12.1981 12 13.989 12 16.1981C12 18.062 13.2748 19.6281 15 20.0721V27.1981C15 27.7504 15.4477 28.1981 16 28.1981C16.5523 28.1981 17 27.7504 17 27.1981V20.0721C18.7252 19.6281 20 18.062 20 16.1981C20 13.989 18.2091 12.1981 16 12.1981ZM14 16.1981C14 15.0936 14.8954 14.1981 16 14.1981C17.1046 14.1981 18 15.0936 18 16.1981C18 17.3027 17.1046 18.1981 16 18.1981C14.8954 18.1981 14 17.3027 14 16.1981Z" fill="#333D47"/>
</svg>
