<svg width="32" height="33" viewBox="0 0 32 33" fill="none" xmlns="http://www.w3.org/2000/svg">
<path fill-rule="evenodd" clip-rule="evenodd" d="M16 2.19812C12.134 2.19812 9 5.33213 9 9.19812V12.1981H7C5.34315 12.1981 4 13.5413 4 15.1981V27.1981C4 28.855 5.34315 30.1981 7 30.1981H25C26.6569 30.1981 28 28.855 28 27.1981V15.1981C28 13.5413 26.6569 12.1981 25 12.1981H11V9.19812C11 6.4367 13.2386 4.19812 16 4.19812C18.7614 4.19812 21 6.4367 21 9.19812H23C23 5.33213 19.866 2.19812 16 2.19812Z" fill="#333D47"/>
</svg>
