<svg width="32" height="33" viewBox="0 0 32 33" fill="none" xmlns="http://www.w3.org/2000/svg">
<path d="M18 21.1981C18 22.3027 17.1046 23.1981 16 23.1981C14.8954 23.1981 14 22.3027 14 21.1981C14 20.0935 14.8954 19.1981 16 19.1981C17.1046 19.1981 18 20.0935 18 21.1981Z" fill="#333D47"/>
<path fill-rule="evenodd" clip-rule="evenodd" d="M16 2.19812C12.134 2.19812 9 5.33213 9 9.19812V12.1981H7C5.34315 12.1981 4 13.5413 4 15.1981V27.1981C4 28.855 5.34315 30.1981 7 30.1981H25C26.6569 30.1981 28 28.855 28 27.1981V15.1981C28 13.5413 26.6569 12.1981 25 12.1981H11V9.19812C11 6.4367 13.2386 4.19812 16 4.19812C18.7614 4.19812 21 6.4367 21 9.19812H23C23 5.33213 19.866 2.19812 16 2.19812ZM6 15.1981C6 14.6458 6.44772 14.1981 7 14.1981H25C25.5523 14.1981 26 14.6458 26 15.1981V27.1981C26 27.7504 25.5523 28.1981 25 28.1981H7C6.44772 28.1981 6 27.7504 6 27.1981V15.1981Z" fill="#333D47"/>
</svg>
