<svg width="32" height="33" viewBox="0 0 32 33" fill="none" xmlns="http://www.w3.org/2000/svg">
<path d="M10.2929 10.9052C10.6834 11.2958 11.3166 11.2958 11.7071 10.9052L15 7.61233L15 20.1981C15 20.7504 15.4477 21.1981 16 21.1981C16.5523 21.1981 17 20.7504 17 20.1981L17 7.61233L20.2929 10.9052C20.6834 11.2958 21.3166 11.2958 21.7071 10.9052C22.0976 10.5147 22.0976 9.88154 21.7071 9.49101L16.7071 4.49101C16.3166 4.10049 15.6834 4.10049 15.2929 4.49101L10.2929 9.49101C9.90237 9.88154 9.90237 10.5147 10.2929 10.9052Z" fill="#333D47"/>
<path d="M4 18.1981C4.55228 18.1981 5 18.6458 5 19.1981V24.1981C5 25.3027 5.89543 26.1981 7 26.1981H25C26.1046 26.1981 27 25.3027 27 24.1981V19.1981C27 18.6458 27.4477 18.1981 28 18.1981C28.5523 18.1981 29 18.6458 29 19.1981V24.1981C29 26.4073 27.2091 28.1981 25 28.1981H7C4.79086 28.1981 3 26.4073 3 24.1981V19.1981C3 18.6458 3.44772 18.1981 4 18.1981Z" fill="#333D47"/>
</svg>
