<svg width="32" height="33" viewBox="0 0 32 33" fill="none" xmlns="http://www.w3.org/2000/svg">
<path fill-rule="evenodd" clip-rule="evenodd" d="M8.45962 9.69812C8.45962 5.55598 11.8175 2.19812 15.9596 2.19812C20.1018 2.19812 23.4596 5.55598 23.4596 9.69812C23.4596 13.8403 20.1018 17.1981 15.9596 17.1981C11.8175 17.1981 8.45962 13.8403 8.45962 9.69812Z" fill="#333D47"/>
<path fill-rule="evenodd" clip-rule="evenodd" d="M7.72071 21.8675C10.1132 20.1222 12.9982 19.1818 15.9596 19.1818C18.9211 19.1818 21.806 20.1222 24.1985 21.8675C26.591 23.6128 28.3675 26.0728 29.2719 28.8928C29.3694 29.1969 29.3158 29.5294 29.1275 29.7875C28.9393 30.0455 28.639 30.1981 28.3196 30.1981H3.59962C3.28019 30.1981 2.97998 30.0455 2.79173 29.7875C2.60348 29.5294 2.54984 29.1969 2.64738 28.8928C3.55171 26.0728 5.3282 23.6128 7.72071 21.8675Z" fill="#333D47"/>
</svg>
