<svg width="32" height="33" viewBox="0 0 32 33" fill="none" xmlns="http://www.w3.org/2000/svg">
<path fill-rule="evenodd" clip-rule="evenodd" d="M12 3.99988C10.067 3.99988 8.5 5.56688 8.5 7.49988C8.5 9.43287 10.067 10.9999 12 10.9999C13.933 10.9999 15.5 9.43287 15.5 7.49988C15.5 5.56688 13.933 3.99988 12 3.99988ZM6.5 7.49988C6.5 4.46231 8.96243 1.99988 12 1.99988C15.0376 1.99988 17.5 4.46231 17.5 7.49988C17.5 10.5374 15.0376 12.9999 12 12.9999C8.96243 12.9999 6.5 10.5374 6.5 7.49988Z" fill="#333D47"/>
<path fill-rule="evenodd" clip-rule="evenodd" d="M15.9644 17.0485C14.7475 16.3542 13.3696 15.9916 11.9686 15.9971C10.5676 16.0026 9.1926 16.3759 7.98118 17.0798C6.76976 17.7836 5.76442 18.7932 5.06574 20.0076C4.36707 21.222 3.99956 22.5985 4 23.9996L4 25.9999H12C12.5523 25.9999 13 26.4476 13 26.9999C13 27.5522 12.5523 27.9999 12 27.9999H3C2.44772 27.9999 2 27.5522 2 26.9999L2 24.0002C1.99951 22.249 2.45889 20.5281 3.33218 19.0102C4.20552 17.4922 5.4622 16.2302 6.97648 15.3504C8.49075 14.4707 10.2095 14.004 11.9608 13.9971C13.7121 13.9903 15.4344 14.4434 16.9556 15.3113C17.4353 15.585 17.6023 16.1957 17.3286 16.6754C17.0549 17.1551 16.4441 17.3221 15.9644 17.0485Z" fill="#333D47"/>
<path fill-rule="evenodd" clip-rule="evenodd" d="M29.7071 19.8128C30.0976 20.2033 30.0976 20.8365 29.7071 21.227L21.2271 29.707C20.8366 30.0975 20.2034 30.0975 19.8129 29.707C19.4224 29.3165 19.4224 28.6833 19.8129 28.2928L28.2929 19.8128C28.6834 19.4222 29.3166 19.4222 29.7071 19.8128Z" fill="#333D47"/>
<path fill-rule="evenodd" clip-rule="evenodd" d="M19.8129 19.8128C20.2034 19.4222 20.8366 19.4222 21.2271 19.8128L29.7071 28.2928C30.0976 28.6833 30.0976 29.3165 29.7071 29.707C29.3166 30.0975 28.6834 30.0975 28.2929 29.707L19.8129 21.227C19.4224 20.8365 19.4224 20.2033 19.8129 19.8128Z" fill="#333D47"/>
</svg>
