<svg width="32" height="33" viewBox="0 0 32 33" fill="none" xmlns="http://www.w3.org/2000/svg">
<path fill-rule="evenodd" clip-rule="evenodd" d="M23.4107 4.25691C21.9325 4.25691 20.7342 5.45519 20.7342 6.93335C20.7342 8.4115 21.9325 9.60978 23.4107 9.60978C24.8888 9.60978 26.0871 8.4115 26.0871 6.93335C26.0871 5.45519 24.8888 4.25691 23.4107 4.25691ZM18.6754 6.93335C18.6754 4.31815 20.7955 2.19812 23.4107 2.19812C26.0259 2.19812 28.1459 4.31815 28.1459 6.93335C28.1459 9.54854 26.0259 11.6686 23.4107 11.6686C20.7955 11.6686 18.6754 9.54854 18.6754 6.93335Z" fill="#333D47"/>
<path fill-rule="evenodd" clip-rule="evenodd" d="M17.6467 14.8603C18.7689 12.8367 20.9292 11.4632 23.4116 11.4632C27.0502 11.4632 30 14.4128 30 18.0515V19.9044C30 20.4729 29.5391 20.9338 28.9706 20.9338C28.4021 20.9338 27.9412 20.4729 27.9412 19.9044V18.0515C27.9412 15.5499 25.9132 13.522 23.4116 13.522C21.7073 13.522 20.2212 14.463 19.4472 15.8588C19.1715 16.356 18.5449 16.5355 18.0477 16.2598C17.5505 15.9841 17.371 15.3575 17.6467 14.8603Z" fill="#333D47"/>
<path fill-rule="evenodd" clip-rule="evenodd" d="M8.58694 4.25691C7.10878 4.25691 5.9105 5.45519 5.9105 6.93335C5.9105 8.4115 7.10878 9.60978 8.58694 9.60978C10.0651 9.60978 11.2634 8.4115 11.2634 6.93335C11.2634 5.45519 10.0651 4.25691 8.58694 4.25691ZM3.85171 6.93335C3.85171 4.31815 5.97174 2.19812 8.58694 2.19812C11.2021 2.19812 13.3222 4.31815 13.3222 6.93335C13.3222 9.54854 11.2021 11.6686 8.58694 11.6686C5.97174 11.6686 3.85171 9.54854 3.85171 6.93335Z" fill="#333D47"/>
<path fill-rule="evenodd" clip-rule="evenodd" d="M8.58825 13.522C6.0867 13.522 4.05879 15.5499 4.05879 18.0515V19.9044C4.05879 20.4729 3.59792 20.9338 3.0294 20.9338C2.46088 20.9338 2 20.4729 2 19.9044V18.0515C2 14.4129 4.94965 11.4632 8.58825 11.4632C11.0708 11.4632 13.2311 12.8367 14.3533 14.8603C14.629 15.3575 14.4494 15.9841 13.9522 16.2598C13.455 16.5355 12.8285 16.356 12.5528 15.8588C11.7788 14.463 10.2927 13.522 8.58825 13.522Z" fill="#333D47"/>
<path fill-rule="evenodd" clip-rule="evenodd" d="M11.2666 18.0471C11.2666 15.4319 13.3866 13.3119 16.0018 13.3119C18.617 13.3119 20.737 15.4319 20.737 18.0471C20.737 20.6623 18.617 22.7823 16.0018 22.7823C13.3866 22.7823 11.2666 20.6623 11.2666 18.0471Z" fill="#333D47"/>
<path d="M9.41287 29.1643C9.41287 25.5257 12.3625 22.576 16.0011 22.576C19.6398 22.576 22.5894 25.5257 22.5894 29.1643C22.5894 29.7328 22.1285 30.1937 21.56 30.1937H10.4423C9.87374 30.1937 9.41287 29.7328 9.41287 29.1643Z" fill="#333D47"/>
<path fill-rule="evenodd" clip-rule="evenodd" d="M11.2666 18.0471C11.2666 15.4319 13.3866 13.3119 16.0018 13.3119C18.617 13.3119 20.737 15.4319 20.737 18.0471C20.737 20.6623 18.617 22.7823 16.0018 22.7823C13.3866 22.7823 11.2666 20.6623 11.2666 18.0471Z" fill="#333D47"/>
<path d="M9.41287 29.1643C9.41287 25.5257 12.3625 22.576 16.0011 22.576C19.6398 22.576 22.5894 25.5257 22.5894 29.1643C22.5894 29.7328 22.1285 30.1937 21.56 30.1937H10.4423C9.87374 30.1937 9.41287 29.7328 9.41287 29.1643Z" fill="#333D47"/>
</svg>
