<svg width="32" height="33" viewBox="0 0 32 33" fill="none" xmlns="http://www.w3.org/2000/svg">
<path fill-rule="evenodd" clip-rule="evenodd" d="M4.45867 5.35534C4.99051 4.97652 9.12384 2.198 16 2.198C22.8762 2.198 27.0095 4.97652 27.5413 5.35534C27.8563 5.57967 28 5.92624 28 6.248V13.198C28 19.8457 25.2448 24.0664 22.3812 26.6297C19.5476 29.1663 16.6428 30.0534 16.2991 30.1526C16.2454 30.1681 16.138 30.1955 16 30.1955C15.862 30.1955 15.7545 30.1681 15.7009 30.1526C15.3571 30.0534 12.4524 29.1662 9.6188 26.6297C6.75524 24.0664 4 19.8457 4 13.198V6.248C4 5.92624 4.14374 5.57967 4.45867 5.35534ZM6 6.7352V13.198C6 19.2127 8.46276 22.9106 10.9527 25.1395C13.0818 27.0454 15.2569 27.8968 16 28.1495C16.7431 27.8968 18.9182 27.0454 21.0473 25.1396C23.5372 22.9107 26 19.2127 26 13.198V6.7352C24.8629 6.03604 21.3633 4.198 16 4.198C10.6367 4.198 7.13709 6.03604 6 6.7352Z" fill="#333D47"/>
<path fill-rule="evenodd" clip-rule="evenodd" d="M15.9991 9.198C13.79 9.198 11.9991 10.9889 11.9991 13.198C11.9991 15.4071 13.79 17.198 15.9991 17.198C18.2083 17.198 19.9991 15.4071 19.9991 13.198C19.9991 10.9889 18.2083 9.198 15.9991 9.198ZM9.99913 13.198C9.99913 9.88429 12.6854 7.198 15.9991 7.198C19.3128 7.198 21.9991 9.88429 21.9991 13.198C21.9991 16.5117 19.3128 19.198 15.9991 19.198C12.6854 19.198 9.99913 16.5117 9.99913 13.198Z" fill="#333D47"/>
<path fill-rule="evenodd" clip-rule="evenodd" d="M15.9991 22.2007C14.4553 22.2007 12.9373 22.5979 11.5913 23.354C10.7789 23.8104 10.0456 24.3882 9.41531 25.0645C9.00123 25.5088 9.20311 24.6858 8.88466 25.2086C8.59732 25.6802 8.97221 24.7871 8.50056 24.4998C8.02891 24.2124 7.85635 24.4714 8.14369 23.9998C8.58156 23.281 7.56005 24.0959 8.14451 23.4998C8.87045 22.7593 9.70039 22.1223 10.6118 21.6103C12.2569 20.6861 14.1122 20.2007 15.9991 20.2007C17.8861 20.2007 19.7413 20.6861 21.3865 21.6103C22.2979 22.1223 23.1278 22.7593 23.8537 23.4998C24.4382 24.0959 23.5619 23.281 23.9998 23.9998C24.2871 24.4714 23.9714 24.7124 23.4998 24.9998C23.0281 25.2871 23.2871 25.9714 22.9998 25.4998C22.7154 25.033 23.0755 25.6134 22.7143 25.2086C22.0553 24.47 21.2764 23.8424 20.407 23.354C19.0609 22.5979 17.543 22.2007 15.9991 22.2007Z" fill="#333D47"/>
</svg>
