<svg width="32" height="33" viewBox="0 0 32 33" fill="none" xmlns="http://www.w3.org/2000/svg">
<path fill-rule="evenodd" clip-rule="evenodd" d="M7.32395 7.5873C7.32395 5.1403 9.33405 3.15662 11.8137 3.15662H14.5701C15.1297 3.15662 15.5834 3.60433 15.5834 4.15662C15.5834 4.7089 15.1297 5.15662 14.5701 5.15662H11.8137C10.4533 5.15662 9.35059 6.24486 9.35059 7.5873V10.1961L10.413 9.43554C10.866 9.11125 11.4997 9.21076 11.8283 9.65781C12.1569 10.1049 12.056 10.7302 11.603 11.0544L8.94658 12.9561C8.89688 12.9917 8.84473 13.0223 8.79081 13.0479C8.65435 13.1154 8.50031 13.1534 8.33727 13.1534C8.05446 13.1534 7.7987 13.0391 7.61489 12.8547L5.10011 11.0544C4.64711 10.7302 4.54627 10.1049 4.87488 9.65781C5.20349 9.21076 5.83712 9.11125 6.29012 9.43554L7.32395 10.1756V7.5873ZM25.3267 22.1021V24.7105C25.3267 26.053 24.224 27.1413 22.8636 27.1413H20.1072C19.5476 27.1413 19.0939 27.589 19.0939 28.1413C19.0939 28.6936 19.5476 29.1413 20.1072 29.1413H22.8636C25.3432 29.1413 27.3534 27.1576 27.3534 24.7105V22.1219L28.3877 22.8624C28.8407 23.1867 29.4744 23.0871 29.803 22.6401C30.1316 22.193 30.0307 21.5677 29.5777 21.2434L27.0616 19.4423C26.8779 19.2584 26.6225 19.1444 26.3401 19.1444C26.1708 19.1444 26.0112 19.1854 25.871 19.2578C25.8227 19.2817 25.776 19.3097 25.7312 19.3418L23.0747 21.2434C22.6217 21.5677 22.5208 22.193 22.8494 22.6401C23.178 23.0871 23.8117 23.1867 24.2647 22.8624L25.3267 22.1021Z" fill="#333D47"/>
<path d="M18.231 6.72148C18.231 4.22331 20.2831 2.19812 22.8145 2.19812C25.3461 2.19812 27.3982 4.2233 27.3982 6.72148C27.3982 8.08383 26.788 9.30435 25.8242 10.133C28.1255 11.1784 29.773 13.3853 29.9963 15.9931C30.0435 16.5434 29.6296 17.0272 29.072 17.0737L16.5545 17.0738C15.9968 17.0273 15.5829 16.5434 15.63 15.9931C15.8534 13.3847 17.5016 11.1774 19.8039 10.1323C18.8401 9.30305 18.231 8.08246 18.231 6.72148Z" fill="#333D47"/>
<path d="M4.6818 19.6004C4.6818 17.1022 6.73395 15.077 9.26541 15.077C11.7969 15.077 13.849 17.1022 13.849 19.6004C13.849 21.0641 13.1447 22.3641 12.0541 23.1903C14.4304 24.2079 16.142 26.452 16.3699 29.1138C16.417 29.6641 16.0032 30.1479 15.4455 30.1944H2.92807C2.37041 30.1479 1.95654 29.6641 2.00366 29.1138C2.23477 26.4143 3.99208 24.1443 6.421 23.1477C5.36145 22.3191 4.6818 21.0381 4.6818 19.6004Z" fill="#333D47"/>
</svg>
