<svg width="32" height="33" viewBox="0 0 32 33" fill="none" xmlns="http://www.w3.org/2000/svg">
<path fill-rule="evenodd" clip-rule="evenodd" d="M21 17.1981C21 19.9595 18.7614 22.1981 16 22.1981C13.2386 22.1981 11 19.9595 11 17.1981C11 14.4367 13.2386 12.1981 16 12.1981C18.7614 12.1981 21 14.4367 21 17.1981ZM19 17.1981C19 18.855 17.6569 20.1981 16 20.1981C14.3431 20.1981 13 18.855 13 17.1981C13 15.5413 14.3431 14.1981 16 14.1981C17.6569 14.1981 19 15.5413 19 17.1981Z" fill="#333D47"/>
<path fill-rule="evenodd" clip-rule="evenodd" d="M16 2.19812C13.7909 2.19812 12 3.98898 12 6.19812H8C6.34315 6.19812 5 7.54127 5 9.19812V27.1981C5 28.855 6.34315 30.1981 8 30.1981H24C25.6569 30.1981 27 28.855 27 27.1981V9.19812C27 7.54127 25.6569 6.19812 24 6.19812H20C20 3.98898 18.2091 2.19812 16 2.19812ZM20 10.1981C20 10.7504 19.5523 11.1981 19 11.1981H13C12.4477 11.1981 12 10.7504 12 10.1981V8.19812H8C7.44771 8.19812 7 8.64584 7 9.19812V27.1981C7 27.7504 7.44772 28.1981 8 28.1981H8.58195C9.76853 25.267 12.6416 23.1981 16.0001 23.1981C19.3586 23.1981 22.2317 25.267 23.4183 28.1981H24C24.5523 28.1981 25 27.7504 25 27.1981V9.19812C25 8.64584 24.5523 8.19812 24 8.19812H20V10.1981ZM16.0001 25.1981C18.22 25.1981 20.16 26.4042 21.1977 28.1981H10.8025C11.8402 26.4042 13.7802 25.1981 16.0001 25.1981ZM14 6.19812C14 5.09355 14.8954 4.19812 16 4.19812C17.1046 4.19812 18 5.09355 18 6.19812V9.19812H14V6.19812Z" fill="#333D47"/>
</svg>
