<svg width="32" height="33" viewBox="0 0 32 33" fill="none" xmlns="http://www.w3.org/2000/svg">
<path fill-rule="evenodd" clip-rule="evenodd" d="M12.0001 3.99988C10.0671 3.99988 8.50005 5.56688 8.50005 7.49988C8.50005 9.43287 10.0671 10.9999 12.0001 10.9999C13.933 10.9999 15.5001 9.43287 15.5001 7.49988C15.5001 5.56688 13.933 3.99988 12.0001 3.99988ZM6.50005 7.49988C6.50005 4.46231 8.96248 1.99988 12.0001 1.99988C15.0376 1.99988 17.5001 4.46231 17.5001 7.49988C17.5001 10.5374 15.0376 12.9999 12.0001 12.9999C8.96248 12.9999 6.50005 10.5374 6.50005 7.49988Z" fill="#333D47"/>
<path fill-rule="evenodd" clip-rule="evenodd" d="M9.76926 14.2377C11.2361 13.9044 12.7593 13.9071 14.225 14.2455C14.7631 14.3697 15.0987 14.9067 14.9744 15.4448C14.8502 15.983 14.3132 16.3185 13.7751 16.1942C12.6031 15.9237 11.3852 15.9215 10.2123 16.188C9.0394 16.4544 7.9419 16.9825 7.00185 17.7329C6.0618 18.4832 5.30353 19.4363 4.78372 20.521C4.26391 21.6056 3.99601 22.7937 4.00005 23.9965L4.00006 23.9999L4.00005 25.9999H11.0001C11.5523 25.9999 12.0001 26.4476 12.0001 26.9999C12.0001 27.5522 11.5523 27.9999 11.0001 27.9999H3.00005C2.44777 27.9999 2.00005 27.5522 2.00005 26.9999V24.0015C1.99526 22.4979 2.3303 21.0126 2.98014 19.6566C3.63023 18.3001 4.57855 17.1081 5.75419 16.1697C6.92984 15.2314 8.3024 14.5709 9.76926 14.2377Z" fill="#333D47"/>
<path fill-rule="evenodd" clip-rule="evenodd" d="M16.0001 20.9999C16.0001 19.8953 16.8955 18.9999 18.0001 18.9999H28.0001C29.1046 18.9999 30.0001 19.8953 30.0001 20.9999V27.9999C30.0001 29.1044 29.1046 29.9999 28.0001 29.9999H18.0001C16.8955 29.9999 16.0001 29.1044 16.0001 27.9999V20.9999ZM28.0001 20.9999H18.0001V27.9999H28.0001V20.9999Z" fill="#333D47"/>
<path fill-rule="evenodd" clip-rule="evenodd" d="M23.0001 14.9999C22.2044 14.9999 21.4413 15.3159 20.8787 15.8786C20.3161 16.4412 20.0001 17.2042 20.0001 17.9999V19.9999C20.0001 20.5522 19.5523 20.9999 19.0001 20.9999C18.4478 20.9999 18.0001 20.5522 18.0001 19.9999V17.9999C18.0001 16.6738 18.5268 15.402 19.4645 14.4643C20.4022 13.5267 21.674 12.9999 23.0001 12.9999C24.3261 12.9999 25.5979 13.5267 26.5356 14.4643C27.4733 15.402 28.0001 16.6738 28.0001 17.9999V19.9999C28.0001 20.5522 27.5523 20.9999 27.0001 20.9999C26.4478 20.9999 26.0001 20.5522 26.0001 19.9999V17.9999C26.0001 17.2042 25.684 16.4412 25.1214 15.8786C24.5588 15.3159 23.7957 14.9999 23.0001 14.9999Z" fill="#333D47"/>
</svg>
