<svg width="32" height="33" viewBox="0 0 32 33" fill="none" xmlns="http://www.w3.org/2000/svg">
<path fill-rule="evenodd" clip-rule="evenodd" d="M4.45867 5.3551C4.99051 4.97627 9.12384 2.19775 16 2.19775C22.8762 2.19775 27.0095 4.97627 27.5413 5.3551C27.8563 5.57943 28 5.926 28 6.24776V13.1978C28 19.8454 25.2448 24.0662 22.3812 26.6295C19.5476 29.166 16.6428 30.0532 16.2991 30.1524C16.2454 30.1678 16.138 30.1953 16 30.1953C15.862 30.1953 15.7545 30.1678 15.7009 30.1524C15.3571 30.0532 12.4524 29.166 9.6188 26.6295C6.75524 24.0662 4 19.8454 4 13.1978V6.24775C4 5.92599 4.14374 5.57943 4.45867 5.3551ZM6 6.73496V13.1978C6 19.2124 8.46276 22.9104 10.9527 25.1393C13.0818 27.0452 15.2569 27.8965 16 28.1493C16.7431 27.8965 18.9182 27.0452 21.0473 25.1393C23.5372 22.9104 26 19.2124 26 13.1978V6.73496C24.8629 6.03579 21.3633 4.19775 16 4.19775C10.6367 4.19775 7.13709 6.03579 6 6.73496Z" fill="#333D47"/>
<path fill-rule="evenodd" clip-rule="evenodd" d="M9.99913 13.1978C9.99913 9.88405 12.6854 7.19775 15.9991 7.19775C19.3128 7.19775 21.9991 9.88405 21.9991 13.1978C21.9991 16.5115 19.3128 19.1978 15.9991 19.1978C12.6854 19.1978 9.99913 16.5115 9.99913 13.1978Z" fill="#333D47"/>
<path fill-rule="evenodd" clip-rule="evenodd" d="M16 28.5C14.4561 28.5 13.5 27.5 12 26.5C11.1876 26.9563 10.0456 24.3879 9.41531 25.0643C9.00123 25.5085 9.20311 24.6856 8.88466 25.2083C8.59732 25.68 8.97221 24.7868 8.50056 24.4995C8.02891 24.2122 7.85635 24.4712 8.14369 23.9995C8.58156 23.2808 7.56005 24.0956 8.14451 23.4995C8.87045 22.7591 9.70039 22.122 10.6118 21.61C12.2569 20.6859 14.1122 20.2005 15.9991 20.2005C17.8861 20.2005 19.7413 20.6859 21.3865 21.61C22.2979 22.122 23.1278 22.7591 23.8537 23.4995C24.4382 24.0956 23.5619 23.2808 23.9998 23.9995C24.2871 24.4712 23.9714 24.7122 23.4998 24.9995C23.0281 25.2868 23.2871 25.9712 22.9998 25.4995C22.7154 25.0327 23.0755 25.6131 22.7143 25.2083C22.0553 24.4698 21.3695 26.4884 20.5 26C19.5 27 17.5439 28.5 16 28.5Z" fill="#333D47"/>
</svg>
