<svg width="32" height="33" viewBox="0 0 32 33" fill="none" xmlns="http://www.w3.org/2000/svg">
<path fill-rule="evenodd" clip-rule="evenodd" d="M29.5995 17.1995C30.0416 17.5306 30.1315 18.1574 29.8004 18.5994L21.5603 29.5994C21.4013 29.8117 21.1645 29.9521 20.902 29.9897C20.6395 30.0274 20.3727 29.9592 20.1605 29.8002L14.6605 25.6802C14.2184 25.3491 14.1285 24.7224 14.4597 24.2803C14.7908 23.8383 15.4175 23.7484 15.8595 24.0795L20.5592 27.6L28.1996 17.4003C28.5308 16.9583 29.1575 16.8684 29.5995 17.1995Z" fill="#333D47"/>
<path fill-rule="evenodd" clip-rule="evenodd" d="M12 3.99988C10.067 3.99988 8.5 5.56688 8.5 7.49988C8.5 9.43287 10.067 10.9999 12 10.9999C13.933 10.9999 15.5 9.43287 15.5 7.49988C15.5 5.56688 13.933 3.99988 12 3.99988ZM6.5 7.49988C6.5 4.46231 8.96243 1.99988 12 1.99988C15.0376 1.99988 17.5 4.46231 17.5 7.49988C17.5 10.5374 15.0376 12.9999 12 12.9999C8.96243 12.9999 6.5 10.5374 6.5 7.49988Z" fill="#333D47"/>
<path fill-rule="evenodd" clip-rule="evenodd" d="M13.5588 16.1611C12.0079 15.853 10.4004 16.0114 8.93948 16.6164C7.47854 17.2213 6.22963 18.2456 5.35048 19.5599C4.47141 20.8741 4.00147 22.4193 4 24.0004V25.9999H8C8.55228 25.9999 9 26.4476 9 26.9999C9 27.5522 8.55228 27.9999 8 27.9999H3C2.44772 27.9999 2 27.5522 2 26.9999V23.9999C2.00174 22.0233 2.58917 20.0908 3.6881 18.4479C4.78704 16.805 6.34818 15.5247 8.17435 14.7685C10.0005 14.0124 12.0098 13.8143 13.9485 14.1995C15.8871 14.5846 17.6682 15.5356 19.0667 16.9323C19.4574 17.3226 19.4578 17.9558 19.0675 18.3465C18.6773 18.7373 18.0441 18.7377 17.6533 18.3474C16.5345 17.23 15.1097 16.4692 13.5588 16.1611Z" fill="#333D47"/>
</svg>
