<svg width="32" height="33" viewBox="0 0 32 33" fill="none" xmlns="http://www.w3.org/2000/svg">
<path fill-rule="evenodd" clip-rule="evenodd" d="M12 3.99988C10.067 3.99988 8.5 5.56688 8.5 7.49988C8.5 9.43287 10.067 10.9999 12 10.9999C13.933 10.9999 15.5 9.43287 15.5 7.49988C15.5 5.56688 13.933 3.99988 12 3.99988ZM6.5 7.49988C6.5 4.46231 8.96243 1.99988 12 1.99988C15.0376 1.99988 17.5 4.46231 17.5 7.49988C17.5 10.5374 15.0376 12.9999 12 12.9999C8.96243 12.9999 6.5 10.5374 6.5 7.49988Z" fill="#333D47"/>
<path fill-rule="evenodd" clip-rule="evenodd" d="M15.5587 16.8972C14.3423 16.2991 12.9942 16.019 11.6403 16.0831C10.2863 16.1471 8.97066 16.5534 7.81625 17.2638C6.66184 17.9742 5.70632 18.9656 5.03894 20.1454C4.3724 21.3237 4.01499 22.6516 4 24.0053V25.9999H11C11.5523 25.9999 12 26.4476 12 26.9999C12 27.5522 11.5523 27.9999 11 27.9999H3C2.44772 27.9999 2 27.5522 2 26.9999V23.9894C2.01769 22.296 2.46434 20.6347 3.29815 19.1607C4.13196 17.6867 5.32576 16.448 6.76805 15.5605C8.21034 14.6729 9.85406 14.1654 11.5457 14.0853C13.2373 14.0052 14.9216 14.3552 16.4413 15.1025C16.9369 15.3462 17.1411 15.9456 16.8974 16.4412C16.6536 16.9368 16.0543 17.141 15.5587 16.8972Z" fill="#333D47"/>
<path fill-rule="evenodd" clip-rule="evenodd" d="M23 15.9999C23.5523 15.9999 24 16.4476 24 16.9999V28.9999C24 29.5522 23.5523 29.9999 23 29.9999C22.4477 29.9999 22 29.5522 22 28.9999V16.9999C22 16.4476 22.4477 15.9999 23 15.9999Z" fill="#333D47"/>
<path fill-rule="evenodd" clip-rule="evenodd" d="M16 22.9999C16 22.4476 16.4477 21.9999 17 21.9999H29C29.5523 21.9999 30 22.4476 30 22.9999C30 23.5522 29.5523 23.9999 29 23.9999H17C16.4477 23.9999 16 23.5522 16 22.9999Z" fill="#333D47"/>
</svg>
