<svg width="32" height="33" viewBox="0 0 32 33" fill="none" xmlns="http://www.w3.org/2000/svg">
<path fill-rule="evenodd" clip-rule="evenodd" d="M6.5 8.69812C6.5 5.66055 8.96243 3.19812 12 3.19812C15.0376 3.19812 17.5 5.66055 17.5 8.69812C17.5 11.7357 15.0376 14.1981 12 14.1981C8.96243 14.1981 6.5 11.7357 6.5 8.69812Z" fill="#333D47"/>
<path fill-rule="evenodd" clip-rule="evenodd" d="M4.92893 19.1271C6.8043 17.2517 9.34784 16.1981 12 16.1981C14.6522 16.1981 17.1957 17.2517 19.0711 19.1271C20.9464 21.0024 22 23.546 22 26.1981V28.1981C22 28.7504 21.5523 29.1981 21 29.1981H3C2.44772 29.1981 2 28.7504 2 28.1981V26.1981C2 23.546 3.05357 21.0024 4.92893 19.1271Z" fill="#333D47"/>
<path fill-rule="evenodd" clip-rule="evenodd" d="M19 4.19812C19 3.64584 19.4477 3.19812 20 3.19812C21.4587 3.19812 22.8576 3.77758 23.8891 4.80903C24.9205 5.84048 25.5 7.23943 25.5 8.69812C25.5 10.1568 24.9205 11.5558 23.8891 12.5872C22.8576 13.6187 21.4587 14.1981 20 14.1981C19.4477 14.1981 19 13.7504 19 13.1981C19 12.6458 19.4477 12.1981 20 12.1981C20.9283 12.1981 21.8185 11.8294 22.4749 11.173C23.1313 10.5166 23.5 9.62638 23.5 8.69812C23.5 7.76986 23.1313 6.87962 22.4749 6.22325C21.8185 5.56687 20.9283 5.19812 20 5.19812C19.4477 5.19812 19 4.7504 19 4.19812Z" fill="#333D47"/>
<path fill-rule="evenodd" clip-rule="evenodd" d="M22.2653 17.2226C22.4617 16.7064 23.0394 16.4471 23.5556 16.6435C25.4485 17.3636 27.0782 18.6415 28.229 20.3081C29.3797 21.9747 29.9973 23.9515 30 25.9768L30 25.9781V28.1981C30 28.7504 29.5523 29.1981 29 29.1981H26C25.4477 29.1981 25 28.7504 25 28.1981C25 27.6458 25.4477 27.1981 26 27.1981H28V25.9787C27.9977 24.3587 27.5037 22.7776 26.5832 21.4445C25.6626 20.1112 24.3588 19.0889 22.8444 18.5128C22.3283 18.3164 22.069 17.7388 22.2653 17.2226Z" fill="#333D47"/>
</svg>
