<svg width="32" height="33" viewBox="0 0 32 33" fill="none" xmlns="http://www.w3.org/2000/svg">
<path fill-rule="evenodd" clip-rule="evenodd" d="M12.0001 3.99988C10.0671 3.99988 8.50005 5.56688 8.50005 7.49988C8.50005 9.43287 10.0671 10.9999 12.0001 10.9999C13.933 10.9999 15.5001 9.43287 15.5001 7.49988C15.5001 5.56688 13.933 3.99988 12.0001 3.99988ZM6.50005 7.49988C6.50005 4.46231 8.96248 1.99988 12.0001 1.99988C15.0376 1.99988 17.5001 4.46231 17.5001 7.49988C17.5001 10.5374 15.0376 12.9999 12.0001 12.9999C8.96248 12.9999 6.50005 10.5374 6.50005 7.49988Z" fill="#333D47"/>
<path fill-rule="evenodd" clip-rule="evenodd" d="M22.5001 16.9999C19.4625 16.9999 17.0001 19.4623 17.0001 22.4999C17.0001 25.5374 19.4625 27.9999 22.5001 27.9999C25.5376 27.9999 28.0001 25.5374 28.0001 22.4999C28.0001 19.4623 25.5376 16.9999 22.5001 16.9999ZM15.0001 22.4999C15.0001 18.3577 18.3579 14.9999 22.5001 14.9999C26.6422 14.9999 30.0001 18.3577 30.0001 22.4999C30.0001 26.642 26.6422 29.9999 22.5001 29.9999C18.3579 29.9999 15.0001 26.642 15.0001 22.4999Z" fill="#333D47"/>
<path fill-rule="evenodd" clip-rule="evenodd" d="M27.8072 17.1928C28.1977 17.5833 28.1977 18.2165 27.8072 18.607L18.6072 27.807C18.2166 28.1975 17.5835 28.1975 17.1929 27.807C16.8024 27.4165 16.8024 26.7833 17.1929 26.3928L26.3929 17.1928C26.7835 16.8022 27.4166 16.8022 27.8072 17.1928Z" fill="#333D47"/>
<path fill-rule="evenodd" clip-rule="evenodd" d="M9.76926 14.2377C11.2361 13.9044 12.7593 13.9071 14.225 14.2455C14.7631 14.3697 15.0987 14.9067 14.9744 15.4448C14.8502 15.983 14.3132 16.3185 13.7751 16.1942C12.6031 15.9237 11.3852 15.9215 10.2123 16.188C9.0394 16.4544 7.9419 16.9825 7.00185 17.7329C6.0618 18.4832 5.30353 19.4363 4.78372 20.521C4.26391 21.6056 3.99601 22.7937 4.00005 23.9965L4.00006 23.9999L4.00005 25.9999H11.0001C11.5523 25.9999 12.0001 26.4476 12.0001 26.9999C12.0001 27.5522 11.5523 27.9999 11.0001 27.9999H3.00005C2.44777 27.9999 2.00005 27.5522 2.00005 26.9999V24.0015C1.99526 22.4979 2.3303 21.0126 2.98014 19.6566C3.63023 18.3001 4.57855 17.1081 5.75419 16.1697C6.92984 15.2314 8.3024 14.5709 9.76926 14.2377Z" fill="#333D47"/>
</svg>
