<svg width="32" height="33" viewBox="0 0 32 33" fill="none" xmlns="http://www.w3.org/2000/svg">
<path fill-rule="evenodd" clip-rule="evenodd" d="M10 13.1981C10 9.88441 12.6863 7.19812 16 7.19812C19.3137 7.19812 22 9.88441 22 13.1981C22 16.5118 19.3137 19.1981 16 19.1981C12.6863 19.1981 10 16.5118 10 13.1981Z" fill="#333D47"/>
<path fill-rule="evenodd" clip-rule="evenodd" d="M15 28.9999C13.4561 28.9999 13 29.6739 11.5 27.9999C10.154 28.756 9.11724 25.1999 8.314 26.5184C8.02666 26.99 7.41138 27.1395 6.93973 26.8521C6.46808 26.5648 6.31866 25.9495 6.606 25.4778C7.58773 23.8664 8.9675 22.5346 10.6127 21.6104C12.2578 20.6863 14.113 20.2008 16 20.2008C17.887 20.2008 19.7422 20.6863 21.3873 21.6104C23.0325 22.5346 24.4123 23.8664 25.394 25.4778C25.6813 25.9495 25.5319 26.5648 25.0603 26.8521C24.5886 27.1395 23.9733 26.99 23.686 26.5184C22.8828 25.1999 20.846 28.9542 19.5 28.1981C18 28.9999 16.5439 28.9999 15 28.9999Z" fill="#333D47"/>
<path fill-rule="evenodd" clip-rule="evenodd" d="M16 4.19812C9.37258 4.19812 4 9.5707 4 16.1981C4 22.8255 9.37258 28.1981 16 28.1981C22.6274 28.1981 28 22.8255 28 16.1981C28 9.5707 22.6274 4.19812 16 4.19812ZM2 16.1981C2 8.46613 8.26801 2.19812 16 2.19812C23.732 2.19812 30 8.46613 30 16.1981C30 23.9301 23.732 30.1981 16 30.1981C8.26801 30.1981 2 23.9301 2 16.1981Z" fill="#333D47"/>
</svg>
