<svg width="32" height="33" viewBox="0 0 32 33" fill="none" xmlns="http://www.w3.org/2000/svg">
<path fill-rule="evenodd" clip-rule="evenodd" d="M5.80329 6.80577C7.65981 6.51902 10.88 6.19812 15.9993 6.19812C21.1185 6.19812 24.3388 6.51901 26.1953 6.80576C27.8604 7.06294 29.1355 8.30352 29.4475 9.95503C29.7185 11.3896 29.999 13.5256 29.9986 16.2215C29.9983 18.9109 29.7193 21.0307 29.4488 22.454C29.136 24.0998 27.8641 25.3321 26.2068 25.5887C24.3521 25.8759 21.1291 26.1981 15.9993 26.1981C10.8696 26.1981 7.64666 25.8759 5.79191 25.5887C4.1346 25.3321 2.86262 24.0997 2.54987 22.4539C2.27941 21.0306 2.00037 18.9108 2 16.2215C1.99963 13.5255 2.28008 11.3896 2.55111 9.95497C2.86312 8.30348 4.1382 7.06294 5.80329 6.80577ZM19.9995 16.1981L12.9995 12.1981V20.1981L19.9995 16.1981Z" fill="#333D47"/>
</svg>
