<svg width="32" height="33" viewBox="0 0 32 33" fill="none" xmlns="http://www.w3.org/2000/svg">
<path d="M5 7.19812C3.34315 7.19812 2 8.54127 2 10.1981V22.1981C2 23.855 3.34315 25.1981 5 25.1981H19C20.6569 25.1981 22 23.855 22 22.1981V20.0024L28.47 24.0461C28.7783 24.2388 29.1668 24.249 29.4848 24.0728C29.8027 23.8965 30 23.5616 30 23.1981V9.19812C30 8.8346 29.8027 8.4997 29.4848 8.32348C29.1668 8.14725 28.7783 8.15745 28.47 8.35012L22 12.3939V10.1981C22 8.54127 20.6569 7.19812 19 7.19812H5Z" fill="#333D47"/>
</svg>
