<svg width="32" height="33" viewBox="0 0 32 33" fill="none" xmlns="http://www.w3.org/2000/svg">
<path fill-rule="evenodd" clip-rule="evenodd" d="M13.4952 11.3299C13.1857 11.153 12.8054 11.1543 12.4971 11.3332C12.1888 11.5121 11.999 11.8417 11.999 12.1981V20.1981C11.999 20.5546 12.1888 20.8841 12.4971 21.063C12.8054 21.242 13.1857 21.2432 13.4952 21.0664L20.4952 17.0664C20.8067 16.8883 20.999 16.557 20.999 16.1981C20.999 15.8393 20.8067 15.5079 20.4952 15.3299L13.4952 11.3299ZM17.9835 16.1981L13.999 18.4749V13.9213L17.9835 16.1981Z" fill="#333D47"/>
<path fill-rule="evenodd" clip-rule="evenodd" d="M15.9993 6.19812C10.88 6.19812 7.65981 6.51902 5.80329 6.80577C4.1382 7.06294 2.86312 8.30348 2.55111 9.95497C2.28008 11.3896 1.99963 13.5255 2 16.2215C2.00037 18.9108 2.27941 21.0306 2.54987 22.4539C2.86262 24.0997 4.1346 25.3321 5.79191 25.5887C7.64666 25.8759 10.8696 26.1981 15.9993 26.1981C21.1291 26.1981 24.3521 25.8759 26.2068 25.5887C27.8641 25.3321 29.136 24.0998 29.4488 22.454C29.7193 21.0307 29.9983 18.9109 29.9986 16.2215C29.999 13.5256 29.7185 11.3896 29.4475 9.95503C29.1355 8.30352 27.8604 7.06294 26.1953 6.80576C24.3388 6.51901 21.1185 6.19812 15.9993 6.19812ZM6.10857 8.78233C7.84518 8.5141 10.9612 8.19812 15.9993 8.19812C21.0374 8.19812 24.1534 8.5141 25.89 8.78232C26.7135 8.90951 27.3268 9.50346 27.4823 10.3263C27.7329 11.6529 27.999 13.6639 27.9986 16.2213C27.9983 18.7725 27.7336 20.7669 27.4839 22.0806C27.3289 22.8966 26.7199 23.4854 25.9008 23.6123C24.1663 23.8808 21.0479 24.1981 15.9993 24.1981C10.9509 24.1981 7.83244 23.8808 6.09794 23.6123C5.27879 23.4854 4.66978 22.8965 4.51471 22.0805C4.26508 20.7668 4.00035 18.7724 4 16.2213C3.99965 13.6638 4.26572 11.6528 4.51635 10.3262C4.6718 9.50344 5.28511 8.90952 6.10857 8.78233Z" fill="#333D47"/>
</svg>
