<svg width="32" height="33" viewBox="0 0 32 33" fill="none" xmlns="http://www.w3.org/2000/svg">
<path fill-rule="evenodd" clip-rule="evenodd" d="M4.01113 16.1981C4.03006 16.2661 4.06365 16.3661 4.11673 16.4976C4.22327 16.7615 4.39273 17.1136 4.63105 17.5252C5.10736 18.3479 5.83686 19.3708 6.83211 20.366C8.81676 22.3507 11.8252 24.1981 16 24.1981C20.1748 24.1981 23.1832 22.3507 25.1679 20.366C26.1631 19.3708 26.8926 18.3479 27.3689 17.5252C27.6073 17.1136 27.7767 16.7615 27.8833 16.4976C27.9364 16.3661 27.9699 16.2661 27.9889 16.1981C27.9699 16.1302 27.9364 16.0301 27.8833 15.8987C27.7767 15.6348 27.6073 15.2827 27.3689 14.871C26.8926 14.0483 26.1631 13.0255 25.1679 12.0302C23.1832 10.0456 20.1748 8.19812 16 8.19812C11.8252 8.19812 8.81676 10.0456 6.83211 12.0302C5.83686 13.0255 5.10736 14.0483 4.63105 14.871C4.39273 15.2827 4.22327 15.6348 4.11673 15.8987C4.06365 16.0302 4.03006 16.1302 4.01113 16.1981ZM5.41789 10.616C7.68324 8.35067 11.1748 6.19812 16 6.19812C20.8252 6.19812 24.3168 8.35067 26.5821 10.616C27.7119 11.7458 28.5449 12.9104 29.0998 13.869C29.3771 14.3479 29.5905 14.7849 29.7378 15.1499C29.8711 15.4801 30 15.8376 30 16.1981C30 16.5586 29.8711 16.9162 29.7378 17.2463C29.5905 17.6114 29.3771 18.0483 29.0998 18.5273C28.5449 19.4858 27.7119 20.6505 26.5821 21.7802C24.3168 24.0456 20.8252 26.1981 16 26.1981C11.1748 26.1981 7.68324 24.0456 5.41789 21.7802C4.28814 20.6505 3.45514 19.4858 2.9002 18.5273C2.6229 18.0483 2.40955 17.6114 2.26217 17.2463C2.12888 16.9162 2 16.5586 2 16.1981C2 15.8376 2.12888 15.4801 2.26217 15.1499C2.40955 14.7849 2.6229 14.3479 2.9002 13.869C3.45514 12.9104 4.28814 11.7458 5.41789 10.616Z" fill="#333D47"/>
<path fill-rule="evenodd" clip-rule="evenodd" d="M16 12.1981C13.7909 12.1981 12 13.989 12 16.1981C12 18.4073 13.7909 20.1981 16 20.1981C18.2091 20.1981 20 18.4073 20 16.1981C20 13.989 18.2091 12.1981 16 12.1981ZM10 16.1981C10 12.8844 12.6863 10.1981 16 10.1981C19.3137 10.1981 22 12.8844 22 16.1981C22 19.5118 19.3137 22.1981 16 22.1981C12.6863 22.1981 10 19.5118 10 16.1981Z" fill="#333D47"/>
</svg>
