<svg width="32" height="33" viewBox="0 0 32 33" fill="none" xmlns="http://www.w3.org/2000/svg">
<path fill-rule="evenodd" clip-rule="evenodd" d="M5.41789 10.616C7.68324 8.35067 11.1748 6.19812 16 6.19812C20.8252 6.19812 24.3168 8.35067 26.5821 10.616C27.7119 11.7458 28.5449 12.9104 29.0998 13.869C29.3771 14.3479 29.5905 14.7849 29.7378 15.1499C29.8711 15.4801 30 15.8376 30 16.1981C30 16.5586 29.8711 16.9162 29.7378 17.2463C29.5905 17.6114 29.3771 18.0483 29.0998 18.5273C28.5449 19.4858 27.7119 20.6505 26.5821 21.7802C24.3168 24.0456 20.8252 26.1981 16 26.1981C11.1748 26.1981 7.68324 24.0456 5.41789 21.7802C4.28814 20.6505 3.45514 19.4858 2.9002 18.5273C2.6229 18.0483 2.40955 17.6114 2.26217 17.2463C2.12888 16.9162 2 16.5586 2 16.1981C2 15.8376 2.12888 15.4801 2.26217 15.1499C2.40955 14.7849 2.6229 14.3479 2.9002 13.869C3.45514 12.9104 4.28814 11.7458 5.41789 10.616ZM16 21.1981C18.7614 21.1981 21 18.9595 21 16.1981C21 13.4367 18.7614 11.1981 16 11.1981C13.2386 11.1981 11 13.4367 11 16.1981C11 18.9595 13.2386 21.1981 16 21.1981Z" fill="#333D47"/>
</svg>
