<svg width="32" height="33" viewBox="0 0 32 33" fill="none" xmlns="http://www.w3.org/2000/svg">
<path fill-rule="evenodd" clip-rule="evenodd" d="M16.4472 5.3037C16.786 5.47309 17 5.81935 17 6.19813V26.1981C17 26.5769 16.786 26.9232 16.4472 27.0926C16.1084 27.2619 15.703 27.2254 15.4 26.9981L7.66667 21.1981H3C2.44772 21.1981 2 20.7504 2 20.1981V12.1981C2 11.6458 2.44772 11.1981 3 11.1981H7.66667L15.4 5.39813C15.703 5.17086 16.1084 5.13431 16.4472 5.3037ZM15 8.19813L8.6 12.9981C8.4269 13.1279 8.21637 13.1981 8 13.1981H4V19.1981H8C8.21637 19.1981 8.4269 19.2683 8.6 19.3981L15 24.1981V8.19813Z" fill="#333D47"/>
<path fill-rule="evenodd" clip-rule="evenodd" d="M20.2426 10.5413C20.6332 10.1507 21.2663 10.1507 21.6569 10.5413C24.781 13.6655 24.781 18.7308 21.6569 21.855C21.2663 22.2455 20.6332 22.2455 20.2426 21.855C19.8521 21.4645 19.8521 20.8313 20.2426 20.4408C22.5858 18.0976 22.5858 14.2986 20.2426 11.9555C19.8521 11.565 19.8521 10.9318 20.2426 10.5413Z" fill="#333D47"/>
</svg>
