<svg width="32" height="33" viewBox="0 0 32 33" fill="none" xmlns="http://www.w3.org/2000/svg">
<path fill-rule="evenodd" clip-rule="evenodd" d="M16.4472 5.3037C16.786 5.47309 17 5.81935 17 6.19813V26.1981C17 26.5769 16.786 26.9232 16.4472 27.0926C16.1084 27.2619 15.703 27.2254 15.4 26.9981L7.66667 21.1981H3C2.44772 21.1981 2 20.7504 2 20.1981V12.1981C2 11.6458 2.44772 11.1981 3 11.1981H7.66667L15.4 5.39813C15.703 5.17086 16.1084 5.13431 16.4472 5.3037ZM15 8.19813L8.6 12.9981C8.4269 13.1279 8.21637 13.1981 8 13.1981H4V19.1981H8C8.21637 19.1981 8.4269 19.2683 8.6 19.3981L15 24.1981V8.19813Z" fill="#333D47"/>
</svg>
