<svg width="32" height="33" viewBox="0 0 32 33" fill="none" xmlns="http://www.w3.org/2000/svg">
<path fill-rule="evenodd" clip-rule="evenodd" d="M16 2.19812C16.5523 2.19812 17 2.64584 17 3.19812V29.1981C17 29.7504 16.5523 30.1981 16 30.1981C15.4477 30.1981 15 29.7504 15 29.1981V3.19812C15 2.64584 15.4477 2.19812 16 2.19812Z" fill="#333D47"/>
<path fill-rule="evenodd" clip-rule="evenodd" d="M21 7.19812C21.5523 7.19812 22 7.64584 22 8.19812V24.1981C22 24.7504 21.5523 25.1981 21 25.1981C20.4477 25.1981 20 24.7504 20 24.1981V8.19812C20 7.64584 20.4477 7.19812 21 7.19812Z" fill="#333D47"/>
<path fill-rule="evenodd" clip-rule="evenodd" d="M11 7.19812C11.5523 7.19812 12 7.64584 12 8.19812V24.1981C12 24.7504 11.5523 25.1981 11 25.1981C10.4477 25.1981 10 24.7504 10 24.1981V8.19812C10 7.64584 10.4477 7.19812 11 7.19812Z" fill="#333D47"/>
<path fill-rule="evenodd" clip-rule="evenodd" d="M26 12.1981C26.5523 12.1981 27 12.6458 27 13.1981V19.1981C27 19.7504 26.5523 20.1981 26 20.1981C25.4477 20.1981 25 19.7504 25 19.1981V13.1981C25 12.6458 25.4477 12.1981 26 12.1981Z" fill="#333D47"/>
<path fill-rule="evenodd" clip-rule="evenodd" d="M6 12.1981C6.55228 12.1981 7 12.6458 7 13.1981V19.1981C7 19.7504 6.55228 20.1981 6 20.1981C5.44772 20.1981 5 19.7504 5 19.1981V13.1981C5 12.6458 5.44772 12.1981 6 12.1981Z" fill="#333D47"/>
</svg>
