<svg width="32" height="33" viewBox="0 0 32 33" fill="none" xmlns="http://www.w3.org/2000/svg">
<path fill-rule="evenodd" clip-rule="evenodd" d="M16.999 24.1981C16.999 23.6458 16.5513 23.1981 15.999 23.1981C15.4467 23.1981 14.999 23.6458 14.999 24.1981C14.999 24.7504 15.4467 25.1981 15.999 25.1981C16.5513 25.1981 16.999 24.7504 16.999 24.1981ZM18.999 24.1981C18.999 22.5413 17.6559 21.1981 15.999 21.1981C14.3422 21.1981 12.999 22.5413 12.999 24.1981C12.999 25.855 14.3422 27.1981 15.999 27.1981C17.6559 27.1981 18.999 25.855 18.999 24.1981Z" fill="#333D47"/>
<path fill-rule="evenodd" clip-rule="evenodd" d="M15.9961 7.19812C11.1692 7.19812 6.81363 9.20945 3.71846 12.4427C3.33655 12.8417 2.70353 12.8555 2.30458 12.4736C1.90563 12.0916 1.89182 11.4586 2.27373 11.0597C5.73045 7.44875 10.6013 5.19812 15.9961 5.19812C21.3909 5.19812 26.2617 7.44875 29.7185 11.0597C30.1004 11.4586 30.0866 12.0916 29.6876 12.4736C29.2887 12.8555 28.6556 12.8417 28.2737 12.4427C25.1786 9.20945 20.823 7.19812 15.9961 7.19812ZM15.9961 12.6981C12.7308 12.6981 9.78487 14.0583 7.69068 16.2459C7.30877 16.6449 6.67576 16.6587 6.27681 16.2768C5.87785 15.8949 5.86404 15.2619 6.24595 14.8629C8.70169 12.2976 12.163 10.6981 15.9961 10.6981C19.8292 10.6981 23.2905 12.2976 25.7462 14.8629C26.1281 15.2619 26.1143 15.8949 25.7154 16.2768C25.3164 16.6587 24.6834 16.6449 24.3015 16.2459C22.2073 14.0583 19.2613 12.6981 15.9961 12.6981ZM15.9961 18.1981C14.2925 18.1981 12.7561 18.9072 11.6629 20.0492C11.281 20.4481 10.648 20.4619 10.249 20.08C9.85008 19.6981 9.83626 19.0651 10.2182 18.6661C11.6729 17.1465 13.7246 16.1981 15.9961 16.1981C18.2676 16.1981 20.3193 17.1465 21.774 18.6661C22.1559 19.0651 22.1421 19.6981 21.7432 20.08C21.3442 20.4619 20.7112 20.4481 20.3293 20.0492C19.2361 18.9072 17.6997 18.1981 15.9961 18.1981Z" fill="#333D47"/>
</svg>
