<svg width="32" height="33" viewBox="0 0 32 33" fill="none" xmlns="http://www.w3.org/2000/svg">
<path d="M26.2919 4.49101C26.6824 4.10049 27.3156 4.10049 27.7061 4.49101C28.0967 4.88154 28.0967 5.5147 27.7061 5.90523L25.7315 7.87987C25.7314 7.87985 25.7315 7.8799 25.7315 7.87987L24.2679 9.3436C24.2679 9.34358 24.268 9.34362 24.2679 9.3436L21.6671 11.9443C21.6671 11.9442 21.6671 11.9443 21.6671 11.9443L20.1429 13.4686C20.1429 13.4686 20.143 13.4686 20.1429 13.4686L17.3063 16.305C17.3063 16.305 17.3064 16.305 17.3063 16.305L15.3824 18.2291C15.3824 18.2291 15.3825 18.2291 15.3824 18.2291L5.70613 27.9052C5.31561 28.2958 4.68244 28.2958 4.29192 27.9052C3.90139 27.5147 3.90139 26.8815 4.29192 26.491L10.5184 20.2645C10.4216 20.2194 10.3305 20.158 10.249 20.08C9.85008 19.6981 9.83626 19.0651 10.2182 18.6661C11.3301 17.5046 12.7907 16.6768 14.4317 16.3512L17.9239 12.859C17.2971 12.7532 16.6531 12.6981 15.9961 12.6981C12.7308 12.6981 9.78487 14.0583 7.69068 16.2459C7.30877 16.6449 6.67576 16.6587 6.27681 16.2768C5.87785 15.8949 5.86404 15.2619 6.24595 14.8629C8.70169 12.2976 12.163 10.6981 15.9961 10.6981C17.2435 10.6981 18.4516 10.8675 19.5984 11.1845L22.3552 8.42775C20.3909 7.6346 18.2447 7.19812 15.9961 7.19812C11.1692 7.19812 6.81363 9.20945 3.71846 12.4427C3.33655 12.8417 2.70353 12.8555 2.30458 12.4736C1.90563 12.0916 1.89182 11.4586 2.27373 11.0597C5.73045 7.44875 10.6013 5.19812 15.9961 5.19812C18.8074 5.19812 21.4765 5.80931 23.8772 6.90569L26.2919 4.49101Z" fill="#333D47"/>
<path fill-rule="evenodd" clip-rule="evenodd" d="M18.999 24.1981C18.999 22.5413 17.6559 21.1981 15.999 21.1981C14.3422 21.1981 12.999 22.5413 12.999 24.1981C12.999 25.855 14.3422 27.1981 15.999 27.1981C17.6559 27.1981 18.999 25.855 18.999 24.1981ZM16.999 24.1981C16.999 23.6458 16.5513 23.1981 15.999 23.1981C15.4467 23.1981 14.999 23.6458 14.999 24.1981C14.999 24.7504 15.4467 25.1981 15.999 25.1981C16.5513 25.1981 16.999 24.7504 16.999 24.1981Z" fill="#333D47"/>
<path d="M25.9923 10.4477L27.4219 9.01807C28.2417 9.63632 29.0098 10.3194 29.7185 11.0597C30.1004 11.4586 30.0866 12.0916 29.6876 12.4736C29.2887 12.8555 28.6556 12.8417 28.2737 12.4427C27.5745 11.7123 26.811 11.0443 25.9923 10.4477Z" fill="#333D47"/>
<path d="M23.4788 12.9611L22.0318 14.4081C22.8648 14.9231 23.6273 15.5417 24.3015 16.2459C24.6834 16.6449 25.3164 16.6587 25.7154 16.2768C26.1143 15.8949 26.1281 15.2619 25.7462 14.8629C25.0636 14.1498 24.3033 13.5113 23.4788 12.9611Z" fill="#333D47"/>
<path d="M19.4563 16.9837L17.9251 18.5149C18.8476 18.8279 19.6692 19.3596 20.3293 20.0492C20.7112 20.4481 21.3442 20.4619 21.7432 20.08C22.1421 19.6981 22.1559 19.0651 21.774 18.6661C21.1129 17.9755 20.3285 17.4029 19.4563 16.9837Z" fill="#333D47"/>
</svg>
