<svg width="32" height="33" viewBox="0 0 32 33" fill="none" xmlns="http://www.w3.org/2000/svg">
<path fill-rule="evenodd" clip-rule="evenodd" d="M7 8.19798C5.89543 8.19798 5 9.09341 5 10.198V25.198C5 26.3025 5.89543 27.198 7 27.198H22C23.1046 27.198 24 26.3025 24 25.198V16.198C24 15.6457 24.4477 15.198 25 15.198C25.5523 15.198 26 15.6457 26 16.198V25.198C26 27.4071 24.2091 29.198 22 29.198H7C4.79086 29.198 3 27.4071 3 25.198V10.198C3 7.98884 4.79086 6.19798 7 6.19798H16C16.5523 6.19798 17 6.64569 17 7.19798C17 7.75026 16.5523 8.19798 16 8.19798H7Z" fill="#333D47"/>
<path fill-rule="evenodd" clip-rule="evenodd" d="M23.6729 4.11087C24.8918 2.89192 26.8682 2.89192 28.0871 4.11087C29.3061 5.32982 29.3061 7.30614 28.0871 8.52509L19.7071 16.9051C19.5789 17.0332 19.4184 17.1242 19.2425 17.1681L15.2425 18.1681C14.9018 18.2533 14.5413 18.1535 14.2929 17.9051C14.0445 17.6567 13.9447 17.2962 14.0299 16.9554L15.0299 12.9554C15.0738 12.7796 15.1647 12.619 15.2929 12.4909L23.6729 4.11087Z" fill="#333D47"/>
</svg>
