<svg width="32" height="33" viewBox="0 0 32 33" fill="none" xmlns="http://www.w3.org/2000/svg">
<path fill-rule="evenodd" clip-rule="evenodd" d="M6.40006 2.39818C6.84189 2.06681 7.46869 2.15635 7.80006 2.59818L16.0001 13.5315L24.2001 2.59818C24.5314 2.15635 25.1582 2.06681 25.6001 2.39818C26.0419 2.72955 26.1314 3.35635 25.8001 3.79818L16.8001 15.7982C16.6112 16.05 16.3148 16.1982 16.0001 16.1982C15.6853 16.1982 15.3889 16.05 15.2001 15.7982L6.20006 3.79818C5.86869 3.35635 5.95823 2.72955 6.40006 2.39818Z" fill="#333D47"/>
<path fill-rule="evenodd" clip-rule="evenodd" d="M16.0001 14.1982C16.5523 14.1982 17.0001 14.6459 17.0001 15.1982V29.1982C17.0001 29.7505 16.5523 30.1982 16.0001 30.1982C15.4478 30.1982 15.0001 29.7505 15.0001 29.1982V15.1982C15.0001 14.6459 15.4478 14.1982 16.0001 14.1982Z" fill="#333D47"/>
<path fill-rule="evenodd" clip-rule="evenodd" d="M8.00006 23.1982C8.00006 22.6459 8.44777 22.1982 9.00006 22.1982H23.0001C23.5523 22.1982 24.0001 22.6459 24.0001 23.1982C24.0001 23.7505 23.5523 24.1982 23.0001 24.1982H9.00006C8.44777 24.1982 8.00006 23.7505 8.00006 23.1982Z" fill="#333D47"/>
<path fill-rule="evenodd" clip-rule="evenodd" d="M8.00006 19.1982C8.00006 18.6459 8.44777 18.1982 9.00006 18.1982H23.0001C23.5523 18.1982 24.0001 18.6459 24.0001 19.1982C24.0001 19.7505 23.5523 20.1982 23.0001 20.1982H9.00006C8.44777 20.1982 8.00006 19.7505 8.00006 19.1982Z" fill="#333D47"/>
</svg>
