<svg width="32" height="33" viewBox="0 0 32 33" fill="none" xmlns="http://www.w3.org/2000/svg">
<path d="M19 16.1981C19.5523 16.1981 20 15.7504 20 15.1981C20 14.6458 19.5523 14.1981 19 14.1981H11C10.4477 14.1981 10 14.6458 10 15.1981C10 15.7504 10.4477 16.1981 11 16.1981H19Z" fill="#333D47"/>
<path fill-rule="evenodd" clip-rule="evenodd" d="M15 27.1981C17.9537 27.1981 20.6582 26.1309 22.7489 24.3611L27.293 28.9052C27.6835 29.2957 28.3167 29.2957 28.7072 28.9052C29.0977 28.5147 29.0977 27.8815 28.7072 27.491L24.1631 22.9469C25.9329 20.8562 27 18.1518 27 15.1981C27 8.5707 21.6274 3.19812 15 3.19812C8.37258 3.19812 3 8.5707 3 15.1981C3 21.8255 8.37258 27.1981 15 27.1981ZM15 25.1981C20.5228 25.1981 25 20.721 25 15.1981C25 9.67527 20.5228 5.19812 15 5.19812C9.47715 5.19812 5 9.67527 5 15.1981C5 20.721 9.47715 25.1981 15 25.1981Z" fill="#333D47"/>
</svg>
