<svg width="32" height="33" viewBox="0 0 32 33" fill="none" xmlns="http://www.w3.org/2000/svg">
<path fill-rule="evenodd" clip-rule="evenodd" d="M16 27.9999C22.6274 27.9999 28 22.6273 28 15.9999C28 9.37246 22.6274 3.99988 16 3.99988C9.37258 3.99988 4 9.37246 4 15.9999C4 22.6273 9.37258 27.9999 16 27.9999ZM16 29.9999C23.732 29.9999 30 23.7319 30 15.9999C30 8.26789 23.732 1.99988 16 1.99988C8.26801 1.99988 2 8.26789 2 15.9999C2 23.7319 8.26801 29.9999 16 29.9999Z" fill="#333D47"/>
<path d="M17.5 15.9999C17.5 16.8283 16.8284 17.4999 16 17.4999C15.1716 17.4999 14.5 16.8283 14.5 15.9999C14.5 15.1715 15.1716 14.4999 16 14.4999C16.8284 14.4999 17.5 15.1715 17.5 15.9999Z" fill="#333D47"/>
<path d="M23 15.9999C23 16.8283 22.3284 17.4999 21.5 17.4999C20.6716 17.4999 20 16.8283 20 15.9999C20 15.1715 20.6716 14.4999 21.5 14.4999C22.3284 14.4999 23 15.1715 23 15.9999Z" fill="#333D47"/>
<path d="M12 15.9999C12 16.8283 11.3284 17.4999 10.5 17.4999C9.67157 17.4999 9 16.8283 9 15.9999C9 15.1715 9.67157 14.4999 10.5 14.4999C11.3284 14.4999 12 15.1715 12 15.9999Z" fill="#333D47"/>
</svg>
