<svg width="32" height="33" viewBox="0 0 32 33" fill="none" xmlns="http://www.w3.org/2000/svg">
<path fill-rule="evenodd" clip-rule="evenodd" d="M16 29.9997C23.732 29.9997 30 23.7317 30 15.9997C30 8.26771 23.732 1.99969 16 1.99969C8.26801 1.99969 2 8.26771 2 15.9997C2 23.7317 8.26801 29.9997 16 29.9997ZM16 17.4997C16.8284 17.4997 17.5 16.8281 17.5 15.9997C17.5 15.1713 16.8284 14.4997 16 14.4997C15.1716 14.4997 14.5 15.1713 14.5 15.9997C14.5 16.8281 15.1716 17.4997 16 17.4997ZM23 15.9997C23 16.8281 22.3284 17.4997 21.5 17.4997C20.6716 17.4997 20 16.8281 20 15.9997C20 15.1713 20.6716 14.4997 21.5 14.4997C22.3284 14.4997 23 15.1713 23 15.9997ZM10.5 17.4997C11.3284 17.4997 12 16.8281 12 15.9997C12 15.1713 11.3284 14.4997 10.5 14.4997C9.67157 14.4997 9 15.1713 9 15.9997C9 16.8281 9.67157 17.4997 10.5 17.4997Z" fill="#333D47"/>
</svg>
