<svg width="32" height="33" viewBox="0 0 32 33" fill="none" xmlns="http://www.w3.org/2000/svg">
<path fill-rule="evenodd" clip-rule="evenodd" d="M16 29.9999C23.732 29.9999 30 23.7319 30 15.9999C30 8.26789 23.732 1.99988 16 1.99988C8.26801 1.99988 2 8.26789 2 15.9999C2 23.7319 8.26801 29.9999 16 29.9999ZM10 10.9999C9.44772 10.9999 9 11.4476 9 11.9999C9 12.5522 9.44772 12.9999 10 12.9999H22C22.5523 12.9999 23 12.5522 23 11.9999C23 11.4476 22.5523 10.9999 22 10.9999H10ZM9 15.9999C9 15.4476 9.44772 14.9999 10 14.9999H22C22.5523 14.9999 23 15.4476 23 15.9999C23 16.5522 22.5523 16.9999 22 16.9999H10C9.44772 16.9999 9 16.5522 9 15.9999ZM10 18.9999C9.44772 18.9999 9 19.4476 9 19.9999C9 20.5522 9.44772 20.9999 10 20.9999H22C22.5523 20.9999 23 20.5522 23 19.9999C23 19.4476 22.5523 18.9999 22 18.9999H10Z" fill="#333D47"/>
</svg>
