<svg width="32" height="33" viewBox="0 0 32 33" fill="none" xmlns="http://www.w3.org/2000/svg">
<path fill-rule="evenodd" clip-rule="evenodd" d="M28 15.9999C28 9.37246 22.6274 3.99988 16 3.99988C9.37258 3.99988 4 9.37246 4 15.9999C4 22.6273 9.37258 27.9999 16 27.9999C22.6274 27.9999 28 22.6273 28 15.9999ZM30 15.9999C30 8.26789 23.732 1.99988 16 1.99988C8.26801 1.99988 2 8.26789 2 15.9999C2 23.7319 8.26801 29.9999 16 29.9999C23.732 29.9999 30 23.7319 30 15.9999Z" fill="#333D47"/>
<path d="M16 14.4999C16.8284 14.4999 17.5 15.1715 17.5 15.9999C17.5 16.8283 16.8284 17.4999 16 17.4999C15.1716 17.4999 14.5 16.8283 14.5 15.9999C14.5 15.1715 15.1716 14.4999 16 14.4999Z" fill="#333D47"/>
<path d="M16 8.99988C16.8284 8.99988 17.5 9.67145 17.5 10.4999C17.5 11.3283 16.8284 11.9999 16 11.9999C15.1716 11.9999 14.5 11.3283 14.5 10.4999C14.5 9.67145 15.1716 8.99988 16 8.99988Z" fill="#333D47"/>
<path d="M16 19.9999C16.8284 19.9999 17.5 20.6715 17.5 21.4999C17.5 22.3283 16.8284 22.9999 16 22.9999C15.1716 22.9999 14.5 22.3283 14.5 21.4999C14.5 20.6715 15.1716 19.9999 16 19.9999Z" fill="#333D47"/>
</svg>
