<svg width="32" height="33" viewBox="0 0 32 33" fill="none" xmlns="http://www.w3.org/2000/svg">
<path fill-rule="evenodd" clip-rule="evenodd" d="M3 4.19812C3 3.64584 3.44772 3.19812 4 3.19812H14C14.5523 3.19812 15 3.64584 15 4.19812V16.1981C15 16.7504 14.5523 17.1981 14 17.1981H4C3.44772 17.1981 3 16.7504 3 16.1981V4.19812ZM5 15.1981V5.19812H13V15.1981H5Z" fill="#333D47"/>
<path fill-rule="evenodd" clip-rule="evenodd" d="M17 4.19812C17 3.64584 17.4477 3.19812 18 3.19812H28C28.5523 3.19812 29 3.64584 29 4.19812V12.1981C29 12.7504 28.5523 13.1981 28 13.1981H18C17.4477 13.1981 17 12.7504 17 12.1981V4.19812ZM19 11.1981V5.19812H27V11.1981H19Z" fill="#333D47"/>
<path fill-rule="evenodd" clip-rule="evenodd" d="M4 19.1981C3.44772 19.1981 3 19.6458 3 20.1981V28.1981C3 28.7504 3.44772 29.1981 4 29.1981H14C14.5523 29.1981 15 28.7504 15 28.1981V20.1981C15 19.6458 14.5523 19.1981 14 19.1981H4ZM5 21.1981V27.1981H13V21.1981H5Z" fill="#333D47"/>
<path fill-rule="evenodd" clip-rule="evenodd" d="M17 16.1981C17 15.6458 17.4477 15.1981 18 15.1981H28C28.5523 15.1981 29 15.6458 29 16.1981V28.1981C29 28.7504 28.5523 29.1981 28 29.1981H18C17.4477 29.1981 17 28.7504 17 28.1981V16.1981ZM19 27.1981V17.1981H27V27.1981H19Z" fill="#333D47"/>
</svg>
