<svg width="32" height="33" viewBox="0 0 32 33" fill="none" xmlns="http://www.w3.org/2000/svg">
<path d="M4 2.99988C3.44772 2.99988 3 3.44759 3 3.99988V15.9999C3 16.5522 3.44772 16.9999 4 16.9999H14C14.5523 16.9999 15 16.5522 15 15.9999V3.99988C15 3.44759 14.5523 2.99988 14 2.99988H4Z" fill="#333D47"/>
<path d="M17 3.99988C17 3.44759 17.4477 2.99988 18 2.99988H28C28.5523 2.99988 29 3.44759 29 3.99988V11.9999C29 12.5522 28.5523 12.9999 28 12.9999H18C17.4477 12.9999 17 12.5522 17 11.9999V3.99988Z" fill="#333D47"/>
<path d="M3 19.9999C3 19.4476 3.44772 18.9999 4 18.9999H14C14.5523 18.9999 15 19.4476 15 19.9999V27.9999C15 28.5522 14.5523 28.9999 14 28.9999H4C3.44772 28.9999 3 28.5522 3 27.9999V19.9999Z" fill="#333D47"/>
<path d="M17 15.9999C17 15.4476 17.4477 14.9999 18 14.9999H28C28.5523 14.9999 29 15.4476 29 15.9999V27.9999C29 28.5522 28.5523 28.9999 28 28.9999H18C17.4477 28.9999 17 28.5522 17 27.9999V15.9999Z" fill="#333D47"/>
</svg>
