<svg width="32" height="33" viewBox="0 0 32 33" fill="none" xmlns="http://www.w3.org/2000/svg">
<path fill-rule="evenodd" clip-rule="evenodd" d="M5 5.19812V13.1981H13V5.19812H5ZM4 3.19812C3.44772 3.19812 3 3.64584 3 4.19812V14.1981C3 14.7504 3.44772 15.1981 4 15.1981H14C14.5523 15.1981 15 14.7504 15 14.1981V4.19812C15 3.64584 14.5523 3.19812 14 3.19812H4Z" fill="#333D47"/>
<path fill-rule="evenodd" clip-rule="evenodd" d="M19 5.19812V13.1981H27V5.19812H19ZM18 3.19812C17.4477 3.19812 17 3.64584 17 4.19812V14.1981C17 14.7504 17.4477 15.1981 18 15.1981H28C28.5523 15.1981 29 14.7504 29 14.1981V4.19812C29 3.64584 28.5523 3.19812 28 3.19812H18Z" fill="#333D47"/>
<path fill-rule="evenodd" clip-rule="evenodd" d="M5 19.1981V27.1981H13V19.1981H5ZM4 17.1981C3.44772 17.1981 3 17.6458 3 18.1981V28.1981C3 28.7504 3.44772 29.1981 4 29.1981H14C14.5523 29.1981 15 28.7504 15 28.1981V18.1981C15 17.6458 14.5523 17.1981 14 17.1981H4Z" fill="#333D47"/>
<path fill-rule="evenodd" clip-rule="evenodd" d="M19 19.1981V27.1981H27V19.1981H19ZM18 17.1981C17.4477 17.1981 17 17.6458 17 18.1981V28.1981C17 28.7504 17.4477 29.1981 18 29.1981H28C28.5523 29.1981 29 28.7504 29 28.1981V18.1981C29 17.6458 28.5523 17.1981 28 17.1981H18Z" fill="#333D47"/>
</svg>
