<svg width="32" height="33" viewBox="0 0 32 33" fill="none" xmlns="http://www.w3.org/2000/svg">
<path d="M3 3.99988C3 3.44759 3.44772 2.99988 4 2.99988H14C14.5523 2.99988 15 3.44759 15 3.99988V13.9999C15 14.5522 14.5523 14.9999 14 14.9999H4C3.44772 14.9999 3 14.5522 3 13.9999V3.99988Z" fill="#333D47"/>
<path d="M17 3.99988C17 3.44759 17.4477 2.99988 18 2.99988H28C28.5523 2.99988 29 3.44759 29 3.99988V13.9999C29 14.5522 28.5523 14.9999 28 14.9999H18C17.4477 14.9999 17 14.5522 17 13.9999V3.99988Z" fill="#333D47"/>
<path d="M3 17.9999C3 17.4476 3.44772 16.9999 4 16.9999H14C14.5523 16.9999 15 17.4476 15 17.9999V27.9999C15 28.5522 14.5523 28.9999 14 28.9999H4C3.44772 28.9999 3 28.5522 3 27.9999V17.9999Z" fill="#333D47"/>
<path d="M17 17.9999C17 17.4476 17.4477 16.9999 18 16.9999H28C28.5523 16.9999 29 17.4476 29 17.9999V27.9999C29 28.5522 28.5523 28.9999 28 28.9999H18C17.4477 28.9999 17 28.5522 17 27.9999V17.9999Z" fill="#333D47"/>
</svg>
