<svg width="32" height="33" viewBox="0 0 32 33" fill="none" xmlns="http://www.w3.org/2000/svg">
<path d="M16 14.1981C17.1046 14.1981 18 15.0936 18 16.1981C18 17.3027 17.1046 18.1981 16 18.1981C14.8954 18.1981 14 17.3027 14 16.1981C14 15.0936 14.8954 14.1981 16 14.1981Z" fill="#333D47"/>
<path d="M16 5.19812C17.1046 5.19812 18 6.09355 18 7.19812C18 8.30269 17.1046 9.19812 16 9.19812C14.8954 9.19812 14 8.30269 14 7.19812C14 6.09355 14.8954 5.19812 16 5.19812Z" fill="#333D47"/>
<path d="M16 23.1981C17.1046 23.1981 18 24.0936 18 25.1981C18 26.3027 17.1046 27.1981 16 27.1981C14.8954 27.1981 14 26.3027 14 25.1981C14 24.0936 14.8954 23.1981 16 23.1981Z" fill="#333D47"/>
</svg>
