<svg width="32" height="33" viewBox="0 0 32 33" fill="none" xmlns="http://www.w3.org/2000/svg">
<path fill-rule="evenodd" clip-rule="evenodd" d="M4 9.19812C4 8.64584 4.44772 8.19812 5 8.19812H27C27.5523 8.19812 28 8.64584 28 9.19812C28 9.7504 27.5523 10.1981 27 10.1981H5C4.44772 10.1981 4 9.7504 4 9.19812Z" fill="#333D47"/>
<path fill-rule="evenodd" clip-rule="evenodd" d="M4 16.1981C4 15.6458 4.44772 15.1981 5 15.1981H27C27.5523 15.1981 28 15.6458 28 16.1981C28 16.7504 27.5523 17.1981 27 17.1981H5C4.44772 17.1981 4 16.7504 4 16.1981Z" fill="#333D47"/>
<path fill-rule="evenodd" clip-rule="evenodd" d="M4 23.1981C4 22.6458 4.44772 22.1981 5 22.1981H27C27.5523 22.1981 28 22.6458 28 23.1981C28 23.7504 27.5523 24.1981 27 24.1981H5C4.44772 24.1981 4 23.7504 4 23.1981Z" fill="#333D47"/>
</svg>
