<svg width="32" height="33" viewBox="0 0 32 33" fill="none" xmlns="http://www.w3.org/2000/svg">
<path d="M16.6 3.19988C16.2444 2.93321 15.7556 2.93321 15.4 3.19988L3.4 12.1999C3.14819 12.3887 3 12.6851 3 12.9999V27.9999C3 28.5522 3.44772 28.9999 4 28.9999H12C12.5523 28.9999 13 28.5522 13 27.9999V22.9999C13 21.343 14.3431 19.9999 16 19.9999C17.6569 19.9999 19 21.343 19 22.9999V27.9999C19 28.5522 19.4477 28.9999 20 28.9999H28C28.5523 28.9999 29 28.5522 29 27.9999V12.9999C29 12.6851 28.8518 12.3887 28.6 12.1999L16.6 3.19988Z" fill="#333D47"/>
</svg>
