<svg width="32" height="33" viewBox="0 0 32 33" fill="none" xmlns="http://www.w3.org/2000/svg">
<path fill-rule="evenodd" clip-rule="evenodd" d="M15.4 3.39812C15.7556 3.13145 16.2444 3.13145 16.6 3.39812L28.6 12.3981C28.8518 12.587 29 12.8834 29 13.1981V28.1981C29 28.7504 28.5523 29.1981 28 29.1981H20C19.4477 29.1981 19 28.7504 19 28.1981V23.1981C19 21.5413 17.6569 20.1981 16 20.1981C14.3431 20.1981 13 21.5413 13 23.1981V28.1981C13 28.7504 12.5523 29.1981 12 29.1981H4C3.44772 29.1981 3 28.7504 3 28.1981V13.1981C3 12.8834 3.14819 12.587 3.4 12.3981L15.4 3.39812ZM5 13.6981V27.1981H11V23.1981C11 20.4367 13.2386 18.1981 16 18.1981C18.7614 18.1981 21 20.4367 21 23.1981V27.1981H27V13.6981L16 5.44812L5 13.6981Z" fill="#333D47"/>
</svg>
