<svg width="32" height="33" viewBox="0 0 32 33" fill="none" xmlns="http://www.w3.org/2000/svg">
<path d="M18 16.1981C18 17.3027 17.1046 18.1981 16 18.1981C14.8954 18.1981 14 17.3027 14 16.1981C14 15.0936 14.8954 14.1981 16 14.1981C17.1046 14.1981 18 15.0936 18 16.1981Z" fill="#333D47"/>
<path d="M9 16.1981C9 17.3027 8.10457 18.1981 7 18.1981C5.89543 18.1981 5 17.3027 5 16.1981C5 15.0936 5.89543 14.1981 7 14.1981C8.10457 14.1981 9 15.0936 9 16.1981Z" fill="#333D47"/>
<path d="M27 16.1981C27 17.3027 26.1046 18.1981 25 18.1981C23.8954 18.1981 23 17.3027 23 16.1981C23 15.0936 23.8954 14.1981 25 14.1981C26.1046 14.1981 27 15.0936 27 16.1981Z" fill="#333D47"/>
<path d="M18 25.1981C18 26.3027 17.1046 27.1981 16 27.1981C14.8954 27.1981 14 26.3027 14 25.1981C14 24.0935 14.8954 23.1981 16 23.1981C17.1046 23.1981 18 24.0935 18 25.1981Z" fill="#333D47"/>
<path d="M18 7.19812C18 8.30269 17.1046 9.19812 16 9.19812C14.8954 9.19812 14 8.30269 14 7.19812C14 6.09355 14.8954 5.19812 16 5.19812C17.1046 5.19812 18 6.09355 18 7.19812Z" fill="#333D47"/>
<path d="M9 7.19812C9 8.30269 8.10457 9.19812 7 9.19812C5.89543 9.19812 5 8.30269 5 7.19812C5 6.09355 5.89543 5.19812 7 5.19812C8.10457 5.19812 9 6.09355 9 7.19812Z" fill="#333D47"/>
<path d="M27 7.19812C27 8.30269 26.1046 9.19812 25 9.19812C23.8954 9.19812 23 8.30269 23 7.19812C23 6.09355 23.8954 5.19812 25 5.19812C26.1046 5.19812 27 6.09355 27 7.19812Z" fill="#333D47"/>
</svg>
