<svg width="32" height="33" viewBox="0 0 32 33" fill="none" xmlns="http://www.w3.org/2000/svg">
<path fill-rule="evenodd" clip-rule="evenodd" d="M25 5.19794H7C5.89543 5.19794 5 6.09337 5 7.19794V25.1979C5 26.3025 5.89543 27.1979 7 27.1979H25C26.1046 27.1979 27 26.3025 27 25.1979V7.19794C27 6.09337 26.1046 5.19794 25 5.19794ZM7 3.19794C4.79086 3.19794 3 4.9888 3 7.19794V25.1979C3 27.4071 4.79086 29.1979 7 29.1979H25C27.2091 29.1979 29 27.4071 29 25.1979V7.19794C29 4.9888 27.2091 3.19794 25 3.19794H7Z" fill="#333D47"/>
<path fill-rule="evenodd" clip-rule="evenodd" d="M23 16.1979C23 16.7502 22.5523 17.1979 22 17.1979H10C9.44771 17.1979 9 16.7502 9 16.1979C9 15.6457 9.44771 15.1979 10 15.1979H22C22.5523 15.1979 23 15.6457 23 16.1979Z" fill="#333D47"/>
<path fill-rule="evenodd" clip-rule="evenodd" d="M16 9.19794C16.5523 9.19794 17 9.64565 17 10.1979V22.1979C17 22.7502 16.5523 23.1979 16 23.1979C15.4477 23.1979 15 22.7502 15 22.1979V10.1979C15 9.64565 15.4477 9.19794 16 9.19794Z" fill="#333D47"/>
</svg>
