<svg xmlns="http://www.w3.org/2000/svg" width="32" height="33" viewBox="0 0 32 33" fill="none">
  <path fill-rule="evenodd" clip-rule="evenodd" d="M5.18182 8.56176C6.93909 8.56176 8.36364 7.13721 8.36364 5.37994C8.36364 3.62267 6.93909 2.19812 5.18182 2.19812C3.42455 2.19812 2 3.62267 2 5.37994C2 7.13721 3.42455 8.56176 5.18182 8.56176ZM8.36364 30.1981V11.1072H2V30.1981H8.36364ZM10.9091 11.1072H16.6364V13.5841C17.5483 12.3861 19.4947 11.1072 23 11.1072C28.5113 11.1072 30 16.6059 30 20.0163V30.1981H23.6364V20.0163C23.6364 18.7436 23 16.1981 20.4545 16.1981C18.647 16.1981 17.3743 17.4817 16.6364 18.6816V30.1981H10.9091V11.1072Z" fill="#333D47"/>
</svg>