<svg xmlns="http://www.w3.org/2000/svg" width="32" height="33" viewBox="0 0 32 33" fill="none">
  <path d="M6.07604 22.0387C3.83021 22.0387 2 23.869 2 26.1075C2 28.3533 3.83021 30.1617 6.07604 30.1617C8.32917 30.1617 10.1521 28.346 10.1521 26.1075C10.1521 23.869 8.32917 22.0387 6.07604 22.0387Z" fill="#333D47"/>
  <path d="M2 11.5315V17.3575C5.5 17.3575 8.86146 18.3929 11.3333 20.8648C13.8052 23.3367 14.8333 26.6908 14.8333 30.1981H20.6667C20.6667 19.9971 12.2083 11.5315 2 11.5315Z" fill="#333D47"/>
  <path d="M2 2.19812V8.02416C14.4688 8.02416 24.1594 17.7221 24.1594 30.1981H30C30 14.7617 17.4583 2.19812 2 2.19812Z" fill="#333D47"/>
</svg>