<svg xmlns="http://www.w3.org/2000/svg" width="32" height="33" viewBox="0 0 32 33" fill="none">
  <path d="M10.8054 27.574C21.3715 27.574 27.1507 18.82 27.1507 11.2287C27.1507 10.98 27.1507 10.7325 27.1339 10.4861C28.2582 9.67291 29.2287 8.66599 30 7.51253C28.9516 7.97733 27.8394 8.28201 26.7005 8.41637C27.8998 7.6985 28.7973 6.56928 29.2261 5.23893C28.0984 5.90814 26.8647 6.37972 25.5782 6.63333C24.7121 5.71233 23.5666 5.10247 22.3189 4.89812C21.0712 4.69377 19.791 4.90633 18.6763 5.50289C17.5616 6.09945 16.6746 7.04676 16.1525 8.19823C15.6305 9.3497 15.5025 10.6411 15.7883 11.8727C13.5044 11.7581 11.27 11.1646 9.23036 10.1305C7.19068 9.09651 5.39122 7.64513 3.9488 5.87061C3.21418 7.13527 2.98918 8.63237 3.31962 10.0571C3.65005 11.4818 4.51107 12.7271 5.72736 13.5392C4.8131 13.5125 3.91876 13.2658 3.12 12.8202V12.893C3.12036 14.2193 3.57949 15.5047 4.41952 16.5311C5.25954 17.5575 6.42874 18.2617 7.7288 18.5244C6.88306 18.7551 5.99569 18.7888 5.13488 18.6229C5.50212 19.7643 6.21683 20.7624 7.17911 21.4777C8.14139 22.193 9.30313 22.5897 10.5019 22.6124C9.31084 23.5486 7.94687 24.2408 6.48802 24.6494C5.02917 25.0579 3.50408 25.1749 2 24.9935C4.62714 26.6793 7.68391 27.5736 10.8054 27.5695" fill="#333D47"/>
</svg>