<svg xmlns="http://www.w3.org/2000/svg" width="32" height="33" viewBox="0 0 32 33" fill="none">
  <path d="M24.3669 18.8303C24.6688 18.8263 24.9572 18.7047 25.1707 18.4912C25.3842 18.2777 25.5059 17.9893 25.5098 17.6874C25.5098 17.0536 25.002 16.5445 24.3669 16.5445C23.7318 16.5445 23.224 17.0536 23.224 17.6874C23.224 18.3238 23.7331 18.8303 24.3669 18.8303ZM18.7351 18.8303C19.037 18.8263 19.3254 18.7047 19.5389 18.4912C19.7524 18.2777 19.874 17.9893 19.878 17.6874C19.878 17.0536 19.3689 16.5445 18.7351 16.5445C18.0987 16.5445 17.5922 17.0536 17.5922 17.6874C17.5922 18.3238 18.1 18.8303 18.7351 18.8303ZM27.0931 25.2448C27.0115 25.2902 26.9464 25.3601 26.9071 25.4447C26.8678 25.5293 26.8563 25.6242 26.8742 25.7158C26.8742 25.7768 26.8742 25.8392 26.906 25.9028C27.0307 26.4336 27.2802 27.2787 27.2802 27.3105C27.2802 27.4034 27.312 27.4658 27.312 27.5294C27.312 27.5663 27.3047 27.6028 27.2906 27.6368C27.2764 27.6709 27.2557 27.7018 27.2295 27.7278C27.2034 27.7539 27.1724 27.7745 27.1383 27.7884C27.1042 27.8024 27.0676 27.8096 27.0307 27.8094C26.9671 27.8094 26.9365 27.7788 26.8742 27.7483L25.03 26.6843C24.8954 26.6102 24.7457 26.5675 24.5922 26.5596C24.4993 26.5596 24.4051 26.5596 24.3427 26.5901C23.4671 26.8408 22.5609 26.9656 21.5924 26.9656C16.9342 26.9656 13.1835 23.8385 13.1835 19.9592C13.1835 16.0812 16.9342 12.9528 21.5924 12.9528C26.2493 12.9528 30 16.0812 30 19.9592C30 22.0554 28.8749 23.9632 27.0931 25.2461V25.2448ZM21.9475 11.6878C21.8287 11.6838 21.7099 11.6817 21.5911 11.6814C16.2787 11.6814 11.9107 15.3214 11.9107 19.9605C11.9107 20.6656 12.0125 21.3478 12.2009 21.9968H12.0876C10.9756 21.9856 9.86987 21.8281 8.79891 21.5285C8.70473 21.4967 8.61055 21.4967 8.51636 21.4967C8.32827 21.5007 8.14464 21.5547 7.98436 21.6532L5.75964 22.9323C5.696 22.9641 5.63364 22.9959 5.57127 22.9959C5.48044 22.9949 5.39361 22.9584 5.32938 22.8942C5.26515 22.83 5.22863 22.7431 5.22764 22.6523C5.22764 22.5581 5.25818 22.4958 5.29 22.4016C5.32055 22.371 5.60309 21.3401 5.75964 20.7165C5.75964 20.6528 5.79018 20.5599 5.79018 20.4976C5.78984 20.3885 5.76427 20.2809 5.71548 20.1833C5.66668 20.0857 5.59599 20.0008 5.50891 19.935C3.34655 18.4039 2 16.1258 2 13.5956C2 8.9463 6.54364 5.19812 12.1182 5.19812C16.91 5.19812 20.9382 7.95867 21.9475 11.6865V11.6878ZM15.3878 12.2198C16.1171 12.2198 16.6936 11.6127 16.6936 10.9139C16.6936 10.1847 16.1171 9.60812 15.3878 9.60812C14.6585 9.60812 14.082 10.1847 14.082 10.9139C14.082 11.6432 14.6585 12.2198 15.3878 12.2198ZM8.69327 12.2198C9.42254 12.2198 10.0004 11.6127 10.0004 10.9139C10.0004 10.1847 9.42254 9.60812 8.69327 9.60812C7.96527 9.60812 7.38745 10.1847 7.38745 10.9139C7.38745 11.6432 7.96527 12.2198 8.69327 12.2198Z" fill="#333D47"/>
</svg>