<svg xmlns="http://www.w3.org/2000/svg" width="32" height="33" viewBox="0 0 32 33" fill="none">
  <path d="M24.2581 12.1589C24.6737 10.8464 23.5253 9.59953 22.2127 9.87844C21.0096 10.1409 20.6377 8.34171 21.8245 8.08467C24.5643 7.48857 26.8722 10.1136 26.0081 12.7222C25.6362 13.8816 23.8862 13.3129 24.2581 12.1589ZM13.747 26.8755C7.93366 26.8755 2 24.0645 2 19.4215C2 16.9988 3.53127 14.2043 6.17271 11.5628C11.6251 6.11043 17.2853 6.0448 15.6666 11.2511C15.4478 11.9675 16.3392 11.5628 16.3392 11.5792C20.6869 9.74172 24.0229 10.6605 22.5737 14.3902C22.3713 14.9043 22.6338 14.9863 23.0276 15.1066C30.4488 17.4199 24.9307 26.8755 13.747 26.8755ZM21.6057 18.8746C21.3104 15.8285 17.3127 13.734 12.6697 14.1879C8.0321 14.6582 4.53206 17.4856 4.82738 20.5317C5.12269 23.5778 9.1204 25.6724 13.7634 25.2185C18.401 24.7481 21.901 21.9208 21.6057 18.8746ZM21.026 4.36588C19.6096 4.67213 20.1072 6.75575 21.4799 6.46043C25.4339 5.62917 28.8519 9.34797 27.5886 13.2418C27.1839 14.5652 29.18 15.2652 29.6339 13.898C31.3785 8.44014 26.6206 3.18461 21.026 4.36588ZM16.733 21.3739C15.7978 23.4958 13.0798 24.6552 10.7665 23.906C8.53523 23.1895 7.5946 20.9856 8.56258 19.0004C9.53056 17.0645 12.0134 15.9707 14.2173 16.534C16.5142 17.1246 17.6682 19.2793 16.733 21.3739ZM12.0134 19.7332C11.3079 19.4379 10.3728 19.7497 9.93525 20.4387C9.48134 21.1442 9.70009 21.97 10.4056 22.2981C11.122 22.6262 12.09 22.3145 12.5439 21.5926C12.9814 20.8762 12.7462 20.045 12.0134 19.7332ZM13.7962 19.0004C13.5173 18.9075 13.1728 19.0332 13.0142 19.2957C12.8556 19.5747 12.9376 19.8754 13.2165 20.0012C13.4955 20.1106 13.8564 19.9848 14.015 19.7059C14.1681 19.4215 14.0751 19.1098 13.7962 19.0004Z" fill="#333D47"/>
</svg>