<svg xmlns="http://www.w3.org/2000/svg" width="32" height="33" viewBox="0 0 32 33" fill="none">
  <path fill-rule="evenodd" clip-rule="evenodd" d="M28.5098 7.83656C28.9443 8.27379 29.2562 8.81745 29.4145 9.41313C30 11.6118 30 16.1968 30 16.1968C30 16.1968 30 20.7818 29.4145 22.9804C29.2562 23.5761 28.9443 24.1197 28.5098 24.557C28.0754 24.9942 27.5337 25.3097 26.9391 25.4718C24.75 26.0604 16 26.0604 16 26.0604C16 26.0604 7.25 26.0604 5.06091 25.4718C4.46625 25.3097 3.9246 24.9942 3.49017 24.557C3.05574 24.1197 2.74376 23.5761 2.58545 22.9804C2 20.7818 2 16.1968 2 16.1968C2 16.1968 2 11.6118 2.58545 9.41313C2.74376 8.81745 3.05574 8.27379 3.49017 7.83656C3.9246 7.39934 4.46625 7.08388 5.06091 6.92177C7.25 6.33313 16 6.33313 16 6.33313C16 6.33313 24.75 6.33313 26.9391 6.92177C27.5337 7.08388 28.0754 7.39934 28.5098 7.83656ZM20.4548 16.1968L13.1366 12.0334V20.3602L20.4548 16.1968Z" fill="#333D47"/>
</svg>